M48
; DRILL file {KiCad (6.0.11)} date Mon May  8 18:46:19 2023
; FORMAT={-:-/ absolute / inch / decimal}
; #@! TF.CreationDate,2023-05-08T18:46:19+08:00
; #@! TF.GenerationSoftware,Kicad,Pcbnew,(6.0.11)
; #@! TF.FileFunction,Plated,1,2,PTH
FMAT,2
INCH
; #@! TA.AperFunction,Plated,PTH,ViaDrill
T1C0.0157
; #@! TA.AperFunction,Plated,PTH,ComponentDrill
T2C0.0295
; #@! TA.AperFunction,Plated,PTH,ComponentDrill
T3C0.0394
; #@! TA.AperFunction,Plated,PTH,ComponentDrill
T4C0.0512
; #@! TA.AperFunction,Plated,PTH,ComponentDrill
T5C0.0591
; #@! TA.AperFunction,Plated,PTH,ComponentDrill
T6C0.0866
%
G90
G05
T1
X1.3931Y-3.7257
X1.397Y-3.9146
X1.4817Y-3.9136
X1.4826Y-3.7266
X2.3547Y-2.9481
X2.4698Y-2.2562
X3.6342Y-2.1794
X3.6342Y-2.3959
X7.896Y-5.1755
X8.5919Y-2.1971
X8.6559Y-2.1922
X8.6874Y-2.2926
X8.7533Y-2.2886
X9.6775Y-4.1883
X9.8832Y-2.8536
X10.4994Y-3.8487
X10.4994Y-3.9678
T2
X1.1625Y-3.1497
X1.3875Y-3.2747
X3.3773Y-4.1538
X3.4561Y-4.1538
X8.208Y-4.1538
X8.2868Y-4.1538
X10.2624Y-2.9237
X10.4874Y-3.0487
T3
X1.1Y-2.7997
X1.1Y-3.3997
X1.2Y-2.7997
X1.2Y-3.3997
X1.3Y-2.7997
X1.3Y-3.3997
X1.4Y-2.7997
X1.4Y-3.3997
X1.5Y-2.7997
X1.5Y-3.3997
X1.6Y-2.7997
X1.6Y-3.3997
X1.7Y-2.7997
X1.7Y-3.3997
X9.95Y-2.7987
X9.95Y-3.3987
X10.05Y-2.7987
X10.05Y-3.3987
X10.15Y-2.7987
X10.15Y-3.3987
X10.25Y-2.7987
X10.25Y-3.3987
X10.35Y-2.7987
X10.35Y-3.3987
X10.45Y-2.7987
X10.45Y-3.3987
X10.55Y-2.7987
X10.55Y-3.3987
T4
X1.1755Y-4.4786
X1.1755Y-4.7345
X10.4738Y-4.4786
X10.4738Y-4.7345
T5
X0.9954Y-4.1814
X1.1529Y-4.0829
X1.7435Y-4.1814
X1.7435Y-4.9294
X1.9009Y-4.0829
X1.9009Y-4.831
X2.4915Y-2.9097
X2.4915Y-3.6577
X2.4915Y-4.4058
X2.649Y-2.8113
X2.649Y-3.5593
X2.649Y-4.3073
X3.2395Y-2.4235
X3.2395Y-3.1715
X3.2395Y-3.9196
X3.397Y-2.3251
X3.397Y-3.0731
X3.397Y-3.8211
X3.9876Y-2.7975
X3.9876Y-3.5455
X3.9876Y-4.2936
X4.145Y-2.6991
X4.145Y-3.4471
X4.145Y-4.1951
X4.3832Y-5.3399
X4.5315Y-5.2281
X4.7356Y-2.7975
X4.7356Y-3.5455
X4.7356Y-4.2936
X4.8931Y-2.6991
X4.8931Y-3.4471
X4.8931Y-4.1951
X5.1744Y-5.4381
X5.356Y-5.3994
X6.4725Y-5.4371
X6.5868Y-5.2907
X6.9113Y-2.7965
X6.9113Y-3.5446
X6.9113Y-4.2926
X7.0688Y-2.6981
X7.0688Y-3.4461
X7.0688Y-4.1942
X7.2681Y-5.3389
X7.4336Y-5.2546
X7.6637Y-2.7965
X7.6637Y-3.5446
X7.6637Y-4.2926
X7.8212Y-2.6981
X7.8212Y-3.4461
X7.8212Y-4.1942
X8.4118Y-2.4225
X8.4118Y-3.1705
X8.4118Y-3.9186
X8.5692Y-2.3241
X8.5692Y-3.0721
X8.5692Y-3.8201
X9.1598Y-2.9087
X9.1598Y-3.6568
X9.1598Y-4.4048
X9.3173Y-2.8103
X9.3173Y-3.5583
X9.3173Y-4.3064
X9.9078Y-4.1804
X9.9078Y-4.9284
X10.0653Y-4.082
X10.0653Y-4.83
X10.6559Y-4.1804
X10.8133Y-4.082
T6
X1.085Y-4.952
X2.2208Y-2.1843
X4.3616Y-5.5722
X5.2139Y-2.1843
X5.2139Y-4.641
X6.4354Y-2.1836
X6.4354Y-4.6402
X7.2897Y-5.5712
X9.4285Y-2.1836
X10.5643Y-4.9513
T0
M30
