%TF.GenerationSoftware,KiCad,Pcbnew,(6.0.11)*%
%TF.CreationDate,2023-05-08T18:46:19+08:00*%
%TF.ProjectId,DOOOPE,444f4f4f-5045-42e6-9b69-6361645f7063,Rev 1*%
%TF.SameCoordinates,Original*%
%TF.FileFunction,Drillmap*%
%TF.FilePolarity,Positive*%
%FSLAX45Y45*%
G04 Gerber Fmt 4.5, Leading zero omitted, Abs format (unit mm)*
G04 Created by KiCad (PCBNEW (6.0.11)) date 2023-05-08 18:46:19*
%MOMM*%
%LPD*%
G01*
G04 APERTURE LIST*
%ADD10C,0.100000*%
%ADD11C,0.200000*%
%ADD12C,0.040000*%
%ADD13C,0.075000*%
%ADD14C,0.130000*%
%ADD15C,0.150000*%
%ADD16C,0.220000*%
G04 APERTURE END LIST*
D10*
X27985893Y-10933742D02*
G75*
G03*
X28010893Y-10906235I-603J25662D01*
G01*
X16068393Y-10853166D02*
G75*
G03*
X15853393Y-10853166I-107500J-53900D01*
G01*
X16063393Y-7848166D02*
G75*
G03*
X15848393Y-7848166I-107500J-53900D01*
G01*
X20385893Y-5283742D02*
G75*
G03*
X20410893Y-5256235I-603J25662D01*
G01*
X2493393Y-12813166D02*
G75*
G03*
X2518393Y-12840666I25597J-1844D01*
G01*
X27070893Y-12838742D02*
G75*
G03*
X27095893Y-12811235I-603J25662D01*
G01*
X22343393Y-5283735D02*
X24183393Y-5283735D01*
X5405893Y-5285662D02*
G75*
G03*
X5378393Y-5310666I-1843J-25598D01*
G01*
X16083393Y-5311235D02*
X16083393Y-7260666D01*
X7245893Y-5285663D02*
G75*
G03*
X7273393Y-5260666I1847J25593D01*
G01*
X2493393Y-12813166D02*
X2493393Y-10963166D01*
X15840893Y-7260666D02*
G75*
G03*
X16055893Y-7260666I107500J53900D01*
G01*
X13505884Y-5313166D02*
G75*
G03*
X13480893Y-5285666I-25594J1846D01*
G01*
X7300893Y-4570662D02*
G75*
G03*
X7273393Y-4595666I-1843J-25598D01*
G01*
X13505893Y-7261916D02*
X13505893Y-5313166D01*
X28010895Y-9058735D02*
G75*
G03*
X27983393Y-9033735I-25655J-595D01*
G01*
X2493384Y-10963166D02*
G75*
G03*
X2468393Y-10935666I-25594J1846D01*
G01*
X13755893Y-7849416D02*
G75*
G03*
X13540893Y-7849416I-107500J-53900D01*
G01*
X16055893Y-7260666D02*
X16083393Y-7260666D01*
X13505893Y-7849416D02*
X13505893Y-10251916D01*
X13908393Y-14438168D02*
G75*
G03*
X13930893Y-14423166I1577J22009D01*
G01*
X27120893Y-10933734D02*
G75*
G03*
X27095893Y-10961235I597J-25657D01*
G01*
X15658393Y-14421235D02*
X15020893Y-12671235D01*
X27070893Y-12838735D02*
X24210893Y-12838735D01*
X13505893Y-10854416D02*
X13535893Y-10854416D01*
X9178384Y-4598166D02*
G75*
G03*
X9153393Y-4570666I-25594J1846D01*
G01*
X19398393Y-14433735D02*
X15680893Y-14436235D01*
X1605893Y-9035662D02*
G75*
G03*
X1578393Y-9060666I-1843J-25598D01*
G01*
X14568393Y-12673166D02*
X13930893Y-14423166D01*
X9178393Y-5258166D02*
G75*
G03*
X9203393Y-5285666I25597J-1844D01*
G01*
X13760893Y-7261916D02*
X15840893Y-7260666D01*
X14568392Y-12673166D02*
G75*
G03*
X14555893Y-12645666I-18952J7976D01*
G01*
X15848393Y-10250666D02*
G75*
G03*
X16063393Y-10250666I107500J53900D01*
G01*
X27095893Y-10961235D02*
X27095893Y-12811235D01*
X22315896Y-5258735D02*
G75*
G03*
X22343393Y-5283735I25654J595D01*
G01*
X15658400Y-14421232D02*
G75*
G03*
X15680893Y-14436235I20920J7002D01*
G01*
X5405893Y-5285666D02*
X7245893Y-5285666D01*
X20435893Y-4568735D02*
X22288393Y-4568735D01*
X5378393Y-6495666D02*
X5378393Y-5310666D01*
X24420893Y-6708735D02*
X27095893Y-6708735D01*
X13755893Y-10251916D02*
X15848393Y-10250666D01*
X2468393Y-10935666D02*
X1603393Y-10935666D01*
X13750893Y-10854416D02*
X15853393Y-10853166D01*
X24210893Y-6493735D02*
G75*
G03*
X24420893Y-6708735I205717J-9125D01*
G01*
X20435893Y-4568734D02*
G75*
G03*
X20410893Y-4596235I597J-25657D01*
G01*
X1578393Y-10908166D02*
X1578393Y-9060666D01*
X13755893Y-7849416D02*
X15848393Y-7848166D01*
X22315893Y-4593735D02*
X22315893Y-5258735D01*
X13548393Y-7261916D02*
G75*
G03*
X13760893Y-7261916I106250J53273D01*
G01*
X24210895Y-5308735D02*
G75*
G03*
X24183393Y-5283735I-25655J-595D01*
G01*
X9203393Y-5285666D02*
X13480893Y-5285666D01*
X2493393Y-6710666D02*
X5168393Y-6710666D01*
X22315895Y-4593735D02*
G75*
G03*
X22288393Y-4568735I-25655J-595D01*
G01*
X2493393Y-9010666D02*
X2493393Y-6710666D01*
X27095896Y-9008735D02*
G75*
G03*
X27123393Y-9033735I25654J595D01*
G01*
X15033390Y-12643727D02*
G75*
G03*
X15020893Y-12671235I6450J-19523D01*
G01*
X24210893Y-5308735D02*
X24210893Y-6493735D01*
X13505893Y-7261916D02*
X13548393Y-7261916D01*
X16108393Y-5283735D02*
X20385893Y-5283735D01*
X16108393Y-5283734D02*
G75*
G03*
X16083393Y-5311235I597J-25657D01*
G01*
X5378393Y-12840666D02*
X2518393Y-12840666D01*
X27985893Y-10933735D02*
X27120893Y-10933735D01*
X1605893Y-9035666D02*
X2465893Y-9035666D01*
X13505893Y-7849416D02*
X13540893Y-7849416D01*
X10190893Y-14435666D02*
G75*
G03*
X5378393Y-12840666I-5200846J-7634471D01*
G01*
X16063393Y-10250666D02*
X16083393Y-10250666D01*
X28010893Y-9058735D02*
X28010893Y-10906235D01*
X20410893Y-5256235D02*
X20410893Y-4596235D01*
X27095893Y-6708735D02*
X27095893Y-9008735D01*
X13505893Y-10854416D02*
X13505893Y-12238166D01*
X13505893Y-10251916D02*
X13540893Y-10251916D01*
X24210893Y-12838735D02*
G75*
G03*
X19398393Y-14433735I388347J-9229475D01*
G01*
X2465893Y-9035663D02*
G75*
G03*
X2493393Y-9010666I1847J25593D01*
G01*
X16063394Y-12266238D02*
G75*
G03*
X16083393Y-12236235I-10414J28608D01*
G01*
X16063393Y-7848166D02*
X16083393Y-7848166D01*
X9178393Y-4598166D02*
X9178393Y-5258166D01*
X13505898Y-12238167D02*
G75*
G03*
X13525893Y-12268166I30922J-1053D01*
G01*
X13750893Y-10854416D02*
G75*
G03*
X13535893Y-10854416I-107500J-53900D01*
G01*
X27123393Y-9033735D02*
X27983393Y-9033735D01*
X16083393Y-10853166D02*
X16083393Y-12236235D01*
X13525893Y-12268166D02*
X14555893Y-12645666D01*
X7300893Y-4570666D02*
X9153393Y-4570666D01*
X7273393Y-5260666D02*
X7273393Y-4595666D01*
X13908393Y-14438166D02*
X10190893Y-14435666D01*
X5168393Y-6710671D02*
G75*
G03*
X5378393Y-6495666I4277J205881D01*
G01*
X13540893Y-10251916D02*
G75*
G03*
X13755893Y-10251916I107500J53900D01*
G01*
X15033393Y-12643735D02*
X16063393Y-12266235D01*
X16083393Y-7848166D02*
X16083393Y-10250666D01*
X16068393Y-10853166D02*
X16083393Y-10853166D01*
X1578393Y-10908166D02*
G75*
G03*
X1603393Y-10935666I25597J-1844D01*
G01*
D11*
D12*
X3518393Y-9443166D02*
X3558393Y-9483166D01*
X3558393Y-9443166D02*
X3518393Y-9483166D01*
X3528393Y-9923166D02*
X3568393Y-9963166D01*
X3568393Y-9923166D02*
X3528393Y-9963166D01*
X3743393Y-9920666D02*
X3783393Y-9960666D01*
X3783393Y-9920666D02*
X3743393Y-9960666D01*
X3745893Y-9445666D02*
X3785893Y-9485666D01*
X3785893Y-9445666D02*
X3745893Y-9485666D01*
X5960893Y-7468166D02*
X6000893Y-7508166D01*
X6000893Y-7468166D02*
X5960893Y-7508166D01*
X6253393Y-5710666D02*
X6293393Y-5750666D01*
X6293393Y-5710666D02*
X6253393Y-5750666D01*
X9210893Y-5515666D02*
X9250893Y-5555666D01*
X9250893Y-5515666D02*
X9210893Y-5555666D01*
X9210893Y-6065666D02*
X9250893Y-6105666D01*
X9250893Y-6065666D02*
X9210893Y-6105666D01*
X20035893Y-13125666D02*
X20075893Y-13165666D01*
X20075893Y-13125666D02*
X20035893Y-13165666D01*
X21803393Y-5560666D02*
X21843393Y-5600666D01*
X21843393Y-5560666D02*
X21803393Y-5600666D01*
X21965893Y-5548166D02*
X22005893Y-5588166D01*
X22005893Y-5548166D02*
X21965893Y-5588166D01*
X22045893Y-5803166D02*
X22085893Y-5843166D01*
X22085893Y-5803166D02*
X22045893Y-5843166D01*
X22213393Y-5793166D02*
X22253393Y-5833166D01*
X22253393Y-5793166D02*
X22213393Y-5833166D01*
X24560893Y-10618166D02*
X24600893Y-10658166D01*
X24600893Y-10618166D02*
X24560893Y-10658166D01*
X25083393Y-7228166D02*
X25123393Y-7268166D01*
X25123393Y-7228166D02*
X25083393Y-7268166D01*
X26648393Y-9755666D02*
X26688393Y-9795666D01*
X26688393Y-9755666D02*
X26648393Y-9795666D01*
X26648393Y-10058166D02*
X26688393Y-10098166D01*
X26688393Y-10058166D02*
X26648393Y-10098166D01*
D13*
X2990193Y-8000166D02*
G75*
G03*
X2990193Y-8000166I-37500J0D01*
G01*
X3561693Y-8317666D02*
G75*
G03*
X3561693Y-8317666I-37500J0D01*
G01*
X8615893Y-10550666D02*
G75*
G03*
X8615893Y-10550666I-37500J0D01*
G01*
X8815893Y-10550666D02*
G75*
G03*
X8815893Y-10550666I-37500J0D01*
G01*
X20885893Y-10550666D02*
G75*
G03*
X20885893Y-10550666I-37500J0D01*
G01*
X21085893Y-10550666D02*
G75*
G03*
X21085893Y-10550666I-37500J0D01*
G01*
X26104112Y-7426166D02*
G75*
G03*
X26104112Y-7426166I-37500J0D01*
G01*
X26675612Y-7743666D02*
G75*
G03*
X26675612Y-7743666I-37500J0D01*
G01*
D10*
X2793893Y-7061166D02*
X2793893Y-7161166D01*
X2743893Y-7111166D02*
X2843893Y-7111166D01*
X2793893Y-8585166D02*
X2793893Y-8685166D01*
X2743893Y-8635166D02*
X2843893Y-8635166D01*
X3047893Y-7061166D02*
X3047893Y-7161166D01*
X2997893Y-7111166D02*
X3097893Y-7111166D01*
X3047893Y-8585166D02*
X3047893Y-8685166D01*
X2997893Y-8635166D02*
X3097893Y-8635166D01*
X3301893Y-7061166D02*
X3301893Y-7161166D01*
X3251893Y-7111166D02*
X3351893Y-7111166D01*
X3301893Y-8585166D02*
X3301893Y-8685166D01*
X3251893Y-8635166D02*
X3351893Y-8635166D01*
X3555893Y-7061166D02*
X3555893Y-7161166D01*
X3505893Y-7111166D02*
X3605893Y-7111166D01*
X3555893Y-8585166D02*
X3555893Y-8685166D01*
X3505893Y-8635166D02*
X3605893Y-8635166D01*
X3809893Y-7061166D02*
X3809893Y-7161166D01*
X3759893Y-7111166D02*
X3859893Y-7111166D01*
X3809893Y-8585166D02*
X3809893Y-8685166D01*
X3759893Y-8635166D02*
X3859893Y-8635166D01*
X4063893Y-7061166D02*
X4063893Y-7161166D01*
X4013893Y-7111166D02*
X4113893Y-7111166D01*
X4063893Y-8585166D02*
X4063893Y-8685166D01*
X4013893Y-8635166D02*
X4113893Y-8635166D01*
X4317893Y-7061166D02*
X4317893Y-7161166D01*
X4267893Y-7111166D02*
X4367893Y-7111166D01*
X4317893Y-8585166D02*
X4317893Y-8685166D01*
X4267893Y-8635166D02*
X4367893Y-8635166D01*
X25272912Y-7058666D02*
X25272912Y-7158666D01*
X25222912Y-7108666D02*
X25322912Y-7108666D01*
X25272912Y-8582666D02*
X25272912Y-8682666D01*
X25222912Y-8632666D02*
X25322912Y-8632666D01*
X25526912Y-7058666D02*
X25526912Y-7158666D01*
X25476912Y-7108666D02*
X25576912Y-7108666D01*
X25526912Y-8582666D02*
X25526912Y-8682666D01*
X25476912Y-8632666D02*
X25576912Y-8632666D01*
X25780912Y-7058666D02*
X25780912Y-7158666D01*
X25730912Y-7108666D02*
X25830912Y-7108666D01*
X25780912Y-8582666D02*
X25780912Y-8682666D01*
X25730912Y-8632666D02*
X25830912Y-8632666D01*
X26034912Y-7058666D02*
X26034912Y-7158666D01*
X25984912Y-7108666D02*
X26084912Y-7108666D01*
X26034912Y-8582666D02*
X26034912Y-8682666D01*
X25984912Y-8632666D02*
X26084912Y-8632666D01*
X26288912Y-7058666D02*
X26288912Y-7158666D01*
X26238912Y-7108666D02*
X26338912Y-7108666D01*
X26288912Y-8582666D02*
X26288912Y-8682666D01*
X26238912Y-8632666D02*
X26338912Y-8632666D01*
X26542912Y-7058666D02*
X26542912Y-7158666D01*
X26492912Y-7108666D02*
X26592912Y-7108666D01*
X26542912Y-8582666D02*
X26542912Y-8682666D01*
X26492912Y-8632666D02*
X26592912Y-8632666D01*
X26796912Y-7058666D02*
X26796912Y-7158666D01*
X26746912Y-7108666D02*
X26846912Y-7108666D01*
X26796912Y-8582666D02*
X26796912Y-8682666D01*
X26746912Y-8632666D02*
X26846912Y-8632666D01*
D14*
X3031855Y-11421629D02*
X3031855Y-11329704D01*
X2939931Y-11329704D01*
X2939931Y-11421629D01*
X3031855Y-11421629D01*
X3031855Y-12071629D02*
X3031855Y-11979704D01*
X2939931Y-11979704D01*
X2939931Y-12071629D01*
X3031855Y-12071629D01*
X26649355Y-11421629D02*
X26649355Y-11329704D01*
X26557431Y-11329704D01*
X26557431Y-11421629D01*
X26649355Y-11421629D01*
X26649355Y-12071629D02*
X26649355Y-11979704D01*
X26557431Y-11979704D01*
X26557431Y-12071629D01*
X26649355Y-12071629D01*
D15*
X2528393Y-10695666D02*
X2603393Y-10620666D01*
X2528393Y-10545666D01*
X2453393Y-10620666D01*
X2528393Y-10695666D01*
X2928393Y-10445666D02*
X3003393Y-10370666D01*
X2928393Y-10295666D01*
X2853393Y-10370666D01*
X2928393Y-10445666D01*
X4428393Y-10695666D02*
X4503393Y-10620666D01*
X4428393Y-10545666D01*
X4353393Y-10620666D01*
X4428393Y-10695666D01*
X4428393Y-12595666D02*
X4503393Y-12520666D01*
X4428393Y-12445666D01*
X4353393Y-12520666D01*
X4428393Y-12595666D01*
X4828393Y-10445666D02*
X4903393Y-10370666D01*
X4828393Y-10295666D01*
X4753393Y-10370666D01*
X4828393Y-10445666D01*
X4828393Y-12345666D02*
X4903393Y-12270666D01*
X4828393Y-12195666D01*
X4753393Y-12270666D01*
X4828393Y-12345666D01*
X6328393Y-7465666D02*
X6403393Y-7390666D01*
X6328393Y-7315666D01*
X6253393Y-7390666D01*
X6328393Y-7465666D01*
X6328393Y-9365666D02*
X6403393Y-9290666D01*
X6328393Y-9215666D01*
X6253393Y-9290666D01*
X6328393Y-9365666D01*
X6328393Y-11265666D02*
X6403393Y-11190666D01*
X6328393Y-11115666D01*
X6253393Y-11190666D01*
X6328393Y-11265666D01*
X6728393Y-7215666D02*
X6803393Y-7140666D01*
X6728393Y-7065666D01*
X6653393Y-7140666D01*
X6728393Y-7215666D01*
X6728393Y-9115666D02*
X6803393Y-9040666D01*
X6728393Y-8965666D01*
X6653393Y-9040666D01*
X6728393Y-9115666D01*
X6728393Y-11015666D02*
X6803393Y-10940666D01*
X6728393Y-10865666D01*
X6653393Y-10940666D01*
X6728393Y-11015666D01*
X8228393Y-6230666D02*
X8303393Y-6155666D01*
X8228393Y-6080666D01*
X8153393Y-6155666D01*
X8228393Y-6230666D01*
X8228393Y-8130666D02*
X8303393Y-8055666D01*
X8228393Y-7980666D01*
X8153393Y-8055666D01*
X8228393Y-8130666D01*
X8228393Y-10030666D02*
X8303393Y-9955666D01*
X8228393Y-9880666D01*
X8153393Y-9955666D01*
X8228393Y-10030666D01*
X8628393Y-5980666D02*
X8703393Y-5905666D01*
X8628393Y-5830666D01*
X8553393Y-5905666D01*
X8628393Y-5980666D01*
X8628393Y-7880666D02*
X8703393Y-7805666D01*
X8628393Y-7730666D01*
X8553393Y-7805666D01*
X8628393Y-7880666D01*
X8628393Y-9780666D02*
X8703393Y-9705666D01*
X8628393Y-9630666D01*
X8553393Y-9705666D01*
X8628393Y-9780666D01*
X10128393Y-7180666D02*
X10203393Y-7105666D01*
X10128393Y-7030666D01*
X10053393Y-7105666D01*
X10128393Y-7180666D01*
X10128393Y-9080666D02*
X10203393Y-9005666D01*
X10128393Y-8930666D01*
X10053393Y-9005666D01*
X10128393Y-9080666D01*
X10128393Y-10980666D02*
X10203393Y-10905666D01*
X10128393Y-10830666D01*
X10053393Y-10905666D01*
X10128393Y-10980666D01*
X10528393Y-6930666D02*
X10603393Y-6855666D01*
X10528393Y-6780666D01*
X10453393Y-6855666D01*
X10528393Y-6930666D01*
X10528393Y-8830666D02*
X10603393Y-8755666D01*
X10528393Y-8680666D01*
X10453393Y-8755666D01*
X10528393Y-8830666D01*
X10528393Y-10730666D02*
X10603393Y-10655666D01*
X10528393Y-10580666D01*
X10453393Y-10655666D01*
X10528393Y-10730666D01*
X11133301Y-13638269D02*
X11208301Y-13563269D01*
X11133301Y-13488269D01*
X11058301Y-13563269D01*
X11133301Y-13638269D01*
X11509990Y-13354358D02*
X11584990Y-13279358D01*
X11509990Y-13204358D01*
X11434990Y-13279358D01*
X11509990Y-13354358D01*
X12028393Y-7180666D02*
X12103393Y-7105666D01*
X12028393Y-7030666D01*
X11953393Y-7105666D01*
X12028393Y-7180666D01*
X12028393Y-9080666D02*
X12103393Y-9005666D01*
X12028393Y-8930666D01*
X11953393Y-9005666D01*
X12028393Y-9080666D01*
X12028393Y-10980666D02*
X12103393Y-10905666D01*
X12028393Y-10830666D01*
X11953393Y-10905666D01*
X12028393Y-10980666D01*
X12428393Y-6930666D02*
X12503393Y-6855666D01*
X12428393Y-6780666D01*
X12353393Y-6855666D01*
X12428393Y-6930666D01*
X12428393Y-8830666D02*
X12503393Y-8755666D01*
X12428393Y-8680666D01*
X12353393Y-8755666D01*
X12428393Y-8830666D01*
X12428393Y-10730666D02*
X12503393Y-10655666D01*
X12428393Y-10580666D01*
X12353393Y-10655666D01*
X12428393Y-10730666D01*
X13142920Y-13887673D02*
X13217920Y-13812673D01*
X13142920Y-13737673D01*
X13067920Y-13812673D01*
X13142920Y-13887673D01*
X13604302Y-13789558D02*
X13679302Y-13714558D01*
X13604302Y-13639558D01*
X13529302Y-13714558D01*
X13604302Y-13789558D01*
X16440116Y-13885173D02*
X16515116Y-13810173D01*
X16440116Y-13735173D01*
X16365116Y-13810173D01*
X16440116Y-13885173D01*
X16730488Y-13513441D02*
X16805488Y-13438441D01*
X16730488Y-13363441D01*
X16655488Y-13438441D01*
X16730488Y-13513441D01*
X17554643Y-7178166D02*
X17629643Y-7103166D01*
X17554643Y-7028166D01*
X17479643Y-7103166D01*
X17554643Y-7178166D01*
X17554643Y-9078166D02*
X17629643Y-9003166D01*
X17554643Y-8928166D01*
X17479643Y-9003166D01*
X17554643Y-9078166D01*
X17554643Y-10978166D02*
X17629643Y-10903166D01*
X17554643Y-10828166D01*
X17479643Y-10903166D01*
X17554643Y-10978166D01*
X17954643Y-6928166D02*
X18029643Y-6853166D01*
X17954643Y-6778166D01*
X17879643Y-6853166D01*
X17954643Y-6928166D01*
X17954643Y-8828166D02*
X18029643Y-8753166D01*
X17954643Y-8678166D01*
X17879643Y-8753166D01*
X17954643Y-8828166D01*
X17954643Y-10728166D02*
X18029643Y-10653166D01*
X17954643Y-10578166D01*
X17879643Y-10653166D01*
X17954643Y-10728166D01*
X18460985Y-13635769D02*
X18535985Y-13560769D01*
X18460985Y-13485769D01*
X18385985Y-13560769D01*
X18460985Y-13635769D01*
X18881252Y-13421583D02*
X18956252Y-13346583D01*
X18881252Y-13271583D01*
X18806252Y-13346583D01*
X18881252Y-13421583D01*
X19465893Y-7178166D02*
X19540893Y-7103166D01*
X19465893Y-7028166D01*
X19390893Y-7103166D01*
X19465893Y-7178166D01*
X19465893Y-9078166D02*
X19540893Y-9003166D01*
X19465893Y-8928166D01*
X19390893Y-9003166D01*
X19465893Y-9078166D01*
X19465893Y-10978166D02*
X19540893Y-10903166D01*
X19465893Y-10828166D01*
X19390893Y-10903166D01*
X19465893Y-10978166D01*
X19865893Y-6928166D02*
X19940893Y-6853166D01*
X19865893Y-6778166D01*
X19790893Y-6853166D01*
X19865893Y-6928166D01*
X19865893Y-8828166D02*
X19940893Y-8753166D01*
X19865893Y-8678166D01*
X19790893Y-8753166D01*
X19865893Y-8828166D01*
X19865893Y-10728166D02*
X19940893Y-10653166D01*
X19865893Y-10578166D01*
X19790893Y-10653166D01*
X19865893Y-10728166D01*
X21365893Y-6228166D02*
X21440893Y-6153166D01*
X21365893Y-6078166D01*
X21290893Y-6153166D01*
X21365893Y-6228166D01*
X21365893Y-8128166D02*
X21440893Y-8053166D01*
X21365893Y-7978166D01*
X21290893Y-8053166D01*
X21365893Y-8128166D01*
X21365893Y-10028166D02*
X21440893Y-9953166D01*
X21365893Y-9878166D01*
X21290893Y-9953166D01*
X21365893Y-10028166D01*
X21765893Y-5978166D02*
X21840893Y-5903166D01*
X21765893Y-5828166D01*
X21690893Y-5903166D01*
X21765893Y-5978166D01*
X21765893Y-7878166D02*
X21840893Y-7803166D01*
X21765893Y-7728166D01*
X21690893Y-7803166D01*
X21765893Y-7878166D01*
X21765893Y-9778166D02*
X21840893Y-9703166D01*
X21765893Y-9628166D01*
X21690893Y-9703166D01*
X21765893Y-9778166D01*
X23265893Y-7463166D02*
X23340893Y-7388166D01*
X23265893Y-7313166D01*
X23190893Y-7388166D01*
X23265893Y-7463166D01*
X23265893Y-9363166D02*
X23340893Y-9288166D01*
X23265893Y-9213166D01*
X23190893Y-9288166D01*
X23265893Y-9363166D01*
X23265893Y-11263166D02*
X23340893Y-11188166D01*
X23265893Y-11113166D01*
X23190893Y-11188166D01*
X23265893Y-11263166D01*
X23665893Y-7213166D02*
X23740893Y-7138166D01*
X23665893Y-7063166D01*
X23590893Y-7138166D01*
X23665893Y-7213166D01*
X23665893Y-9113166D02*
X23740893Y-9038166D01*
X23665893Y-8963166D01*
X23590893Y-9038166D01*
X23665893Y-9113166D01*
X23665893Y-11013166D02*
X23740893Y-10938166D01*
X23665893Y-10863166D01*
X23590893Y-10938166D01*
X23665893Y-11013166D01*
X25165893Y-10693166D02*
X25240893Y-10618166D01*
X25165893Y-10543166D01*
X25090893Y-10618166D01*
X25165893Y-10693166D01*
X25165893Y-12593166D02*
X25240893Y-12518166D01*
X25165893Y-12443166D01*
X25090893Y-12518166D01*
X25165893Y-12593166D01*
X25565893Y-10443166D02*
X25640893Y-10368166D01*
X25565893Y-10293166D01*
X25490893Y-10368166D01*
X25565893Y-10443166D01*
X25565893Y-12343166D02*
X25640893Y-12268166D01*
X25565893Y-12193166D01*
X25490893Y-12268166D01*
X25565893Y-12343166D01*
X27065893Y-10693166D02*
X27140893Y-10618166D01*
X27065893Y-10543166D01*
X26990893Y-10618166D01*
X27065893Y-10693166D01*
X27465893Y-10443166D02*
X27540893Y-10368166D01*
X27465893Y-10293166D01*
X27390893Y-10368166D01*
X27465893Y-10443166D01*
D16*
X2645893Y-12468166D02*
X2865893Y-12688166D01*
X2865893Y-12468166D02*
X2645893Y-12688166D01*
X2865893Y-12578166D02*
G75*
G03*
X2865893Y-12578166I-110000J0D01*
G01*
X5530893Y-5438166D02*
X5750893Y-5658166D01*
X5750893Y-5438166D02*
X5530893Y-5658166D01*
X5750893Y-5548166D02*
G75*
G03*
X5750893Y-5548166I-110000J0D01*
G01*
X10968393Y-14043349D02*
X11188393Y-14263349D01*
X11188393Y-14043349D02*
X10968393Y-14263349D01*
X11188393Y-14153349D02*
G75*
G03*
X11188393Y-14153349I-110000J0D01*
G01*
X13133393Y-5438166D02*
X13353393Y-5658166D01*
X13353393Y-5438166D02*
X13133393Y-5658166D01*
X13353393Y-5548166D02*
G75*
G03*
X13353393Y-5548166I-110000J0D01*
G01*
X13133393Y-11678166D02*
X13353393Y-11898166D01*
X13353393Y-11678166D02*
X13133393Y-11898166D01*
X13353393Y-11788166D02*
G75*
G03*
X13353393Y-11788166I-110000J0D01*
G01*
X16235893Y-5436235D02*
X16455893Y-5656235D01*
X16455893Y-5436235D02*
X16235893Y-5656235D01*
X16455893Y-5546235D02*
G75*
G03*
X16455893Y-5546235I-110000J0D01*
G01*
X16235893Y-11676235D02*
X16455893Y-11896235D01*
X16455893Y-11676235D02*
X16235893Y-11896235D01*
X16455893Y-11786235D02*
G75*
G03*
X16455893Y-11786235I-110000J0D01*
G01*
X18405893Y-14040849D02*
X18625893Y-14260849D01*
X18625893Y-14040849D02*
X18405893Y-14260849D01*
X18625893Y-14150849D02*
G75*
G03*
X18625893Y-14150849I-110000J0D01*
G01*
X23838393Y-5436235D02*
X24058393Y-5656235D01*
X24058393Y-5436235D02*
X23838393Y-5656235D01*
X24058393Y-5546235D02*
G75*
G03*
X24058393Y-5546235I-110000J0D01*
G01*
X26723393Y-12466235D02*
X26943393Y-12686235D01*
X26943393Y-12466235D02*
X26723393Y-12686235D01*
X26943393Y-12576235D02*
G75*
G03*
X26943393Y-12576235I-110000J0D01*
G01*
D11*
X1830946Y-14753701D02*
X1830946Y-14553701D01*
X1878565Y-14553701D01*
X1907136Y-14563225D01*
X1926184Y-14582272D01*
X1935708Y-14601320D01*
X1945231Y-14639415D01*
X1945231Y-14667987D01*
X1935708Y-14706082D01*
X1926184Y-14725130D01*
X1907136Y-14744177D01*
X1878565Y-14753701D01*
X1830946Y-14753701D01*
X2030946Y-14753701D02*
X2030946Y-14620368D01*
X2030946Y-14658463D02*
X2040469Y-14639415D01*
X2049993Y-14629891D01*
X2069041Y-14620368D01*
X2088089Y-14620368D01*
X2154755Y-14753701D02*
X2154755Y-14620368D01*
X2154755Y-14553701D02*
X2145231Y-14563225D01*
X2154755Y-14572749D01*
X2164279Y-14563225D01*
X2154755Y-14553701D01*
X2154755Y-14572749D01*
X2278565Y-14753701D02*
X2259517Y-14744177D01*
X2249993Y-14725130D01*
X2249993Y-14553701D01*
X2383327Y-14753701D02*
X2364279Y-14744177D01*
X2354755Y-14725130D01*
X2354755Y-14553701D01*
X2611898Y-14753701D02*
X2611898Y-14553701D01*
X2678565Y-14696558D01*
X2745231Y-14553701D01*
X2745231Y-14753701D01*
X2926184Y-14753701D02*
X2926184Y-14648939D01*
X2916660Y-14629891D01*
X2897612Y-14620368D01*
X2859517Y-14620368D01*
X2840469Y-14629891D01*
X2926184Y-14744177D02*
X2907136Y-14753701D01*
X2859517Y-14753701D01*
X2840469Y-14744177D01*
X2830946Y-14725130D01*
X2830946Y-14706082D01*
X2840469Y-14687034D01*
X2859517Y-14677511D01*
X2907136Y-14677511D01*
X2926184Y-14667987D01*
X3021422Y-14620368D02*
X3021422Y-14820368D01*
X3021422Y-14629891D02*
X3040469Y-14620368D01*
X3078565Y-14620368D01*
X3097612Y-14629891D01*
X3107136Y-14639415D01*
X3116660Y-14658463D01*
X3116660Y-14715606D01*
X3107136Y-14734653D01*
X3097612Y-14744177D01*
X3078565Y-14753701D01*
X3040469Y-14753701D01*
X3021422Y-14744177D01*
X3202374Y-14734653D02*
X3211898Y-14744177D01*
X3202374Y-14753701D01*
X3192850Y-14744177D01*
X3202374Y-14734653D01*
X3202374Y-14753701D01*
X3202374Y-14629891D02*
X3211898Y-14639415D01*
X3202374Y-14648939D01*
X3192850Y-14639415D01*
X3202374Y-14629891D01*
X3202374Y-14648939D01*
D12*
X1533327Y-15063225D02*
X1573327Y-15103225D01*
X1573327Y-15063225D02*
X1533327Y-15103225D01*
D11*
X1869041Y-14973701D02*
X1888089Y-14973701D01*
X1907136Y-14983225D01*
X1916660Y-14992749D01*
X1926184Y-15011796D01*
X1935708Y-15049891D01*
X1935708Y-15097511D01*
X1926184Y-15135606D01*
X1916660Y-15154653D01*
X1907136Y-15164177D01*
X1888089Y-15173701D01*
X1869041Y-15173701D01*
X1849993Y-15164177D01*
X1840469Y-15154653D01*
X1830946Y-15135606D01*
X1821422Y-15097511D01*
X1821422Y-15049891D01*
X1830946Y-15011796D01*
X1840469Y-14992749D01*
X1849993Y-14983225D01*
X1869041Y-14973701D01*
X2021422Y-15154653D02*
X2030946Y-15164177D01*
X2021422Y-15173701D01*
X2011898Y-15164177D01*
X2021422Y-15154653D01*
X2021422Y-15173701D01*
X2202374Y-15040368D02*
X2202374Y-15173701D01*
X2154755Y-14964177D02*
X2107136Y-15107034D01*
X2230946Y-15107034D01*
X2345231Y-14973701D02*
X2364279Y-14973701D01*
X2383327Y-14983225D01*
X2392851Y-14992749D01*
X2402374Y-15011796D01*
X2411898Y-15049891D01*
X2411898Y-15097511D01*
X2402374Y-15135606D01*
X2392851Y-15154653D01*
X2383327Y-15164177D01*
X2364279Y-15173701D01*
X2345231Y-15173701D01*
X2326184Y-15164177D01*
X2316660Y-15154653D01*
X2307136Y-15135606D01*
X2297612Y-15097511D01*
X2297612Y-15049891D01*
X2307136Y-15011796D01*
X2316660Y-14992749D01*
X2326184Y-14983225D01*
X2345231Y-14973701D01*
X2535708Y-14973701D02*
X2554755Y-14973701D01*
X2573803Y-14983225D01*
X2583327Y-14992749D01*
X2592851Y-15011796D01*
X2602374Y-15049891D01*
X2602374Y-15097511D01*
X2592851Y-15135606D01*
X2583327Y-15154653D01*
X2573803Y-15164177D01*
X2554755Y-15173701D01*
X2535708Y-15173701D01*
X2516660Y-15164177D01*
X2507136Y-15154653D01*
X2497612Y-15135606D01*
X2488089Y-15097511D01*
X2488089Y-15049891D01*
X2497612Y-15011796D01*
X2507136Y-14992749D01*
X2516660Y-14983225D01*
X2535708Y-14973701D01*
X2688089Y-15173701D02*
X2688089Y-15040368D01*
X2688089Y-15059415D02*
X2697612Y-15049891D01*
X2716660Y-15040368D01*
X2745231Y-15040368D01*
X2764279Y-15049891D01*
X2773803Y-15068939D01*
X2773803Y-15173701D01*
X2773803Y-15068939D02*
X2783327Y-15049891D01*
X2802374Y-15040368D01*
X2830946Y-15040368D01*
X2849993Y-15049891D01*
X2859517Y-15068939D01*
X2859517Y-15173701D01*
X2954755Y-15173701D02*
X2954755Y-15040368D01*
X2954755Y-15059415D02*
X2964279Y-15049891D01*
X2983327Y-15040368D01*
X3011898Y-15040368D01*
X3030946Y-15049891D01*
X3040469Y-15068939D01*
X3040469Y-15173701D01*
X3040469Y-15068939D02*
X3049993Y-15049891D01*
X3069041Y-15040368D01*
X3097612Y-15040368D01*
X3116660Y-15049891D01*
X3126184Y-15068939D01*
X3126184Y-15173701D01*
X3516660Y-14964177D02*
X3345231Y-15221320D01*
X3773803Y-14973701D02*
X3792850Y-14973701D01*
X3811898Y-14983225D01*
X3821422Y-14992749D01*
X3830946Y-15011796D01*
X3840469Y-15049891D01*
X3840469Y-15097511D01*
X3830946Y-15135606D01*
X3821422Y-15154653D01*
X3811898Y-15164177D01*
X3792850Y-15173701D01*
X3773803Y-15173701D01*
X3754755Y-15164177D01*
X3745231Y-15154653D01*
X3735708Y-15135606D01*
X3726184Y-15097511D01*
X3726184Y-15049891D01*
X3735708Y-15011796D01*
X3745231Y-14992749D01*
X3754755Y-14983225D01*
X3773803Y-14973701D01*
X3926184Y-15154653D02*
X3935708Y-15164177D01*
X3926184Y-15173701D01*
X3916660Y-15164177D01*
X3926184Y-15154653D01*
X3926184Y-15173701D01*
X4059517Y-14973701D02*
X4078565Y-14973701D01*
X4097612Y-14983225D01*
X4107136Y-14992749D01*
X4116660Y-15011796D01*
X4126184Y-15049891D01*
X4126184Y-15097511D01*
X4116660Y-15135606D01*
X4107136Y-15154653D01*
X4097612Y-15164177D01*
X4078565Y-15173701D01*
X4059517Y-15173701D01*
X4040469Y-15164177D01*
X4030946Y-15154653D01*
X4021422Y-15135606D01*
X4011898Y-15097511D01*
X4011898Y-15049891D01*
X4021422Y-15011796D01*
X4030946Y-14992749D01*
X4040469Y-14983225D01*
X4059517Y-14973701D01*
X4316660Y-15173701D02*
X4202374Y-15173701D01*
X4259517Y-15173701D02*
X4259517Y-14973701D01*
X4240470Y-15002272D01*
X4221422Y-15021320D01*
X4202374Y-15030844D01*
X4497612Y-14973701D02*
X4402374Y-14973701D01*
X4392851Y-15068939D01*
X4402374Y-15059415D01*
X4421422Y-15049891D01*
X4469041Y-15049891D01*
X4488089Y-15059415D01*
X4497612Y-15068939D01*
X4507136Y-15087987D01*
X4507136Y-15135606D01*
X4497612Y-15154653D01*
X4488089Y-15164177D01*
X4469041Y-15173701D01*
X4421422Y-15173701D01*
X4402374Y-15164177D01*
X4392851Y-15154653D01*
X4573803Y-14973701D02*
X4707136Y-14973701D01*
X4621422Y-15173701D01*
X4773803Y-14973701D02*
X4773803Y-15011796D01*
X4849993Y-14973701D02*
X4849993Y-15011796D01*
X5145231Y-15249891D02*
X5135708Y-15240368D01*
X5116660Y-15211796D01*
X5107136Y-15192749D01*
X5097612Y-15164177D01*
X5088089Y-15116558D01*
X5088089Y-15078463D01*
X5097612Y-15030844D01*
X5107136Y-15002272D01*
X5116660Y-14983225D01*
X5135708Y-14954653D01*
X5145231Y-14945130D01*
X5326184Y-15173701D02*
X5211898Y-15173701D01*
X5269041Y-15173701D02*
X5269041Y-14973701D01*
X5249993Y-15002272D01*
X5230946Y-15021320D01*
X5211898Y-15030844D01*
X5392851Y-14973701D02*
X5526184Y-14973701D01*
X5440470Y-15173701D01*
X5754755Y-15173701D02*
X5754755Y-14973701D01*
X5840469Y-15173701D02*
X5840469Y-15068939D01*
X5830946Y-15049891D01*
X5811898Y-15040368D01*
X5783327Y-15040368D01*
X5764279Y-15049891D01*
X5754755Y-15059415D01*
X5964279Y-15173701D02*
X5945231Y-15164177D01*
X5935708Y-15154653D01*
X5926184Y-15135606D01*
X5926184Y-15078463D01*
X5935708Y-15059415D01*
X5945231Y-15049891D01*
X5964279Y-15040368D01*
X5992850Y-15040368D01*
X6011898Y-15049891D01*
X6021422Y-15059415D01*
X6030946Y-15078463D01*
X6030946Y-15135606D01*
X6021422Y-15154653D01*
X6011898Y-15164177D01*
X5992850Y-15173701D01*
X5964279Y-15173701D01*
X6145231Y-15173701D02*
X6126184Y-15164177D01*
X6116660Y-15145130D01*
X6116660Y-14973701D01*
X6297612Y-15164177D02*
X6278565Y-15173701D01*
X6240469Y-15173701D01*
X6221422Y-15164177D01*
X6211898Y-15145130D01*
X6211898Y-15068939D01*
X6221422Y-15049891D01*
X6240469Y-15040368D01*
X6278565Y-15040368D01*
X6297612Y-15049891D01*
X6307136Y-15068939D01*
X6307136Y-15087987D01*
X6211898Y-15107034D01*
X6383327Y-15164177D02*
X6402374Y-15173701D01*
X6440469Y-15173701D01*
X6459517Y-15164177D01*
X6469041Y-15145130D01*
X6469041Y-15135606D01*
X6459517Y-15116558D01*
X6440469Y-15107034D01*
X6411898Y-15107034D01*
X6392850Y-15097511D01*
X6383327Y-15078463D01*
X6383327Y-15068939D01*
X6392850Y-15049891D01*
X6411898Y-15040368D01*
X6440469Y-15040368D01*
X6459517Y-15049891D01*
X6535708Y-15249891D02*
X6545231Y-15240368D01*
X6564279Y-15211796D01*
X6573803Y-15192749D01*
X6583327Y-15164177D01*
X6592850Y-15116558D01*
X6592850Y-15078463D01*
X6583327Y-15030844D01*
X6573803Y-15002272D01*
X6564279Y-14983225D01*
X6545231Y-14954653D01*
X6535708Y-14945130D01*
D13*
X1573327Y-15347225D02*
G75*
G03*
X1573327Y-15347225I-37500J0D01*
G01*
D11*
X1869041Y-15237701D02*
X1888089Y-15237701D01*
X1907136Y-15247225D01*
X1916660Y-15256749D01*
X1926184Y-15275796D01*
X1935708Y-15313891D01*
X1935708Y-15361511D01*
X1926184Y-15399606D01*
X1916660Y-15418653D01*
X1907136Y-15428177D01*
X1888089Y-15437701D01*
X1869041Y-15437701D01*
X1849993Y-15428177D01*
X1840469Y-15418653D01*
X1830946Y-15399606D01*
X1821422Y-15361511D01*
X1821422Y-15313891D01*
X1830946Y-15275796D01*
X1840469Y-15256749D01*
X1849993Y-15247225D01*
X1869041Y-15237701D01*
X2021422Y-15418653D02*
X2030946Y-15428177D01*
X2021422Y-15437701D01*
X2011898Y-15428177D01*
X2021422Y-15418653D01*
X2021422Y-15437701D01*
X2097612Y-15237701D02*
X2230946Y-15237701D01*
X2145231Y-15437701D01*
X2402374Y-15237701D02*
X2307136Y-15237701D01*
X2297612Y-15332939D01*
X2307136Y-15323415D01*
X2326184Y-15313891D01*
X2373803Y-15313891D01*
X2392851Y-15323415D01*
X2402374Y-15332939D01*
X2411898Y-15351987D01*
X2411898Y-15399606D01*
X2402374Y-15418653D01*
X2392851Y-15428177D01*
X2373803Y-15437701D01*
X2326184Y-15437701D01*
X2307136Y-15428177D01*
X2297612Y-15418653D01*
X2535708Y-15237701D02*
X2554755Y-15237701D01*
X2573803Y-15247225D01*
X2583327Y-15256749D01*
X2592851Y-15275796D01*
X2602374Y-15313891D01*
X2602374Y-15361511D01*
X2592851Y-15399606D01*
X2583327Y-15418653D01*
X2573803Y-15428177D01*
X2554755Y-15437701D01*
X2535708Y-15437701D01*
X2516660Y-15428177D01*
X2507136Y-15418653D01*
X2497612Y-15399606D01*
X2488089Y-15361511D01*
X2488089Y-15313891D01*
X2497612Y-15275796D01*
X2507136Y-15256749D01*
X2516660Y-15247225D01*
X2535708Y-15237701D01*
X2688089Y-15437701D02*
X2688089Y-15304368D01*
X2688089Y-15323415D02*
X2697612Y-15313891D01*
X2716660Y-15304368D01*
X2745231Y-15304368D01*
X2764279Y-15313891D01*
X2773803Y-15332939D01*
X2773803Y-15437701D01*
X2773803Y-15332939D02*
X2783327Y-15313891D01*
X2802374Y-15304368D01*
X2830946Y-15304368D01*
X2849993Y-15313891D01*
X2859517Y-15332939D01*
X2859517Y-15437701D01*
X2954755Y-15437701D02*
X2954755Y-15304368D01*
X2954755Y-15323415D02*
X2964279Y-15313891D01*
X2983327Y-15304368D01*
X3011898Y-15304368D01*
X3030946Y-15313891D01*
X3040469Y-15332939D01*
X3040469Y-15437701D01*
X3040469Y-15332939D02*
X3049993Y-15313891D01*
X3069041Y-15304368D01*
X3097612Y-15304368D01*
X3116660Y-15313891D01*
X3126184Y-15332939D01*
X3126184Y-15437701D01*
X3516660Y-15228177D02*
X3345231Y-15485320D01*
X3773803Y-15237701D02*
X3792850Y-15237701D01*
X3811898Y-15247225D01*
X3821422Y-15256749D01*
X3830946Y-15275796D01*
X3840469Y-15313891D01*
X3840469Y-15361511D01*
X3830946Y-15399606D01*
X3821422Y-15418653D01*
X3811898Y-15428177D01*
X3792850Y-15437701D01*
X3773803Y-15437701D01*
X3754755Y-15428177D01*
X3745231Y-15418653D01*
X3735708Y-15399606D01*
X3726184Y-15361511D01*
X3726184Y-15313891D01*
X3735708Y-15275796D01*
X3745231Y-15256749D01*
X3754755Y-15247225D01*
X3773803Y-15237701D01*
X3926184Y-15418653D02*
X3935708Y-15428177D01*
X3926184Y-15437701D01*
X3916660Y-15428177D01*
X3926184Y-15418653D01*
X3926184Y-15437701D01*
X4059517Y-15237701D02*
X4078565Y-15237701D01*
X4097612Y-15247225D01*
X4107136Y-15256749D01*
X4116660Y-15275796D01*
X4126184Y-15313891D01*
X4126184Y-15361511D01*
X4116660Y-15399606D01*
X4107136Y-15418653D01*
X4097612Y-15428177D01*
X4078565Y-15437701D01*
X4059517Y-15437701D01*
X4040469Y-15428177D01*
X4030946Y-15418653D01*
X4021422Y-15399606D01*
X4011898Y-15361511D01*
X4011898Y-15313891D01*
X4021422Y-15275796D01*
X4030946Y-15256749D01*
X4040469Y-15247225D01*
X4059517Y-15237701D01*
X4202374Y-15256749D02*
X4211898Y-15247225D01*
X4230946Y-15237701D01*
X4278565Y-15237701D01*
X4297612Y-15247225D01*
X4307136Y-15256749D01*
X4316660Y-15275796D01*
X4316660Y-15294844D01*
X4307136Y-15323415D01*
X4192850Y-15437701D01*
X4316660Y-15437701D01*
X4411898Y-15437701D02*
X4449993Y-15437701D01*
X4469041Y-15428177D01*
X4478565Y-15418653D01*
X4497612Y-15390082D01*
X4507136Y-15351987D01*
X4507136Y-15275796D01*
X4497612Y-15256749D01*
X4488089Y-15247225D01*
X4469041Y-15237701D01*
X4430946Y-15237701D01*
X4411898Y-15247225D01*
X4402374Y-15256749D01*
X4392851Y-15275796D01*
X4392851Y-15323415D01*
X4402374Y-15342463D01*
X4411898Y-15351987D01*
X4430946Y-15361511D01*
X4469041Y-15361511D01*
X4488089Y-15351987D01*
X4497612Y-15342463D01*
X4507136Y-15323415D01*
X4688089Y-15237701D02*
X4592851Y-15237701D01*
X4583327Y-15332939D01*
X4592851Y-15323415D01*
X4611898Y-15313891D01*
X4659517Y-15313891D01*
X4678565Y-15323415D01*
X4688089Y-15332939D01*
X4697612Y-15351987D01*
X4697612Y-15399606D01*
X4688089Y-15418653D01*
X4678565Y-15428177D01*
X4659517Y-15437701D01*
X4611898Y-15437701D01*
X4592851Y-15428177D01*
X4583327Y-15418653D01*
X4773803Y-15237701D02*
X4773803Y-15275796D01*
X4849993Y-15237701D02*
X4849993Y-15275796D01*
X5145231Y-15513891D02*
X5135708Y-15504368D01*
X5116660Y-15475796D01*
X5107136Y-15456749D01*
X5097612Y-15428177D01*
X5088089Y-15380558D01*
X5088089Y-15342463D01*
X5097612Y-15294844D01*
X5107136Y-15266272D01*
X5116660Y-15247225D01*
X5135708Y-15218653D01*
X5145231Y-15209130D01*
X5249993Y-15323415D02*
X5230946Y-15313891D01*
X5221422Y-15304368D01*
X5211898Y-15285320D01*
X5211898Y-15275796D01*
X5221422Y-15256749D01*
X5230946Y-15247225D01*
X5249993Y-15237701D01*
X5288089Y-15237701D01*
X5307136Y-15247225D01*
X5316660Y-15256749D01*
X5326184Y-15275796D01*
X5326184Y-15285320D01*
X5316660Y-15304368D01*
X5307136Y-15313891D01*
X5288089Y-15323415D01*
X5249993Y-15323415D01*
X5230946Y-15332939D01*
X5221422Y-15342463D01*
X5211898Y-15361511D01*
X5211898Y-15399606D01*
X5221422Y-15418653D01*
X5230946Y-15428177D01*
X5249993Y-15437701D01*
X5288089Y-15437701D01*
X5307136Y-15428177D01*
X5316660Y-15418653D01*
X5326184Y-15399606D01*
X5326184Y-15361511D01*
X5316660Y-15342463D01*
X5307136Y-15332939D01*
X5288089Y-15323415D01*
X5564279Y-15437701D02*
X5564279Y-15237701D01*
X5649993Y-15437701D02*
X5649993Y-15332939D01*
X5640469Y-15313891D01*
X5621422Y-15304368D01*
X5592850Y-15304368D01*
X5573803Y-15313891D01*
X5564279Y-15323415D01*
X5773803Y-15437701D02*
X5754755Y-15428177D01*
X5745231Y-15418653D01*
X5735708Y-15399606D01*
X5735708Y-15342463D01*
X5745231Y-15323415D01*
X5754755Y-15313891D01*
X5773803Y-15304368D01*
X5802374Y-15304368D01*
X5821422Y-15313891D01*
X5830946Y-15323415D01*
X5840469Y-15342463D01*
X5840469Y-15399606D01*
X5830946Y-15418653D01*
X5821422Y-15428177D01*
X5802374Y-15437701D01*
X5773803Y-15437701D01*
X5954755Y-15437701D02*
X5935708Y-15428177D01*
X5926184Y-15409130D01*
X5926184Y-15237701D01*
X6107136Y-15428177D02*
X6088089Y-15437701D01*
X6049993Y-15437701D01*
X6030946Y-15428177D01*
X6021422Y-15409130D01*
X6021422Y-15332939D01*
X6030946Y-15313891D01*
X6049993Y-15304368D01*
X6088089Y-15304368D01*
X6107136Y-15313891D01*
X6116660Y-15332939D01*
X6116660Y-15351987D01*
X6021422Y-15371034D01*
X6192850Y-15428177D02*
X6211898Y-15437701D01*
X6249993Y-15437701D01*
X6269041Y-15428177D01*
X6278565Y-15409130D01*
X6278565Y-15399606D01*
X6269041Y-15380558D01*
X6249993Y-15371034D01*
X6221422Y-15371034D01*
X6202374Y-15361511D01*
X6192850Y-15342463D01*
X6192850Y-15332939D01*
X6202374Y-15313891D01*
X6221422Y-15304368D01*
X6249993Y-15304368D01*
X6269041Y-15313891D01*
X6345231Y-15513891D02*
X6354755Y-15504368D01*
X6373803Y-15475796D01*
X6383327Y-15456749D01*
X6392850Y-15428177D01*
X6402374Y-15380558D01*
X6402374Y-15342463D01*
X6392850Y-15294844D01*
X6383327Y-15266272D01*
X6373803Y-15247225D01*
X6354755Y-15218653D01*
X6345231Y-15209130D01*
D10*
X1523327Y-15561225D02*
X1523327Y-15661225D01*
X1473327Y-15611225D02*
X1573327Y-15611225D01*
D11*
X1935708Y-15701701D02*
X1821422Y-15701701D01*
X1878565Y-15701701D02*
X1878565Y-15501701D01*
X1859517Y-15530272D01*
X1840469Y-15549320D01*
X1821422Y-15558844D01*
X2021422Y-15682653D02*
X2030946Y-15692177D01*
X2021422Y-15701701D01*
X2011898Y-15692177D01*
X2021422Y-15682653D01*
X2021422Y-15701701D01*
X2154755Y-15501701D02*
X2173803Y-15501701D01*
X2192851Y-15511225D01*
X2202374Y-15520749D01*
X2211898Y-15539796D01*
X2221422Y-15577891D01*
X2221422Y-15625511D01*
X2211898Y-15663606D01*
X2202374Y-15682653D01*
X2192851Y-15692177D01*
X2173803Y-15701701D01*
X2154755Y-15701701D01*
X2135708Y-15692177D01*
X2126184Y-15682653D01*
X2116660Y-15663606D01*
X2107136Y-15625511D01*
X2107136Y-15577891D01*
X2116660Y-15539796D01*
X2126184Y-15520749D01*
X2135708Y-15511225D01*
X2154755Y-15501701D01*
X2345231Y-15501701D02*
X2364279Y-15501701D01*
X2383327Y-15511225D01*
X2392851Y-15520749D01*
X2402374Y-15539796D01*
X2411898Y-15577891D01*
X2411898Y-15625511D01*
X2402374Y-15663606D01*
X2392851Y-15682653D01*
X2383327Y-15692177D01*
X2364279Y-15701701D01*
X2345231Y-15701701D01*
X2326184Y-15692177D01*
X2316660Y-15682653D01*
X2307136Y-15663606D01*
X2297612Y-15625511D01*
X2297612Y-15577891D01*
X2307136Y-15539796D01*
X2316660Y-15520749D01*
X2326184Y-15511225D01*
X2345231Y-15501701D01*
X2535708Y-15501701D02*
X2554755Y-15501701D01*
X2573803Y-15511225D01*
X2583327Y-15520749D01*
X2592851Y-15539796D01*
X2602374Y-15577891D01*
X2602374Y-15625511D01*
X2592851Y-15663606D01*
X2583327Y-15682653D01*
X2573803Y-15692177D01*
X2554755Y-15701701D01*
X2535708Y-15701701D01*
X2516660Y-15692177D01*
X2507136Y-15682653D01*
X2497612Y-15663606D01*
X2488089Y-15625511D01*
X2488089Y-15577891D01*
X2497612Y-15539796D01*
X2507136Y-15520749D01*
X2516660Y-15511225D01*
X2535708Y-15501701D01*
X2688089Y-15701701D02*
X2688089Y-15568368D01*
X2688089Y-15587415D02*
X2697612Y-15577891D01*
X2716660Y-15568368D01*
X2745231Y-15568368D01*
X2764279Y-15577891D01*
X2773803Y-15596939D01*
X2773803Y-15701701D01*
X2773803Y-15596939D02*
X2783327Y-15577891D01*
X2802374Y-15568368D01*
X2830946Y-15568368D01*
X2849993Y-15577891D01*
X2859517Y-15596939D01*
X2859517Y-15701701D01*
X2954755Y-15701701D02*
X2954755Y-15568368D01*
X2954755Y-15587415D02*
X2964279Y-15577891D01*
X2983327Y-15568368D01*
X3011898Y-15568368D01*
X3030946Y-15577891D01*
X3040469Y-15596939D01*
X3040469Y-15701701D01*
X3040469Y-15596939D02*
X3049993Y-15577891D01*
X3069041Y-15568368D01*
X3097612Y-15568368D01*
X3116660Y-15577891D01*
X3126184Y-15596939D01*
X3126184Y-15701701D01*
X3516660Y-15492177D02*
X3345231Y-15749320D01*
X3773803Y-15501701D02*
X3792850Y-15501701D01*
X3811898Y-15511225D01*
X3821422Y-15520749D01*
X3830946Y-15539796D01*
X3840469Y-15577891D01*
X3840469Y-15625511D01*
X3830946Y-15663606D01*
X3821422Y-15682653D01*
X3811898Y-15692177D01*
X3792850Y-15701701D01*
X3773803Y-15701701D01*
X3754755Y-15692177D01*
X3745231Y-15682653D01*
X3735708Y-15663606D01*
X3726184Y-15625511D01*
X3726184Y-15577891D01*
X3735708Y-15539796D01*
X3745231Y-15520749D01*
X3754755Y-15511225D01*
X3773803Y-15501701D01*
X3926184Y-15682653D02*
X3935708Y-15692177D01*
X3926184Y-15701701D01*
X3916660Y-15692177D01*
X3926184Y-15682653D01*
X3926184Y-15701701D01*
X4059517Y-15501701D02*
X4078565Y-15501701D01*
X4097612Y-15511225D01*
X4107136Y-15520749D01*
X4116660Y-15539796D01*
X4126184Y-15577891D01*
X4126184Y-15625511D01*
X4116660Y-15663606D01*
X4107136Y-15682653D01*
X4097612Y-15692177D01*
X4078565Y-15701701D01*
X4059517Y-15701701D01*
X4040469Y-15692177D01*
X4030946Y-15682653D01*
X4021422Y-15663606D01*
X4011898Y-15625511D01*
X4011898Y-15577891D01*
X4021422Y-15539796D01*
X4030946Y-15520749D01*
X4040469Y-15511225D01*
X4059517Y-15501701D01*
X4192850Y-15501701D02*
X4316660Y-15501701D01*
X4249993Y-15577891D01*
X4278565Y-15577891D01*
X4297612Y-15587415D01*
X4307136Y-15596939D01*
X4316660Y-15615987D01*
X4316660Y-15663606D01*
X4307136Y-15682653D01*
X4297612Y-15692177D01*
X4278565Y-15701701D01*
X4221422Y-15701701D01*
X4202374Y-15692177D01*
X4192850Y-15682653D01*
X4411898Y-15701701D02*
X4449993Y-15701701D01*
X4469041Y-15692177D01*
X4478565Y-15682653D01*
X4497612Y-15654082D01*
X4507136Y-15615987D01*
X4507136Y-15539796D01*
X4497612Y-15520749D01*
X4488089Y-15511225D01*
X4469041Y-15501701D01*
X4430946Y-15501701D01*
X4411898Y-15511225D01*
X4402374Y-15520749D01*
X4392851Y-15539796D01*
X4392851Y-15587415D01*
X4402374Y-15606463D01*
X4411898Y-15615987D01*
X4430946Y-15625511D01*
X4469041Y-15625511D01*
X4488089Y-15615987D01*
X4497612Y-15606463D01*
X4507136Y-15587415D01*
X4678565Y-15568368D02*
X4678565Y-15701701D01*
X4630946Y-15492177D02*
X4583327Y-15635034D01*
X4707136Y-15635034D01*
X4773803Y-15501701D02*
X4773803Y-15539796D01*
X4849993Y-15501701D02*
X4849993Y-15539796D01*
X5145231Y-15777891D02*
X5135708Y-15768368D01*
X5116660Y-15739796D01*
X5107136Y-15720749D01*
X5097612Y-15692177D01*
X5088089Y-15644558D01*
X5088089Y-15606463D01*
X5097612Y-15558844D01*
X5107136Y-15530272D01*
X5116660Y-15511225D01*
X5135708Y-15482653D01*
X5145231Y-15473130D01*
X5211898Y-15520749D02*
X5221422Y-15511225D01*
X5240470Y-15501701D01*
X5288089Y-15501701D01*
X5307136Y-15511225D01*
X5316660Y-15520749D01*
X5326184Y-15539796D01*
X5326184Y-15558844D01*
X5316660Y-15587415D01*
X5202374Y-15701701D01*
X5326184Y-15701701D01*
X5440470Y-15587415D02*
X5421422Y-15577891D01*
X5411898Y-15568368D01*
X5402374Y-15549320D01*
X5402374Y-15539796D01*
X5411898Y-15520749D01*
X5421422Y-15511225D01*
X5440470Y-15501701D01*
X5478565Y-15501701D01*
X5497612Y-15511225D01*
X5507136Y-15520749D01*
X5516660Y-15539796D01*
X5516660Y-15549320D01*
X5507136Y-15568368D01*
X5497612Y-15577891D01*
X5478565Y-15587415D01*
X5440470Y-15587415D01*
X5421422Y-15596939D01*
X5411898Y-15606463D01*
X5402374Y-15625511D01*
X5402374Y-15663606D01*
X5411898Y-15682653D01*
X5421422Y-15692177D01*
X5440470Y-15701701D01*
X5478565Y-15701701D01*
X5497612Y-15692177D01*
X5507136Y-15682653D01*
X5516660Y-15663606D01*
X5516660Y-15625511D01*
X5507136Y-15606463D01*
X5497612Y-15596939D01*
X5478565Y-15587415D01*
X5754755Y-15701701D02*
X5754755Y-15501701D01*
X5840469Y-15701701D02*
X5840469Y-15596939D01*
X5830946Y-15577891D01*
X5811898Y-15568368D01*
X5783327Y-15568368D01*
X5764279Y-15577891D01*
X5754755Y-15587415D01*
X5964279Y-15701701D02*
X5945231Y-15692177D01*
X5935708Y-15682653D01*
X5926184Y-15663606D01*
X5926184Y-15606463D01*
X5935708Y-15587415D01*
X5945231Y-15577891D01*
X5964279Y-15568368D01*
X5992850Y-15568368D01*
X6011898Y-15577891D01*
X6021422Y-15587415D01*
X6030946Y-15606463D01*
X6030946Y-15663606D01*
X6021422Y-15682653D01*
X6011898Y-15692177D01*
X5992850Y-15701701D01*
X5964279Y-15701701D01*
X6145231Y-15701701D02*
X6126184Y-15692177D01*
X6116660Y-15673130D01*
X6116660Y-15501701D01*
X6297612Y-15692177D02*
X6278565Y-15701701D01*
X6240469Y-15701701D01*
X6221422Y-15692177D01*
X6211898Y-15673130D01*
X6211898Y-15596939D01*
X6221422Y-15577891D01*
X6240469Y-15568368D01*
X6278565Y-15568368D01*
X6297612Y-15577891D01*
X6307136Y-15596939D01*
X6307136Y-15615987D01*
X6211898Y-15635034D01*
X6383327Y-15692177D02*
X6402374Y-15701701D01*
X6440469Y-15701701D01*
X6459517Y-15692177D01*
X6469041Y-15673130D01*
X6469041Y-15663606D01*
X6459517Y-15644558D01*
X6440469Y-15635034D01*
X6411898Y-15635034D01*
X6392850Y-15625511D01*
X6383327Y-15606463D01*
X6383327Y-15596939D01*
X6392850Y-15577891D01*
X6411898Y-15568368D01*
X6440469Y-15568368D01*
X6459517Y-15577891D01*
X6535708Y-15777891D02*
X6545231Y-15768368D01*
X6564279Y-15739796D01*
X6573803Y-15720749D01*
X6583327Y-15692177D01*
X6592850Y-15644558D01*
X6592850Y-15606463D01*
X6583327Y-15558844D01*
X6573803Y-15530272D01*
X6564279Y-15511225D01*
X6545231Y-15482653D01*
X6535708Y-15473130D01*
D14*
X1554289Y-15921187D02*
X1554289Y-15829262D01*
X1462364Y-15829262D01*
X1462364Y-15921187D01*
X1554289Y-15921187D01*
D11*
X1935708Y-15965701D02*
X1821422Y-15965701D01*
X1878565Y-15965701D02*
X1878565Y-15765701D01*
X1859517Y-15794272D01*
X1840469Y-15813320D01*
X1821422Y-15822844D01*
X2021422Y-15946653D02*
X2030946Y-15956177D01*
X2021422Y-15965701D01*
X2011898Y-15956177D01*
X2021422Y-15946653D01*
X2021422Y-15965701D01*
X2097612Y-15765701D02*
X2221422Y-15765701D01*
X2154755Y-15841891D01*
X2183327Y-15841891D01*
X2202374Y-15851415D01*
X2211898Y-15860939D01*
X2221422Y-15879987D01*
X2221422Y-15927606D01*
X2211898Y-15946653D01*
X2202374Y-15956177D01*
X2183327Y-15965701D01*
X2126184Y-15965701D01*
X2107136Y-15956177D01*
X2097612Y-15946653D01*
X2345231Y-15765701D02*
X2364279Y-15765701D01*
X2383327Y-15775225D01*
X2392851Y-15784749D01*
X2402374Y-15803796D01*
X2411898Y-15841891D01*
X2411898Y-15889511D01*
X2402374Y-15927606D01*
X2392851Y-15946653D01*
X2383327Y-15956177D01*
X2364279Y-15965701D01*
X2345231Y-15965701D01*
X2326184Y-15956177D01*
X2316660Y-15946653D01*
X2307136Y-15927606D01*
X2297612Y-15889511D01*
X2297612Y-15841891D01*
X2307136Y-15803796D01*
X2316660Y-15784749D01*
X2326184Y-15775225D01*
X2345231Y-15765701D01*
X2535708Y-15765701D02*
X2554755Y-15765701D01*
X2573803Y-15775225D01*
X2583327Y-15784749D01*
X2592851Y-15803796D01*
X2602374Y-15841891D01*
X2602374Y-15889511D01*
X2592851Y-15927606D01*
X2583327Y-15946653D01*
X2573803Y-15956177D01*
X2554755Y-15965701D01*
X2535708Y-15965701D01*
X2516660Y-15956177D01*
X2507136Y-15946653D01*
X2497612Y-15927606D01*
X2488089Y-15889511D01*
X2488089Y-15841891D01*
X2497612Y-15803796D01*
X2507136Y-15784749D01*
X2516660Y-15775225D01*
X2535708Y-15765701D01*
X2688089Y-15965701D02*
X2688089Y-15832368D01*
X2688089Y-15851415D02*
X2697612Y-15841891D01*
X2716660Y-15832368D01*
X2745231Y-15832368D01*
X2764279Y-15841891D01*
X2773803Y-15860939D01*
X2773803Y-15965701D01*
X2773803Y-15860939D02*
X2783327Y-15841891D01*
X2802374Y-15832368D01*
X2830946Y-15832368D01*
X2849993Y-15841891D01*
X2859517Y-15860939D01*
X2859517Y-15965701D01*
X2954755Y-15965701D02*
X2954755Y-15832368D01*
X2954755Y-15851415D02*
X2964279Y-15841891D01*
X2983327Y-15832368D01*
X3011898Y-15832368D01*
X3030946Y-15841891D01*
X3040469Y-15860939D01*
X3040469Y-15965701D01*
X3040469Y-15860939D02*
X3049993Y-15841891D01*
X3069041Y-15832368D01*
X3097612Y-15832368D01*
X3116660Y-15841891D01*
X3126184Y-15860939D01*
X3126184Y-15965701D01*
X3516660Y-15756177D02*
X3345231Y-16013320D01*
X3773803Y-15765701D02*
X3792850Y-15765701D01*
X3811898Y-15775225D01*
X3821422Y-15784749D01*
X3830946Y-15803796D01*
X3840469Y-15841891D01*
X3840469Y-15889511D01*
X3830946Y-15927606D01*
X3821422Y-15946653D01*
X3811898Y-15956177D01*
X3792850Y-15965701D01*
X3773803Y-15965701D01*
X3754755Y-15956177D01*
X3745231Y-15946653D01*
X3735708Y-15927606D01*
X3726184Y-15889511D01*
X3726184Y-15841891D01*
X3735708Y-15803796D01*
X3745231Y-15784749D01*
X3754755Y-15775225D01*
X3773803Y-15765701D01*
X3926184Y-15946653D02*
X3935708Y-15956177D01*
X3926184Y-15965701D01*
X3916660Y-15956177D01*
X3926184Y-15946653D01*
X3926184Y-15965701D01*
X4059517Y-15765701D02*
X4078565Y-15765701D01*
X4097612Y-15775225D01*
X4107136Y-15784749D01*
X4116660Y-15803796D01*
X4126184Y-15841891D01*
X4126184Y-15889511D01*
X4116660Y-15927606D01*
X4107136Y-15946653D01*
X4097612Y-15956177D01*
X4078565Y-15965701D01*
X4059517Y-15965701D01*
X4040469Y-15956177D01*
X4030946Y-15946653D01*
X4021422Y-15927606D01*
X4011898Y-15889511D01*
X4011898Y-15841891D01*
X4021422Y-15803796D01*
X4030946Y-15784749D01*
X4040469Y-15775225D01*
X4059517Y-15765701D01*
X4307136Y-15765701D02*
X4211898Y-15765701D01*
X4202374Y-15860939D01*
X4211898Y-15851415D01*
X4230946Y-15841891D01*
X4278565Y-15841891D01*
X4297612Y-15851415D01*
X4307136Y-15860939D01*
X4316660Y-15879987D01*
X4316660Y-15927606D01*
X4307136Y-15946653D01*
X4297612Y-15956177D01*
X4278565Y-15965701D01*
X4230946Y-15965701D01*
X4211898Y-15956177D01*
X4202374Y-15946653D01*
X4507136Y-15965701D02*
X4392851Y-15965701D01*
X4449993Y-15965701D02*
X4449993Y-15765701D01*
X4430946Y-15794272D01*
X4411898Y-15813320D01*
X4392851Y-15822844D01*
X4583327Y-15784749D02*
X4592851Y-15775225D01*
X4611898Y-15765701D01*
X4659517Y-15765701D01*
X4678565Y-15775225D01*
X4688089Y-15784749D01*
X4697612Y-15803796D01*
X4697612Y-15822844D01*
X4688089Y-15851415D01*
X4573803Y-15965701D01*
X4697612Y-15965701D01*
X4773803Y-15765701D02*
X4773803Y-15803796D01*
X4849993Y-15765701D02*
X4849993Y-15803796D01*
X5145231Y-16041891D02*
X5135708Y-16032368D01*
X5116660Y-16003796D01*
X5107136Y-15984749D01*
X5097612Y-15956177D01*
X5088089Y-15908558D01*
X5088089Y-15870463D01*
X5097612Y-15822844D01*
X5107136Y-15794272D01*
X5116660Y-15775225D01*
X5135708Y-15746653D01*
X5145231Y-15737130D01*
X5307136Y-15832368D02*
X5307136Y-15965701D01*
X5259517Y-15756177D02*
X5211898Y-15899034D01*
X5335708Y-15899034D01*
X5564279Y-15965701D02*
X5564279Y-15765701D01*
X5649993Y-15965701D02*
X5649993Y-15860939D01*
X5640469Y-15841891D01*
X5621422Y-15832368D01*
X5592850Y-15832368D01*
X5573803Y-15841891D01*
X5564279Y-15851415D01*
X5773803Y-15965701D02*
X5754755Y-15956177D01*
X5745231Y-15946653D01*
X5735708Y-15927606D01*
X5735708Y-15870463D01*
X5745231Y-15851415D01*
X5754755Y-15841891D01*
X5773803Y-15832368D01*
X5802374Y-15832368D01*
X5821422Y-15841891D01*
X5830946Y-15851415D01*
X5840469Y-15870463D01*
X5840469Y-15927606D01*
X5830946Y-15946653D01*
X5821422Y-15956177D01*
X5802374Y-15965701D01*
X5773803Y-15965701D01*
X5954755Y-15965701D02*
X5935708Y-15956177D01*
X5926184Y-15937130D01*
X5926184Y-15765701D01*
X6107136Y-15956177D02*
X6088089Y-15965701D01*
X6049993Y-15965701D01*
X6030946Y-15956177D01*
X6021422Y-15937130D01*
X6021422Y-15860939D01*
X6030946Y-15841891D01*
X6049993Y-15832368D01*
X6088089Y-15832368D01*
X6107136Y-15841891D01*
X6116660Y-15860939D01*
X6116660Y-15879987D01*
X6021422Y-15899034D01*
X6192850Y-15956177D02*
X6211898Y-15965701D01*
X6249993Y-15965701D01*
X6269041Y-15956177D01*
X6278565Y-15937130D01*
X6278565Y-15927606D01*
X6269041Y-15908558D01*
X6249993Y-15899034D01*
X6221422Y-15899034D01*
X6202374Y-15889511D01*
X6192850Y-15870463D01*
X6192850Y-15860939D01*
X6202374Y-15841891D01*
X6221422Y-15832368D01*
X6249993Y-15832368D01*
X6269041Y-15841891D01*
X6345231Y-16041891D02*
X6354755Y-16032368D01*
X6373803Y-16003796D01*
X6383327Y-15984749D01*
X6392850Y-15956177D01*
X6402374Y-15908558D01*
X6402374Y-15870463D01*
X6392850Y-15822844D01*
X6383327Y-15794272D01*
X6373803Y-15775225D01*
X6354755Y-15746653D01*
X6345231Y-15737130D01*
D15*
X1498327Y-16214225D02*
X1573327Y-16139225D01*
X1498327Y-16064225D01*
X1423327Y-16139225D01*
X1498327Y-16214225D01*
D11*
X1935708Y-16229701D02*
X1821422Y-16229701D01*
X1878565Y-16229701D02*
X1878565Y-16029701D01*
X1859517Y-16058272D01*
X1840469Y-16077320D01*
X1821422Y-16086844D01*
X2021422Y-16210653D02*
X2030946Y-16220177D01*
X2021422Y-16229701D01*
X2011898Y-16220177D01*
X2021422Y-16210653D01*
X2021422Y-16229701D01*
X2211898Y-16029701D02*
X2116660Y-16029701D01*
X2107136Y-16124939D01*
X2116660Y-16115415D01*
X2135708Y-16105891D01*
X2183327Y-16105891D01*
X2202374Y-16115415D01*
X2211898Y-16124939D01*
X2221422Y-16143987D01*
X2221422Y-16191606D01*
X2211898Y-16210653D01*
X2202374Y-16220177D01*
X2183327Y-16229701D01*
X2135708Y-16229701D01*
X2116660Y-16220177D01*
X2107136Y-16210653D01*
X2345231Y-16029701D02*
X2364279Y-16029701D01*
X2383327Y-16039225D01*
X2392851Y-16048749D01*
X2402374Y-16067796D01*
X2411898Y-16105891D01*
X2411898Y-16153511D01*
X2402374Y-16191606D01*
X2392851Y-16210653D01*
X2383327Y-16220177D01*
X2364279Y-16229701D01*
X2345231Y-16229701D01*
X2326184Y-16220177D01*
X2316660Y-16210653D01*
X2307136Y-16191606D01*
X2297612Y-16153511D01*
X2297612Y-16105891D01*
X2307136Y-16067796D01*
X2316660Y-16048749D01*
X2326184Y-16039225D01*
X2345231Y-16029701D01*
X2535708Y-16029701D02*
X2554755Y-16029701D01*
X2573803Y-16039225D01*
X2583327Y-16048749D01*
X2592851Y-16067796D01*
X2602374Y-16105891D01*
X2602374Y-16153511D01*
X2592851Y-16191606D01*
X2583327Y-16210653D01*
X2573803Y-16220177D01*
X2554755Y-16229701D01*
X2535708Y-16229701D01*
X2516660Y-16220177D01*
X2507136Y-16210653D01*
X2497612Y-16191606D01*
X2488089Y-16153511D01*
X2488089Y-16105891D01*
X2497612Y-16067796D01*
X2507136Y-16048749D01*
X2516660Y-16039225D01*
X2535708Y-16029701D01*
X2688089Y-16229701D02*
X2688089Y-16096368D01*
X2688089Y-16115415D02*
X2697612Y-16105891D01*
X2716660Y-16096368D01*
X2745231Y-16096368D01*
X2764279Y-16105891D01*
X2773803Y-16124939D01*
X2773803Y-16229701D01*
X2773803Y-16124939D02*
X2783327Y-16105891D01*
X2802374Y-16096368D01*
X2830946Y-16096368D01*
X2849993Y-16105891D01*
X2859517Y-16124939D01*
X2859517Y-16229701D01*
X2954755Y-16229701D02*
X2954755Y-16096368D01*
X2954755Y-16115415D02*
X2964279Y-16105891D01*
X2983327Y-16096368D01*
X3011898Y-16096368D01*
X3030946Y-16105891D01*
X3040469Y-16124939D01*
X3040469Y-16229701D01*
X3040469Y-16124939D02*
X3049993Y-16105891D01*
X3069041Y-16096368D01*
X3097612Y-16096368D01*
X3116660Y-16105891D01*
X3126184Y-16124939D01*
X3126184Y-16229701D01*
X3516660Y-16020177D02*
X3345231Y-16277320D01*
X3773803Y-16029701D02*
X3792850Y-16029701D01*
X3811898Y-16039225D01*
X3821422Y-16048749D01*
X3830946Y-16067796D01*
X3840469Y-16105891D01*
X3840469Y-16153511D01*
X3830946Y-16191606D01*
X3821422Y-16210653D01*
X3811898Y-16220177D01*
X3792850Y-16229701D01*
X3773803Y-16229701D01*
X3754755Y-16220177D01*
X3745231Y-16210653D01*
X3735708Y-16191606D01*
X3726184Y-16153511D01*
X3726184Y-16105891D01*
X3735708Y-16067796D01*
X3745231Y-16048749D01*
X3754755Y-16039225D01*
X3773803Y-16029701D01*
X3926184Y-16210653D02*
X3935708Y-16220177D01*
X3926184Y-16229701D01*
X3916660Y-16220177D01*
X3926184Y-16210653D01*
X3926184Y-16229701D01*
X4059517Y-16029701D02*
X4078565Y-16029701D01*
X4097612Y-16039225D01*
X4107136Y-16048749D01*
X4116660Y-16067796D01*
X4126184Y-16105891D01*
X4126184Y-16153511D01*
X4116660Y-16191606D01*
X4107136Y-16210653D01*
X4097612Y-16220177D01*
X4078565Y-16229701D01*
X4059517Y-16229701D01*
X4040469Y-16220177D01*
X4030946Y-16210653D01*
X4021422Y-16191606D01*
X4011898Y-16153511D01*
X4011898Y-16105891D01*
X4021422Y-16067796D01*
X4030946Y-16048749D01*
X4040469Y-16039225D01*
X4059517Y-16029701D01*
X4307136Y-16029701D02*
X4211898Y-16029701D01*
X4202374Y-16124939D01*
X4211898Y-16115415D01*
X4230946Y-16105891D01*
X4278565Y-16105891D01*
X4297612Y-16115415D01*
X4307136Y-16124939D01*
X4316660Y-16143987D01*
X4316660Y-16191606D01*
X4307136Y-16210653D01*
X4297612Y-16220177D01*
X4278565Y-16229701D01*
X4230946Y-16229701D01*
X4211898Y-16220177D01*
X4202374Y-16210653D01*
X4411898Y-16229701D02*
X4449993Y-16229701D01*
X4469041Y-16220177D01*
X4478565Y-16210653D01*
X4497612Y-16182082D01*
X4507136Y-16143987D01*
X4507136Y-16067796D01*
X4497612Y-16048749D01*
X4488089Y-16039225D01*
X4469041Y-16029701D01*
X4430946Y-16029701D01*
X4411898Y-16039225D01*
X4402374Y-16048749D01*
X4392851Y-16067796D01*
X4392851Y-16115415D01*
X4402374Y-16134463D01*
X4411898Y-16143987D01*
X4430946Y-16153511D01*
X4469041Y-16153511D01*
X4488089Y-16143987D01*
X4497612Y-16134463D01*
X4507136Y-16115415D01*
X4697612Y-16229701D02*
X4583327Y-16229701D01*
X4640470Y-16229701D02*
X4640470Y-16029701D01*
X4621422Y-16058272D01*
X4602374Y-16077320D01*
X4583327Y-16086844D01*
X4773803Y-16029701D02*
X4773803Y-16067796D01*
X4849993Y-16029701D02*
X4849993Y-16067796D01*
X5145231Y-16305891D02*
X5135708Y-16296368D01*
X5116660Y-16267796D01*
X5107136Y-16248749D01*
X5097612Y-16220177D01*
X5088089Y-16172558D01*
X5088089Y-16134463D01*
X5097612Y-16086844D01*
X5107136Y-16058272D01*
X5116660Y-16039225D01*
X5135708Y-16010653D01*
X5145231Y-16001130D01*
X5307136Y-16029701D02*
X5269041Y-16029701D01*
X5249993Y-16039225D01*
X5240470Y-16048749D01*
X5221422Y-16077320D01*
X5211898Y-16115415D01*
X5211898Y-16191606D01*
X5221422Y-16210653D01*
X5230946Y-16220177D01*
X5249993Y-16229701D01*
X5288089Y-16229701D01*
X5307136Y-16220177D01*
X5316660Y-16210653D01*
X5326184Y-16191606D01*
X5326184Y-16143987D01*
X5316660Y-16124939D01*
X5307136Y-16115415D01*
X5288089Y-16105891D01*
X5249993Y-16105891D01*
X5230946Y-16115415D01*
X5221422Y-16124939D01*
X5211898Y-16143987D01*
X5440470Y-16115415D02*
X5421422Y-16105891D01*
X5411898Y-16096368D01*
X5402374Y-16077320D01*
X5402374Y-16067796D01*
X5411898Y-16048749D01*
X5421422Y-16039225D01*
X5440470Y-16029701D01*
X5478565Y-16029701D01*
X5497612Y-16039225D01*
X5507136Y-16048749D01*
X5516660Y-16067796D01*
X5516660Y-16077320D01*
X5507136Y-16096368D01*
X5497612Y-16105891D01*
X5478565Y-16115415D01*
X5440470Y-16115415D01*
X5421422Y-16124939D01*
X5411898Y-16134463D01*
X5402374Y-16153511D01*
X5402374Y-16191606D01*
X5411898Y-16210653D01*
X5421422Y-16220177D01*
X5440470Y-16229701D01*
X5478565Y-16229701D01*
X5497612Y-16220177D01*
X5507136Y-16210653D01*
X5516660Y-16191606D01*
X5516660Y-16153511D01*
X5507136Y-16134463D01*
X5497612Y-16124939D01*
X5478565Y-16115415D01*
X5754755Y-16229701D02*
X5754755Y-16029701D01*
X5840469Y-16229701D02*
X5840469Y-16124939D01*
X5830946Y-16105891D01*
X5811898Y-16096368D01*
X5783327Y-16096368D01*
X5764279Y-16105891D01*
X5754755Y-16115415D01*
X5964279Y-16229701D02*
X5945231Y-16220177D01*
X5935708Y-16210653D01*
X5926184Y-16191606D01*
X5926184Y-16134463D01*
X5935708Y-16115415D01*
X5945231Y-16105891D01*
X5964279Y-16096368D01*
X5992850Y-16096368D01*
X6011898Y-16105891D01*
X6021422Y-16115415D01*
X6030946Y-16134463D01*
X6030946Y-16191606D01*
X6021422Y-16210653D01*
X6011898Y-16220177D01*
X5992850Y-16229701D01*
X5964279Y-16229701D01*
X6145231Y-16229701D02*
X6126184Y-16220177D01*
X6116660Y-16201130D01*
X6116660Y-16029701D01*
X6297612Y-16220177D02*
X6278565Y-16229701D01*
X6240469Y-16229701D01*
X6221422Y-16220177D01*
X6211898Y-16201130D01*
X6211898Y-16124939D01*
X6221422Y-16105891D01*
X6240469Y-16096368D01*
X6278565Y-16096368D01*
X6297612Y-16105891D01*
X6307136Y-16124939D01*
X6307136Y-16143987D01*
X6211898Y-16163034D01*
X6383327Y-16220177D02*
X6402374Y-16229701D01*
X6440469Y-16229701D01*
X6459517Y-16220177D01*
X6469041Y-16201130D01*
X6469041Y-16191606D01*
X6459517Y-16172558D01*
X6440469Y-16163034D01*
X6411898Y-16163034D01*
X6392850Y-16153511D01*
X6383327Y-16134463D01*
X6383327Y-16124939D01*
X6392850Y-16105891D01*
X6411898Y-16096368D01*
X6440469Y-16096368D01*
X6459517Y-16105891D01*
X6535708Y-16305891D02*
X6545231Y-16296368D01*
X6564279Y-16267796D01*
X6573803Y-16248749D01*
X6583327Y-16220177D01*
X6592850Y-16172558D01*
X6592850Y-16134463D01*
X6583327Y-16086844D01*
X6573803Y-16058272D01*
X6564279Y-16039225D01*
X6545231Y-16010653D01*
X6535708Y-16001130D01*
X1373327Y-16309225D02*
X1573327Y-16509225D01*
X1573327Y-16309225D02*
X1373327Y-16509225D01*
X1573327Y-16409225D02*
G75*
G03*
X1573327Y-16409225I-100000J0D01*
G01*
X1821422Y-16318749D02*
X1830946Y-16309225D01*
X1849993Y-16299701D01*
X1897612Y-16299701D01*
X1916660Y-16309225D01*
X1926184Y-16318749D01*
X1935708Y-16337796D01*
X1935708Y-16356844D01*
X1926184Y-16385415D01*
X1811898Y-16499701D01*
X1935708Y-16499701D01*
X2021422Y-16480653D02*
X2030946Y-16490177D01*
X2021422Y-16499701D01*
X2011898Y-16490177D01*
X2021422Y-16480653D01*
X2021422Y-16499701D01*
X2107136Y-16318749D02*
X2116660Y-16309225D01*
X2135708Y-16299701D01*
X2183327Y-16299701D01*
X2202374Y-16309225D01*
X2211898Y-16318749D01*
X2221422Y-16337796D01*
X2221422Y-16356844D01*
X2211898Y-16385415D01*
X2097612Y-16499701D01*
X2221422Y-16499701D01*
X2345231Y-16299701D02*
X2364279Y-16299701D01*
X2383327Y-16309225D01*
X2392851Y-16318749D01*
X2402374Y-16337796D01*
X2411898Y-16375891D01*
X2411898Y-16423511D01*
X2402374Y-16461606D01*
X2392851Y-16480653D01*
X2383327Y-16490177D01*
X2364279Y-16499701D01*
X2345231Y-16499701D01*
X2326184Y-16490177D01*
X2316660Y-16480653D01*
X2307136Y-16461606D01*
X2297612Y-16423511D01*
X2297612Y-16375891D01*
X2307136Y-16337796D01*
X2316660Y-16318749D01*
X2326184Y-16309225D01*
X2345231Y-16299701D01*
X2535708Y-16299701D02*
X2554755Y-16299701D01*
X2573803Y-16309225D01*
X2583327Y-16318749D01*
X2592851Y-16337796D01*
X2602374Y-16375891D01*
X2602374Y-16423511D01*
X2592851Y-16461606D01*
X2583327Y-16480653D01*
X2573803Y-16490177D01*
X2554755Y-16499701D01*
X2535708Y-16499701D01*
X2516660Y-16490177D01*
X2507136Y-16480653D01*
X2497612Y-16461606D01*
X2488089Y-16423511D01*
X2488089Y-16375891D01*
X2497612Y-16337796D01*
X2507136Y-16318749D01*
X2516660Y-16309225D01*
X2535708Y-16299701D01*
X2688089Y-16499701D02*
X2688089Y-16366368D01*
X2688089Y-16385415D02*
X2697612Y-16375891D01*
X2716660Y-16366368D01*
X2745231Y-16366368D01*
X2764279Y-16375891D01*
X2773803Y-16394939D01*
X2773803Y-16499701D01*
X2773803Y-16394939D02*
X2783327Y-16375891D01*
X2802374Y-16366368D01*
X2830946Y-16366368D01*
X2849993Y-16375891D01*
X2859517Y-16394939D01*
X2859517Y-16499701D01*
X2954755Y-16499701D02*
X2954755Y-16366368D01*
X2954755Y-16385415D02*
X2964279Y-16375891D01*
X2983327Y-16366368D01*
X3011898Y-16366368D01*
X3030946Y-16375891D01*
X3040469Y-16394939D01*
X3040469Y-16499701D01*
X3040469Y-16394939D02*
X3049993Y-16375891D01*
X3069041Y-16366368D01*
X3097612Y-16366368D01*
X3116660Y-16375891D01*
X3126184Y-16394939D01*
X3126184Y-16499701D01*
X3516660Y-16290177D02*
X3345231Y-16547320D01*
X3773803Y-16299701D02*
X3792850Y-16299701D01*
X3811898Y-16309225D01*
X3821422Y-16318749D01*
X3830946Y-16337796D01*
X3840469Y-16375891D01*
X3840469Y-16423511D01*
X3830946Y-16461606D01*
X3821422Y-16480653D01*
X3811898Y-16490177D01*
X3792850Y-16499701D01*
X3773803Y-16499701D01*
X3754755Y-16490177D01*
X3745231Y-16480653D01*
X3735708Y-16461606D01*
X3726184Y-16423511D01*
X3726184Y-16375891D01*
X3735708Y-16337796D01*
X3745231Y-16318749D01*
X3754755Y-16309225D01*
X3773803Y-16299701D01*
X3926184Y-16480653D02*
X3935708Y-16490177D01*
X3926184Y-16499701D01*
X3916660Y-16490177D01*
X3926184Y-16480653D01*
X3926184Y-16499701D01*
X4059517Y-16299701D02*
X4078565Y-16299701D01*
X4097612Y-16309225D01*
X4107136Y-16318749D01*
X4116660Y-16337796D01*
X4126184Y-16375891D01*
X4126184Y-16423511D01*
X4116660Y-16461606D01*
X4107136Y-16480653D01*
X4097612Y-16490177D01*
X4078565Y-16499701D01*
X4059517Y-16499701D01*
X4040469Y-16490177D01*
X4030946Y-16480653D01*
X4021422Y-16461606D01*
X4011898Y-16423511D01*
X4011898Y-16375891D01*
X4021422Y-16337796D01*
X4030946Y-16318749D01*
X4040469Y-16309225D01*
X4059517Y-16299701D01*
X4240470Y-16385415D02*
X4221422Y-16375891D01*
X4211898Y-16366368D01*
X4202374Y-16347320D01*
X4202374Y-16337796D01*
X4211898Y-16318749D01*
X4221422Y-16309225D01*
X4240470Y-16299701D01*
X4278565Y-16299701D01*
X4297612Y-16309225D01*
X4307136Y-16318749D01*
X4316660Y-16337796D01*
X4316660Y-16347320D01*
X4307136Y-16366368D01*
X4297612Y-16375891D01*
X4278565Y-16385415D01*
X4240470Y-16385415D01*
X4221422Y-16394939D01*
X4211898Y-16404463D01*
X4202374Y-16423511D01*
X4202374Y-16461606D01*
X4211898Y-16480653D01*
X4221422Y-16490177D01*
X4240470Y-16499701D01*
X4278565Y-16499701D01*
X4297612Y-16490177D01*
X4307136Y-16480653D01*
X4316660Y-16461606D01*
X4316660Y-16423511D01*
X4307136Y-16404463D01*
X4297612Y-16394939D01*
X4278565Y-16385415D01*
X4488089Y-16299701D02*
X4449993Y-16299701D01*
X4430946Y-16309225D01*
X4421422Y-16318749D01*
X4402374Y-16347320D01*
X4392851Y-16385415D01*
X4392851Y-16461606D01*
X4402374Y-16480653D01*
X4411898Y-16490177D01*
X4430946Y-16499701D01*
X4469041Y-16499701D01*
X4488089Y-16490177D01*
X4497612Y-16480653D01*
X4507136Y-16461606D01*
X4507136Y-16413987D01*
X4497612Y-16394939D01*
X4488089Y-16385415D01*
X4469041Y-16375891D01*
X4430946Y-16375891D01*
X4411898Y-16385415D01*
X4402374Y-16394939D01*
X4392851Y-16413987D01*
X4678565Y-16299701D02*
X4640470Y-16299701D01*
X4621422Y-16309225D01*
X4611898Y-16318749D01*
X4592851Y-16347320D01*
X4583327Y-16385415D01*
X4583327Y-16461606D01*
X4592851Y-16480653D01*
X4602374Y-16490177D01*
X4621422Y-16499701D01*
X4659517Y-16499701D01*
X4678565Y-16490177D01*
X4688089Y-16480653D01*
X4697612Y-16461606D01*
X4697612Y-16413987D01*
X4688089Y-16394939D01*
X4678565Y-16385415D01*
X4659517Y-16375891D01*
X4621422Y-16375891D01*
X4602374Y-16385415D01*
X4592851Y-16394939D01*
X4583327Y-16413987D01*
X4773803Y-16299701D02*
X4773803Y-16337796D01*
X4849993Y-16299701D02*
X4849993Y-16337796D01*
X5145231Y-16575891D02*
X5135708Y-16566368D01*
X5116660Y-16537796D01*
X5107136Y-16518749D01*
X5097612Y-16490177D01*
X5088089Y-16442558D01*
X5088089Y-16404463D01*
X5097612Y-16356844D01*
X5107136Y-16328272D01*
X5116660Y-16309225D01*
X5135708Y-16280653D01*
X5145231Y-16271130D01*
X5326184Y-16499701D02*
X5211898Y-16499701D01*
X5269041Y-16499701D02*
X5269041Y-16299701D01*
X5249993Y-16328272D01*
X5230946Y-16347320D01*
X5211898Y-16356844D01*
X5449993Y-16299701D02*
X5469041Y-16299701D01*
X5488089Y-16309225D01*
X5497612Y-16318749D01*
X5507136Y-16337796D01*
X5516660Y-16375891D01*
X5516660Y-16423511D01*
X5507136Y-16461606D01*
X5497612Y-16480653D01*
X5488089Y-16490177D01*
X5469041Y-16499701D01*
X5449993Y-16499701D01*
X5430946Y-16490177D01*
X5421422Y-16480653D01*
X5411898Y-16461606D01*
X5402374Y-16423511D01*
X5402374Y-16375891D01*
X5411898Y-16337796D01*
X5421422Y-16318749D01*
X5430946Y-16309225D01*
X5449993Y-16299701D01*
X5754755Y-16499701D02*
X5754755Y-16299701D01*
X5840469Y-16499701D02*
X5840469Y-16394939D01*
X5830946Y-16375891D01*
X5811898Y-16366368D01*
X5783327Y-16366368D01*
X5764279Y-16375891D01*
X5754755Y-16385415D01*
X5964279Y-16499701D02*
X5945231Y-16490177D01*
X5935708Y-16480653D01*
X5926184Y-16461606D01*
X5926184Y-16404463D01*
X5935708Y-16385415D01*
X5945231Y-16375891D01*
X5964279Y-16366368D01*
X5992850Y-16366368D01*
X6011898Y-16375891D01*
X6021422Y-16385415D01*
X6030946Y-16404463D01*
X6030946Y-16461606D01*
X6021422Y-16480653D01*
X6011898Y-16490177D01*
X5992850Y-16499701D01*
X5964279Y-16499701D01*
X6145231Y-16499701D02*
X6126184Y-16490177D01*
X6116660Y-16471130D01*
X6116660Y-16299701D01*
X6297612Y-16490177D02*
X6278565Y-16499701D01*
X6240469Y-16499701D01*
X6221422Y-16490177D01*
X6211898Y-16471130D01*
X6211898Y-16394939D01*
X6221422Y-16375891D01*
X6240469Y-16366368D01*
X6278565Y-16366368D01*
X6297612Y-16375891D01*
X6307136Y-16394939D01*
X6307136Y-16413987D01*
X6211898Y-16433034D01*
X6383327Y-16490177D02*
X6402374Y-16499701D01*
X6440469Y-16499701D01*
X6459517Y-16490177D01*
X6469041Y-16471130D01*
X6469041Y-16461606D01*
X6459517Y-16442558D01*
X6440469Y-16433034D01*
X6411898Y-16433034D01*
X6392850Y-16423511D01*
X6383327Y-16404463D01*
X6383327Y-16394939D01*
X6392850Y-16375891D01*
X6411898Y-16366368D01*
X6440469Y-16366368D01*
X6459517Y-16375891D01*
X6535708Y-16575891D02*
X6545231Y-16566368D01*
X6564279Y-16537796D01*
X6573803Y-16518749D01*
X6583327Y-16490177D01*
X6592850Y-16442558D01*
X6592850Y-16404463D01*
X6583327Y-16356844D01*
X6573803Y-16328272D01*
X6564279Y-16309225D01*
X6545231Y-16280653D01*
X6535708Y-16271130D01*
M02*
