M48
; DRILL file {KiCad (6.0.11)} date Mon May  8 18:46:19 2023
; FORMAT={-:-/ absolute / inch / decimal}
; #@! TF.CreationDate,2023-05-08T18:46:19+08:00
; #@! TF.GenerationSoftware,Kicad,Pcbnew,(6.0.11)
; #@! TF.FileFunction,NonPlated,1,2,NPTH
FMAT,2
INCH
; #@! TA.AperFunction,NonPlated,NPTH,ComponentDrill
T1C0.0118
; #@! TA.AperFunction,NonPlated,NPTH,ComponentDrill
T2C0.0276
; #@! TA.AperFunction,NonPlated,NPTH,ComponentDrill
T3C0.1654
%
G90
G05
T1
X5.3212Y-2.8817
X5.3212Y-2.905
X5.3212Y-2.9284
X5.3212Y-2.9518
X5.3212Y-2.9752
X5.3212Y-2.9985
X5.3212Y-3.0219
X5.3212Y-3.0453
X5.3212Y-3.0687
X5.3212Y-4.0628
X5.3212Y-4.0861
X5.3212Y-4.1095
X5.3212Y-4.1329
X5.3212Y-4.1563
X5.3212Y-4.1796
X5.3212Y-4.203
X5.3212Y-4.2264
X5.3212Y-4.2498
X6.333Y-2.8817
X6.333Y-2.905
X6.333Y-2.9284
X6.333Y-2.9518
X6.333Y-2.9752
X6.333Y-2.9985
X6.333Y-3.0219
X6.333Y-3.0453
X6.333Y-3.0687
X6.333Y-4.0628
X6.333Y-4.0861
X6.333Y-4.1095
X6.333Y-4.1329
X6.333Y-4.1563
X6.333Y-4.1796
X6.333Y-4.203
X6.333Y-4.2264
X6.333Y-4.2498
T2
X2.5309Y-2.1463
X2.649Y-2.1483
X9.0102Y-2.1453
X9.1283Y-2.1473
T3
X0.9954Y-3.9333
X1.7435Y-3.9333
X1.7435Y-4.6814
X2.4915Y-2.6617
X2.4915Y-3.4097
X2.4915Y-4.1577
X3.2395Y-2.1755
X3.2395Y-2.9235
X3.2395Y-3.6715
X3.9876Y-2.5495
X3.9876Y-3.2975
X3.9876Y-4.0455
X4.3616Y-5.0928
X4.7356Y-2.5495
X4.7356Y-3.2975
X4.7356Y-4.0455
X5.2592Y-5.205
X6.3877Y-5.204
X6.9113Y-2.5485
X6.9113Y-3.2965
X6.9113Y-4.0446
X7.2897Y-5.0918
X7.6637Y-2.5485
X7.6637Y-3.2965
X7.6637Y-4.0446
X8.4118Y-2.1745
X8.4118Y-2.9225
X8.4118Y-3.6705
X9.1598Y-2.6607
X9.1598Y-3.4087
X9.1598Y-4.1568
X9.9078Y-3.9323
X9.9078Y-4.6804
X10.6559Y-3.9323
T0
M30
