%TF.GenerationSoftware,KiCad,Pcbnew,(6.0.11)*%
%TF.CreationDate,2023-05-08T18:46:19+08:00*%
%TF.ProjectId,DOOOPE,444f4f4f-5045-42e6-9b69-6361645f7063,Rev 1*%
%TF.SameCoordinates,Original*%
%TF.FileFunction,Drillmap*%
%TF.FilePolarity,Positive*%
%FSLAX45Y45*%
G04 Gerber Fmt 4.5, Leading zero omitted, Abs format (unit mm)*
G04 Created by KiCad (PCBNEW (6.0.11)) date 2023-05-08 18:46:19*
%MOMM*%
%LPD*%
G01*
G04 APERTURE LIST*
%ADD10C,0.100000*%
%ADD11C,0.200000*%
%ADD12C,0.030000*%
%ADD13C,0.070000*%
%ADD14C,0.420000*%
G04 APERTURE END LIST*
D10*
X27985893Y-10933742D02*
G75*
G03*
X28010893Y-10906235I-603J25662D01*
G01*
X16068393Y-10853166D02*
G75*
G03*
X15853393Y-10853166I-107500J-53900D01*
G01*
X16063393Y-7848166D02*
G75*
G03*
X15848393Y-7848166I-107500J-53900D01*
G01*
X20385893Y-5283742D02*
G75*
G03*
X20410893Y-5256235I-603J25662D01*
G01*
X2493393Y-12813166D02*
G75*
G03*
X2518393Y-12840666I25597J-1844D01*
G01*
X27070893Y-12838742D02*
G75*
G03*
X27095893Y-12811235I-603J25662D01*
G01*
X22343393Y-5283735D02*
X24183393Y-5283735D01*
X5405893Y-5285662D02*
G75*
G03*
X5378393Y-5310666I-1843J-25598D01*
G01*
X16083393Y-5311235D02*
X16083393Y-7260666D01*
X7245893Y-5285663D02*
G75*
G03*
X7273393Y-5260666I1847J25593D01*
G01*
X2493393Y-12813166D02*
X2493393Y-10963166D01*
X15840893Y-7260666D02*
G75*
G03*
X16055893Y-7260666I107500J53900D01*
G01*
X13505884Y-5313166D02*
G75*
G03*
X13480893Y-5285666I-25594J1846D01*
G01*
X7300893Y-4570662D02*
G75*
G03*
X7273393Y-4595666I-1843J-25598D01*
G01*
X13505893Y-7261916D02*
X13505893Y-5313166D01*
X28010895Y-9058735D02*
G75*
G03*
X27983393Y-9033735I-25655J-595D01*
G01*
X2493384Y-10963166D02*
G75*
G03*
X2468393Y-10935666I-25594J1846D01*
G01*
X13755893Y-7849416D02*
G75*
G03*
X13540893Y-7849416I-107500J-53900D01*
G01*
X16055893Y-7260666D02*
X16083393Y-7260666D01*
X13505893Y-7849416D02*
X13505893Y-10251916D01*
X13908393Y-14438168D02*
G75*
G03*
X13930893Y-14423166I1577J22009D01*
G01*
X27120893Y-10933734D02*
G75*
G03*
X27095893Y-10961235I597J-25657D01*
G01*
X15658393Y-14421235D02*
X15020893Y-12671235D01*
X27070893Y-12838735D02*
X24210893Y-12838735D01*
X13505893Y-10854416D02*
X13535893Y-10854416D01*
X9178384Y-4598166D02*
G75*
G03*
X9153393Y-4570666I-25594J1846D01*
G01*
X19398393Y-14433735D02*
X15680893Y-14436235D01*
X1605893Y-9035662D02*
G75*
G03*
X1578393Y-9060666I-1843J-25598D01*
G01*
X14568393Y-12673166D02*
X13930893Y-14423166D01*
X9178393Y-5258166D02*
G75*
G03*
X9203393Y-5285666I25597J-1844D01*
G01*
X13760893Y-7261916D02*
X15840893Y-7260666D01*
X14568392Y-12673166D02*
G75*
G03*
X14555893Y-12645666I-18952J7976D01*
G01*
X15848393Y-10250666D02*
G75*
G03*
X16063393Y-10250666I107500J53900D01*
G01*
X27095893Y-10961235D02*
X27095893Y-12811235D01*
X22315896Y-5258735D02*
G75*
G03*
X22343393Y-5283735I25654J595D01*
G01*
X15658400Y-14421232D02*
G75*
G03*
X15680893Y-14436235I20920J7002D01*
G01*
X5405893Y-5285666D02*
X7245893Y-5285666D01*
X20435893Y-4568735D02*
X22288393Y-4568735D01*
X5378393Y-6495666D02*
X5378393Y-5310666D01*
X24420893Y-6708735D02*
X27095893Y-6708735D01*
X13755893Y-10251916D02*
X15848393Y-10250666D01*
X2468393Y-10935666D02*
X1603393Y-10935666D01*
X13750893Y-10854416D02*
X15853393Y-10853166D01*
X24210893Y-6493735D02*
G75*
G03*
X24420893Y-6708735I205717J-9125D01*
G01*
X20435893Y-4568734D02*
G75*
G03*
X20410893Y-4596235I597J-25657D01*
G01*
X1578393Y-10908166D02*
X1578393Y-9060666D01*
X13755893Y-7849416D02*
X15848393Y-7848166D01*
X22315893Y-4593735D02*
X22315893Y-5258735D01*
X13548393Y-7261916D02*
G75*
G03*
X13760893Y-7261916I106250J53273D01*
G01*
X24210895Y-5308735D02*
G75*
G03*
X24183393Y-5283735I-25655J-595D01*
G01*
X9203393Y-5285666D02*
X13480893Y-5285666D01*
X2493393Y-6710666D02*
X5168393Y-6710666D01*
X22315895Y-4593735D02*
G75*
G03*
X22288393Y-4568735I-25655J-595D01*
G01*
X2493393Y-9010666D02*
X2493393Y-6710666D01*
X27095896Y-9008735D02*
G75*
G03*
X27123393Y-9033735I25654J595D01*
G01*
X15033390Y-12643727D02*
G75*
G03*
X15020893Y-12671235I6450J-19523D01*
G01*
X24210893Y-5308735D02*
X24210893Y-6493735D01*
X13505893Y-7261916D02*
X13548393Y-7261916D01*
X16108393Y-5283735D02*
X20385893Y-5283735D01*
X16108393Y-5283734D02*
G75*
G03*
X16083393Y-5311235I597J-25657D01*
G01*
X5378393Y-12840666D02*
X2518393Y-12840666D01*
X27985893Y-10933735D02*
X27120893Y-10933735D01*
X1605893Y-9035666D02*
X2465893Y-9035666D01*
X13505893Y-7849416D02*
X13540893Y-7849416D01*
X10190893Y-14435666D02*
G75*
G03*
X5378393Y-12840666I-5200846J-7634471D01*
G01*
X16063393Y-10250666D02*
X16083393Y-10250666D01*
X28010893Y-9058735D02*
X28010893Y-10906235D01*
X20410893Y-5256235D02*
X20410893Y-4596235D01*
X27095893Y-6708735D02*
X27095893Y-9008735D01*
X13505893Y-10854416D02*
X13505893Y-12238166D01*
X13505893Y-10251916D02*
X13540893Y-10251916D01*
X24210893Y-12838735D02*
G75*
G03*
X19398393Y-14433735I388347J-9229475D01*
G01*
X2465893Y-9035663D02*
G75*
G03*
X2493393Y-9010666I1847J25593D01*
G01*
X16063394Y-12266238D02*
G75*
G03*
X16083393Y-12236235I-10414J28608D01*
G01*
X16063393Y-7848166D02*
X16083393Y-7848166D01*
X9178393Y-4598166D02*
X9178393Y-5258166D01*
X13505898Y-12238167D02*
G75*
G03*
X13525893Y-12268166I30922J-1053D01*
G01*
X13750893Y-10854416D02*
G75*
G03*
X13535893Y-10854416I-107500J-53900D01*
G01*
X27123393Y-9033735D02*
X27983393Y-9033735D01*
X16083393Y-10853166D02*
X16083393Y-12236235D01*
X13525893Y-12268166D02*
X14555893Y-12645666D01*
X7300893Y-4570666D02*
X9153393Y-4570666D01*
X7273393Y-5260666D02*
X7273393Y-4595666D01*
X13908393Y-14438166D02*
X10190893Y-14435666D01*
X5168393Y-6710671D02*
G75*
G03*
X5378393Y-6495666I4277J205881D01*
G01*
X13540893Y-10251916D02*
G75*
G03*
X13755893Y-10251916I107500J53900D01*
G01*
X15033393Y-12643735D02*
X16063393Y-12266235D01*
X16083393Y-7848166D02*
X16083393Y-10250666D01*
X16068393Y-10853166D02*
X16083393Y-10853166D01*
X1578393Y-10908166D02*
G75*
G03*
X1603393Y-10935666I25597J-1844D01*
G01*
D11*
D12*
X13500893Y-7304416D02*
X13530893Y-7334416D01*
X13530893Y-7304416D02*
X13500893Y-7334416D01*
X13500893Y-7363791D02*
X13530893Y-7393791D01*
X13530893Y-7363791D02*
X13500893Y-7393791D01*
X13500893Y-7423166D02*
X13530893Y-7453166D01*
X13530893Y-7423166D02*
X13500893Y-7453166D01*
X13500893Y-7482541D02*
X13530893Y-7512541D01*
X13530893Y-7482541D02*
X13500893Y-7512541D01*
X13500893Y-7541916D02*
X13530893Y-7571916D01*
X13530893Y-7541916D02*
X13500893Y-7571916D01*
X13500893Y-7601291D02*
X13530893Y-7631291D01*
X13530893Y-7601291D02*
X13500893Y-7631291D01*
X13500893Y-7660666D02*
X13530893Y-7690666D01*
X13530893Y-7660666D02*
X13500893Y-7690666D01*
X13500893Y-7720041D02*
X13530893Y-7750041D01*
X13530893Y-7720041D02*
X13500893Y-7750041D01*
X13500893Y-7779416D02*
X13530893Y-7809416D01*
X13530893Y-7779416D02*
X13500893Y-7809416D01*
X13500893Y-10304416D02*
X13530893Y-10334416D01*
X13530893Y-10304416D02*
X13500893Y-10334416D01*
X13500893Y-10363791D02*
X13530893Y-10393791D01*
X13530893Y-10363791D02*
X13500893Y-10393791D01*
X13500893Y-10423166D02*
X13530893Y-10453166D01*
X13530893Y-10423166D02*
X13500893Y-10453166D01*
X13500893Y-10482541D02*
X13530893Y-10512541D01*
X13530893Y-10482541D02*
X13500893Y-10512541D01*
X13500893Y-10541916D02*
X13530893Y-10571916D01*
X13530893Y-10541916D02*
X13500893Y-10571916D01*
X13500893Y-10601291D02*
X13530893Y-10631291D01*
X13530893Y-10601291D02*
X13500893Y-10631291D01*
X13500893Y-10660666D02*
X13530893Y-10690666D01*
X13530893Y-10660666D02*
X13500893Y-10690666D01*
X13500893Y-10720041D02*
X13530893Y-10750041D01*
X13530893Y-10720041D02*
X13500893Y-10750041D01*
X13500893Y-10779416D02*
X13530893Y-10809416D01*
X13530893Y-10779416D02*
X13500893Y-10809416D01*
X16070893Y-7304416D02*
X16100893Y-7334416D01*
X16100893Y-7304416D02*
X16070893Y-7334416D01*
X16070893Y-7363791D02*
X16100893Y-7393791D01*
X16100893Y-7363791D02*
X16070893Y-7393791D01*
X16070893Y-7423166D02*
X16100893Y-7453166D01*
X16100893Y-7423166D02*
X16070893Y-7453166D01*
X16070893Y-7482541D02*
X16100893Y-7512541D01*
X16100893Y-7482541D02*
X16070893Y-7512541D01*
X16070893Y-7541916D02*
X16100893Y-7571916D01*
X16100893Y-7541916D02*
X16070893Y-7571916D01*
X16070893Y-7601291D02*
X16100893Y-7631291D01*
X16100893Y-7601291D02*
X16070893Y-7631291D01*
X16070893Y-7660666D02*
X16100893Y-7690666D01*
X16100893Y-7660666D02*
X16070893Y-7690666D01*
X16070893Y-7720041D02*
X16100893Y-7750041D01*
X16100893Y-7720041D02*
X16070893Y-7750041D01*
X16070893Y-7779416D02*
X16100893Y-7809416D01*
X16100893Y-7779416D02*
X16070893Y-7809416D01*
X16070893Y-10304416D02*
X16100893Y-10334416D01*
X16100893Y-10304416D02*
X16070893Y-10334416D01*
X16070893Y-10363791D02*
X16100893Y-10393791D01*
X16100893Y-10363791D02*
X16070893Y-10393791D01*
X16070893Y-10423166D02*
X16100893Y-10453166D01*
X16100893Y-10423166D02*
X16070893Y-10453166D01*
X16070893Y-10482541D02*
X16100893Y-10512541D01*
X16100893Y-10482541D02*
X16070893Y-10512541D01*
X16070893Y-10541916D02*
X16100893Y-10571916D01*
X16100893Y-10541916D02*
X16070893Y-10571916D01*
X16070893Y-10601291D02*
X16100893Y-10631291D01*
X16100893Y-10601291D02*
X16070893Y-10631291D01*
X16070893Y-10660666D02*
X16100893Y-10690666D01*
X16100893Y-10660666D02*
X16070893Y-10690666D01*
X16070893Y-10720041D02*
X16100893Y-10750041D01*
X16100893Y-10720041D02*
X16070893Y-10750041D01*
X16070893Y-10779416D02*
X16100893Y-10809416D01*
X16100893Y-10779416D02*
X16070893Y-10809416D01*
D13*
X6463393Y-5451666D02*
G75*
G03*
X6463393Y-5451666I-35000J0D01*
G01*
X6763393Y-5456666D02*
G75*
G03*
X6763393Y-5456666I-35000J0D01*
G01*
X22920893Y-5449166D02*
G75*
G03*
X22920893Y-5449166I-35000J0D01*
G01*
X23220893Y-5454166D02*
G75*
G03*
X23220893Y-5454166I-35000J0D01*
G01*
D14*
X2528393Y-9780666D02*
X2528393Y-10200666D01*
X2318393Y-9990666D02*
X2738393Y-9990666D01*
X4428393Y-9780666D02*
X4428393Y-10200666D01*
X4218393Y-9990666D02*
X4638393Y-9990666D01*
X4428393Y-11680666D02*
X4428393Y-12100666D01*
X4218393Y-11890666D02*
X4638393Y-11890666D01*
X6328393Y-6550666D02*
X6328393Y-6970666D01*
X6118393Y-6760666D02*
X6538393Y-6760666D01*
X6328393Y-8450666D02*
X6328393Y-8870666D01*
X6118393Y-8660666D02*
X6538393Y-8660666D01*
X6328393Y-10350666D02*
X6328393Y-10770666D01*
X6118393Y-10560666D02*
X6538393Y-10560666D01*
X8228393Y-5315666D02*
X8228393Y-5735666D01*
X8018393Y-5525666D02*
X8438393Y-5525666D01*
X8228393Y-7215666D02*
X8228393Y-7635666D01*
X8018393Y-7425666D02*
X8438393Y-7425666D01*
X8228393Y-9115666D02*
X8228393Y-9535666D01*
X8018393Y-9325666D02*
X8438393Y-9325666D01*
X10128393Y-6265666D02*
X10128393Y-6685666D01*
X9918393Y-6475666D02*
X10338393Y-6475666D01*
X10128393Y-8165666D02*
X10128393Y-8585666D01*
X9918393Y-8375666D02*
X10338393Y-8375666D01*
X10128393Y-10065666D02*
X10128393Y-10485666D01*
X9918393Y-10275666D02*
X10338393Y-10275666D01*
X11078393Y-12725666D02*
X11078393Y-13145666D01*
X10868393Y-12935666D02*
X11288393Y-12935666D01*
X12028393Y-6265666D02*
X12028393Y-6685666D01*
X11818393Y-6475666D02*
X12238393Y-6475666D01*
X12028393Y-8165666D02*
X12028393Y-8585666D01*
X11818393Y-8375666D02*
X12238393Y-8375666D01*
X12028393Y-10065666D02*
X12028393Y-10485666D01*
X11818393Y-10275666D02*
X12238393Y-10275666D01*
X13358393Y-13010666D02*
X13358393Y-13430666D01*
X13148393Y-13220666D02*
X13568393Y-13220666D01*
X16224643Y-13008166D02*
X16224643Y-13428166D01*
X16014643Y-13218166D02*
X16434643Y-13218166D01*
X17554643Y-6263166D02*
X17554643Y-6683166D01*
X17344643Y-6473166D02*
X17764643Y-6473166D01*
X17554643Y-8163166D02*
X17554643Y-8583166D01*
X17344643Y-8373166D02*
X17764643Y-8373166D01*
X17554643Y-10063166D02*
X17554643Y-10483166D01*
X17344643Y-10273166D02*
X17764643Y-10273166D01*
X18515893Y-12723166D02*
X18515893Y-13143166D01*
X18305893Y-12933166D02*
X18725893Y-12933166D01*
X19465893Y-6263166D02*
X19465893Y-6683166D01*
X19255893Y-6473166D02*
X19675893Y-6473166D01*
X19465893Y-8163166D02*
X19465893Y-8583166D01*
X19255893Y-8373166D02*
X19675893Y-8373166D01*
X19465893Y-10063166D02*
X19465893Y-10483166D01*
X19255893Y-10273166D02*
X19675893Y-10273166D01*
X21365893Y-5313166D02*
X21365893Y-5733166D01*
X21155893Y-5523166D02*
X21575893Y-5523166D01*
X21365893Y-7213166D02*
X21365893Y-7633166D01*
X21155893Y-7423166D02*
X21575893Y-7423166D01*
X21365893Y-9113166D02*
X21365893Y-9533166D01*
X21155893Y-9323166D02*
X21575893Y-9323166D01*
X23265893Y-6548166D02*
X23265893Y-6968166D01*
X23055893Y-6758166D02*
X23475893Y-6758166D01*
X23265893Y-8448166D02*
X23265893Y-8868166D01*
X23055893Y-8658166D02*
X23475893Y-8658166D01*
X23265893Y-10348166D02*
X23265893Y-10768166D01*
X23055893Y-10558166D02*
X23475893Y-10558166D01*
X25165893Y-9778166D02*
X25165893Y-10198166D01*
X24955893Y-9988166D02*
X25375893Y-9988166D01*
X25165893Y-11678166D02*
X25165893Y-12098166D01*
X24955893Y-11888166D02*
X25375893Y-11888166D01*
X27065893Y-9778166D02*
X27065893Y-10198166D01*
X26855893Y-9988166D02*
X27275893Y-9988166D01*
D11*
X1830946Y-14753701D02*
X1830946Y-14553701D01*
X1878565Y-14553701D01*
X1907136Y-14563225D01*
X1926184Y-14582272D01*
X1935708Y-14601320D01*
X1945231Y-14639415D01*
X1945231Y-14667987D01*
X1935708Y-14706082D01*
X1926184Y-14725130D01*
X1907136Y-14744177D01*
X1878565Y-14753701D01*
X1830946Y-14753701D01*
X2030946Y-14753701D02*
X2030946Y-14620368D01*
X2030946Y-14658463D02*
X2040469Y-14639415D01*
X2049993Y-14629891D01*
X2069041Y-14620368D01*
X2088089Y-14620368D01*
X2154755Y-14753701D02*
X2154755Y-14620368D01*
X2154755Y-14553701D02*
X2145231Y-14563225D01*
X2154755Y-14572749D01*
X2164279Y-14563225D01*
X2154755Y-14553701D01*
X2154755Y-14572749D01*
X2278565Y-14753701D02*
X2259517Y-14744177D01*
X2249993Y-14725130D01*
X2249993Y-14553701D01*
X2383327Y-14753701D02*
X2364279Y-14744177D01*
X2354755Y-14725130D01*
X2354755Y-14553701D01*
X2611898Y-14753701D02*
X2611898Y-14553701D01*
X2678565Y-14696558D01*
X2745231Y-14553701D01*
X2745231Y-14753701D01*
X2926184Y-14753701D02*
X2926184Y-14648939D01*
X2916660Y-14629891D01*
X2897612Y-14620368D01*
X2859517Y-14620368D01*
X2840469Y-14629891D01*
X2926184Y-14744177D02*
X2907136Y-14753701D01*
X2859517Y-14753701D01*
X2840469Y-14744177D01*
X2830946Y-14725130D01*
X2830946Y-14706082D01*
X2840469Y-14687034D01*
X2859517Y-14677511D01*
X2907136Y-14677511D01*
X2926184Y-14667987D01*
X3021422Y-14620368D02*
X3021422Y-14820368D01*
X3021422Y-14629891D02*
X3040469Y-14620368D01*
X3078565Y-14620368D01*
X3097612Y-14629891D01*
X3107136Y-14639415D01*
X3116660Y-14658463D01*
X3116660Y-14715606D01*
X3107136Y-14734653D01*
X3097612Y-14744177D01*
X3078565Y-14753701D01*
X3040469Y-14753701D01*
X3021422Y-14744177D01*
X3202374Y-14734653D02*
X3211898Y-14744177D01*
X3202374Y-14753701D01*
X3192850Y-14744177D01*
X3202374Y-14734653D01*
X3202374Y-14753701D01*
X3202374Y-14629891D02*
X3211898Y-14639415D01*
X3202374Y-14648939D01*
X3192850Y-14639415D01*
X3202374Y-14629891D01*
X3202374Y-14648939D01*
D12*
X1543327Y-15068225D02*
X1573327Y-15098225D01*
X1573327Y-15068225D02*
X1543327Y-15098225D01*
D11*
X1869041Y-14973701D02*
X1888089Y-14973701D01*
X1907136Y-14983225D01*
X1916660Y-14992749D01*
X1926184Y-15011796D01*
X1935708Y-15049891D01*
X1935708Y-15097511D01*
X1926184Y-15135606D01*
X1916660Y-15154653D01*
X1907136Y-15164177D01*
X1888089Y-15173701D01*
X1869041Y-15173701D01*
X1849993Y-15164177D01*
X1840469Y-15154653D01*
X1830946Y-15135606D01*
X1821422Y-15097511D01*
X1821422Y-15049891D01*
X1830946Y-15011796D01*
X1840469Y-14992749D01*
X1849993Y-14983225D01*
X1869041Y-14973701D01*
X2021422Y-15154653D02*
X2030946Y-15164177D01*
X2021422Y-15173701D01*
X2011898Y-15164177D01*
X2021422Y-15154653D01*
X2021422Y-15173701D01*
X2097612Y-14973701D02*
X2221422Y-14973701D01*
X2154755Y-15049891D01*
X2183327Y-15049891D01*
X2202374Y-15059415D01*
X2211898Y-15068939D01*
X2221422Y-15087987D01*
X2221422Y-15135606D01*
X2211898Y-15154653D01*
X2202374Y-15164177D01*
X2183327Y-15173701D01*
X2126184Y-15173701D01*
X2107136Y-15164177D01*
X2097612Y-15154653D01*
X2345231Y-14973701D02*
X2364279Y-14973701D01*
X2383327Y-14983225D01*
X2392851Y-14992749D01*
X2402374Y-15011796D01*
X2411898Y-15049891D01*
X2411898Y-15097511D01*
X2402374Y-15135606D01*
X2392851Y-15154653D01*
X2383327Y-15164177D01*
X2364279Y-15173701D01*
X2345231Y-15173701D01*
X2326184Y-15164177D01*
X2316660Y-15154653D01*
X2307136Y-15135606D01*
X2297612Y-15097511D01*
X2297612Y-15049891D01*
X2307136Y-15011796D01*
X2316660Y-14992749D01*
X2326184Y-14983225D01*
X2345231Y-14973701D01*
X2535708Y-14973701D02*
X2554755Y-14973701D01*
X2573803Y-14983225D01*
X2583327Y-14992749D01*
X2592851Y-15011796D01*
X2602374Y-15049891D01*
X2602374Y-15097511D01*
X2592851Y-15135606D01*
X2583327Y-15154653D01*
X2573803Y-15164177D01*
X2554755Y-15173701D01*
X2535708Y-15173701D01*
X2516660Y-15164177D01*
X2507136Y-15154653D01*
X2497612Y-15135606D01*
X2488089Y-15097511D01*
X2488089Y-15049891D01*
X2497612Y-15011796D01*
X2507136Y-14992749D01*
X2516660Y-14983225D01*
X2535708Y-14973701D01*
X2688089Y-15173701D02*
X2688089Y-15040368D01*
X2688089Y-15059415D02*
X2697612Y-15049891D01*
X2716660Y-15040368D01*
X2745231Y-15040368D01*
X2764279Y-15049891D01*
X2773803Y-15068939D01*
X2773803Y-15173701D01*
X2773803Y-15068939D02*
X2783327Y-15049891D01*
X2802374Y-15040368D01*
X2830946Y-15040368D01*
X2849993Y-15049891D01*
X2859517Y-15068939D01*
X2859517Y-15173701D01*
X2954755Y-15173701D02*
X2954755Y-15040368D01*
X2954755Y-15059415D02*
X2964279Y-15049891D01*
X2983327Y-15040368D01*
X3011898Y-15040368D01*
X3030946Y-15049891D01*
X3040469Y-15068939D01*
X3040469Y-15173701D01*
X3040469Y-15068939D02*
X3049993Y-15049891D01*
X3069041Y-15040368D01*
X3097612Y-15040368D01*
X3116660Y-15049891D01*
X3126184Y-15068939D01*
X3126184Y-15173701D01*
X3516660Y-14964177D02*
X3345231Y-15221320D01*
X3773803Y-14973701D02*
X3792850Y-14973701D01*
X3811898Y-14983225D01*
X3821422Y-14992749D01*
X3830946Y-15011796D01*
X3840469Y-15049891D01*
X3840469Y-15097511D01*
X3830946Y-15135606D01*
X3821422Y-15154653D01*
X3811898Y-15164177D01*
X3792850Y-15173701D01*
X3773803Y-15173701D01*
X3754755Y-15164177D01*
X3745231Y-15154653D01*
X3735708Y-15135606D01*
X3726184Y-15097511D01*
X3726184Y-15049891D01*
X3735708Y-15011796D01*
X3745231Y-14992749D01*
X3754755Y-14983225D01*
X3773803Y-14973701D01*
X3926184Y-15154653D02*
X3935708Y-15164177D01*
X3926184Y-15173701D01*
X3916660Y-15164177D01*
X3926184Y-15154653D01*
X3926184Y-15173701D01*
X4059517Y-14973701D02*
X4078565Y-14973701D01*
X4097612Y-14983225D01*
X4107136Y-14992749D01*
X4116660Y-15011796D01*
X4126184Y-15049891D01*
X4126184Y-15097511D01*
X4116660Y-15135606D01*
X4107136Y-15154653D01*
X4097612Y-15164177D01*
X4078565Y-15173701D01*
X4059517Y-15173701D01*
X4040469Y-15164177D01*
X4030946Y-15154653D01*
X4021422Y-15135606D01*
X4011898Y-15097511D01*
X4011898Y-15049891D01*
X4021422Y-15011796D01*
X4030946Y-14992749D01*
X4040469Y-14983225D01*
X4059517Y-14973701D01*
X4316660Y-15173701D02*
X4202374Y-15173701D01*
X4259517Y-15173701D02*
X4259517Y-14973701D01*
X4240470Y-15002272D01*
X4221422Y-15021320D01*
X4202374Y-15030844D01*
X4507136Y-15173701D02*
X4392851Y-15173701D01*
X4449993Y-15173701D02*
X4449993Y-14973701D01*
X4430946Y-15002272D01*
X4411898Y-15021320D01*
X4392851Y-15030844D01*
X4621422Y-15059415D02*
X4602374Y-15049891D01*
X4592851Y-15040368D01*
X4583327Y-15021320D01*
X4583327Y-15011796D01*
X4592851Y-14992749D01*
X4602374Y-14983225D01*
X4621422Y-14973701D01*
X4659517Y-14973701D01*
X4678565Y-14983225D01*
X4688089Y-14992749D01*
X4697612Y-15011796D01*
X4697612Y-15021320D01*
X4688089Y-15040368D01*
X4678565Y-15049891D01*
X4659517Y-15059415D01*
X4621422Y-15059415D01*
X4602374Y-15068939D01*
X4592851Y-15078463D01*
X4583327Y-15097511D01*
X4583327Y-15135606D01*
X4592851Y-15154653D01*
X4602374Y-15164177D01*
X4621422Y-15173701D01*
X4659517Y-15173701D01*
X4678565Y-15164177D01*
X4688089Y-15154653D01*
X4697612Y-15135606D01*
X4697612Y-15097511D01*
X4688089Y-15078463D01*
X4678565Y-15068939D01*
X4659517Y-15059415D01*
X4773803Y-14973701D02*
X4773803Y-15011796D01*
X4849993Y-14973701D02*
X4849993Y-15011796D01*
X5145231Y-15249891D02*
X5135708Y-15240368D01*
X5116660Y-15211796D01*
X5107136Y-15192749D01*
X5097612Y-15164177D01*
X5088089Y-15116558D01*
X5088089Y-15078463D01*
X5097612Y-15030844D01*
X5107136Y-15002272D01*
X5116660Y-14983225D01*
X5135708Y-14954653D01*
X5145231Y-14945130D01*
X5202374Y-14973701D02*
X5326184Y-14973701D01*
X5259517Y-15049891D01*
X5288089Y-15049891D01*
X5307136Y-15059415D01*
X5316660Y-15068939D01*
X5326184Y-15087987D01*
X5326184Y-15135606D01*
X5316660Y-15154653D01*
X5307136Y-15164177D01*
X5288089Y-15173701D01*
X5230946Y-15173701D01*
X5211898Y-15164177D01*
X5202374Y-15154653D01*
X5497612Y-14973701D02*
X5459517Y-14973701D01*
X5440470Y-14983225D01*
X5430946Y-14992749D01*
X5411898Y-15021320D01*
X5402374Y-15059415D01*
X5402374Y-15135606D01*
X5411898Y-15154653D01*
X5421422Y-15164177D01*
X5440470Y-15173701D01*
X5478565Y-15173701D01*
X5497612Y-15164177D01*
X5507136Y-15154653D01*
X5516660Y-15135606D01*
X5516660Y-15087987D01*
X5507136Y-15068939D01*
X5497612Y-15059415D01*
X5478565Y-15049891D01*
X5440470Y-15049891D01*
X5421422Y-15059415D01*
X5411898Y-15068939D01*
X5402374Y-15087987D01*
X5754755Y-15173701D02*
X5754755Y-14973701D01*
X5840469Y-15173701D02*
X5840469Y-15068939D01*
X5830946Y-15049891D01*
X5811898Y-15040368D01*
X5783327Y-15040368D01*
X5764279Y-15049891D01*
X5754755Y-15059415D01*
X5964279Y-15173701D02*
X5945231Y-15164177D01*
X5935708Y-15154653D01*
X5926184Y-15135606D01*
X5926184Y-15078463D01*
X5935708Y-15059415D01*
X5945231Y-15049891D01*
X5964279Y-15040368D01*
X5992850Y-15040368D01*
X6011898Y-15049891D01*
X6021422Y-15059415D01*
X6030946Y-15078463D01*
X6030946Y-15135606D01*
X6021422Y-15154653D01*
X6011898Y-15164177D01*
X5992850Y-15173701D01*
X5964279Y-15173701D01*
X6145231Y-15173701D02*
X6126184Y-15164177D01*
X6116660Y-15145130D01*
X6116660Y-14973701D01*
X6297612Y-15164177D02*
X6278565Y-15173701D01*
X6240469Y-15173701D01*
X6221422Y-15164177D01*
X6211898Y-15145130D01*
X6211898Y-15068939D01*
X6221422Y-15049891D01*
X6240469Y-15040368D01*
X6278565Y-15040368D01*
X6297612Y-15049891D01*
X6307136Y-15068939D01*
X6307136Y-15087987D01*
X6211898Y-15107034D01*
X6383327Y-15164177D02*
X6402374Y-15173701D01*
X6440469Y-15173701D01*
X6459517Y-15164177D01*
X6469041Y-15145130D01*
X6469041Y-15135606D01*
X6459517Y-15116558D01*
X6440469Y-15107034D01*
X6411898Y-15107034D01*
X6392850Y-15097511D01*
X6383327Y-15078463D01*
X6383327Y-15068939D01*
X6392850Y-15049891D01*
X6411898Y-15040368D01*
X6440469Y-15040368D01*
X6459517Y-15049891D01*
X6535708Y-15249891D02*
X6545231Y-15240368D01*
X6564279Y-15211796D01*
X6573803Y-15192749D01*
X6583327Y-15164177D01*
X6592850Y-15116558D01*
X6592850Y-15078463D01*
X6583327Y-15030844D01*
X6573803Y-15002272D01*
X6564279Y-14983225D01*
X6545231Y-14954653D01*
X6535708Y-14945130D01*
X6897612Y-15249891D02*
X6888089Y-15240368D01*
X6869041Y-15211796D01*
X6859517Y-15192749D01*
X6849993Y-15164177D01*
X6840469Y-15116558D01*
X6840469Y-15078463D01*
X6849993Y-15030844D01*
X6859517Y-15002272D01*
X6869041Y-14983225D01*
X6888089Y-14954653D01*
X6897612Y-14945130D01*
X6973803Y-15040368D02*
X6973803Y-15173701D01*
X6973803Y-15059415D02*
X6983327Y-15049891D01*
X7002374Y-15040368D01*
X7030946Y-15040368D01*
X7049993Y-15049891D01*
X7059517Y-15068939D01*
X7059517Y-15173701D01*
X7183327Y-15173701D02*
X7164279Y-15164177D01*
X7154755Y-15154653D01*
X7145231Y-15135606D01*
X7145231Y-15078463D01*
X7154755Y-15059415D01*
X7164279Y-15049891D01*
X7183327Y-15040368D01*
X7211898Y-15040368D01*
X7230946Y-15049891D01*
X7240469Y-15059415D01*
X7249993Y-15078463D01*
X7249993Y-15135606D01*
X7240469Y-15154653D01*
X7230946Y-15164177D01*
X7211898Y-15173701D01*
X7183327Y-15173701D01*
X7307136Y-15040368D02*
X7383327Y-15040368D01*
X7335708Y-14973701D02*
X7335708Y-15145130D01*
X7345231Y-15164177D01*
X7364279Y-15173701D01*
X7383327Y-15173701D01*
X7602374Y-15040368D02*
X7602374Y-15240368D01*
X7602374Y-15049891D02*
X7621422Y-15040368D01*
X7659517Y-15040368D01*
X7678565Y-15049891D01*
X7688089Y-15059415D01*
X7697612Y-15078463D01*
X7697612Y-15135606D01*
X7688089Y-15154653D01*
X7678565Y-15164177D01*
X7659517Y-15173701D01*
X7621422Y-15173701D01*
X7602374Y-15164177D01*
X7811898Y-15173701D02*
X7792850Y-15164177D01*
X7783327Y-15145130D01*
X7783327Y-14973701D01*
X7973803Y-15173701D02*
X7973803Y-15068939D01*
X7964279Y-15049891D01*
X7945231Y-15040368D01*
X7907136Y-15040368D01*
X7888089Y-15049891D01*
X7973803Y-15164177D02*
X7954755Y-15173701D01*
X7907136Y-15173701D01*
X7888089Y-15164177D01*
X7878565Y-15145130D01*
X7878565Y-15126082D01*
X7888089Y-15107034D01*
X7907136Y-15097511D01*
X7954755Y-15097511D01*
X7973803Y-15087987D01*
X8040469Y-15040368D02*
X8116660Y-15040368D01*
X8069041Y-14973701D02*
X8069041Y-15145130D01*
X8078565Y-15164177D01*
X8097612Y-15173701D01*
X8116660Y-15173701D01*
X8259517Y-15164177D02*
X8240469Y-15173701D01*
X8202374Y-15173701D01*
X8183327Y-15164177D01*
X8173803Y-15145130D01*
X8173803Y-15068939D01*
X8183327Y-15049891D01*
X8202374Y-15040368D01*
X8240469Y-15040368D01*
X8259517Y-15049891D01*
X8269041Y-15068939D01*
X8269041Y-15087987D01*
X8173803Y-15107034D01*
X8440470Y-15173701D02*
X8440470Y-14973701D01*
X8440470Y-15164177D02*
X8421422Y-15173701D01*
X8383327Y-15173701D01*
X8364279Y-15164177D01*
X8354755Y-15154653D01*
X8345231Y-15135606D01*
X8345231Y-15078463D01*
X8354755Y-15059415D01*
X8364279Y-15049891D01*
X8383327Y-15040368D01*
X8421422Y-15040368D01*
X8440470Y-15049891D01*
X8516660Y-15249891D02*
X8526184Y-15240368D01*
X8545231Y-15211796D01*
X8554755Y-15192749D01*
X8564279Y-15164177D01*
X8573803Y-15116558D01*
X8573803Y-15078463D01*
X8564279Y-15030844D01*
X8554755Y-15002272D01*
X8545231Y-14983225D01*
X8526184Y-14954653D01*
X8516660Y-14945130D01*
D13*
X1573327Y-15347225D02*
G75*
G03*
X1573327Y-15347225I-35000J0D01*
G01*
D11*
X1869041Y-15237701D02*
X1888089Y-15237701D01*
X1907136Y-15247225D01*
X1916660Y-15256749D01*
X1926184Y-15275796D01*
X1935708Y-15313891D01*
X1935708Y-15361511D01*
X1926184Y-15399606D01*
X1916660Y-15418653D01*
X1907136Y-15428177D01*
X1888089Y-15437701D01*
X1869041Y-15437701D01*
X1849993Y-15428177D01*
X1840469Y-15418653D01*
X1830946Y-15399606D01*
X1821422Y-15361511D01*
X1821422Y-15313891D01*
X1830946Y-15275796D01*
X1840469Y-15256749D01*
X1849993Y-15247225D01*
X1869041Y-15237701D01*
X2021422Y-15418653D02*
X2030946Y-15428177D01*
X2021422Y-15437701D01*
X2011898Y-15428177D01*
X2021422Y-15418653D01*
X2021422Y-15437701D01*
X2097612Y-15237701D02*
X2230946Y-15237701D01*
X2145231Y-15437701D01*
X2345231Y-15237701D02*
X2364279Y-15237701D01*
X2383327Y-15247225D01*
X2392851Y-15256749D01*
X2402374Y-15275796D01*
X2411898Y-15313891D01*
X2411898Y-15361511D01*
X2402374Y-15399606D01*
X2392851Y-15418653D01*
X2383327Y-15428177D01*
X2364279Y-15437701D01*
X2345231Y-15437701D01*
X2326184Y-15428177D01*
X2316660Y-15418653D01*
X2307136Y-15399606D01*
X2297612Y-15361511D01*
X2297612Y-15313891D01*
X2307136Y-15275796D01*
X2316660Y-15256749D01*
X2326184Y-15247225D01*
X2345231Y-15237701D01*
X2535708Y-15237701D02*
X2554755Y-15237701D01*
X2573803Y-15247225D01*
X2583327Y-15256749D01*
X2592851Y-15275796D01*
X2602374Y-15313891D01*
X2602374Y-15361511D01*
X2592851Y-15399606D01*
X2583327Y-15418653D01*
X2573803Y-15428177D01*
X2554755Y-15437701D01*
X2535708Y-15437701D01*
X2516660Y-15428177D01*
X2507136Y-15418653D01*
X2497612Y-15399606D01*
X2488089Y-15361511D01*
X2488089Y-15313891D01*
X2497612Y-15275796D01*
X2507136Y-15256749D01*
X2516660Y-15247225D01*
X2535708Y-15237701D01*
X2688089Y-15437701D02*
X2688089Y-15304368D01*
X2688089Y-15323415D02*
X2697612Y-15313891D01*
X2716660Y-15304368D01*
X2745231Y-15304368D01*
X2764279Y-15313891D01*
X2773803Y-15332939D01*
X2773803Y-15437701D01*
X2773803Y-15332939D02*
X2783327Y-15313891D01*
X2802374Y-15304368D01*
X2830946Y-15304368D01*
X2849993Y-15313891D01*
X2859517Y-15332939D01*
X2859517Y-15437701D01*
X2954755Y-15437701D02*
X2954755Y-15304368D01*
X2954755Y-15323415D02*
X2964279Y-15313891D01*
X2983327Y-15304368D01*
X3011898Y-15304368D01*
X3030946Y-15313891D01*
X3040469Y-15332939D01*
X3040469Y-15437701D01*
X3040469Y-15332939D02*
X3049993Y-15313891D01*
X3069041Y-15304368D01*
X3097612Y-15304368D01*
X3116660Y-15313891D01*
X3126184Y-15332939D01*
X3126184Y-15437701D01*
X3516660Y-15228177D02*
X3345231Y-15485320D01*
X3773803Y-15237701D02*
X3792850Y-15237701D01*
X3811898Y-15247225D01*
X3821422Y-15256749D01*
X3830946Y-15275796D01*
X3840469Y-15313891D01*
X3840469Y-15361511D01*
X3830946Y-15399606D01*
X3821422Y-15418653D01*
X3811898Y-15428177D01*
X3792850Y-15437701D01*
X3773803Y-15437701D01*
X3754755Y-15428177D01*
X3745231Y-15418653D01*
X3735708Y-15399606D01*
X3726184Y-15361511D01*
X3726184Y-15313891D01*
X3735708Y-15275796D01*
X3745231Y-15256749D01*
X3754755Y-15247225D01*
X3773803Y-15237701D01*
X3926184Y-15418653D02*
X3935708Y-15428177D01*
X3926184Y-15437701D01*
X3916660Y-15428177D01*
X3926184Y-15418653D01*
X3926184Y-15437701D01*
X4059517Y-15237701D02*
X4078565Y-15237701D01*
X4097612Y-15247225D01*
X4107136Y-15256749D01*
X4116660Y-15275796D01*
X4126184Y-15313891D01*
X4126184Y-15361511D01*
X4116660Y-15399606D01*
X4107136Y-15418653D01*
X4097612Y-15428177D01*
X4078565Y-15437701D01*
X4059517Y-15437701D01*
X4040469Y-15428177D01*
X4030946Y-15418653D01*
X4021422Y-15399606D01*
X4011898Y-15361511D01*
X4011898Y-15313891D01*
X4021422Y-15275796D01*
X4030946Y-15256749D01*
X4040469Y-15247225D01*
X4059517Y-15237701D01*
X4202374Y-15256749D02*
X4211898Y-15247225D01*
X4230946Y-15237701D01*
X4278565Y-15237701D01*
X4297612Y-15247225D01*
X4307136Y-15256749D01*
X4316660Y-15275796D01*
X4316660Y-15294844D01*
X4307136Y-15323415D01*
X4192850Y-15437701D01*
X4316660Y-15437701D01*
X4383327Y-15237701D02*
X4516660Y-15237701D01*
X4430946Y-15437701D01*
X4678565Y-15237701D02*
X4640470Y-15237701D01*
X4621422Y-15247225D01*
X4611898Y-15256749D01*
X4592851Y-15285320D01*
X4583327Y-15323415D01*
X4583327Y-15399606D01*
X4592851Y-15418653D01*
X4602374Y-15428177D01*
X4621422Y-15437701D01*
X4659517Y-15437701D01*
X4678565Y-15428177D01*
X4688089Y-15418653D01*
X4697612Y-15399606D01*
X4697612Y-15351987D01*
X4688089Y-15332939D01*
X4678565Y-15323415D01*
X4659517Y-15313891D01*
X4621422Y-15313891D01*
X4602374Y-15323415D01*
X4592851Y-15332939D01*
X4583327Y-15351987D01*
X4773803Y-15237701D02*
X4773803Y-15275796D01*
X4849993Y-15237701D02*
X4849993Y-15275796D01*
X5145231Y-15513891D02*
X5135708Y-15504368D01*
X5116660Y-15475796D01*
X5107136Y-15456749D01*
X5097612Y-15428177D01*
X5088089Y-15380558D01*
X5088089Y-15342463D01*
X5097612Y-15294844D01*
X5107136Y-15266272D01*
X5116660Y-15247225D01*
X5135708Y-15218653D01*
X5145231Y-15209130D01*
X5307136Y-15304368D02*
X5307136Y-15437701D01*
X5259517Y-15228177D02*
X5211898Y-15371034D01*
X5335708Y-15371034D01*
X5564279Y-15437701D02*
X5564279Y-15237701D01*
X5649993Y-15437701D02*
X5649993Y-15332939D01*
X5640469Y-15313891D01*
X5621422Y-15304368D01*
X5592850Y-15304368D01*
X5573803Y-15313891D01*
X5564279Y-15323415D01*
X5773803Y-15437701D02*
X5754755Y-15428177D01*
X5745231Y-15418653D01*
X5735708Y-15399606D01*
X5735708Y-15342463D01*
X5745231Y-15323415D01*
X5754755Y-15313891D01*
X5773803Y-15304368D01*
X5802374Y-15304368D01*
X5821422Y-15313891D01*
X5830946Y-15323415D01*
X5840469Y-15342463D01*
X5840469Y-15399606D01*
X5830946Y-15418653D01*
X5821422Y-15428177D01*
X5802374Y-15437701D01*
X5773803Y-15437701D01*
X5954755Y-15437701D02*
X5935708Y-15428177D01*
X5926184Y-15409130D01*
X5926184Y-15237701D01*
X6107136Y-15428177D02*
X6088089Y-15437701D01*
X6049993Y-15437701D01*
X6030946Y-15428177D01*
X6021422Y-15409130D01*
X6021422Y-15332939D01*
X6030946Y-15313891D01*
X6049993Y-15304368D01*
X6088089Y-15304368D01*
X6107136Y-15313891D01*
X6116660Y-15332939D01*
X6116660Y-15351987D01*
X6021422Y-15371034D01*
X6192850Y-15428177D02*
X6211898Y-15437701D01*
X6249993Y-15437701D01*
X6269041Y-15428177D01*
X6278565Y-15409130D01*
X6278565Y-15399606D01*
X6269041Y-15380558D01*
X6249993Y-15371034D01*
X6221422Y-15371034D01*
X6202374Y-15361511D01*
X6192850Y-15342463D01*
X6192850Y-15332939D01*
X6202374Y-15313891D01*
X6221422Y-15304368D01*
X6249993Y-15304368D01*
X6269041Y-15313891D01*
X6345231Y-15513891D02*
X6354755Y-15504368D01*
X6373803Y-15475796D01*
X6383327Y-15456749D01*
X6392850Y-15428177D01*
X6402374Y-15380558D01*
X6402374Y-15342463D01*
X6392850Y-15294844D01*
X6383327Y-15266272D01*
X6373803Y-15247225D01*
X6354755Y-15218653D01*
X6345231Y-15209130D01*
X6707136Y-15513891D02*
X6697612Y-15504368D01*
X6678565Y-15475796D01*
X6669041Y-15456749D01*
X6659517Y-15428177D01*
X6649993Y-15380558D01*
X6649993Y-15342463D01*
X6659517Y-15294844D01*
X6669041Y-15266272D01*
X6678565Y-15247225D01*
X6697612Y-15218653D01*
X6707136Y-15209130D01*
X6783327Y-15304368D02*
X6783327Y-15437701D01*
X6783327Y-15323415D02*
X6792850Y-15313891D01*
X6811898Y-15304368D01*
X6840469Y-15304368D01*
X6859517Y-15313891D01*
X6869041Y-15332939D01*
X6869041Y-15437701D01*
X6992850Y-15437701D02*
X6973803Y-15428177D01*
X6964279Y-15418653D01*
X6954755Y-15399606D01*
X6954755Y-15342463D01*
X6964279Y-15323415D01*
X6973803Y-15313891D01*
X6992850Y-15304368D01*
X7021422Y-15304368D01*
X7040469Y-15313891D01*
X7049993Y-15323415D01*
X7059517Y-15342463D01*
X7059517Y-15399606D01*
X7049993Y-15418653D01*
X7040469Y-15428177D01*
X7021422Y-15437701D01*
X6992850Y-15437701D01*
X7116660Y-15304368D02*
X7192850Y-15304368D01*
X7145231Y-15237701D02*
X7145231Y-15409130D01*
X7154755Y-15428177D01*
X7173803Y-15437701D01*
X7192850Y-15437701D01*
X7411898Y-15304368D02*
X7411898Y-15504368D01*
X7411898Y-15313891D02*
X7430946Y-15304368D01*
X7469041Y-15304368D01*
X7488089Y-15313891D01*
X7497612Y-15323415D01*
X7507136Y-15342463D01*
X7507136Y-15399606D01*
X7497612Y-15418653D01*
X7488089Y-15428177D01*
X7469041Y-15437701D01*
X7430946Y-15437701D01*
X7411898Y-15428177D01*
X7621422Y-15437701D02*
X7602374Y-15428177D01*
X7592850Y-15409130D01*
X7592850Y-15237701D01*
X7783327Y-15437701D02*
X7783327Y-15332939D01*
X7773803Y-15313891D01*
X7754755Y-15304368D01*
X7716660Y-15304368D01*
X7697612Y-15313891D01*
X7783327Y-15428177D02*
X7764279Y-15437701D01*
X7716660Y-15437701D01*
X7697612Y-15428177D01*
X7688089Y-15409130D01*
X7688089Y-15390082D01*
X7697612Y-15371034D01*
X7716660Y-15361511D01*
X7764279Y-15361511D01*
X7783327Y-15351987D01*
X7849993Y-15304368D02*
X7926184Y-15304368D01*
X7878565Y-15237701D02*
X7878565Y-15409130D01*
X7888089Y-15428177D01*
X7907136Y-15437701D01*
X7926184Y-15437701D01*
X8069041Y-15428177D02*
X8049993Y-15437701D01*
X8011898Y-15437701D01*
X7992850Y-15428177D01*
X7983327Y-15409130D01*
X7983327Y-15332939D01*
X7992850Y-15313891D01*
X8011898Y-15304368D01*
X8049993Y-15304368D01*
X8069041Y-15313891D01*
X8078565Y-15332939D01*
X8078565Y-15351987D01*
X7983327Y-15371034D01*
X8249993Y-15437701D02*
X8249993Y-15237701D01*
X8249993Y-15428177D02*
X8230946Y-15437701D01*
X8192850Y-15437701D01*
X8173803Y-15428177D01*
X8164279Y-15418653D01*
X8154755Y-15399606D01*
X8154755Y-15342463D01*
X8164279Y-15323415D01*
X8173803Y-15313891D01*
X8192850Y-15304368D01*
X8230946Y-15304368D01*
X8249993Y-15313891D01*
X8326184Y-15513891D02*
X8335708Y-15504368D01*
X8354755Y-15475796D01*
X8364279Y-15456749D01*
X8373803Y-15428177D01*
X8383327Y-15380558D01*
X8383327Y-15342463D01*
X8373803Y-15294844D01*
X8364279Y-15266272D01*
X8354755Y-15247225D01*
X8335708Y-15218653D01*
X8326184Y-15209130D01*
X1473327Y-15511225D02*
X1473327Y-15711225D01*
X1373327Y-15611225D02*
X1573327Y-15611225D01*
X1916660Y-15568368D02*
X1916660Y-15701701D01*
X1869041Y-15492177D02*
X1821422Y-15635034D01*
X1945231Y-15635034D01*
X2021422Y-15682653D02*
X2030946Y-15692177D01*
X2021422Y-15701701D01*
X2011898Y-15692177D01*
X2021422Y-15682653D01*
X2021422Y-15701701D01*
X2107136Y-15520749D02*
X2116660Y-15511225D01*
X2135708Y-15501701D01*
X2183327Y-15501701D01*
X2202374Y-15511225D01*
X2211898Y-15520749D01*
X2221422Y-15539796D01*
X2221422Y-15558844D01*
X2211898Y-15587415D01*
X2097612Y-15701701D01*
X2221422Y-15701701D01*
X2345231Y-15501701D02*
X2364279Y-15501701D01*
X2383327Y-15511225D01*
X2392851Y-15520749D01*
X2402374Y-15539796D01*
X2411898Y-15577891D01*
X2411898Y-15625511D01*
X2402374Y-15663606D01*
X2392851Y-15682653D01*
X2383327Y-15692177D01*
X2364279Y-15701701D01*
X2345231Y-15701701D01*
X2326184Y-15692177D01*
X2316660Y-15682653D01*
X2307136Y-15663606D01*
X2297612Y-15625511D01*
X2297612Y-15577891D01*
X2307136Y-15539796D01*
X2316660Y-15520749D01*
X2326184Y-15511225D01*
X2345231Y-15501701D01*
X2535708Y-15501701D02*
X2554755Y-15501701D01*
X2573803Y-15511225D01*
X2583327Y-15520749D01*
X2592851Y-15539796D01*
X2602374Y-15577891D01*
X2602374Y-15625511D01*
X2592851Y-15663606D01*
X2583327Y-15682653D01*
X2573803Y-15692177D01*
X2554755Y-15701701D01*
X2535708Y-15701701D01*
X2516660Y-15692177D01*
X2507136Y-15682653D01*
X2497612Y-15663606D01*
X2488089Y-15625511D01*
X2488089Y-15577891D01*
X2497612Y-15539796D01*
X2507136Y-15520749D01*
X2516660Y-15511225D01*
X2535708Y-15501701D01*
X2688089Y-15701701D02*
X2688089Y-15568368D01*
X2688089Y-15587415D02*
X2697612Y-15577891D01*
X2716660Y-15568368D01*
X2745231Y-15568368D01*
X2764279Y-15577891D01*
X2773803Y-15596939D01*
X2773803Y-15701701D01*
X2773803Y-15596939D02*
X2783327Y-15577891D01*
X2802374Y-15568368D01*
X2830946Y-15568368D01*
X2849993Y-15577891D01*
X2859517Y-15596939D01*
X2859517Y-15701701D01*
X2954755Y-15701701D02*
X2954755Y-15568368D01*
X2954755Y-15587415D02*
X2964279Y-15577891D01*
X2983327Y-15568368D01*
X3011898Y-15568368D01*
X3030946Y-15577891D01*
X3040469Y-15596939D01*
X3040469Y-15701701D01*
X3040469Y-15596939D02*
X3049993Y-15577891D01*
X3069041Y-15568368D01*
X3097612Y-15568368D01*
X3116660Y-15577891D01*
X3126184Y-15596939D01*
X3126184Y-15701701D01*
X3516660Y-15492177D02*
X3345231Y-15749320D01*
X3773803Y-15501701D02*
X3792850Y-15501701D01*
X3811898Y-15511225D01*
X3821422Y-15520749D01*
X3830946Y-15539796D01*
X3840469Y-15577891D01*
X3840469Y-15625511D01*
X3830946Y-15663606D01*
X3821422Y-15682653D01*
X3811898Y-15692177D01*
X3792850Y-15701701D01*
X3773803Y-15701701D01*
X3754755Y-15692177D01*
X3745231Y-15682653D01*
X3735708Y-15663606D01*
X3726184Y-15625511D01*
X3726184Y-15577891D01*
X3735708Y-15539796D01*
X3745231Y-15520749D01*
X3754755Y-15511225D01*
X3773803Y-15501701D01*
X3926184Y-15682653D02*
X3935708Y-15692177D01*
X3926184Y-15701701D01*
X3916660Y-15692177D01*
X3926184Y-15682653D01*
X3926184Y-15701701D01*
X4126184Y-15701701D02*
X4011898Y-15701701D01*
X4069041Y-15701701D02*
X4069041Y-15501701D01*
X4049993Y-15530272D01*
X4030946Y-15549320D01*
X4011898Y-15558844D01*
X4297612Y-15501701D02*
X4259517Y-15501701D01*
X4240470Y-15511225D01*
X4230946Y-15520749D01*
X4211898Y-15549320D01*
X4202374Y-15587415D01*
X4202374Y-15663606D01*
X4211898Y-15682653D01*
X4221422Y-15692177D01*
X4240470Y-15701701D01*
X4278565Y-15701701D01*
X4297612Y-15692177D01*
X4307136Y-15682653D01*
X4316660Y-15663606D01*
X4316660Y-15615987D01*
X4307136Y-15596939D01*
X4297612Y-15587415D01*
X4278565Y-15577891D01*
X4240470Y-15577891D01*
X4221422Y-15587415D01*
X4211898Y-15596939D01*
X4202374Y-15615987D01*
X4497612Y-15501701D02*
X4402374Y-15501701D01*
X4392851Y-15596939D01*
X4402374Y-15587415D01*
X4421422Y-15577891D01*
X4469041Y-15577891D01*
X4488089Y-15587415D01*
X4497612Y-15596939D01*
X4507136Y-15615987D01*
X4507136Y-15663606D01*
X4497612Y-15682653D01*
X4488089Y-15692177D01*
X4469041Y-15701701D01*
X4421422Y-15701701D01*
X4402374Y-15692177D01*
X4392851Y-15682653D01*
X4678565Y-15568368D02*
X4678565Y-15701701D01*
X4630946Y-15492177D02*
X4583327Y-15635034D01*
X4707136Y-15635034D01*
X4773803Y-15501701D02*
X4773803Y-15539796D01*
X4849993Y-15501701D02*
X4849993Y-15539796D01*
X5145231Y-15777891D02*
X5135708Y-15768368D01*
X5116660Y-15739796D01*
X5107136Y-15720749D01*
X5097612Y-15692177D01*
X5088089Y-15644558D01*
X5088089Y-15606463D01*
X5097612Y-15558844D01*
X5107136Y-15530272D01*
X5116660Y-15511225D01*
X5135708Y-15482653D01*
X5145231Y-15473130D01*
X5202374Y-15501701D02*
X5326184Y-15501701D01*
X5259517Y-15577891D01*
X5288089Y-15577891D01*
X5307136Y-15587415D01*
X5316660Y-15596939D01*
X5326184Y-15615987D01*
X5326184Y-15663606D01*
X5316660Y-15682653D01*
X5307136Y-15692177D01*
X5288089Y-15701701D01*
X5230946Y-15701701D01*
X5211898Y-15692177D01*
X5202374Y-15682653D01*
X5497612Y-15568368D02*
X5497612Y-15701701D01*
X5449993Y-15492177D02*
X5402374Y-15635034D01*
X5526184Y-15635034D01*
X5754755Y-15701701D02*
X5754755Y-15501701D01*
X5840469Y-15701701D02*
X5840469Y-15596939D01*
X5830946Y-15577891D01*
X5811898Y-15568368D01*
X5783327Y-15568368D01*
X5764279Y-15577891D01*
X5754755Y-15587415D01*
X5964279Y-15701701D02*
X5945231Y-15692177D01*
X5935708Y-15682653D01*
X5926184Y-15663606D01*
X5926184Y-15606463D01*
X5935708Y-15587415D01*
X5945231Y-15577891D01*
X5964279Y-15568368D01*
X5992850Y-15568368D01*
X6011898Y-15577891D01*
X6021422Y-15587415D01*
X6030946Y-15606463D01*
X6030946Y-15663606D01*
X6021422Y-15682653D01*
X6011898Y-15692177D01*
X5992850Y-15701701D01*
X5964279Y-15701701D01*
X6145231Y-15701701D02*
X6126184Y-15692177D01*
X6116660Y-15673130D01*
X6116660Y-15501701D01*
X6297612Y-15692177D02*
X6278565Y-15701701D01*
X6240469Y-15701701D01*
X6221422Y-15692177D01*
X6211898Y-15673130D01*
X6211898Y-15596939D01*
X6221422Y-15577891D01*
X6240469Y-15568368D01*
X6278565Y-15568368D01*
X6297612Y-15577891D01*
X6307136Y-15596939D01*
X6307136Y-15615987D01*
X6211898Y-15635034D01*
X6383327Y-15692177D02*
X6402374Y-15701701D01*
X6440469Y-15701701D01*
X6459517Y-15692177D01*
X6469041Y-15673130D01*
X6469041Y-15663606D01*
X6459517Y-15644558D01*
X6440469Y-15635034D01*
X6411898Y-15635034D01*
X6392850Y-15625511D01*
X6383327Y-15606463D01*
X6383327Y-15596939D01*
X6392850Y-15577891D01*
X6411898Y-15568368D01*
X6440469Y-15568368D01*
X6459517Y-15577891D01*
X6535708Y-15777891D02*
X6545231Y-15768368D01*
X6564279Y-15739796D01*
X6573803Y-15720749D01*
X6583327Y-15692177D01*
X6592850Y-15644558D01*
X6592850Y-15606463D01*
X6583327Y-15558844D01*
X6573803Y-15530272D01*
X6564279Y-15511225D01*
X6545231Y-15482653D01*
X6535708Y-15473130D01*
X6897612Y-15777891D02*
X6888089Y-15768368D01*
X6869041Y-15739796D01*
X6859517Y-15720749D01*
X6849993Y-15692177D01*
X6840469Y-15644558D01*
X6840469Y-15606463D01*
X6849993Y-15558844D01*
X6859517Y-15530272D01*
X6869041Y-15511225D01*
X6888089Y-15482653D01*
X6897612Y-15473130D01*
X6973803Y-15568368D02*
X6973803Y-15701701D01*
X6973803Y-15587415D02*
X6983327Y-15577891D01*
X7002374Y-15568368D01*
X7030946Y-15568368D01*
X7049993Y-15577891D01*
X7059517Y-15596939D01*
X7059517Y-15701701D01*
X7183327Y-15701701D02*
X7164279Y-15692177D01*
X7154755Y-15682653D01*
X7145231Y-15663606D01*
X7145231Y-15606463D01*
X7154755Y-15587415D01*
X7164279Y-15577891D01*
X7183327Y-15568368D01*
X7211898Y-15568368D01*
X7230946Y-15577891D01*
X7240469Y-15587415D01*
X7249993Y-15606463D01*
X7249993Y-15663606D01*
X7240469Y-15682653D01*
X7230946Y-15692177D01*
X7211898Y-15701701D01*
X7183327Y-15701701D01*
X7307136Y-15568368D02*
X7383327Y-15568368D01*
X7335708Y-15501701D02*
X7335708Y-15673130D01*
X7345231Y-15692177D01*
X7364279Y-15701701D01*
X7383327Y-15701701D01*
X7602374Y-15568368D02*
X7602374Y-15768368D01*
X7602374Y-15577891D02*
X7621422Y-15568368D01*
X7659517Y-15568368D01*
X7678565Y-15577891D01*
X7688089Y-15587415D01*
X7697612Y-15606463D01*
X7697612Y-15663606D01*
X7688089Y-15682653D01*
X7678565Y-15692177D01*
X7659517Y-15701701D01*
X7621422Y-15701701D01*
X7602374Y-15692177D01*
X7811898Y-15701701D02*
X7792850Y-15692177D01*
X7783327Y-15673130D01*
X7783327Y-15501701D01*
X7973803Y-15701701D02*
X7973803Y-15596939D01*
X7964279Y-15577891D01*
X7945231Y-15568368D01*
X7907136Y-15568368D01*
X7888089Y-15577891D01*
X7973803Y-15692177D02*
X7954755Y-15701701D01*
X7907136Y-15701701D01*
X7888089Y-15692177D01*
X7878565Y-15673130D01*
X7878565Y-15654082D01*
X7888089Y-15635034D01*
X7907136Y-15625511D01*
X7954755Y-15625511D01*
X7973803Y-15615987D01*
X8040469Y-15568368D02*
X8116660Y-15568368D01*
X8069041Y-15501701D02*
X8069041Y-15673130D01*
X8078565Y-15692177D01*
X8097612Y-15701701D01*
X8116660Y-15701701D01*
X8259517Y-15692177D02*
X8240469Y-15701701D01*
X8202374Y-15701701D01*
X8183327Y-15692177D01*
X8173803Y-15673130D01*
X8173803Y-15596939D01*
X8183327Y-15577891D01*
X8202374Y-15568368D01*
X8240469Y-15568368D01*
X8259517Y-15577891D01*
X8269041Y-15596939D01*
X8269041Y-15615987D01*
X8173803Y-15635034D01*
X8440470Y-15701701D02*
X8440470Y-15501701D01*
X8440470Y-15692177D02*
X8421422Y-15701701D01*
X8383327Y-15701701D01*
X8364279Y-15692177D01*
X8354755Y-15682653D01*
X8345231Y-15663606D01*
X8345231Y-15606463D01*
X8354755Y-15587415D01*
X8364279Y-15577891D01*
X8383327Y-15568368D01*
X8421422Y-15568368D01*
X8440470Y-15577891D01*
X8516660Y-15777891D02*
X8526184Y-15768368D01*
X8545231Y-15739796D01*
X8554755Y-15720749D01*
X8564279Y-15692177D01*
X8573803Y-15644558D01*
X8573803Y-15606463D01*
X8564279Y-15558844D01*
X8554755Y-15530272D01*
X8545231Y-15511225D01*
X8526184Y-15482653D01*
X8516660Y-15473130D01*
M02*
