%TF.GenerationSoftware,KiCad,Pcbnew,(6.0.11)*%
%TF.CreationDate,2023-05-08T18:46:23+08:00*%
%TF.ProjectId,DOOOPE,444f4f4f-5045-42e6-9b69-6361645f7063,Rev 1*%
%TF.SameCoordinates,Original*%
%TF.FileFunction,Soldermask,Bot*%
%TF.FilePolarity,Negative*%
%FSLAX46Y46*%
G04 Gerber Fmt 4.6, Leading zero omitted, Abs format (unit mm)*
G04 Created by KiCad (PCBNEW (6.0.11)) date 2023-05-08 18:46:23*
%MOMM*%
%LPD*%
G01*
G04 APERTURE LIST*
G04 Aperture macros list*
%AMRoundRect*
0 Rectangle with rounded corners*
0 $1 Rounding radius*
0 $2 $3 $4 $5 $6 $7 $8 $9 X,Y pos of 4 corners*
0 Add a 4 corners polygon primitive as box body*
4,1,4,$2,$3,$4,$5,$6,$7,$8,$9,$2,$3,0*
0 Add four circle primitives for the rounded corners*
1,1,$1+$1,$2,$3*
1,1,$1+$1,$4,$5*
1,1,$1+$1,$6,$7*
1,1,$1+$1,$8,$9*
0 Add four rect primitives between the rounded corners*
20,1,$1+$1,$2,$3,$4,$5,0*
20,1,$1+$1,$4,$5,$6,$7,0*
20,1,$1+$1,$6,$7,$8,$9,0*
20,1,$1+$1,$8,$9,$2,$3,0*%
G04 Aperture macros list end*
%ADD10C,0.900000*%
%ADD11R,1.300000X0.950000*%
%ADD12C,4.200000*%
%ADD13C,2.200000*%
%ADD14RoundRect,0.250000X-0.350000X-0.625000X0.350000X-0.625000X0.350000X0.625000X-0.350000X0.625000X0*%
%ADD15O,1.200000X1.750000*%
%ADD16C,3.800000*%
%ADD17C,2.600000*%
%ADD18C,0.300000*%
%ADD19O,1.800000X2.750000*%
%ADD20C,1.500000*%
%ADD21C,2.025000*%
G04 APERTURE END LIST*
%TO.C,REF\u002A\u002A*%
G36*
X228502870Y-113168109D02*
G01*
X228497557Y-113207085D01*
X228453788Y-113217191D01*
X228444977Y-113206400D01*
X228453788Y-113119027D01*
X228475932Y-113107509D01*
X228502870Y-113168109D01*
G37*
G36*
X226651491Y-112130133D02*
G01*
X226662290Y-112330166D01*
X226679746Y-112629850D01*
X226792871Y-113111369D01*
X227001004Y-113512049D01*
X227292352Y-113817286D01*
X227655125Y-114012475D01*
X228077529Y-114083010D01*
X228137877Y-114082233D01*
X228367863Y-114035768D01*
X228488948Y-113904244D01*
X228521675Y-113668489D01*
X228522520Y-113551818D01*
X228538585Y-113499489D01*
X228578822Y-113573036D01*
X228632678Y-113755841D01*
X228625476Y-113979208D01*
X228521276Y-114123598D01*
X228368302Y-114173879D01*
X228091748Y-114174586D01*
X227764167Y-114114084D01*
X227424917Y-114005561D01*
X227113356Y-113862201D01*
X226868842Y-113697192D01*
X226730733Y-113523717D01*
X226701408Y-113432368D01*
X226654970Y-113205319D01*
X226615569Y-112921903D01*
X226586754Y-112622423D01*
X226572071Y-112347183D01*
X226575070Y-112136485D01*
X226599297Y-112030630D01*
X226623179Y-112029771D01*
X226651491Y-112130133D01*
G37*
G36*
X224918161Y-124286725D02*
G01*
X224971657Y-124339921D01*
X224889742Y-124434264D01*
X224674464Y-124570857D01*
X224586928Y-124623070D01*
X224438609Y-124730195D01*
X224379971Y-124802829D01*
X224413205Y-124874439D01*
X224539816Y-125024992D01*
X224735132Y-125216313D01*
X224971443Y-125421665D01*
X225221033Y-125614308D01*
X225279769Y-125656822D01*
X225420330Y-125770148D01*
X225481710Y-125862309D01*
X225452701Y-125949196D01*
X225322098Y-126046701D01*
X225078691Y-126170716D01*
X224711276Y-126337131D01*
X224530899Y-126416335D01*
X224266462Y-126527944D01*
X224070212Y-126605023D01*
X223975044Y-126634295D01*
X223962494Y-126631740D01*
X223879513Y-126550465D01*
X223786309Y-126390054D01*
X223671197Y-126143751D01*
X224107723Y-126104168D01*
X224255669Y-126087960D01*
X224489328Y-126045894D01*
X224610336Y-126001313D01*
X224611232Y-125964116D01*
X224484552Y-125944204D01*
X224222835Y-125951474D01*
X223996959Y-125969081D01*
X223749072Y-125991128D01*
X223588522Y-126008678D01*
X223484315Y-126011327D01*
X223422870Y-125978813D01*
X223478799Y-125956232D01*
X223654667Y-125927644D01*
X223921890Y-125898978D01*
X224251131Y-125873948D01*
X224545097Y-125851437D01*
X224838975Y-125819421D01*
X225051203Y-125785247D01*
X225149058Y-125753311D01*
X225171119Y-125697693D01*
X225121660Y-125621395D01*
X224983150Y-125515947D01*
X224740838Y-125370219D01*
X224379971Y-125173081D01*
X224299206Y-125129486D01*
X224062288Y-124990247D01*
X223960121Y-124905724D01*
X223993450Y-124876488D01*
X224037572Y-124874513D01*
X224140806Y-124836403D01*
X224131389Y-124736646D01*
X224010250Y-124557572D01*
X223861398Y-124368337D01*
X224212714Y-124321950D01*
X224396751Y-124299358D01*
X224727209Y-124273572D01*
X224918161Y-124286725D01*
G37*
G36*
X227748232Y-110110833D02*
G01*
X227806783Y-110141694D01*
X227794000Y-110188542D01*
X227656203Y-110259977D01*
X227641072Y-110266719D01*
X227489451Y-110333630D01*
X227416928Y-110364448D01*
X227408266Y-110353910D01*
X227398522Y-110257682D01*
X227436361Y-110157307D01*
X227568938Y-110089597D01*
X227748232Y-110110833D01*
G37*
G36*
X226329579Y-111682504D02*
G01*
X226237906Y-111854743D01*
X226090137Y-112094473D01*
X225902386Y-112374198D01*
X225757703Y-112587139D01*
X225540790Y-112923858D01*
X225352316Y-113235972D01*
X225221436Y-113476295D01*
X225161525Y-113591825D01*
X224999882Y-113831043D01*
X224854936Y-113935474D01*
X224835281Y-113941898D01*
X224692146Y-114031492D01*
X224515352Y-114185349D01*
X224342508Y-114364980D01*
X224211221Y-114531896D01*
X224159102Y-114647607D01*
X224159539Y-114651079D01*
X224216902Y-114638127D01*
X224351865Y-114544143D01*
X224537511Y-114387619D01*
X224700963Y-114242898D01*
X224832290Y-114150433D01*
X224945067Y-114126893D01*
X225059984Y-114182556D01*
X225197729Y-114327697D01*
X225378992Y-114572593D01*
X225624462Y-114927521D01*
X225980849Y-115427726D01*
X226543330Y-116156734D01*
X227196058Y-116938303D01*
X227355036Y-117138825D01*
X227494252Y-117362335D01*
X227544557Y-117519814D01*
X227540145Y-117582240D01*
X227516693Y-117640279D01*
X227457759Y-117701347D01*
X227346888Y-117775032D01*
X227167622Y-117870922D01*
X226903507Y-117998603D01*
X226538084Y-118167663D01*
X226054899Y-118387690D01*
X225888206Y-118466352D01*
X225642542Y-118595109D01*
X225473562Y-118700952D01*
X225410696Y-118766572D01*
X225428963Y-118806760D01*
X225529015Y-118807445D01*
X225683317Y-118789188D01*
X225883071Y-118824577D01*
X226084967Y-118899157D01*
X226252402Y-118995769D01*
X226348772Y-119097254D01*
X226337474Y-119186451D01*
X226312825Y-119200311D01*
X226234954Y-119158882D01*
X226199454Y-119115935D01*
X226055763Y-119013547D01*
X225891062Y-118949149D01*
X225771323Y-118952157D01*
X225766433Y-118955419D01*
X225673421Y-119054993D01*
X225561832Y-119216513D01*
X225430410Y-119432620D01*
X225369723Y-119190074D01*
X225309036Y-118947529D01*
X225282504Y-119250314D01*
X225266184Y-119376888D01*
X225202525Y-119540916D01*
X225074039Y-119635992D01*
X225027628Y-119658963D01*
X224929046Y-119757735D01*
X224931663Y-119922193D01*
X224947694Y-120011165D01*
X224945794Y-120058902D01*
X224901640Y-119978254D01*
X224872079Y-119875908D01*
X224841008Y-119653254D01*
X224826885Y-119388067D01*
X224821711Y-118945127D01*
X225668377Y-118100862D01*
X225861825Y-117906579D01*
X226121360Y-117641006D01*
X226328408Y-117423096D01*
X226465469Y-117271377D01*
X226515044Y-117204376D01*
X226509285Y-117189531D01*
X226433274Y-117085169D01*
X226287509Y-116912214D01*
X226095598Y-116699102D01*
X225950005Y-116548894D01*
X225533045Y-116176805D01*
X225085554Y-115846676D01*
X224645569Y-115584928D01*
X224251131Y-115417982D01*
X224141022Y-115398228D01*
X224089099Y-115431350D01*
X224140205Y-115505184D01*
X224287942Y-115589861D01*
X224490406Y-115673536D01*
X224467218Y-116403644D01*
X224473277Y-116972534D01*
X224572015Y-117819771D01*
X224597655Y-117963646D01*
X224648050Y-118292685D01*
X224680832Y-118575644D01*
X224689874Y-118763471D01*
X224676027Y-119157586D01*
X224671333Y-119477986D01*
X224680321Y-119705593D01*
X224705638Y-119868844D01*
X224749934Y-119996176D01*
X224815858Y-120116030D01*
X224843519Y-120157783D01*
X224991675Y-120322181D01*
X225135878Y-120410576D01*
X225176450Y-120426435D01*
X225283420Y-120524694D01*
X225401753Y-120721904D01*
X225545429Y-121039537D01*
X225562192Y-121079231D01*
X225763996Y-121514368D01*
X226002496Y-121967867D01*
X226258957Y-122408901D01*
X226514646Y-122806641D01*
X226750829Y-123130258D01*
X226948774Y-123348926D01*
X227058269Y-123441015D01*
X227300937Y-123613409D01*
X227516308Y-123731363D01*
X227517753Y-123731966D01*
X227716839Y-123805372D01*
X227854427Y-123838797D01*
X227904821Y-123828986D01*
X227842325Y-123772681D01*
X227802802Y-123748652D01*
X227770557Y-123721530D01*
X227789787Y-123694805D01*
X227882767Y-123657430D01*
X228071778Y-123598362D01*
X228379096Y-123506554D01*
X228580969Y-123436098D01*
X229094429Y-123154705D01*
X229538788Y-122755805D01*
X229902804Y-122253750D01*
X230175232Y-121662889D01*
X230344831Y-120997573D01*
X230360797Y-120843121D01*
X230348951Y-120441018D01*
X230279777Y-119987417D01*
X230160127Y-119536515D01*
X230140025Y-119474159D01*
X230136183Y-119434168D01*
X230197449Y-119523730D01*
X230321728Y-119777021D01*
X230443624Y-120193194D01*
X230521248Y-120674701D01*
X230550386Y-121178307D01*
X230526829Y-121660776D01*
X230446363Y-122078874D01*
X230367188Y-122322183D01*
X230115017Y-122923039D01*
X229799747Y-123494066D01*
X229440870Y-124006099D01*
X229057878Y-124429971D01*
X228670263Y-124736515D01*
X228432728Y-124884054D01*
X227913559Y-124611239D01*
X227843692Y-124575039D01*
X227608146Y-124461235D01*
X227434717Y-124390168D01*
X227356846Y-124375969D01*
X227357366Y-124392943D01*
X227439091Y-124473295D01*
X227610562Y-124595699D01*
X227843224Y-124741812D01*
X228108523Y-124893295D01*
X228377903Y-125031806D01*
X228731486Y-125201793D01*
X228414714Y-125351882D01*
X228314299Y-125403151D01*
X228138889Y-125528787D01*
X228098820Y-125628689D01*
X228193809Y-125691450D01*
X228423568Y-125705660D01*
X228749194Y-125690458D01*
X228368351Y-126076091D01*
X228342127Y-126102752D01*
X228162475Y-126291792D01*
X228035589Y-126436364D01*
X227987508Y-126507006D01*
X228000097Y-126524419D01*
X228106278Y-126608904D01*
X228297172Y-126740556D01*
X228544419Y-126899396D01*
X228842885Y-127098888D01*
X229020367Y-127252124D01*
X229061742Y-127349665D01*
X229059947Y-127354486D01*
X229069719Y-127421079D01*
X229190383Y-127410605D01*
X229222762Y-127403576D01*
X229351799Y-127423382D01*
X229446103Y-127560406D01*
X229454010Y-127578339D01*
X229518154Y-127799746D01*
X229529643Y-128006233D01*
X229484513Y-128138157D01*
X229441087Y-128174133D01*
X229310622Y-128191201D01*
X229193701Y-128070744D01*
X229099223Y-127820107D01*
X229085881Y-127770393D01*
X228997762Y-127542038D01*
X228856605Y-127345180D01*
X228625810Y-127126172D01*
X228613887Y-127115925D01*
X228391472Y-126936283D01*
X228257095Y-126849801D01*
X228217789Y-126855811D01*
X228280583Y-126953646D01*
X228452507Y-127142637D01*
X228723882Y-127420549D01*
X228429318Y-127499173D01*
X228375627Y-127512863D01*
X228193710Y-127539798D01*
X228134754Y-127501773D01*
X228111733Y-127407259D01*
X228046378Y-127215651D01*
X227953532Y-126972765D01*
X227772310Y-126519781D01*
X227920779Y-126219699D01*
X227966129Y-126125935D01*
X228025605Y-125961770D01*
X228019347Y-125822873D01*
X227951160Y-125636182D01*
X227853369Y-125451444D01*
X227684843Y-125218586D01*
X227492505Y-125009422D01*
X227308851Y-124858551D01*
X227166375Y-124800573D01*
X227109341Y-124788055D01*
X226939501Y-124666950D01*
X226722678Y-124426157D01*
X226466205Y-124076757D01*
X226177414Y-123629832D01*
X225863640Y-123096465D01*
X225532216Y-122487736D01*
X225190475Y-121814727D01*
X225097700Y-121622777D01*
X224511511Y-120234604D01*
X224041802Y-118776543D01*
X223683223Y-117232321D01*
X223679206Y-117209029D01*
X223656465Y-117030590D01*
X223629263Y-116764566D01*
X223602639Y-116459277D01*
X223589086Y-116139164D01*
X223611696Y-115789112D01*
X223684241Y-115448093D01*
X223815539Y-115097040D01*
X224014406Y-114716882D01*
X224289661Y-114288550D01*
X224650121Y-113792975D01*
X225104603Y-113211088D01*
X225201254Y-113089408D01*
X225472245Y-112741357D01*
X225723648Y-112409262D01*
X225930949Y-112125825D01*
X226069636Y-111923745D01*
X226199634Y-111737058D01*
X226301876Y-111622097D01*
X226351038Y-111608554D01*
X226329579Y-111682504D01*
G37*
G36*
X224754703Y-115895237D02*
G01*
X224870113Y-115960250D01*
X225109538Y-116121653D01*
X225275190Y-116272087D01*
X225337073Y-116386260D01*
X225334344Y-116413973D01*
X225285393Y-116435981D01*
X225153583Y-116364320D01*
X225125721Y-116347050D01*
X224938375Y-116283945D01*
X224801380Y-116324437D01*
X224748807Y-116460436D01*
X224765099Y-116548494D01*
X224831309Y-116745868D01*
X224930967Y-116981324D01*
X224997046Y-117130396D01*
X225121189Y-117442224D01*
X225215383Y-117717556D01*
X225318356Y-118064051D01*
X225051628Y-118064051D01*
X224931820Y-118057665D01*
X224834759Y-118024086D01*
X224764766Y-117943304D01*
X224715381Y-117795328D01*
X224680138Y-117560168D01*
X224652575Y-117217835D01*
X224626229Y-116748339D01*
X224577261Y-115800743D01*
X224754703Y-115895237D01*
G37*
G36*
X228890157Y-127607047D02*
G01*
X228988074Y-127787321D01*
X229018232Y-128090876D01*
X229016528Y-128177029D01*
X229000493Y-128342431D01*
X228973039Y-128408109D01*
X228908891Y-128392835D01*
X228739163Y-128307284D01*
X228537891Y-128175585D01*
X228354316Y-128031243D01*
X228237677Y-127907761D01*
X228187093Y-127816454D01*
X228179115Y-127690933D01*
X228291957Y-127606439D01*
X228538670Y-127547345D01*
X228713312Y-127537397D01*
X228890157Y-127607047D01*
G37*
G36*
X228791333Y-125374574D02*
G01*
X228771957Y-125496818D01*
X228678681Y-125577861D01*
X228449963Y-125607174D01*
X228171566Y-125603920D01*
X228454600Y-125454604D01*
X228531957Y-125415351D01*
X228713814Y-125347748D01*
X228791333Y-125374574D01*
G37*
G36*
X227226735Y-110247722D02*
G01*
X227238253Y-110269867D01*
X227177653Y-110296804D01*
X227138677Y-110291491D01*
X227128571Y-110247722D01*
X227139361Y-110238911D01*
X227226735Y-110247722D01*
G37*
G36*
X229901711Y-118800283D02*
G01*
X229864899Y-118837094D01*
X229828087Y-118800283D01*
X229864899Y-118763471D01*
X229901711Y-118800283D01*
G37*
G36*
X226061894Y-119199103D02*
G01*
X226160058Y-119271668D01*
X226187538Y-119346311D01*
X226200911Y-119421561D01*
X226296507Y-119538625D01*
X226374360Y-119615022D01*
X226399126Y-119698879D01*
X226318276Y-119808240D01*
X226303888Y-119824056D01*
X226220646Y-119895986D01*
X226153915Y-119869307D01*
X226057540Y-119730202D01*
X226048702Y-119716456D01*
X225915067Y-119571060D01*
X225776353Y-119552637D01*
X225760331Y-119556526D01*
X225650753Y-119546811D01*
X225652294Y-119450500D01*
X225765339Y-119277189D01*
X225823364Y-119210994D01*
X225928648Y-119153655D01*
X226061894Y-119199103D01*
G37*
G36*
X223195580Y-113329566D02*
G01*
X223299406Y-113383419D01*
X223312634Y-113462281D01*
X223258595Y-113495499D01*
X223105699Y-113450465D01*
X223012717Y-113382101D01*
X223038973Y-113332886D01*
X223057795Y-113327502D01*
X223195580Y-113329566D01*
G37*
G36*
X223420512Y-113506584D02*
G01*
X223465569Y-113617615D01*
X223451297Y-113796521D01*
X223399147Y-114004302D01*
X223300797Y-113820533D01*
X223244099Y-113666813D01*
X223281594Y-113541399D01*
X223336780Y-113494480D01*
X223420512Y-113506584D01*
G37*
G36*
X229754464Y-118505790D02*
G01*
X229717653Y-118542602D01*
X229680841Y-118505790D01*
X229717653Y-118468978D01*
X229754464Y-118505790D01*
G37*
G36*
X230048957Y-119094775D02*
G01*
X230012145Y-119131587D01*
X229975334Y-119094775D01*
X230012145Y-119057964D01*
X230048957Y-119094775D01*
G37*
G36*
X230528831Y-115702690D02*
G01*
X230598001Y-115770298D01*
X230580571Y-115892151D01*
X230471584Y-116085734D01*
X230266082Y-116368532D01*
X230144128Y-116532708D01*
X229839685Y-117016066D01*
X229658542Y-117452266D01*
X229595334Y-117857538D01*
X229644696Y-118248109D01*
X229648607Y-118265150D01*
X229631363Y-118270919D01*
X229563770Y-118165942D01*
X229457691Y-117967986D01*
X229311945Y-117626464D01*
X229193619Y-117146614D01*
X229177731Y-116694131D01*
X229268265Y-116304043D01*
X229302209Y-116228086D01*
X229379753Y-116092808D01*
X229430091Y-116058615D01*
X229434419Y-116130928D01*
X229380318Y-116272383D01*
X229375735Y-116281433D01*
X229383922Y-116310256D01*
X229473299Y-116244821D01*
X229626599Y-116097397D01*
X229654676Y-116068883D01*
X229949839Y-115816377D01*
X230212124Y-115690930D01*
X230460366Y-115683183D01*
X230528831Y-115702690D01*
G37*
G36*
X228389070Y-110228853D02*
G01*
X228392435Y-110296804D01*
X228377390Y-110316701D01*
X228273310Y-110370428D01*
X228248554Y-110364755D01*
X228245189Y-110296804D01*
X228260234Y-110276908D01*
X228364314Y-110223181D01*
X228389070Y-110228853D01*
G37*
G36*
X225649650Y-119661220D02*
G01*
X225805459Y-119698077D01*
X225946775Y-119798497D01*
X225982489Y-119928133D01*
X225893581Y-120056189D01*
X225812521Y-120113509D01*
X225711943Y-120149548D01*
X225635531Y-120084432D01*
X225543573Y-119900496D01*
X225424903Y-119638680D01*
X225649650Y-119661220D01*
G37*
G36*
X223246755Y-125978328D02*
G01*
X223164293Y-126106304D01*
X223016623Y-126274388D01*
X223002473Y-126288814D01*
X222812712Y-126466976D01*
X222687259Y-126555256D01*
X222638223Y-126547783D01*
X222677712Y-126438688D01*
X222745848Y-126337500D01*
X222884591Y-126181653D01*
X223039875Y-126039876D01*
X223174600Y-125945047D01*
X223251666Y-125930045D01*
X223246755Y-125978328D01*
G37*
G36*
X227043275Y-108568560D02*
G01*
X227045256Y-108571705D01*
X227167270Y-108627478D01*
X227411579Y-108623866D01*
X227574350Y-108612838D01*
X227739721Y-108643035D01*
X227866244Y-108743412D01*
X228006502Y-108898396D01*
X227768448Y-108815410D01*
X227568916Y-108770237D01*
X227451608Y-108811211D01*
X227428708Y-108828411D01*
X227302752Y-108833042D01*
X227089618Y-108745517D01*
X227053384Y-108727205D01*
X226871825Y-108651358D01*
X226730086Y-108646270D01*
X226553912Y-108706540D01*
X226338083Y-108833744D01*
X226146411Y-109077757D01*
X226037203Y-109431732D01*
X226033717Y-109450627D01*
X225969979Y-109638928D01*
X225881693Y-109707819D01*
X225795602Y-109720316D01*
X225775656Y-109768242D01*
X225856375Y-109828416D01*
X226016974Y-109875132D01*
X226152910Y-109912398D01*
X226398436Y-110013421D01*
X226653503Y-110146864D01*
X226791857Y-110223661D01*
X227102745Y-110346544D01*
X227419136Y-110387725D01*
X227500196Y-110389969D01*
X227663193Y-110401794D01*
X227700726Y-110425762D01*
X227629273Y-110468181D01*
X227502132Y-110538235D01*
X227472224Y-110591094D01*
X227558164Y-110599890D01*
X227743822Y-110552721D01*
X227799735Y-110534390D01*
X227973170Y-110490029D01*
X228065823Y-110486369D01*
X228070004Y-110524247D01*
X228026960Y-110662124D01*
X227937176Y-110860052D01*
X227889541Y-110959606D01*
X227779215Y-111311511D01*
X227797779Y-111598830D01*
X227947626Y-111830974D01*
X228231144Y-112017352D01*
X228485307Y-112097089D01*
X228835715Y-112132766D01*
X229184294Y-112107884D01*
X229464967Y-112022185D01*
X229651140Y-111873142D01*
X229789733Y-111672475D01*
X229823395Y-111601408D01*
X229875607Y-111533841D01*
X229892570Y-111579259D01*
X229872323Y-111716382D01*
X229812904Y-111923934D01*
X229692899Y-112177085D01*
X229539404Y-112338606D01*
X229377450Y-112376026D01*
X229374850Y-112375538D01*
X229230219Y-112393358D01*
X229046146Y-112465480D01*
X228890753Y-112532599D01*
X228723261Y-112573621D01*
X228616839Y-112565736D01*
X228609087Y-112505500D01*
X228613335Y-112488714D01*
X228540185Y-112447203D01*
X228351406Y-112431877D01*
X228273539Y-112429638D01*
X228127358Y-112406943D01*
X228087893Y-112367688D01*
X228081923Y-112338595D01*
X227982518Y-112262914D01*
X227799839Y-112178341D01*
X227738097Y-112151991D01*
X227516360Y-112020692D01*
X227310505Y-111853185D01*
X227158875Y-111684011D01*
X227099811Y-111547711D01*
X227130073Y-111500410D01*
X227251111Y-111436678D01*
X227303074Y-111415483D01*
X227373104Y-111332357D01*
X227320719Y-111247462D01*
X227158853Y-111194715D01*
X227108933Y-111185391D01*
X227003147Y-111124636D01*
X226907898Y-110985409D01*
X226798257Y-110735998D01*
X226781005Y-110693125D01*
X226664584Y-110446465D01*
X226549952Y-110302337D01*
X226409652Y-110224609D01*
X226396523Y-110220102D01*
X226137949Y-110159750D01*
X225928864Y-110160743D01*
X225811406Y-110223181D01*
X225830442Y-110273832D01*
X225957963Y-110296804D01*
X226001326Y-110297909D01*
X226292013Y-110368204D01*
X226510868Y-110530910D01*
X226623628Y-110762079D01*
X226649880Y-111003151D01*
X226643410Y-111246781D01*
X226606795Y-111436065D01*
X226544758Y-111525283D01*
X226531544Y-111524762D01*
X226469803Y-111447269D01*
X226403456Y-111287124D01*
X226347631Y-111094256D01*
X226317456Y-110918597D01*
X226328060Y-110810076D01*
X226330022Y-110766346D01*
X226240921Y-110682332D01*
X226068463Y-110601868D01*
X225852031Y-110541476D01*
X225631004Y-110517674D01*
X225503300Y-110514908D01*
X225365543Y-110487595D01*
X225353773Y-110416558D01*
X225454700Y-110284196D01*
X225514174Y-110215332D01*
X225531038Y-110157564D01*
X225436295Y-110141080D01*
X225356741Y-110138655D01*
X225167203Y-110145708D01*
X225097839Y-110138557D01*
X225038362Y-110069106D01*
X225043107Y-110036164D01*
X225119709Y-109881126D01*
X225258111Y-109698626D01*
X225416921Y-109538308D01*
X225554744Y-109449814D01*
X225635451Y-109404159D01*
X225654247Y-109323665D01*
X225664025Y-109276960D01*
X225800425Y-109293557D01*
X225934363Y-109309488D01*
X225995464Y-109260203D01*
X226012388Y-109150110D01*
X226121250Y-108915266D01*
X226297680Y-108692079D01*
X226502552Y-108536395D01*
X226694769Y-108459647D01*
X226904756Y-108452960D01*
X227043275Y-108568560D01*
G37*
G36*
X222669225Y-111717596D02*
G01*
X222966282Y-111828942D01*
X222991776Y-111841421D01*
X223268144Y-111982334D01*
X223438600Y-112095633D01*
X223528706Y-112213682D01*
X223564024Y-112368848D01*
X223570116Y-112593497D01*
X223570116Y-113014190D01*
X223316386Y-113061790D01*
X223297533Y-113065176D01*
X223100543Y-113084300D01*
X222966676Y-113070939D01*
X222941904Y-113044711D01*
X223027334Y-113026675D01*
X223182362Y-112986100D01*
X223312048Y-112829261D01*
X223363109Y-112550531D01*
X223359679Y-112345904D01*
X223332325Y-112253132D01*
X223289604Y-112297280D01*
X223240892Y-112483493D01*
X223225929Y-112556301D01*
X223150643Y-112753932D01*
X223016494Y-112847868D01*
X222783012Y-112872489D01*
X222646448Y-112862321D01*
X222520305Y-112811594D01*
X222513322Y-112736304D01*
X222639096Y-112656826D01*
X222740452Y-112608198D01*
X222817296Y-112525426D01*
X222876221Y-112375301D01*
X222938879Y-112118978D01*
X222947514Y-112076337D01*
X222952810Y-111942889D01*
X222911720Y-111926324D01*
X222844474Y-112016476D01*
X222771305Y-112203179D01*
X222745590Y-112280881D01*
X222643675Y-112457157D01*
X222490480Y-112538770D01*
X222415781Y-112549967D01*
X222238793Y-112513055D01*
X222127323Y-112403734D01*
X222122086Y-112253528D01*
X222175005Y-112168224D01*
X222268521Y-112150796D01*
X222338155Y-112266225D01*
X222348047Y-112300771D01*
X222380394Y-112315368D01*
X222425117Y-112192766D01*
X222449915Y-112026857D01*
X222431643Y-111861462D01*
X222424617Y-111844336D01*
X222378874Y-111792525D01*
X222302767Y-111831144D01*
X222166022Y-111972893D01*
X222164993Y-111974042D01*
X221998321Y-112215690D01*
X221956419Y-112420879D01*
X222042435Y-112574286D01*
X222159192Y-112670831D01*
X222367184Y-112852046D01*
X222537309Y-113011291D01*
X222644426Y-113124538D01*
X222663392Y-113167757D01*
X222515714Y-113123716D01*
X222378661Y-113020739D01*
X222318522Y-112907837D01*
X222306591Y-112858708D01*
X222210542Y-112799993D01*
X222162407Y-112786476D01*
X222018093Y-112694798D01*
X221847641Y-112545073D01*
X221754606Y-112458068D01*
X221628555Y-112364641D01*
X221569100Y-112356650D01*
X221566479Y-112361168D01*
X221472710Y-112409818D01*
X221276818Y-112471116D01*
X221016874Y-112532910D01*
X220944997Y-112548606D01*
X220694060Y-112613515D01*
X220448704Y-112689505D01*
X220231404Y-112767347D01*
X220064634Y-112837812D01*
X219970866Y-112891670D01*
X219972576Y-112919691D01*
X220092238Y-112912645D01*
X220266991Y-112914943D01*
X220578706Y-112974036D01*
X220975716Y-113090089D01*
X221034265Y-113109067D01*
X221427831Y-113221744D01*
X221846189Y-113321774D01*
X222208087Y-113389420D01*
X222280109Y-113400077D01*
X222560078Y-113443740D01*
X222778824Y-113481273D01*
X222894048Y-113505516D01*
X222901101Y-113508913D01*
X222892142Y-113587969D01*
X222780072Y-113756372D01*
X222570256Y-114005831D01*
X222149489Y-114476262D01*
X221635980Y-114144075D01*
X221403685Y-114003362D01*
X221049491Y-113806387D01*
X220653693Y-113599801D01*
X220266438Y-113410467D01*
X219916533Y-113246236D01*
X219559795Y-113078518D01*
X219253148Y-112934075D01*
X219038220Y-112832496D01*
X218899418Y-112759800D01*
X218658874Y-112605187D01*
X218486046Y-112458416D01*
X218450482Y-112418417D01*
X218377885Y-112323443D01*
X218390373Y-112309147D01*
X218432197Y-112320444D01*
X218511837Y-112260597D01*
X218513869Y-112256419D01*
X218609741Y-112194854D01*
X218808015Y-112126621D01*
X219068642Y-112065735D01*
X219168853Y-112047810D01*
X219434159Y-112013802D01*
X219707514Y-112004481D01*
X220034660Y-112019624D01*
X220461338Y-112059012D01*
X220911435Y-112096957D01*
X221333326Y-112103079D01*
X221666458Y-112064011D01*
X221939711Y-111975996D01*
X222181966Y-111835279D01*
X222198694Y-111823581D01*
X222427788Y-111715693D01*
X222669225Y-111717596D01*
G37*
G36*
X225380518Y-119873324D02*
G01*
X225432269Y-119934802D01*
X225484319Y-120097703D01*
X225483027Y-120123675D01*
X225426947Y-120211384D01*
X225263450Y-120235935D01*
X225205839Y-120234907D01*
X225073314Y-120206636D01*
X225060930Y-120121280D01*
X225159648Y-119954314D01*
X225189733Y-119913389D01*
X225285404Y-119835264D01*
X225380518Y-119873324D01*
G37*
G36*
X229441483Y-111905799D02*
G01*
X229256622Y-111980362D01*
X229069710Y-111922945D01*
X228858640Y-111729643D01*
X228740128Y-111603268D01*
X228508396Y-111417591D01*
X228323813Y-111362347D01*
X228192142Y-111438190D01*
X228119150Y-111645774D01*
X228100349Y-111745744D01*
X228068354Y-111749969D01*
X227995894Y-111629571D01*
X227955881Y-111520640D01*
X227959108Y-111257368D01*
X228028999Y-111055295D01*
X229122126Y-111055295D01*
X229141338Y-111217094D01*
X229155771Y-111302678D01*
X229198925Y-111515942D01*
X229239052Y-111667585D01*
X229268524Y-111737168D01*
X229279713Y-111704252D01*
X229264991Y-111548399D01*
X229252681Y-111466147D01*
X229206221Y-111233675D01*
X229157287Y-111069848D01*
X229137545Y-111031091D01*
X229122126Y-111055295D01*
X228028999Y-111055295D01*
X228061821Y-110960398D01*
X228253695Y-110668238D01*
X228362140Y-110557007D01*
X228542749Y-110463318D01*
X228761443Y-110473352D01*
X229055044Y-110583202D01*
X229171912Y-110645734D01*
X229345172Y-110762613D01*
X229501047Y-110889714D01*
X229613823Y-111003234D01*
X229657784Y-111079369D01*
X229607218Y-111094319D01*
X229542403Y-111108518D01*
X229502805Y-111213454D01*
X229486001Y-111437964D01*
X229484509Y-111574550D01*
X229491890Y-111662442D01*
X229508017Y-111622022D01*
X229524075Y-111535963D01*
X229572719Y-111344925D01*
X229624462Y-111275335D01*
X229690568Y-111307807D01*
X229701484Y-111320176D01*
X229732452Y-111465849D01*
X229665162Y-111655472D01*
X229626324Y-111704252D01*
X229513960Y-111845382D01*
X229441483Y-111905799D01*
G37*
G36*
X223726208Y-124412387D02*
G01*
X223853510Y-124544664D01*
X223968191Y-124708544D01*
X223974853Y-124720475D01*
X223995382Y-124786561D01*
X223931883Y-124788508D01*
X223758967Y-124728772D01*
X223755951Y-124727599D01*
X223641819Y-124640803D01*
X223571831Y-124517281D01*
X223562997Y-124406727D01*
X223632329Y-124358833D01*
X223726208Y-124412387D01*
G37*
G36*
X229828087Y-118653036D02*
G01*
X229791276Y-118689848D01*
X229754464Y-118653036D01*
X229791276Y-118616225D01*
X229828087Y-118653036D01*
G37*
G36*
X225742000Y-109138140D02*
G01*
X225317664Y-109192491D01*
X225242995Y-109202758D01*
X224686368Y-109335294D01*
X224247686Y-109552976D01*
X223923352Y-109858178D01*
X223709769Y-110253270D01*
X223690907Y-110303062D01*
X223625254Y-110441573D01*
X223582178Y-110480653D01*
X223571905Y-110461914D01*
X223586991Y-110335094D01*
X223664548Y-110141679D01*
X223784021Y-109920962D01*
X223924855Y-109712235D01*
X224066497Y-109554793D01*
X224144510Y-109488715D01*
X224480791Y-109269280D01*
X224841436Y-109155418D01*
X225279491Y-109128487D01*
X225742000Y-109138140D01*
G37*
G36*
X228439074Y-111487923D02*
G01*
X228587579Y-111570751D01*
X228753633Y-111696730D01*
X228888791Y-111827090D01*
X228944609Y-111923059D01*
X228919479Y-111966033D01*
X228799266Y-111994399D01*
X228625371Y-111979549D01*
X228448984Y-111927841D01*
X228321294Y-111845633D01*
X228296549Y-111815400D01*
X228233627Y-111658828D01*
X228265718Y-111528955D01*
X228384476Y-111474775D01*
X228439074Y-111487923D01*
G37*
G36*
X229975334Y-118947529D02*
G01*
X229938522Y-118984341D01*
X229901711Y-118947529D01*
X229938522Y-118910717D01*
X229975334Y-118947529D01*
G37*
G36*
X230122580Y-119278833D02*
G01*
X230117267Y-119317809D01*
X230073498Y-119327916D01*
X230064687Y-119317125D01*
X230073498Y-119229751D01*
X230095643Y-119218233D01*
X230122580Y-119278833D01*
G37*
G36*
X223537966Y-126171967D02*
G01*
X223653882Y-126307776D01*
X223750547Y-126479477D01*
X223790986Y-126632098D01*
X223771356Y-126675248D01*
X223662145Y-126737648D01*
X223509218Y-126765082D01*
X223283523Y-126779856D01*
X223064730Y-126774038D01*
X222899347Y-126749324D01*
X222833885Y-126707413D01*
X222877766Y-126610341D01*
X223003808Y-126458939D01*
X223169810Y-126300784D01*
X223332957Y-126176271D01*
X223450429Y-126125790D01*
X223537966Y-126171967D01*
G37*
G36*
X228548703Y-109203888D02*
G01*
X228715058Y-109297530D01*
X228904815Y-109468544D01*
X228922587Y-109487698D01*
X229085512Y-109673296D01*
X229148872Y-109782523D01*
X229118400Y-109839501D01*
X228999827Y-109868351D01*
X228900028Y-109896633D01*
X228855810Y-109951083D01*
X228822364Y-110031994D01*
X228708564Y-110147403D01*
X228604035Y-110215584D01*
X228504228Y-110210047D01*
X228453602Y-110078456D01*
X228445598Y-109812457D01*
X228446337Y-109777950D01*
X228434458Y-109542473D01*
X228400428Y-109358109D01*
X228384129Y-109270159D01*
X228430233Y-109192978D01*
X228548703Y-109203888D01*
G37*
%TD*%
D10*
%TO.C,On / Off*%
X67283930Y-54566664D03*
X64283930Y-54516664D03*
%TD*%
D11*
%TO.C,D14*%
X108733930Y-109281664D03*
X105183930Y-109281664D03*
%TD*%
%TO.C,D13*%
X89733930Y-99781664D03*
X86183930Y-99781664D03*
%TD*%
D12*
%TO.C,SW33*%
X162246430Y-132181664D03*
D13*
X164401157Y-138101728D03*
X167304877Y-134384415D03*
%TD*%
D12*
%TO.C,SW10*%
X120283930Y-83756664D03*
D13*
X120283930Y-90056664D03*
X124283930Y-87556664D03*
%TD*%
D12*
%TO.C,SW28*%
X175546430Y-102731664D03*
D13*
X175546430Y-109031664D03*
X179546430Y-106531664D03*
%TD*%
D11*
%TO.C,D19*%
X202108930Y-71256664D03*
X198558930Y-71256664D03*
%TD*%
%TO.C,D27*%
X259108930Y-100681664D03*
X255558930Y-100681664D03*
%TD*%
%TO.C,D33*%
X172754877Y-132384415D03*
X169204877Y-132384415D03*
%TD*%
D14*
%TO.C,J4*%
X208483930Y-105506664D03*
D15*
X210483930Y-105506664D03*
%TD*%
D12*
%TO.C,SW3*%
X82283930Y-55256664D03*
D13*
X82283930Y-61556664D03*
X86283930Y-59056664D03*
%TD*%
D12*
%TO.C,SW23*%
X175546430Y-83731664D03*
D13*
X175546430Y-90031664D03*
X179546430Y-87531664D03*
%TD*%
D12*
%TO.C,SW20*%
X213658930Y-55231664D03*
D13*
X213658930Y-61531664D03*
X217658930Y-59031664D03*
%TD*%
D12*
%TO.C,SW30*%
X213658930Y-93231664D03*
D13*
X213658930Y-99531664D03*
X217658930Y-97031664D03*
%TD*%
D12*
%TO.C,SW24*%
X194658930Y-83731664D03*
D13*
X194658930Y-90031664D03*
X198658930Y-87531664D03*
%TD*%
D12*
%TO.C,SW27*%
X251658930Y-99881664D03*
D13*
X251658930Y-106181664D03*
X255658930Y-103681664D03*
%TD*%
D12*
%TO.C,SW7*%
X63283930Y-86606664D03*
D13*
X63283930Y-92906664D03*
X67283930Y-90406664D03*
%TD*%
D11*
%TO.C,D18*%
X182996430Y-71256664D03*
X179446430Y-71256664D03*
%TD*%
D12*
%TO.C,SW34*%
X185158930Y-129331664D03*
D13*
X184609849Y-135607691D03*
X188812517Y-133465827D03*
%TD*%
D16*
%TO.C,REF\u002A\u002A*%
X132433930Y-55481664D03*
D17*
X132433930Y-55481664D03*
%TD*%
D18*
%TO.C,REF\u002A\u002A*%
X160858930Y-103787914D03*
X160858930Y-105569164D03*
X160858930Y-103194164D03*
X160858930Y-106756664D03*
X160858930Y-104975414D03*
X160858930Y-104381664D03*
X160858930Y-107350414D03*
X160858930Y-106162914D03*
X160858930Y-107944164D03*
%TD*%
D11*
%TO.C,D30*%
X221108930Y-99756664D03*
X217558930Y-99756664D03*
%TD*%
%TO.C,D2*%
X70733930Y-74406664D03*
X67183930Y-74406664D03*
%TD*%
D19*
%TO.C,U1*%
X27938930Y-86826664D03*
X30478930Y-86826664D03*
X33018930Y-86826664D03*
X35558930Y-86826664D03*
X38098930Y-86826664D03*
X40638930Y-86826664D03*
X43178930Y-86826664D03*
X43178930Y-70636664D03*
X40638930Y-70636664D03*
X38098930Y-70636664D03*
X35558930Y-70636664D03*
X33018930Y-70636664D03*
X30478930Y-70636664D03*
X27938930Y-70636664D03*
D20*
X29526930Y-80001664D03*
X35241930Y-83176664D03*
%TD*%
D17*
%TO.C,REF\u002A\u002A*%
X56408930Y-55481664D03*
D16*
X56408930Y-55481664D03*
%TD*%
D12*
%TO.C,SW17*%
X133583930Y-132206664D03*
D13*
X131429203Y-138126728D03*
X136043024Y-137145577D03*
%TD*%
D19*
%TO.C,U2*%
X267969117Y-70611664D03*
X265429117Y-70611664D03*
X262889117Y-70611664D03*
X260349117Y-70611664D03*
X257809117Y-70611664D03*
X255269117Y-70611664D03*
X252729117Y-70611664D03*
X252729117Y-86801664D03*
X255269117Y-86801664D03*
X257809117Y-86801664D03*
X260349117Y-86801664D03*
X262889117Y-86801664D03*
X265429117Y-86801664D03*
X267969117Y-86801664D03*
D20*
X266381117Y-77436664D03*
X260666117Y-74261664D03*
%TD*%
D11*
%TO.C,D11*%
X51733930Y-119706664D03*
X48183930Y-119706664D03*
%TD*%
D12*
%TO.C,SW1*%
X25283930Y-99906664D03*
D13*
X25283930Y-106206664D03*
X29283930Y-103706664D03*
%TD*%
D12*
%TO.C,SW19*%
X194658930Y-64731664D03*
D13*
X194658930Y-71031664D03*
X198658930Y-68531664D03*
%TD*%
D11*
%TO.C,D12*%
X70733930Y-112131664D03*
X67183930Y-112131664D03*
%TD*%
D18*
%TO.C,REF\u002A\u002A*%
X160858930Y-77944164D03*
X160858930Y-73787914D03*
X160858930Y-76162914D03*
X160858930Y-77350414D03*
X160858930Y-74975414D03*
X160858930Y-73194164D03*
X160858930Y-76756664D03*
X160858930Y-75569164D03*
X160858930Y-74381664D03*
%TD*%
D11*
%TO.C,D15*%
X127733930Y-109281664D03*
X124183930Y-109281664D03*
%TD*%
%TO.C,D32*%
X259108930Y-119681664D03*
X255558930Y-119681664D03*
%TD*%
D10*
%TO.C,On / Off*%
X228858930Y-54491664D03*
X231858930Y-54541664D03*
%TD*%
D11*
%TO.C,D23*%
X182996430Y-90256664D03*
X179446430Y-90256664D03*
%TD*%
%TO.C,D7*%
X70733930Y-93131664D03*
X67183930Y-93131664D03*
%TD*%
%TO.C,D31*%
X240108930Y-106381664D03*
X236558930Y-106381664D03*
%TD*%
%TO.C,D24*%
X202108930Y-90256664D03*
X198558930Y-90256664D03*
%TD*%
D12*
%TO.C,SW13*%
X82283930Y-93256664D03*
D13*
X82283930Y-99556664D03*
X86283930Y-97056664D03*
%TD*%
D12*
%TO.C,SW29*%
X194658930Y-102731664D03*
D13*
X194658930Y-109031664D03*
X198658930Y-106531664D03*
%TD*%
D11*
%TO.C,D17*%
X133358930Y-127106664D03*
X136908930Y-127106664D03*
%TD*%
D12*
%TO.C,SW5*%
X120283930Y-64756664D03*
D13*
X120283930Y-71056664D03*
X124283930Y-68556664D03*
%TD*%
D11*
%TO.C,D22*%
X278108930Y-100681664D03*
X274558930Y-100681664D03*
%TD*%
D21*
%TO.C,RESET*%
X266033930Y-120256664D03*
X266033930Y-113756664D03*
%TD*%
D12*
%TO.C,SW22*%
X270658930Y-99881664D03*
D13*
X270658930Y-106181664D03*
X274658930Y-103681664D03*
%TD*%
D17*
%TO.C,REF\u002A\u002A*%
X110783930Y-141533493D03*
D16*
X110783930Y-141533493D03*
%TD*%
D11*
%TO.C,D25*%
X221108930Y-80756664D03*
X217558930Y-80756664D03*
%TD*%
%TO.C,D29*%
X202108930Y-109256664D03*
X198558930Y-109256664D03*
%TD*%
D14*
%TO.C,J2*%
X85783930Y-105506664D03*
D15*
X87783930Y-105506664D03*
%TD*%
D17*
%TO.C,REF\u002A\u002A*%
X27558930Y-125781664D03*
D16*
X27558930Y-125781664D03*
%TD*%
D12*
%TO.C,SW15*%
X120283930Y-102756664D03*
D13*
X120283930Y-109056664D03*
X124283930Y-106556664D03*
%TD*%
D11*
%TO.C,D6*%
X51733930Y-100706664D03*
X48183930Y-100706664D03*
%TD*%
D18*
%TO.C,REF\u002A\u002A*%
X135158930Y-104975414D03*
X135158930Y-105569164D03*
X135158930Y-107944164D03*
X135158930Y-104381664D03*
X135158930Y-107350414D03*
X135158930Y-106756664D03*
X135158930Y-103787914D03*
X135158930Y-106162914D03*
X135158930Y-103194164D03*
%TD*%
D11*
%TO.C,D5*%
X127733930Y-71556664D03*
X124183930Y-71556664D03*
%TD*%
D17*
%TO.C,REF\u002A\u002A*%
X132433930Y-117881664D03*
D16*
X132433930Y-117881664D03*
%TD*%
D11*
%TO.C,D21*%
X240108930Y-74381664D03*
X236558930Y-74381664D03*
%TD*%
%TO.C,D10*%
X127733930Y-90281664D03*
X124183930Y-90281664D03*
%TD*%
D12*
%TO.C,SW18*%
X175546430Y-64731664D03*
D13*
X175546430Y-71031664D03*
X179546430Y-68531664D03*
%TD*%
D11*
%TO.C,D1*%
X32733930Y-100706664D03*
X29183930Y-100706664D03*
%TD*%
D12*
%TO.C,SW25*%
X213658930Y-74231664D03*
D13*
X213658930Y-80531664D03*
X217658930Y-78031664D03*
%TD*%
D12*
%TO.C,SW11*%
X44283930Y-118906664D03*
D13*
X44283930Y-125206664D03*
X48283930Y-122706664D03*
%TD*%
D12*
%TO.C,SW32*%
X251658930Y-118881664D03*
D13*
X251658930Y-125181664D03*
X255658930Y-122681664D03*
%TD*%
D12*
%TO.C,SW12*%
X63283930Y-105606664D03*
D13*
X63283930Y-111906664D03*
X67283930Y-109406664D03*
%TD*%
D12*
%TO.C,SW16*%
X110783930Y-129356664D03*
D13*
X111333011Y-135632691D03*
X115099901Y-132793581D03*
%TD*%
D12*
%TO.C,SW26*%
X232658930Y-86581664D03*
D13*
X232658930Y-92881664D03*
X236658930Y-90381664D03*
%TD*%
D12*
%TO.C,SW4*%
X101283930Y-64756664D03*
D13*
X101283930Y-71056664D03*
X105283930Y-68556664D03*
%TD*%
D12*
%TO.C,SW14*%
X101283930Y-102756664D03*
D13*
X101283930Y-109056664D03*
X105283930Y-106556664D03*
%TD*%
D12*
%TO.C,SW2*%
X63283930Y-67606664D03*
D13*
X63283930Y-73906664D03*
X67283930Y-71406664D03*
%TD*%
D11*
%TO.C,D9*%
X108733930Y-90281664D03*
X105183930Y-90281664D03*
%TD*%
%TO.C,D28*%
X182996430Y-109256664D03*
X179446430Y-109256664D03*
%TD*%
D18*
%TO.C,REF\u002A\u002A*%
X135158930Y-77944164D03*
X135158930Y-76162914D03*
X135158930Y-75569164D03*
X135158930Y-76756664D03*
X135158930Y-73787914D03*
X135158930Y-77350414D03*
X135158930Y-74381664D03*
X135158930Y-74975414D03*
X135158930Y-73194164D03*
%TD*%
D11*
%TO.C,D20*%
X221108930Y-61756664D03*
X217558930Y-61756664D03*
%TD*%
D21*
%TO.C,RESET*%
X29858930Y-113756664D03*
X29858930Y-120256664D03*
%TD*%
D11*
%TO.C,D16*%
X112733930Y-125581664D03*
X116283930Y-125581664D03*
%TD*%
D12*
%TO.C,SW6*%
X44283930Y-99906664D03*
D13*
X44283930Y-106206664D03*
X48283930Y-103706664D03*
%TD*%
D11*
%TO.C,D3*%
X89733930Y-62056664D03*
X86183930Y-62056664D03*
%TD*%
D16*
%TO.C,REF\u002A\u002A*%
X185158930Y-141508493D03*
D17*
X185158930Y-141508493D03*
%TD*%
D11*
%TO.C,D8*%
X89733930Y-80781664D03*
X86183930Y-80781664D03*
%TD*%
D12*
%TO.C,SW21*%
X232658930Y-67581664D03*
D13*
X232658930Y-73881664D03*
X236658930Y-71381664D03*
%TD*%
D11*
%TO.C,D34*%
X194262517Y-131465827D03*
X190712517Y-131465827D03*
%TD*%
D12*
%TO.C,SW9*%
X101283930Y-83756664D03*
D13*
X101283930Y-90056664D03*
X105283930Y-87556664D03*
%TD*%
D11*
%TO.C,D26*%
X240108930Y-87381664D03*
X236558930Y-87381664D03*
%TD*%
D12*
%TO.C,SW8*%
X82283930Y-74256664D03*
D13*
X82283930Y-80556664D03*
X86283930Y-78056664D03*
%TD*%
D11*
%TO.C,D4*%
X108733930Y-71556664D03*
X105183930Y-71556664D03*
%TD*%
D12*
%TO.C,SW31*%
X232658930Y-105581664D03*
D13*
X232658930Y-111881664D03*
X236658930Y-109381664D03*
%TD*%
D17*
%TO.C,REF\u002A\u002A*%
X268333930Y-125762347D03*
D16*
X268333930Y-125762347D03*
%TD*%
D17*
%TO.C,REF\u002A\u002A*%
X163458930Y-117862347D03*
D16*
X163458930Y-117862347D03*
%TD*%
%TO.C,REF\u002A\u002A*%
X163458930Y-55462347D03*
D17*
X163458930Y-55462347D03*
%TD*%
%TO.C,REF\u002A\u002A*%
X239483930Y-55462347D03*
D16*
X239483930Y-55462347D03*
%TD*%
M02*
