%TF.GenerationSoftware,KiCad,Pcbnew,(6.0.11)*%
%TF.CreationDate,2023-05-08T18:46:23+08:00*%
%TF.ProjectId,DOOOPE,444f4f4f-5045-42e6-9b69-6361645f7063,Rev 1*%
%TF.SameCoordinates,Original*%
%TF.FileFunction,Legend,Top*%
%TF.FilePolarity,Positive*%
%FSLAX46Y46*%
G04 Gerber Fmt 4.6, Leading zero omitted, Abs format (unit mm)*
G04 Created by KiCad (PCBNEW (6.0.11)) date 2023-05-08 18:46:23*
%MOMM*%
%LPD*%
G01*
G04 APERTURE LIST*
G04 Aperture macros list*
%AMRoundRect*
0 Rectangle with rounded corners*
0 $1 Rounding radius*
0 $2 $3 $4 $5 $6 $7 $8 $9 X,Y pos of 4 corners*
0 Add a 4 corners polygon primitive as box body*
4,1,4,$2,$3,$4,$5,$6,$7,$8,$9,$2,$3,0*
0 Add four circle primitives for the rounded corners*
1,1,$1+$1,$2,$3*
1,1,$1+$1,$4,$5*
1,1,$1+$1,$6,$7*
1,1,$1+$1,$8,$9*
0 Add four rect primitives between the rounded corners*
20,1,$1+$1,$2,$3,$4,$5,0*
20,1,$1+$1,$4,$5,$6,$7,0*
20,1,$1+$1,$6,$7,$8,$9,0*
20,1,$1+$1,$8,$9,$2,$3,0*%
G04 Aperture macros list end*
%ADD10C,0.150000*%
%ADD11C,0.300000*%
%ADD12C,0.120000*%
%ADD13C,0.100000*%
%ADD14C,0.900000*%
%ADD15R,0.700000X1.000000*%
%ADD16R,1.000000X2.800000*%
%ADD17C,4.200000*%
%ADD18C,2.200000*%
%ADD19RoundRect,0.250000X-0.350000X-0.625000X0.350000X-0.625000X0.350000X0.625000X-0.350000X0.625000X0*%
%ADD20O,1.200000X1.750000*%
%ADD21C,3.800000*%
%ADD22C,2.600000*%
%ADD23C,0.300000*%
%ADD24O,1.800000X2.750000*%
%ADD25C,1.500000*%
%ADD26C,2.025000*%
G04 APERTURE END LIST*
D10*
X143314882Y-75084044D02*
X143314882Y-75798330D01*
X143267263Y-75941187D01*
X143172025Y-76036425D01*
X143029168Y-76084044D01*
X142933930Y-76084044D01*
X144267263Y-76084044D02*
X143791072Y-76084044D01*
X143791072Y-75084044D01*
X145172025Y-75988806D02*
X145124406Y-76036425D01*
X144981549Y-76084044D01*
X144886310Y-76084044D01*
X144743453Y-76036425D01*
X144648215Y-75941187D01*
X144600596Y-75845949D01*
X144552977Y-75655473D01*
X144552977Y-75512616D01*
X144600596Y-75322140D01*
X144648215Y-75226902D01*
X144743453Y-75131664D01*
X144886310Y-75084044D01*
X144981549Y-75084044D01*
X145124406Y-75131664D01*
X145172025Y-75179283D01*
X145886310Y-75084044D02*
X145886310Y-75798330D01*
X145838691Y-75941187D01*
X145743453Y-76036425D01*
X145600596Y-76084044D01*
X145505358Y-76084044D01*
X146838691Y-76084044D02*
X146362501Y-76084044D01*
X146362501Y-75084044D01*
X147743453Y-75988806D02*
X147695834Y-76036425D01*
X147552977Y-76084044D01*
X147457739Y-76084044D01*
X147314882Y-76036425D01*
X147219644Y-75941187D01*
X147172025Y-75845949D01*
X147124406Y-75655473D01*
X147124406Y-75512616D01*
X147172025Y-75322140D01*
X147219644Y-75226902D01*
X147314882Y-75131664D01*
X147457739Y-75084044D01*
X147552977Y-75084044D01*
X147695834Y-75131664D01*
X147743453Y-75179283D01*
X148457739Y-75084044D02*
X148457739Y-75798330D01*
X148410120Y-75941187D01*
X148314882Y-76036425D01*
X148172025Y-76084044D01*
X148076787Y-76084044D01*
X149410120Y-76084044D02*
X148933930Y-76084044D01*
X148933930Y-75084044D01*
X150314882Y-75988806D02*
X150267263Y-76036425D01*
X150124406Y-76084044D01*
X150029168Y-76084044D01*
X149886310Y-76036425D01*
X149791072Y-75941187D01*
X149743453Y-75845949D01*
X149695834Y-75655473D01*
X149695834Y-75512616D01*
X149743453Y-75322140D01*
X149791072Y-75226902D01*
X149886310Y-75131664D01*
X150029168Y-75084044D01*
X150124406Y-75084044D01*
X150267263Y-75131664D01*
X150314882Y-75179283D01*
X151029168Y-75084044D02*
X151029168Y-75798330D01*
X150981549Y-75941187D01*
X150886310Y-76036425D01*
X150743453Y-76084044D01*
X150648215Y-76084044D01*
X151981549Y-76084044D02*
X151505358Y-76084044D01*
X151505358Y-75084044D01*
X152886310Y-75988806D02*
X152838691Y-76036425D01*
X152695834Y-76084044D01*
X152600596Y-76084044D01*
X152457739Y-76036425D01*
X152362501Y-75941187D01*
X152314882Y-75845949D01*
X152267263Y-75655473D01*
X152267263Y-75512616D01*
X152314882Y-75322140D01*
X152362501Y-75226902D01*
X152457739Y-75131664D01*
X152600596Y-75084044D01*
X152695834Y-75084044D01*
X152838691Y-75131664D01*
X152886310Y-75179283D01*
X204383930Y-104856664D02*
X205583930Y-104856664D01*
X205583930Y-104856664D02*
X205583930Y-106131664D01*
X205583930Y-106131664D02*
X204383930Y-106131664D01*
X204383930Y-106131664D02*
X204383930Y-104856664D01*
X81683930Y-104931664D02*
X82883930Y-104931664D01*
X82883930Y-104931664D02*
X82883930Y-106206664D01*
X82883930Y-106206664D02*
X81683930Y-106206664D01*
X81683930Y-106206664D02*
X81683930Y-104931664D01*
X204602977Y-105465592D02*
X205364882Y-105465592D01*
D11*
X114844105Y-117936425D02*
X115094105Y-115936425D01*
X115856010Y-115936425D01*
X116034581Y-116031664D01*
X116117914Y-116126902D01*
X116189343Y-116317378D01*
X116153629Y-116603092D01*
X116034581Y-116793568D01*
X115927438Y-116888806D01*
X115725057Y-116984044D01*
X114963152Y-116984044D01*
X102645775Y-114636425D02*
X102895775Y-112636425D01*
X103371965Y-112636425D01*
X103645775Y-112731664D01*
X103812441Y-112922140D01*
X103883870Y-113112616D01*
X103931489Y-113493568D01*
X103895775Y-113779283D01*
X103752918Y-114160235D01*
X103633870Y-114350711D01*
X103419584Y-114541187D01*
X103121965Y-114636425D01*
X102645775Y-114636425D01*
D10*
X81902977Y-105540592D02*
X82664882Y-105540592D01*
D11*
X189124105Y-115286425D02*
X189374105Y-113286425D01*
X190136010Y-113286425D01*
X190314581Y-113381664D01*
X190397914Y-113476902D01*
X190469343Y-113667378D01*
X190433629Y-113953092D01*
X190314581Y-114143568D01*
X190207438Y-114238806D01*
X190005057Y-114334044D01*
X189243152Y-114334044D01*
X117971965Y-117713806D02*
X118638632Y-117713806D01*
X118793394Y-118761425D02*
X117841013Y-118761425D01*
X118091013Y-116761425D01*
X119043394Y-116761425D01*
X183930773Y-114811425D02*
X184311725Y-114811425D01*
X184490297Y-114906664D01*
X184656964Y-115097140D01*
X184704583Y-115478092D01*
X184621249Y-116144759D01*
X184478392Y-116525711D01*
X184264106Y-116716187D01*
X184061725Y-116811425D01*
X183680773Y-116811425D01*
X183502202Y-116716187D01*
X183335535Y-116525711D01*
X183287916Y-116144759D01*
X183371249Y-115478092D01*
X183514106Y-115097140D01*
X183728392Y-114906664D01*
X183930773Y-114811425D01*
X181018631Y-115711425D02*
X181399583Y-115711425D01*
X181578155Y-115806664D01*
X181744822Y-115997140D01*
X181792441Y-116378092D01*
X181709107Y-117044759D01*
X181566250Y-117425711D01*
X181351964Y-117616187D01*
X181149583Y-117711425D01*
X180768631Y-117711425D01*
X180590060Y-117616187D01*
X180423393Y-117425711D01*
X180375774Y-117044759D01*
X180459107Y-116378092D01*
X180601964Y-115997140D01*
X180816250Y-115806664D01*
X181018631Y-115711425D01*
X177570775Y-118611425D02*
X177820775Y-116611425D01*
X178296965Y-116611425D01*
X178570775Y-116706664D01*
X178737441Y-116897140D01*
X178808870Y-117087616D01*
X178856489Y-117468568D01*
X178820775Y-117754283D01*
X178677918Y-118135235D01*
X178558870Y-118325711D01*
X178344584Y-118516187D01*
X178046965Y-118611425D01*
X177570775Y-118611425D01*
X192071965Y-113488806D02*
X192738632Y-113488806D01*
X192893394Y-114536425D02*
X191941013Y-114536425D01*
X192191013Y-112536425D01*
X193143394Y-112536425D01*
X186842915Y-114011425D02*
X187223867Y-114011425D01*
X187402439Y-114106664D01*
X187569106Y-114297140D01*
X187616725Y-114678092D01*
X187533391Y-115344759D01*
X187390534Y-115725711D01*
X187176248Y-115916187D01*
X186973867Y-116011425D01*
X186592915Y-116011425D01*
X186414344Y-115916187D01*
X186247677Y-115725711D01*
X186200058Y-115344759D01*
X186283391Y-114678092D01*
X186426248Y-114297140D01*
X186640534Y-114106664D01*
X186842915Y-114011425D01*
X109290773Y-114286425D02*
X109671725Y-114286425D01*
X109850297Y-114381664D01*
X110016964Y-114572140D01*
X110064583Y-114953092D01*
X109981249Y-115619759D01*
X109838392Y-116000711D01*
X109624106Y-116191187D01*
X109421725Y-116286425D01*
X109040773Y-116286425D01*
X108862202Y-116191187D01*
X108695535Y-116000711D01*
X108647916Y-115619759D01*
X108731249Y-114953092D01*
X108874106Y-114572140D01*
X109088392Y-114381664D01*
X109290773Y-114286425D01*
X112382915Y-115111425D02*
X112763867Y-115111425D01*
X112942439Y-115206664D01*
X113109106Y-115397140D01*
X113156725Y-115778092D01*
X113073391Y-116444759D01*
X112930534Y-116825711D01*
X112716248Y-117016187D01*
X112513867Y-117111425D01*
X112132915Y-117111425D01*
X111954344Y-117016187D01*
X111787677Y-116825711D01*
X111740058Y-116444759D01*
X111823391Y-115778092D01*
X111966248Y-115397140D01*
X112180534Y-115206664D01*
X112382915Y-115111425D01*
X106198631Y-113461425D02*
X106579583Y-113461425D01*
X106758155Y-113556664D01*
X106924822Y-113747140D01*
X106972441Y-114128092D01*
X106889107Y-114794759D01*
X106746250Y-115175711D01*
X106531964Y-115366187D01*
X106329583Y-115461425D01*
X105948631Y-115461425D01*
X105770060Y-115366187D01*
X105603393Y-115175711D01*
X105555774Y-114794759D01*
X105639107Y-114128092D01*
X105781964Y-113747140D01*
X105996250Y-113556664D01*
X106198631Y-113461425D01*
D10*
%TO.C,On / Off*%
X63516072Y-53143568D02*
X63668453Y-53143568D01*
X63744644Y-53181664D01*
X63820834Y-53257854D01*
X63858930Y-53410235D01*
X63858930Y-53676902D01*
X63820834Y-53829283D01*
X63744644Y-53905473D01*
X63668453Y-53943568D01*
X63516072Y-53943568D01*
X63439882Y-53905473D01*
X63363691Y-53829283D01*
X63325596Y-53676902D01*
X63325596Y-53410235D01*
X63363691Y-53257854D01*
X63439882Y-53181664D01*
X63516072Y-53143568D01*
X64201787Y-53410235D02*
X64201787Y-53943568D01*
X64201787Y-53486425D02*
X64239882Y-53448330D01*
X64316072Y-53410235D01*
X64430358Y-53410235D01*
X64506549Y-53448330D01*
X64544644Y-53524521D01*
X64544644Y-53943568D01*
X66106549Y-53105473D02*
X65420834Y-54134044D01*
X67135120Y-53143568D02*
X67287501Y-53143568D01*
X67363691Y-53181664D01*
X67439882Y-53257854D01*
X67477977Y-53410235D01*
X67477977Y-53676902D01*
X67439882Y-53829283D01*
X67363691Y-53905473D01*
X67287501Y-53943568D01*
X67135120Y-53943568D01*
X67058930Y-53905473D01*
X66982739Y-53829283D01*
X66944644Y-53676902D01*
X66944644Y-53410235D01*
X66982739Y-53257854D01*
X67058930Y-53181664D01*
X67135120Y-53143568D01*
X67706549Y-53410235D02*
X68011310Y-53410235D01*
X67820834Y-53943568D02*
X67820834Y-53257854D01*
X67858930Y-53181664D01*
X67935120Y-53143568D01*
X68011310Y-53143568D01*
X68163691Y-53410235D02*
X68468453Y-53410235D01*
X68277977Y-53943568D02*
X68277977Y-53257854D01*
X68316072Y-53181664D01*
X68392263Y-53143568D01*
X68468453Y-53143568D01*
%TO.C,SW33*%
X159712960Y-129926947D02*
X159863489Y-129922834D01*
X160087225Y-129841401D01*
X160160433Y-129764080D01*
X160188893Y-129703046D01*
X160201067Y-129597265D01*
X160168494Y-129507770D01*
X160091173Y-129434563D01*
X160030139Y-129406102D01*
X159924358Y-129393928D01*
X159729082Y-129414327D01*
X159623301Y-129402154D01*
X159562267Y-129373693D01*
X159484947Y-129300485D01*
X159452373Y-129210991D01*
X159464547Y-129105209D01*
X159493008Y-129044175D01*
X159566216Y-128966855D01*
X159789952Y-128885421D01*
X159940480Y-128881309D01*
X160237425Y-128722555D02*
X160803181Y-129580814D01*
X160737870Y-128844458D01*
X161161159Y-129450521D01*
X161042875Y-128429395D01*
X161311359Y-128331675D02*
X161893074Y-128119948D01*
X161710136Y-128591933D01*
X161844378Y-128543073D01*
X161950159Y-128555247D01*
X162011193Y-128583707D01*
X162088514Y-128656915D01*
X162169947Y-128880651D01*
X162157773Y-128986433D01*
X162129313Y-129047466D01*
X162056105Y-129124787D01*
X161787621Y-129222507D01*
X161681840Y-129210333D01*
X161620806Y-129181873D01*
X162206304Y-128005941D02*
X162788019Y-127794214D01*
X162605081Y-128266199D01*
X162739323Y-128217339D01*
X162845104Y-128229513D01*
X162906138Y-128257974D01*
X162983459Y-128331182D01*
X163064892Y-128554918D01*
X163052718Y-128660699D01*
X163024258Y-128721733D01*
X162951050Y-128799054D01*
X162682566Y-128896774D01*
X162576785Y-128884600D01*
X162515751Y-128856139D01*
%TO.C,SW10*%
X118674406Y-80771425D02*
X118817263Y-80819044D01*
X119055358Y-80819044D01*
X119150596Y-80771425D01*
X119198215Y-80723806D01*
X119245834Y-80628568D01*
X119245834Y-80533330D01*
X119198215Y-80438092D01*
X119150596Y-80390473D01*
X119055358Y-80342854D01*
X118864882Y-80295235D01*
X118769644Y-80247616D01*
X118722025Y-80199997D01*
X118674406Y-80104759D01*
X118674406Y-80009521D01*
X118722025Y-79914283D01*
X118769644Y-79866664D01*
X118864882Y-79819044D01*
X119102977Y-79819044D01*
X119245834Y-79866664D01*
X119579168Y-79819044D02*
X119817263Y-80819044D01*
X120007739Y-80104759D01*
X120198215Y-80819044D01*
X120436310Y-79819044D01*
X121341072Y-80819044D02*
X120769644Y-80819044D01*
X121055358Y-80819044D02*
X121055358Y-79819044D01*
X120960120Y-79961902D01*
X120864882Y-80057140D01*
X120769644Y-80104759D01*
X121960120Y-79819044D02*
X122055358Y-79819044D01*
X122150596Y-79866664D01*
X122198215Y-79914283D01*
X122245834Y-80009521D01*
X122293453Y-80199997D01*
X122293453Y-80438092D01*
X122245834Y-80628568D01*
X122198215Y-80723806D01*
X122150596Y-80771425D01*
X122055358Y-80819044D01*
X121960120Y-80819044D01*
X121864882Y-80771425D01*
X121817263Y-80723806D01*
X121769644Y-80628568D01*
X121722025Y-80438092D01*
X121722025Y-80199997D01*
X121769644Y-80009521D01*
X121817263Y-79914283D01*
X121864882Y-79866664D01*
X121960120Y-79819044D01*
%TO.C,SW28*%
X173936906Y-99746425D02*
X174079763Y-99794044D01*
X174317858Y-99794044D01*
X174413096Y-99746425D01*
X174460715Y-99698806D01*
X174508334Y-99603568D01*
X174508334Y-99508330D01*
X174460715Y-99413092D01*
X174413096Y-99365473D01*
X174317858Y-99317854D01*
X174127382Y-99270235D01*
X174032144Y-99222616D01*
X173984525Y-99174997D01*
X173936906Y-99079759D01*
X173936906Y-98984521D01*
X173984525Y-98889283D01*
X174032144Y-98841664D01*
X174127382Y-98794044D01*
X174365477Y-98794044D01*
X174508334Y-98841664D01*
X174841668Y-98794044D02*
X175079763Y-99794044D01*
X175270239Y-99079759D01*
X175460715Y-99794044D01*
X175698810Y-98794044D01*
X176032144Y-98889283D02*
X176079763Y-98841664D01*
X176175001Y-98794044D01*
X176413096Y-98794044D01*
X176508334Y-98841664D01*
X176555953Y-98889283D01*
X176603572Y-98984521D01*
X176603572Y-99079759D01*
X176555953Y-99222616D01*
X175984525Y-99794044D01*
X176603572Y-99794044D01*
X177175001Y-99222616D02*
X177079763Y-99174997D01*
X177032144Y-99127378D01*
X176984525Y-99032140D01*
X176984525Y-98984521D01*
X177032144Y-98889283D01*
X177079763Y-98841664D01*
X177175001Y-98794044D01*
X177365477Y-98794044D01*
X177460715Y-98841664D01*
X177508334Y-98889283D01*
X177555953Y-98984521D01*
X177555953Y-99032140D01*
X177508334Y-99127378D01*
X177460715Y-99174997D01*
X177365477Y-99222616D01*
X177175001Y-99222616D01*
X177079763Y-99270235D01*
X177032144Y-99317854D01*
X176984525Y-99413092D01*
X176984525Y-99603568D01*
X177032144Y-99698806D01*
X177079763Y-99746425D01*
X177175001Y-99794044D01*
X177365477Y-99794044D01*
X177460715Y-99746425D01*
X177508334Y-99698806D01*
X177555953Y-99603568D01*
X177555953Y-99413092D01*
X177508334Y-99317854D01*
X177460715Y-99270235D01*
X177365477Y-99222616D01*
%TO.C,J4*%
X209100596Y-103459044D02*
X209100596Y-104173330D01*
X209052977Y-104316187D01*
X208957739Y-104411425D01*
X208814882Y-104459044D01*
X208719644Y-104459044D01*
X210005358Y-103792378D02*
X210005358Y-104459044D01*
X209767263Y-103411425D02*
X209529168Y-104125711D01*
X210148215Y-104125711D01*
%TO.C,SW3*%
X81150596Y-52271425D02*
X81293453Y-52319044D01*
X81531549Y-52319044D01*
X81626787Y-52271425D01*
X81674406Y-52223806D01*
X81722025Y-52128568D01*
X81722025Y-52033330D01*
X81674406Y-51938092D01*
X81626787Y-51890473D01*
X81531549Y-51842854D01*
X81341072Y-51795235D01*
X81245834Y-51747616D01*
X81198215Y-51699997D01*
X81150596Y-51604759D01*
X81150596Y-51509521D01*
X81198215Y-51414283D01*
X81245834Y-51366664D01*
X81341072Y-51319044D01*
X81579168Y-51319044D01*
X81722025Y-51366664D01*
X82055358Y-51319044D02*
X82293453Y-52319044D01*
X82483930Y-51604759D01*
X82674406Y-52319044D01*
X82912501Y-51319044D01*
X83198215Y-51319044D02*
X83817263Y-51319044D01*
X83483930Y-51699997D01*
X83626787Y-51699997D01*
X83722025Y-51747616D01*
X83769644Y-51795235D01*
X83817263Y-51890473D01*
X83817263Y-52128568D01*
X83769644Y-52223806D01*
X83722025Y-52271425D01*
X83626787Y-52319044D01*
X83341072Y-52319044D01*
X83245834Y-52271425D01*
X83198215Y-52223806D01*
%TO.C,SW23*%
X173936906Y-80746425D02*
X174079763Y-80794044D01*
X174317858Y-80794044D01*
X174413096Y-80746425D01*
X174460715Y-80698806D01*
X174508334Y-80603568D01*
X174508334Y-80508330D01*
X174460715Y-80413092D01*
X174413096Y-80365473D01*
X174317858Y-80317854D01*
X174127382Y-80270235D01*
X174032144Y-80222616D01*
X173984525Y-80174997D01*
X173936906Y-80079759D01*
X173936906Y-79984521D01*
X173984525Y-79889283D01*
X174032144Y-79841664D01*
X174127382Y-79794044D01*
X174365477Y-79794044D01*
X174508334Y-79841664D01*
X174841668Y-79794044D02*
X175079763Y-80794044D01*
X175270239Y-80079759D01*
X175460715Y-80794044D01*
X175698810Y-79794044D01*
X176032144Y-79889283D02*
X176079763Y-79841664D01*
X176175001Y-79794044D01*
X176413096Y-79794044D01*
X176508334Y-79841664D01*
X176555953Y-79889283D01*
X176603572Y-79984521D01*
X176603572Y-80079759D01*
X176555953Y-80222616D01*
X175984525Y-80794044D01*
X176603572Y-80794044D01*
X176936906Y-79794044D02*
X177555953Y-79794044D01*
X177222620Y-80174997D01*
X177365477Y-80174997D01*
X177460715Y-80222616D01*
X177508334Y-80270235D01*
X177555953Y-80365473D01*
X177555953Y-80603568D01*
X177508334Y-80698806D01*
X177460715Y-80746425D01*
X177365477Y-80794044D01*
X177079763Y-80794044D01*
X176984525Y-80746425D01*
X176936906Y-80698806D01*
%TO.C,SW20*%
X212049406Y-52246425D02*
X212192263Y-52294044D01*
X212430358Y-52294044D01*
X212525596Y-52246425D01*
X212573215Y-52198806D01*
X212620834Y-52103568D01*
X212620834Y-52008330D01*
X212573215Y-51913092D01*
X212525596Y-51865473D01*
X212430358Y-51817854D01*
X212239882Y-51770235D01*
X212144644Y-51722616D01*
X212097025Y-51674997D01*
X212049406Y-51579759D01*
X212049406Y-51484521D01*
X212097025Y-51389283D01*
X212144644Y-51341664D01*
X212239882Y-51294044D01*
X212477977Y-51294044D01*
X212620834Y-51341664D01*
X212954168Y-51294044D02*
X213192263Y-52294044D01*
X213382739Y-51579759D01*
X213573215Y-52294044D01*
X213811310Y-51294044D01*
X214144644Y-51389283D02*
X214192263Y-51341664D01*
X214287501Y-51294044D01*
X214525596Y-51294044D01*
X214620834Y-51341664D01*
X214668453Y-51389283D01*
X214716072Y-51484521D01*
X214716072Y-51579759D01*
X214668453Y-51722616D01*
X214097025Y-52294044D01*
X214716072Y-52294044D01*
X215335120Y-51294044D02*
X215430358Y-51294044D01*
X215525596Y-51341664D01*
X215573215Y-51389283D01*
X215620834Y-51484521D01*
X215668453Y-51674997D01*
X215668453Y-51913092D01*
X215620834Y-52103568D01*
X215573215Y-52198806D01*
X215525596Y-52246425D01*
X215430358Y-52294044D01*
X215335120Y-52294044D01*
X215239882Y-52246425D01*
X215192263Y-52198806D01*
X215144644Y-52103568D01*
X215097025Y-51913092D01*
X215097025Y-51674997D01*
X215144644Y-51484521D01*
X215192263Y-51389283D01*
X215239882Y-51341664D01*
X215335120Y-51294044D01*
%TO.C,SW30*%
X212049406Y-90246425D02*
X212192263Y-90294044D01*
X212430358Y-90294044D01*
X212525596Y-90246425D01*
X212573215Y-90198806D01*
X212620834Y-90103568D01*
X212620834Y-90008330D01*
X212573215Y-89913092D01*
X212525596Y-89865473D01*
X212430358Y-89817854D01*
X212239882Y-89770235D01*
X212144644Y-89722616D01*
X212097025Y-89674997D01*
X212049406Y-89579759D01*
X212049406Y-89484521D01*
X212097025Y-89389283D01*
X212144644Y-89341664D01*
X212239882Y-89294044D01*
X212477977Y-89294044D01*
X212620834Y-89341664D01*
X212954168Y-89294044D02*
X213192263Y-90294044D01*
X213382739Y-89579759D01*
X213573215Y-90294044D01*
X213811310Y-89294044D01*
X214097025Y-89294044D02*
X214716072Y-89294044D01*
X214382739Y-89674997D01*
X214525596Y-89674997D01*
X214620834Y-89722616D01*
X214668453Y-89770235D01*
X214716072Y-89865473D01*
X214716072Y-90103568D01*
X214668453Y-90198806D01*
X214620834Y-90246425D01*
X214525596Y-90294044D01*
X214239882Y-90294044D01*
X214144644Y-90246425D01*
X214097025Y-90198806D01*
X215335120Y-89294044D02*
X215430358Y-89294044D01*
X215525596Y-89341664D01*
X215573215Y-89389283D01*
X215620834Y-89484521D01*
X215668453Y-89674997D01*
X215668453Y-89913092D01*
X215620834Y-90103568D01*
X215573215Y-90198806D01*
X215525596Y-90246425D01*
X215430358Y-90294044D01*
X215335120Y-90294044D01*
X215239882Y-90246425D01*
X215192263Y-90198806D01*
X215144644Y-90103568D01*
X215097025Y-89913092D01*
X215097025Y-89674997D01*
X215144644Y-89484521D01*
X215192263Y-89389283D01*
X215239882Y-89341664D01*
X215335120Y-89294044D01*
%TO.C,SW24*%
X193049406Y-80746425D02*
X193192263Y-80794044D01*
X193430358Y-80794044D01*
X193525596Y-80746425D01*
X193573215Y-80698806D01*
X193620834Y-80603568D01*
X193620834Y-80508330D01*
X193573215Y-80413092D01*
X193525596Y-80365473D01*
X193430358Y-80317854D01*
X193239882Y-80270235D01*
X193144644Y-80222616D01*
X193097025Y-80174997D01*
X193049406Y-80079759D01*
X193049406Y-79984521D01*
X193097025Y-79889283D01*
X193144644Y-79841664D01*
X193239882Y-79794044D01*
X193477977Y-79794044D01*
X193620834Y-79841664D01*
X193954168Y-79794044D02*
X194192263Y-80794044D01*
X194382739Y-80079759D01*
X194573215Y-80794044D01*
X194811310Y-79794044D01*
X195144644Y-79889283D02*
X195192263Y-79841664D01*
X195287501Y-79794044D01*
X195525596Y-79794044D01*
X195620834Y-79841664D01*
X195668453Y-79889283D01*
X195716072Y-79984521D01*
X195716072Y-80079759D01*
X195668453Y-80222616D01*
X195097025Y-80794044D01*
X195716072Y-80794044D01*
X196573215Y-80127378D02*
X196573215Y-80794044D01*
X196335120Y-79746425D02*
X196097025Y-80460711D01*
X196716072Y-80460711D01*
%TO.C,SW27*%
X250049406Y-96896425D02*
X250192263Y-96944044D01*
X250430358Y-96944044D01*
X250525596Y-96896425D01*
X250573215Y-96848806D01*
X250620834Y-96753568D01*
X250620834Y-96658330D01*
X250573215Y-96563092D01*
X250525596Y-96515473D01*
X250430358Y-96467854D01*
X250239882Y-96420235D01*
X250144644Y-96372616D01*
X250097025Y-96324997D01*
X250049406Y-96229759D01*
X250049406Y-96134521D01*
X250097025Y-96039283D01*
X250144644Y-95991664D01*
X250239882Y-95944044D01*
X250477977Y-95944044D01*
X250620834Y-95991664D01*
X250954168Y-95944044D02*
X251192263Y-96944044D01*
X251382739Y-96229759D01*
X251573215Y-96944044D01*
X251811310Y-95944044D01*
X252144644Y-96039283D02*
X252192263Y-95991664D01*
X252287501Y-95944044D01*
X252525596Y-95944044D01*
X252620834Y-95991664D01*
X252668453Y-96039283D01*
X252716072Y-96134521D01*
X252716072Y-96229759D01*
X252668453Y-96372616D01*
X252097025Y-96944044D01*
X252716072Y-96944044D01*
X253049406Y-95944044D02*
X253716072Y-95944044D01*
X253287501Y-96944044D01*
%TO.C,SW7*%
X62150596Y-83621425D02*
X62293453Y-83669044D01*
X62531549Y-83669044D01*
X62626787Y-83621425D01*
X62674406Y-83573806D01*
X62722025Y-83478568D01*
X62722025Y-83383330D01*
X62674406Y-83288092D01*
X62626787Y-83240473D01*
X62531549Y-83192854D01*
X62341072Y-83145235D01*
X62245834Y-83097616D01*
X62198215Y-83049997D01*
X62150596Y-82954759D01*
X62150596Y-82859521D01*
X62198215Y-82764283D01*
X62245834Y-82716664D01*
X62341072Y-82669044D01*
X62579168Y-82669044D01*
X62722025Y-82716664D01*
X63055358Y-82669044D02*
X63293453Y-83669044D01*
X63483930Y-82954759D01*
X63674406Y-83669044D01*
X63912501Y-82669044D01*
X64198215Y-82669044D02*
X64864882Y-82669044D01*
X64436310Y-83669044D01*
%TO.C,SW34*%
X183815711Y-126217506D02*
X183953874Y-126277394D01*
X184191064Y-126298146D01*
X184290090Y-126259009D01*
X184341678Y-126215721D01*
X184397416Y-126124996D01*
X184405717Y-126030120D01*
X184366579Y-125931094D01*
X184323292Y-125879506D01*
X184232566Y-125823767D01*
X184046965Y-125759728D01*
X183956240Y-125703990D01*
X183912952Y-125652402D01*
X183873815Y-125553376D01*
X183882116Y-125458500D01*
X183937854Y-125367775D01*
X183989442Y-125324487D01*
X184088468Y-125285350D01*
X184325657Y-125306101D01*
X184463820Y-125365990D01*
X184800036Y-125347604D02*
X184950069Y-126364550D01*
X185202075Y-125669584D01*
X185329572Y-126397752D01*
X185653917Y-125422309D01*
X185938544Y-125447211D02*
X186555236Y-125501164D01*
X186189969Y-125851615D01*
X186332282Y-125864066D01*
X186423008Y-125919804D01*
X186466295Y-125971392D01*
X186505433Y-126070418D01*
X186484681Y-126307608D01*
X186428943Y-126398333D01*
X186377355Y-126441621D01*
X186278329Y-126480758D01*
X185993702Y-126455856D01*
X185902976Y-126400118D01*
X185859689Y-126348530D01*
X187380065Y-125907934D02*
X187321961Y-126572064D01*
X187176078Y-125507680D02*
X186876635Y-126198496D01*
X187493327Y-126252450D01*
%TO.C,SW17*%
X133092484Y-128850968D02*
X133210439Y-128944575D01*
X133434175Y-129026008D01*
X133539956Y-129013834D01*
X133600990Y-128985374D01*
X133678311Y-128912166D01*
X133710884Y-128822671D01*
X133698710Y-128716890D01*
X133670250Y-128655856D01*
X133597042Y-128578536D01*
X133434339Y-128468642D01*
X133361132Y-128391321D01*
X133332671Y-128330287D01*
X133320497Y-128224506D01*
X133353070Y-128135011D01*
X133430391Y-128061804D01*
X133491425Y-128033343D01*
X133597206Y-128021169D01*
X133820942Y-128102602D01*
X133938898Y-128196210D01*
X134268415Y-128265469D02*
X134150131Y-129286595D01*
X134573421Y-128680533D01*
X134508109Y-129416889D01*
X135073866Y-128558629D01*
X135582044Y-129807769D02*
X135045077Y-129612329D01*
X135313560Y-129710049D02*
X135655580Y-128770356D01*
X135517226Y-128872024D01*
X135395158Y-128928946D01*
X135289377Y-128941120D01*
X136237295Y-128982083D02*
X136863757Y-129210096D01*
X136119011Y-130003209D01*
%TO.C,SW1*%
X24150596Y-96921425D02*
X24293453Y-96969044D01*
X24531549Y-96969044D01*
X24626787Y-96921425D01*
X24674406Y-96873806D01*
X24722025Y-96778568D01*
X24722025Y-96683330D01*
X24674406Y-96588092D01*
X24626787Y-96540473D01*
X24531549Y-96492854D01*
X24341072Y-96445235D01*
X24245834Y-96397616D01*
X24198215Y-96349997D01*
X24150596Y-96254759D01*
X24150596Y-96159521D01*
X24198215Y-96064283D01*
X24245834Y-96016664D01*
X24341072Y-95969044D01*
X24579168Y-95969044D01*
X24722025Y-96016664D01*
X25055358Y-95969044D02*
X25293453Y-96969044D01*
X25483930Y-96254759D01*
X25674406Y-96969044D01*
X25912501Y-95969044D01*
X26817263Y-96969044D02*
X26245834Y-96969044D01*
X26531549Y-96969044D02*
X26531549Y-95969044D01*
X26436310Y-96111902D01*
X26341072Y-96207140D01*
X26245834Y-96254759D01*
%TO.C,SW19*%
X193049406Y-61746425D02*
X193192263Y-61794044D01*
X193430358Y-61794044D01*
X193525596Y-61746425D01*
X193573215Y-61698806D01*
X193620834Y-61603568D01*
X193620834Y-61508330D01*
X193573215Y-61413092D01*
X193525596Y-61365473D01*
X193430358Y-61317854D01*
X193239882Y-61270235D01*
X193144644Y-61222616D01*
X193097025Y-61174997D01*
X193049406Y-61079759D01*
X193049406Y-60984521D01*
X193097025Y-60889283D01*
X193144644Y-60841664D01*
X193239882Y-60794044D01*
X193477977Y-60794044D01*
X193620834Y-60841664D01*
X193954168Y-60794044D02*
X194192263Y-61794044D01*
X194382739Y-61079759D01*
X194573215Y-61794044D01*
X194811310Y-60794044D01*
X195716072Y-61794044D02*
X195144644Y-61794044D01*
X195430358Y-61794044D02*
X195430358Y-60794044D01*
X195335120Y-60936902D01*
X195239882Y-61032140D01*
X195144644Y-61079759D01*
X196192263Y-61794044D02*
X196382739Y-61794044D01*
X196477977Y-61746425D01*
X196525596Y-61698806D01*
X196620834Y-61555949D01*
X196668453Y-61365473D01*
X196668453Y-60984521D01*
X196620834Y-60889283D01*
X196573215Y-60841664D01*
X196477977Y-60794044D01*
X196287501Y-60794044D01*
X196192263Y-60841664D01*
X196144644Y-60889283D01*
X196097025Y-60984521D01*
X196097025Y-61222616D01*
X196144644Y-61317854D01*
X196192263Y-61365473D01*
X196287501Y-61413092D01*
X196477977Y-61413092D01*
X196573215Y-61365473D01*
X196620834Y-61317854D01*
X196668453Y-61222616D01*
%TO.C,On / Off*%
X228066072Y-53168568D02*
X228218453Y-53168568D01*
X228294644Y-53206664D01*
X228370834Y-53282854D01*
X228408930Y-53435235D01*
X228408930Y-53701902D01*
X228370834Y-53854283D01*
X228294644Y-53930473D01*
X228218453Y-53968568D01*
X228066072Y-53968568D01*
X227989882Y-53930473D01*
X227913691Y-53854283D01*
X227875596Y-53701902D01*
X227875596Y-53435235D01*
X227913691Y-53282854D01*
X227989882Y-53206664D01*
X228066072Y-53168568D01*
X228751787Y-53435235D02*
X228751787Y-53968568D01*
X228751787Y-53511425D02*
X228789882Y-53473330D01*
X228866072Y-53435235D01*
X228980358Y-53435235D01*
X229056549Y-53473330D01*
X229094644Y-53549521D01*
X229094644Y-53968568D01*
X230656549Y-53130473D02*
X229970834Y-54159044D01*
X231685120Y-53168568D02*
X231837501Y-53168568D01*
X231913691Y-53206664D01*
X231989882Y-53282854D01*
X232027977Y-53435235D01*
X232027977Y-53701902D01*
X231989882Y-53854283D01*
X231913691Y-53930473D01*
X231837501Y-53968568D01*
X231685120Y-53968568D01*
X231608930Y-53930473D01*
X231532739Y-53854283D01*
X231494644Y-53701902D01*
X231494644Y-53435235D01*
X231532739Y-53282854D01*
X231608930Y-53206664D01*
X231685120Y-53168568D01*
X232256549Y-53435235D02*
X232561310Y-53435235D01*
X232370834Y-53968568D02*
X232370834Y-53282854D01*
X232408930Y-53206664D01*
X232485120Y-53168568D01*
X232561310Y-53168568D01*
X232713691Y-53435235D02*
X233018453Y-53435235D01*
X232827977Y-53968568D02*
X232827977Y-53282854D01*
X232866072Y-53206664D01*
X232942263Y-53168568D01*
X233018453Y-53168568D01*
%TO.C,SW13*%
X80674406Y-90271425D02*
X80817263Y-90319044D01*
X81055358Y-90319044D01*
X81150596Y-90271425D01*
X81198215Y-90223806D01*
X81245834Y-90128568D01*
X81245834Y-90033330D01*
X81198215Y-89938092D01*
X81150596Y-89890473D01*
X81055358Y-89842854D01*
X80864882Y-89795235D01*
X80769644Y-89747616D01*
X80722025Y-89699997D01*
X80674406Y-89604759D01*
X80674406Y-89509521D01*
X80722025Y-89414283D01*
X80769644Y-89366664D01*
X80864882Y-89319044D01*
X81102977Y-89319044D01*
X81245834Y-89366664D01*
X81579168Y-89319044D02*
X81817263Y-90319044D01*
X82007739Y-89604759D01*
X82198215Y-90319044D01*
X82436310Y-89319044D01*
X83341072Y-90319044D02*
X82769644Y-90319044D01*
X83055358Y-90319044D02*
X83055358Y-89319044D01*
X82960120Y-89461902D01*
X82864882Y-89557140D01*
X82769644Y-89604759D01*
X83674406Y-89319044D02*
X84293453Y-89319044D01*
X83960120Y-89699997D01*
X84102977Y-89699997D01*
X84198215Y-89747616D01*
X84245834Y-89795235D01*
X84293453Y-89890473D01*
X84293453Y-90128568D01*
X84245834Y-90223806D01*
X84198215Y-90271425D01*
X84102977Y-90319044D01*
X83817263Y-90319044D01*
X83722025Y-90271425D01*
X83674406Y-90223806D01*
%TO.C,SW29*%
X193049406Y-99746425D02*
X193192263Y-99794044D01*
X193430358Y-99794044D01*
X193525596Y-99746425D01*
X193573215Y-99698806D01*
X193620834Y-99603568D01*
X193620834Y-99508330D01*
X193573215Y-99413092D01*
X193525596Y-99365473D01*
X193430358Y-99317854D01*
X193239882Y-99270235D01*
X193144644Y-99222616D01*
X193097025Y-99174997D01*
X193049406Y-99079759D01*
X193049406Y-98984521D01*
X193097025Y-98889283D01*
X193144644Y-98841664D01*
X193239882Y-98794044D01*
X193477977Y-98794044D01*
X193620834Y-98841664D01*
X193954168Y-98794044D02*
X194192263Y-99794044D01*
X194382739Y-99079759D01*
X194573215Y-99794044D01*
X194811310Y-98794044D01*
X195144644Y-98889283D02*
X195192263Y-98841664D01*
X195287501Y-98794044D01*
X195525596Y-98794044D01*
X195620834Y-98841664D01*
X195668453Y-98889283D01*
X195716072Y-98984521D01*
X195716072Y-99079759D01*
X195668453Y-99222616D01*
X195097025Y-99794044D01*
X195716072Y-99794044D01*
X196192263Y-99794044D02*
X196382739Y-99794044D01*
X196477977Y-99746425D01*
X196525596Y-99698806D01*
X196620834Y-99555949D01*
X196668453Y-99365473D01*
X196668453Y-98984521D01*
X196620834Y-98889283D01*
X196573215Y-98841664D01*
X196477977Y-98794044D01*
X196287501Y-98794044D01*
X196192263Y-98841664D01*
X196144644Y-98889283D01*
X196097025Y-98984521D01*
X196097025Y-99222616D01*
X196144644Y-99317854D01*
X196192263Y-99365473D01*
X196287501Y-99413092D01*
X196477977Y-99413092D01*
X196573215Y-99365473D01*
X196620834Y-99317854D01*
X196668453Y-99222616D01*
%TO.C,SW5*%
X119150596Y-61771425D02*
X119293453Y-61819044D01*
X119531549Y-61819044D01*
X119626787Y-61771425D01*
X119674406Y-61723806D01*
X119722025Y-61628568D01*
X119722025Y-61533330D01*
X119674406Y-61438092D01*
X119626787Y-61390473D01*
X119531549Y-61342854D01*
X119341072Y-61295235D01*
X119245834Y-61247616D01*
X119198215Y-61199997D01*
X119150596Y-61104759D01*
X119150596Y-61009521D01*
X119198215Y-60914283D01*
X119245834Y-60866664D01*
X119341072Y-60819044D01*
X119579168Y-60819044D01*
X119722025Y-60866664D01*
X120055358Y-60819044D02*
X120293453Y-61819044D01*
X120483930Y-61104759D01*
X120674406Y-61819044D01*
X120912501Y-60819044D01*
X121769644Y-60819044D02*
X121293453Y-60819044D01*
X121245834Y-61295235D01*
X121293453Y-61247616D01*
X121388691Y-61199997D01*
X121626787Y-61199997D01*
X121722025Y-61247616D01*
X121769644Y-61295235D01*
X121817263Y-61390473D01*
X121817263Y-61628568D01*
X121769644Y-61723806D01*
X121722025Y-61771425D01*
X121626787Y-61819044D01*
X121388691Y-61819044D01*
X121293453Y-61771425D01*
X121245834Y-61723806D01*
%TO.C,RESET*%
X266395834Y-118168568D02*
X266014882Y-118435235D01*
X266395834Y-118625711D02*
X265595834Y-118625711D01*
X265595834Y-118320949D01*
X265633930Y-118244759D01*
X265672025Y-118206664D01*
X265748215Y-118168568D01*
X265862501Y-118168568D01*
X265938691Y-118206664D01*
X265976787Y-118244759D01*
X266014882Y-118320949D01*
X266014882Y-118625711D01*
X265976787Y-117825711D02*
X265976787Y-117559044D01*
X266395834Y-117444759D02*
X266395834Y-117825711D01*
X265595834Y-117825711D01*
X265595834Y-117444759D01*
X266357739Y-117139997D02*
X266395834Y-117025711D01*
X266395834Y-116835235D01*
X266357739Y-116759044D01*
X266319644Y-116720949D01*
X266243453Y-116682854D01*
X266167263Y-116682854D01*
X266091072Y-116720949D01*
X266052977Y-116759044D01*
X266014882Y-116835235D01*
X265976787Y-116987616D01*
X265938691Y-117063806D01*
X265900596Y-117101902D01*
X265824406Y-117139997D01*
X265748215Y-117139997D01*
X265672025Y-117101902D01*
X265633930Y-117063806D01*
X265595834Y-116987616D01*
X265595834Y-116797140D01*
X265633930Y-116682854D01*
X265976787Y-116339997D02*
X265976787Y-116073330D01*
X266395834Y-115959044D02*
X266395834Y-116339997D01*
X265595834Y-116339997D01*
X265595834Y-115959044D01*
X265595834Y-115730473D02*
X265595834Y-115273330D01*
X266395834Y-115501902D02*
X265595834Y-115501902D01*
%TO.C,SW22*%
X269049406Y-96896425D02*
X269192263Y-96944044D01*
X269430358Y-96944044D01*
X269525596Y-96896425D01*
X269573215Y-96848806D01*
X269620834Y-96753568D01*
X269620834Y-96658330D01*
X269573215Y-96563092D01*
X269525596Y-96515473D01*
X269430358Y-96467854D01*
X269239882Y-96420235D01*
X269144644Y-96372616D01*
X269097025Y-96324997D01*
X269049406Y-96229759D01*
X269049406Y-96134521D01*
X269097025Y-96039283D01*
X269144644Y-95991664D01*
X269239882Y-95944044D01*
X269477977Y-95944044D01*
X269620834Y-95991664D01*
X269954168Y-95944044D02*
X270192263Y-96944044D01*
X270382739Y-96229759D01*
X270573215Y-96944044D01*
X270811310Y-95944044D01*
X271144644Y-96039283D02*
X271192263Y-95991664D01*
X271287501Y-95944044D01*
X271525596Y-95944044D01*
X271620834Y-95991664D01*
X271668453Y-96039283D01*
X271716072Y-96134521D01*
X271716072Y-96229759D01*
X271668453Y-96372616D01*
X271097025Y-96944044D01*
X271716072Y-96944044D01*
X272097025Y-96039283D02*
X272144644Y-95991664D01*
X272239882Y-95944044D01*
X272477977Y-95944044D01*
X272573215Y-95991664D01*
X272620834Y-96039283D01*
X272668453Y-96134521D01*
X272668453Y-96229759D01*
X272620834Y-96372616D01*
X272049406Y-96944044D01*
X272668453Y-96944044D01*
%TO.C,J2*%
X86400596Y-103234044D02*
X86400596Y-103948330D01*
X86352977Y-104091187D01*
X86257739Y-104186425D01*
X86114882Y-104234044D01*
X86019644Y-104234044D01*
X86829168Y-103329283D02*
X86876787Y-103281664D01*
X86972025Y-103234044D01*
X87210120Y-103234044D01*
X87305358Y-103281664D01*
X87352977Y-103329283D01*
X87400596Y-103424521D01*
X87400596Y-103519759D01*
X87352977Y-103662616D01*
X86781549Y-104234044D01*
X87400596Y-104234044D01*
%TO.C,SW15*%
X118674406Y-99771425D02*
X118817263Y-99819044D01*
X119055358Y-99819044D01*
X119150596Y-99771425D01*
X119198215Y-99723806D01*
X119245834Y-99628568D01*
X119245834Y-99533330D01*
X119198215Y-99438092D01*
X119150596Y-99390473D01*
X119055358Y-99342854D01*
X118864882Y-99295235D01*
X118769644Y-99247616D01*
X118722025Y-99199997D01*
X118674406Y-99104759D01*
X118674406Y-99009521D01*
X118722025Y-98914283D01*
X118769644Y-98866664D01*
X118864882Y-98819044D01*
X119102977Y-98819044D01*
X119245834Y-98866664D01*
X119579168Y-98819044D02*
X119817263Y-99819044D01*
X120007739Y-99104759D01*
X120198215Y-99819044D01*
X120436310Y-98819044D01*
X121341072Y-99819044D02*
X120769644Y-99819044D01*
X121055358Y-99819044D02*
X121055358Y-98819044D01*
X120960120Y-98961902D01*
X120864882Y-99057140D01*
X120769644Y-99104759D01*
X122245834Y-98819044D02*
X121769644Y-98819044D01*
X121722025Y-99295235D01*
X121769644Y-99247616D01*
X121864882Y-99199997D01*
X122102977Y-99199997D01*
X122198215Y-99247616D01*
X122245834Y-99295235D01*
X122293453Y-99390473D01*
X122293453Y-99628568D01*
X122245834Y-99723806D01*
X122198215Y-99771425D01*
X122102977Y-99819044D01*
X121864882Y-99819044D01*
X121769644Y-99771425D01*
X121722025Y-99723806D01*
%TO.C,SW18*%
X173936906Y-61746425D02*
X174079763Y-61794044D01*
X174317858Y-61794044D01*
X174413096Y-61746425D01*
X174460715Y-61698806D01*
X174508334Y-61603568D01*
X174508334Y-61508330D01*
X174460715Y-61413092D01*
X174413096Y-61365473D01*
X174317858Y-61317854D01*
X174127382Y-61270235D01*
X174032144Y-61222616D01*
X173984525Y-61174997D01*
X173936906Y-61079759D01*
X173936906Y-60984521D01*
X173984525Y-60889283D01*
X174032144Y-60841664D01*
X174127382Y-60794044D01*
X174365477Y-60794044D01*
X174508334Y-60841664D01*
X174841668Y-60794044D02*
X175079763Y-61794044D01*
X175270239Y-61079759D01*
X175460715Y-61794044D01*
X175698810Y-60794044D01*
X176603572Y-61794044D02*
X176032144Y-61794044D01*
X176317858Y-61794044D02*
X176317858Y-60794044D01*
X176222620Y-60936902D01*
X176127382Y-61032140D01*
X176032144Y-61079759D01*
X177175001Y-61222616D02*
X177079763Y-61174997D01*
X177032144Y-61127378D01*
X176984525Y-61032140D01*
X176984525Y-60984521D01*
X177032144Y-60889283D01*
X177079763Y-60841664D01*
X177175001Y-60794044D01*
X177365477Y-60794044D01*
X177460715Y-60841664D01*
X177508334Y-60889283D01*
X177555953Y-60984521D01*
X177555953Y-61032140D01*
X177508334Y-61127378D01*
X177460715Y-61174997D01*
X177365477Y-61222616D01*
X177175001Y-61222616D01*
X177079763Y-61270235D01*
X177032144Y-61317854D01*
X176984525Y-61413092D01*
X176984525Y-61603568D01*
X177032144Y-61698806D01*
X177079763Y-61746425D01*
X177175001Y-61794044D01*
X177365477Y-61794044D01*
X177460715Y-61746425D01*
X177508334Y-61698806D01*
X177555953Y-61603568D01*
X177555953Y-61413092D01*
X177508334Y-61317854D01*
X177460715Y-61270235D01*
X177365477Y-61222616D01*
%TO.C,SW25*%
X212049406Y-71246425D02*
X212192263Y-71294044D01*
X212430358Y-71294044D01*
X212525596Y-71246425D01*
X212573215Y-71198806D01*
X212620834Y-71103568D01*
X212620834Y-71008330D01*
X212573215Y-70913092D01*
X212525596Y-70865473D01*
X212430358Y-70817854D01*
X212239882Y-70770235D01*
X212144644Y-70722616D01*
X212097025Y-70674997D01*
X212049406Y-70579759D01*
X212049406Y-70484521D01*
X212097025Y-70389283D01*
X212144644Y-70341664D01*
X212239882Y-70294044D01*
X212477977Y-70294044D01*
X212620834Y-70341664D01*
X212954168Y-70294044D02*
X213192263Y-71294044D01*
X213382739Y-70579759D01*
X213573215Y-71294044D01*
X213811310Y-70294044D01*
X214144644Y-70389283D02*
X214192263Y-70341664D01*
X214287501Y-70294044D01*
X214525596Y-70294044D01*
X214620834Y-70341664D01*
X214668453Y-70389283D01*
X214716072Y-70484521D01*
X214716072Y-70579759D01*
X214668453Y-70722616D01*
X214097025Y-71294044D01*
X214716072Y-71294044D01*
X215620834Y-70294044D02*
X215144644Y-70294044D01*
X215097025Y-70770235D01*
X215144644Y-70722616D01*
X215239882Y-70674997D01*
X215477977Y-70674997D01*
X215573215Y-70722616D01*
X215620834Y-70770235D01*
X215668453Y-70865473D01*
X215668453Y-71103568D01*
X215620834Y-71198806D01*
X215573215Y-71246425D01*
X215477977Y-71294044D01*
X215239882Y-71294044D01*
X215144644Y-71246425D01*
X215097025Y-71198806D01*
%TO.C,SW11*%
X42674406Y-115921425D02*
X42817263Y-115969044D01*
X43055358Y-115969044D01*
X43150596Y-115921425D01*
X43198215Y-115873806D01*
X43245834Y-115778568D01*
X43245834Y-115683330D01*
X43198215Y-115588092D01*
X43150596Y-115540473D01*
X43055358Y-115492854D01*
X42864882Y-115445235D01*
X42769644Y-115397616D01*
X42722025Y-115349997D01*
X42674406Y-115254759D01*
X42674406Y-115159521D01*
X42722025Y-115064283D01*
X42769644Y-115016664D01*
X42864882Y-114969044D01*
X43102977Y-114969044D01*
X43245834Y-115016664D01*
X43579168Y-114969044D02*
X43817263Y-115969044D01*
X44007739Y-115254759D01*
X44198215Y-115969044D01*
X44436310Y-114969044D01*
X45341072Y-115969044D02*
X44769644Y-115969044D01*
X45055358Y-115969044D02*
X45055358Y-114969044D01*
X44960120Y-115111902D01*
X44864882Y-115207140D01*
X44769644Y-115254759D01*
X46293453Y-115969044D02*
X45722025Y-115969044D01*
X46007739Y-115969044D02*
X46007739Y-114969044D01*
X45912501Y-115111902D01*
X45817263Y-115207140D01*
X45722025Y-115254759D01*
%TO.C,SW32*%
X250049406Y-115896425D02*
X250192263Y-115944044D01*
X250430358Y-115944044D01*
X250525596Y-115896425D01*
X250573215Y-115848806D01*
X250620834Y-115753568D01*
X250620834Y-115658330D01*
X250573215Y-115563092D01*
X250525596Y-115515473D01*
X250430358Y-115467854D01*
X250239882Y-115420235D01*
X250144644Y-115372616D01*
X250097025Y-115324997D01*
X250049406Y-115229759D01*
X250049406Y-115134521D01*
X250097025Y-115039283D01*
X250144644Y-114991664D01*
X250239882Y-114944044D01*
X250477977Y-114944044D01*
X250620834Y-114991664D01*
X250954168Y-114944044D02*
X251192263Y-115944044D01*
X251382739Y-115229759D01*
X251573215Y-115944044D01*
X251811310Y-114944044D01*
X252097025Y-114944044D02*
X252716072Y-114944044D01*
X252382739Y-115324997D01*
X252525596Y-115324997D01*
X252620834Y-115372616D01*
X252668453Y-115420235D01*
X252716072Y-115515473D01*
X252716072Y-115753568D01*
X252668453Y-115848806D01*
X252620834Y-115896425D01*
X252525596Y-115944044D01*
X252239882Y-115944044D01*
X252144644Y-115896425D01*
X252097025Y-115848806D01*
X253097025Y-115039283D02*
X253144644Y-114991664D01*
X253239882Y-114944044D01*
X253477977Y-114944044D01*
X253573215Y-114991664D01*
X253620834Y-115039283D01*
X253668453Y-115134521D01*
X253668453Y-115229759D01*
X253620834Y-115372616D01*
X253049406Y-115944044D01*
X253668453Y-115944044D01*
%TO.C,SW12*%
X61674406Y-102621425D02*
X61817263Y-102669044D01*
X62055358Y-102669044D01*
X62150596Y-102621425D01*
X62198215Y-102573806D01*
X62245834Y-102478568D01*
X62245834Y-102383330D01*
X62198215Y-102288092D01*
X62150596Y-102240473D01*
X62055358Y-102192854D01*
X61864882Y-102145235D01*
X61769644Y-102097616D01*
X61722025Y-102049997D01*
X61674406Y-101954759D01*
X61674406Y-101859521D01*
X61722025Y-101764283D01*
X61769644Y-101716664D01*
X61864882Y-101669044D01*
X62102977Y-101669044D01*
X62245834Y-101716664D01*
X62579168Y-101669044D02*
X62817263Y-102669044D01*
X63007739Y-101954759D01*
X63198215Y-102669044D01*
X63436310Y-101669044D01*
X64341072Y-102669044D02*
X63769644Y-102669044D01*
X64055358Y-102669044D02*
X64055358Y-101669044D01*
X63960120Y-101811902D01*
X63864882Y-101907140D01*
X63769644Y-101954759D01*
X64722025Y-101764283D02*
X64769644Y-101716664D01*
X64864882Y-101669044D01*
X65102977Y-101669044D01*
X65198215Y-101716664D01*
X65245834Y-101764283D01*
X65293453Y-101859521D01*
X65293453Y-101954759D01*
X65245834Y-102097616D01*
X64674406Y-102669044D01*
X65293453Y-102669044D01*
%TO.C,SW16*%
X108920350Y-126523065D02*
X109066814Y-126558052D01*
X109304003Y-126537300D01*
X109394728Y-126481562D01*
X109438016Y-126429974D01*
X109477153Y-126330948D01*
X109468853Y-126236072D01*
X109413114Y-126145347D01*
X109361526Y-126102059D01*
X109262500Y-126062922D01*
X109068598Y-126032085D01*
X108969572Y-125992948D01*
X108917984Y-125949660D01*
X108862246Y-125858935D01*
X108853945Y-125764059D01*
X108893083Y-125665033D01*
X108936370Y-125613445D01*
X109027096Y-125557707D01*
X109264285Y-125536955D01*
X109410749Y-125571942D01*
X109738663Y-125495453D02*
X110063008Y-126470896D01*
X110190506Y-125742727D01*
X110442511Y-126437694D01*
X110592545Y-125420748D01*
X111581019Y-126338087D02*
X111011765Y-126387890D01*
X111296392Y-126362989D02*
X111209236Y-125366794D01*
X111126812Y-125517408D01*
X111040236Y-125620584D01*
X110949511Y-125676323D01*
X112347745Y-125267187D02*
X112157993Y-125283789D01*
X112067268Y-125339527D01*
X112023980Y-125391115D01*
X111941555Y-125541729D01*
X111910719Y-125735631D01*
X111943921Y-126115134D01*
X111999659Y-126205859D01*
X112051247Y-126249147D01*
X112150273Y-126288284D01*
X112340025Y-126271683D01*
X112430750Y-126215944D01*
X112474038Y-126164356D01*
X112513175Y-126065330D01*
X112492424Y-125828141D01*
X112436685Y-125737416D01*
X112385097Y-125694128D01*
X112286071Y-125654991D01*
X112096320Y-125671592D01*
X112005594Y-125727330D01*
X111962307Y-125778918D01*
X111923170Y-125877944D01*
%TO.C,SW26*%
X231049406Y-83596425D02*
X231192263Y-83644044D01*
X231430358Y-83644044D01*
X231525596Y-83596425D01*
X231573215Y-83548806D01*
X231620834Y-83453568D01*
X231620834Y-83358330D01*
X231573215Y-83263092D01*
X231525596Y-83215473D01*
X231430358Y-83167854D01*
X231239882Y-83120235D01*
X231144644Y-83072616D01*
X231097025Y-83024997D01*
X231049406Y-82929759D01*
X231049406Y-82834521D01*
X231097025Y-82739283D01*
X231144644Y-82691664D01*
X231239882Y-82644044D01*
X231477977Y-82644044D01*
X231620834Y-82691664D01*
X231954168Y-82644044D02*
X232192263Y-83644044D01*
X232382739Y-82929759D01*
X232573215Y-83644044D01*
X232811310Y-82644044D01*
X233144644Y-82739283D02*
X233192263Y-82691664D01*
X233287501Y-82644044D01*
X233525596Y-82644044D01*
X233620834Y-82691664D01*
X233668453Y-82739283D01*
X233716072Y-82834521D01*
X233716072Y-82929759D01*
X233668453Y-83072616D01*
X233097025Y-83644044D01*
X233716072Y-83644044D01*
X234573215Y-82644044D02*
X234382739Y-82644044D01*
X234287501Y-82691664D01*
X234239882Y-82739283D01*
X234144644Y-82882140D01*
X234097025Y-83072616D01*
X234097025Y-83453568D01*
X234144644Y-83548806D01*
X234192263Y-83596425D01*
X234287501Y-83644044D01*
X234477977Y-83644044D01*
X234573215Y-83596425D01*
X234620834Y-83548806D01*
X234668453Y-83453568D01*
X234668453Y-83215473D01*
X234620834Y-83120235D01*
X234573215Y-83072616D01*
X234477977Y-83024997D01*
X234287501Y-83024997D01*
X234192263Y-83072616D01*
X234144644Y-83120235D01*
X234097025Y-83215473D01*
%TO.C,SW4*%
X100150596Y-61771425D02*
X100293453Y-61819044D01*
X100531549Y-61819044D01*
X100626787Y-61771425D01*
X100674406Y-61723806D01*
X100722025Y-61628568D01*
X100722025Y-61533330D01*
X100674406Y-61438092D01*
X100626787Y-61390473D01*
X100531549Y-61342854D01*
X100341072Y-61295235D01*
X100245834Y-61247616D01*
X100198215Y-61199997D01*
X100150596Y-61104759D01*
X100150596Y-61009521D01*
X100198215Y-60914283D01*
X100245834Y-60866664D01*
X100341072Y-60819044D01*
X100579168Y-60819044D01*
X100722025Y-60866664D01*
X101055358Y-60819044D02*
X101293453Y-61819044D01*
X101483930Y-61104759D01*
X101674406Y-61819044D01*
X101912501Y-60819044D01*
X102722025Y-61152378D02*
X102722025Y-61819044D01*
X102483930Y-60771425D02*
X102245834Y-61485711D01*
X102864882Y-61485711D01*
%TO.C,SW14*%
X99674406Y-99771425D02*
X99817263Y-99819044D01*
X100055358Y-99819044D01*
X100150596Y-99771425D01*
X100198215Y-99723806D01*
X100245834Y-99628568D01*
X100245834Y-99533330D01*
X100198215Y-99438092D01*
X100150596Y-99390473D01*
X100055358Y-99342854D01*
X99864882Y-99295235D01*
X99769644Y-99247616D01*
X99722025Y-99199997D01*
X99674406Y-99104759D01*
X99674406Y-99009521D01*
X99722025Y-98914283D01*
X99769644Y-98866664D01*
X99864882Y-98819044D01*
X100102977Y-98819044D01*
X100245834Y-98866664D01*
X100579168Y-98819044D02*
X100817263Y-99819044D01*
X101007739Y-99104759D01*
X101198215Y-99819044D01*
X101436310Y-98819044D01*
X102341072Y-99819044D02*
X101769644Y-99819044D01*
X102055358Y-99819044D02*
X102055358Y-98819044D01*
X101960120Y-98961902D01*
X101864882Y-99057140D01*
X101769644Y-99104759D01*
X103198215Y-99152378D02*
X103198215Y-99819044D01*
X102960120Y-98771425D02*
X102722025Y-99485711D01*
X103341072Y-99485711D01*
%TO.C,SW2*%
X62150596Y-64621425D02*
X62293453Y-64669044D01*
X62531549Y-64669044D01*
X62626787Y-64621425D01*
X62674406Y-64573806D01*
X62722025Y-64478568D01*
X62722025Y-64383330D01*
X62674406Y-64288092D01*
X62626787Y-64240473D01*
X62531549Y-64192854D01*
X62341072Y-64145235D01*
X62245834Y-64097616D01*
X62198215Y-64049997D01*
X62150596Y-63954759D01*
X62150596Y-63859521D01*
X62198215Y-63764283D01*
X62245834Y-63716664D01*
X62341072Y-63669044D01*
X62579168Y-63669044D01*
X62722025Y-63716664D01*
X63055358Y-63669044D02*
X63293453Y-64669044D01*
X63483930Y-63954759D01*
X63674406Y-64669044D01*
X63912501Y-63669044D01*
X64245834Y-63764283D02*
X64293453Y-63716664D01*
X64388691Y-63669044D01*
X64626787Y-63669044D01*
X64722025Y-63716664D01*
X64769644Y-63764283D01*
X64817263Y-63859521D01*
X64817263Y-63954759D01*
X64769644Y-64097616D01*
X64198215Y-64669044D01*
X64817263Y-64669044D01*
%TO.C,RESET*%
X30220834Y-118168568D02*
X29839882Y-118435235D01*
X30220834Y-118625711D02*
X29420834Y-118625711D01*
X29420834Y-118320949D01*
X29458930Y-118244759D01*
X29497025Y-118206664D01*
X29573215Y-118168568D01*
X29687501Y-118168568D01*
X29763691Y-118206664D01*
X29801787Y-118244759D01*
X29839882Y-118320949D01*
X29839882Y-118625711D01*
X29801787Y-117825711D02*
X29801787Y-117559044D01*
X30220834Y-117444759D02*
X30220834Y-117825711D01*
X29420834Y-117825711D01*
X29420834Y-117444759D01*
X30182739Y-117139997D02*
X30220834Y-117025711D01*
X30220834Y-116835235D01*
X30182739Y-116759044D01*
X30144644Y-116720949D01*
X30068453Y-116682854D01*
X29992263Y-116682854D01*
X29916072Y-116720949D01*
X29877977Y-116759044D01*
X29839882Y-116835235D01*
X29801787Y-116987616D01*
X29763691Y-117063806D01*
X29725596Y-117101902D01*
X29649406Y-117139997D01*
X29573215Y-117139997D01*
X29497025Y-117101902D01*
X29458930Y-117063806D01*
X29420834Y-116987616D01*
X29420834Y-116797140D01*
X29458930Y-116682854D01*
X29801787Y-116339997D02*
X29801787Y-116073330D01*
X30220834Y-115959044D02*
X30220834Y-116339997D01*
X29420834Y-116339997D01*
X29420834Y-115959044D01*
X29420834Y-115730473D02*
X29420834Y-115273330D01*
X30220834Y-115501902D02*
X29420834Y-115501902D01*
%TO.C,SW6*%
X43150596Y-96921425D02*
X43293453Y-96969044D01*
X43531549Y-96969044D01*
X43626787Y-96921425D01*
X43674406Y-96873806D01*
X43722025Y-96778568D01*
X43722025Y-96683330D01*
X43674406Y-96588092D01*
X43626787Y-96540473D01*
X43531549Y-96492854D01*
X43341072Y-96445235D01*
X43245834Y-96397616D01*
X43198215Y-96349997D01*
X43150596Y-96254759D01*
X43150596Y-96159521D01*
X43198215Y-96064283D01*
X43245834Y-96016664D01*
X43341072Y-95969044D01*
X43579168Y-95969044D01*
X43722025Y-96016664D01*
X44055358Y-95969044D02*
X44293453Y-96969044D01*
X44483930Y-96254759D01*
X44674406Y-96969044D01*
X44912501Y-95969044D01*
X45722025Y-95969044D02*
X45531549Y-95969044D01*
X45436310Y-96016664D01*
X45388691Y-96064283D01*
X45293453Y-96207140D01*
X45245834Y-96397616D01*
X45245834Y-96778568D01*
X45293453Y-96873806D01*
X45341072Y-96921425D01*
X45436310Y-96969044D01*
X45626787Y-96969044D01*
X45722025Y-96921425D01*
X45769644Y-96873806D01*
X45817263Y-96778568D01*
X45817263Y-96540473D01*
X45769644Y-96445235D01*
X45722025Y-96397616D01*
X45626787Y-96349997D01*
X45436310Y-96349997D01*
X45341072Y-96397616D01*
X45293453Y-96445235D01*
X45245834Y-96540473D01*
%TO.C,SW21*%
X231049406Y-64596425D02*
X231192263Y-64644044D01*
X231430358Y-64644044D01*
X231525596Y-64596425D01*
X231573215Y-64548806D01*
X231620834Y-64453568D01*
X231620834Y-64358330D01*
X231573215Y-64263092D01*
X231525596Y-64215473D01*
X231430358Y-64167854D01*
X231239882Y-64120235D01*
X231144644Y-64072616D01*
X231097025Y-64024997D01*
X231049406Y-63929759D01*
X231049406Y-63834521D01*
X231097025Y-63739283D01*
X231144644Y-63691664D01*
X231239882Y-63644044D01*
X231477977Y-63644044D01*
X231620834Y-63691664D01*
X231954168Y-63644044D02*
X232192263Y-64644044D01*
X232382739Y-63929759D01*
X232573215Y-64644044D01*
X232811310Y-63644044D01*
X233144644Y-63739283D02*
X233192263Y-63691664D01*
X233287501Y-63644044D01*
X233525596Y-63644044D01*
X233620834Y-63691664D01*
X233668453Y-63739283D01*
X233716072Y-63834521D01*
X233716072Y-63929759D01*
X233668453Y-64072616D01*
X233097025Y-64644044D01*
X233716072Y-64644044D01*
X234668453Y-64644044D02*
X234097025Y-64644044D01*
X234382739Y-64644044D02*
X234382739Y-63644044D01*
X234287501Y-63786902D01*
X234192263Y-63882140D01*
X234097025Y-63929759D01*
%TO.C,SW9*%
X100150596Y-80771425D02*
X100293453Y-80819044D01*
X100531549Y-80819044D01*
X100626787Y-80771425D01*
X100674406Y-80723806D01*
X100722025Y-80628568D01*
X100722025Y-80533330D01*
X100674406Y-80438092D01*
X100626787Y-80390473D01*
X100531549Y-80342854D01*
X100341072Y-80295235D01*
X100245834Y-80247616D01*
X100198215Y-80199997D01*
X100150596Y-80104759D01*
X100150596Y-80009521D01*
X100198215Y-79914283D01*
X100245834Y-79866664D01*
X100341072Y-79819044D01*
X100579168Y-79819044D01*
X100722025Y-79866664D01*
X101055358Y-79819044D02*
X101293453Y-80819044D01*
X101483930Y-80104759D01*
X101674406Y-80819044D01*
X101912501Y-79819044D01*
X102341072Y-80819044D02*
X102531549Y-80819044D01*
X102626787Y-80771425D01*
X102674406Y-80723806D01*
X102769644Y-80580949D01*
X102817263Y-80390473D01*
X102817263Y-80009521D01*
X102769644Y-79914283D01*
X102722025Y-79866664D01*
X102626787Y-79819044D01*
X102436310Y-79819044D01*
X102341072Y-79866664D01*
X102293453Y-79914283D01*
X102245834Y-80009521D01*
X102245834Y-80247616D01*
X102293453Y-80342854D01*
X102341072Y-80390473D01*
X102436310Y-80438092D01*
X102626787Y-80438092D01*
X102722025Y-80390473D01*
X102769644Y-80342854D01*
X102817263Y-80247616D01*
%TO.C,SW8*%
X81150596Y-71271425D02*
X81293453Y-71319044D01*
X81531549Y-71319044D01*
X81626787Y-71271425D01*
X81674406Y-71223806D01*
X81722025Y-71128568D01*
X81722025Y-71033330D01*
X81674406Y-70938092D01*
X81626787Y-70890473D01*
X81531549Y-70842854D01*
X81341072Y-70795235D01*
X81245834Y-70747616D01*
X81198215Y-70699997D01*
X81150596Y-70604759D01*
X81150596Y-70509521D01*
X81198215Y-70414283D01*
X81245834Y-70366664D01*
X81341072Y-70319044D01*
X81579168Y-70319044D01*
X81722025Y-70366664D01*
X82055358Y-70319044D02*
X82293453Y-71319044D01*
X82483930Y-70604759D01*
X82674406Y-71319044D01*
X82912501Y-70319044D01*
X83436310Y-70747616D02*
X83341072Y-70699997D01*
X83293453Y-70652378D01*
X83245834Y-70557140D01*
X83245834Y-70509521D01*
X83293453Y-70414283D01*
X83341072Y-70366664D01*
X83436310Y-70319044D01*
X83626787Y-70319044D01*
X83722025Y-70366664D01*
X83769644Y-70414283D01*
X83817263Y-70509521D01*
X83817263Y-70557140D01*
X83769644Y-70652378D01*
X83722025Y-70699997D01*
X83626787Y-70747616D01*
X83436310Y-70747616D01*
X83341072Y-70795235D01*
X83293453Y-70842854D01*
X83245834Y-70938092D01*
X83245834Y-71128568D01*
X83293453Y-71223806D01*
X83341072Y-71271425D01*
X83436310Y-71319044D01*
X83626787Y-71319044D01*
X83722025Y-71271425D01*
X83769644Y-71223806D01*
X83817263Y-71128568D01*
X83817263Y-70938092D01*
X83769644Y-70842854D01*
X83722025Y-70795235D01*
X83626787Y-70747616D01*
%TO.C,SW31*%
X231049406Y-102596425D02*
X231192263Y-102644044D01*
X231430358Y-102644044D01*
X231525596Y-102596425D01*
X231573215Y-102548806D01*
X231620834Y-102453568D01*
X231620834Y-102358330D01*
X231573215Y-102263092D01*
X231525596Y-102215473D01*
X231430358Y-102167854D01*
X231239882Y-102120235D01*
X231144644Y-102072616D01*
X231097025Y-102024997D01*
X231049406Y-101929759D01*
X231049406Y-101834521D01*
X231097025Y-101739283D01*
X231144644Y-101691664D01*
X231239882Y-101644044D01*
X231477977Y-101644044D01*
X231620834Y-101691664D01*
X231954168Y-101644044D02*
X232192263Y-102644044D01*
X232382739Y-101929759D01*
X232573215Y-102644044D01*
X232811310Y-101644044D01*
X233097025Y-101644044D02*
X233716072Y-101644044D01*
X233382739Y-102024997D01*
X233525596Y-102024997D01*
X233620834Y-102072616D01*
X233668453Y-102120235D01*
X233716072Y-102215473D01*
X233716072Y-102453568D01*
X233668453Y-102548806D01*
X233620834Y-102596425D01*
X233525596Y-102644044D01*
X233239882Y-102644044D01*
X233144644Y-102596425D01*
X233097025Y-102548806D01*
X234668453Y-102644044D02*
X234097025Y-102644044D01*
X234382739Y-102644044D02*
X234382739Y-101644044D01*
X234287501Y-101786902D01*
X234192263Y-101882140D01*
X234097025Y-101929759D01*
D12*
%TO.C,On / Off*%
X67543930Y-55936664D02*
X65503930Y-55936664D01*
X62283930Y-52966664D02*
X69033930Y-52966664D01*
X64573930Y-55936664D02*
X63993930Y-55936664D01*
X68503930Y-55936664D02*
X69033930Y-55936664D01*
X63073930Y-55926664D02*
X62283930Y-55926664D01*
%TO.C,SW33*%
X153616461Y-128937649D02*
X153274441Y-127997957D01*
X158062723Y-141153653D02*
X157720703Y-140213961D01*
X159002415Y-140811633D02*
X158062723Y-141153653D01*
X153274441Y-127997957D02*
X154214133Y-127655937D01*
X170876399Y-135425679D02*
X171218419Y-136365371D01*
X165490445Y-123551695D02*
X166430137Y-123209675D01*
X166430137Y-123209675D02*
X166772157Y-124149367D01*
X171218419Y-136365371D02*
X170278727Y-136707391D01*
%TO.C,SW10*%
X126283930Y-76756664D02*
X127283930Y-76756664D01*
X113283930Y-77756664D02*
X113283930Y-76756664D01*
X114283930Y-90756664D02*
X113283930Y-90756664D01*
X127283930Y-89756664D02*
X127283930Y-90756664D01*
X127283930Y-76756664D02*
X127283930Y-77756664D01*
X113283930Y-76756664D02*
X114283930Y-76756664D01*
X127283930Y-90756664D02*
X126283930Y-90756664D01*
X113283930Y-90756664D02*
X113283930Y-89756664D01*
%TO.C,kibuzzard-643B7841*%
G36*
X175625786Y-141972673D02*
G01*
X175713862Y-142059005D01*
X175713862Y-142588042D01*
X175625786Y-142674374D01*
X175494108Y-142703151D01*
X175387137Y-142678880D01*
X175305747Y-142606064D01*
X175254297Y-142490519D01*
X175237147Y-142338057D01*
X175254442Y-142165975D01*
X175306328Y-142042727D01*
X175388445Y-141968603D01*
X175496433Y-141943895D01*
X175625786Y-141972673D01*
G37*
G36*
X173572568Y-141558745D02*
G01*
X173658755Y-141610195D01*
X173709769Y-141691585D01*
X173726774Y-141798555D01*
X173708751Y-141903346D01*
X173654685Y-141982847D01*
X173567772Y-142032989D01*
X173451209Y-142049703D01*
X173169831Y-142049703D01*
X173169831Y-141541594D01*
X173450046Y-141541594D01*
X173572568Y-141558745D01*
G37*
G36*
X172523359Y-140868380D02*
G01*
X178569501Y-140868380D01*
X178569501Y-143744948D01*
X172523359Y-143744948D01*
X172523359Y-142951973D01*
X172821015Y-142951973D01*
X173169831Y-142951973D01*
X173169831Y-142332244D01*
X173447721Y-142332244D01*
X173765143Y-142951973D01*
X174139539Y-142951973D01*
X174336039Y-142951973D01*
X174504633Y-142951973D01*
X174673227Y-142951973D01*
X174673227Y-142327593D01*
X174901121Y-142327593D01*
X174916688Y-142510075D01*
X174963391Y-142666849D01*
X175041228Y-142797913D01*
X175144258Y-142896421D01*
X175266538Y-142955526D01*
X175408066Y-142975228D01*
X175579277Y-142942381D01*
X175713862Y-142843841D01*
X175713862Y-142911278D01*
X175695258Y-143027696D01*
X175639448Y-143114173D01*
X175550209Y-143167803D01*
X175431321Y-143185680D01*
X175265633Y-143150508D01*
X175126688Y-143044991D01*
X174977860Y-143249630D01*
X175061285Y-143328840D01*
X175176685Y-143392063D01*
X175309817Y-143433485D01*
X175446436Y-143447292D01*
X175617356Y-143431305D01*
X175765021Y-143383342D01*
X175885799Y-143304859D01*
X175976055Y-143197307D01*
X176032302Y-143064467D01*
X176045966Y-142951973D01*
X176301035Y-142951973D01*
X176637061Y-142951973D01*
X176637061Y-142057842D01*
X176723684Y-141972382D01*
X176851002Y-141943895D01*
X177005643Y-141995636D01*
X177052152Y-142155510D01*
X177052152Y-142951973D01*
X177388178Y-142951973D01*
X177388178Y-142146209D01*
X177369714Y-141975010D01*
X177356528Y-141940407D01*
X177524216Y-141940407D01*
X177707926Y-141940407D01*
X177707926Y-142618273D01*
X177733070Y-142774441D01*
X177801525Y-142885989D01*
X177913291Y-142952918D01*
X178068369Y-142975228D01*
X178171560Y-142967670D01*
X178271845Y-142944997D01*
X178271845Y-142690362D01*
X178173014Y-142698501D01*
X178070695Y-142668270D01*
X178043952Y-142568276D01*
X178043952Y-141940407D01*
X178259055Y-141940407D01*
X178259055Y-141693911D01*
X178043952Y-141693911D01*
X178043952Y-141384627D01*
X177707926Y-141384627D01*
X177707926Y-141693911D01*
X177524216Y-141693911D01*
X177524216Y-141940407D01*
X177356528Y-141940407D01*
X177318973Y-141841855D01*
X177235955Y-141746745D01*
X177120659Y-141689678D01*
X176973087Y-141670656D01*
X176845834Y-141688485D01*
X176733825Y-141741970D01*
X176637061Y-141831112D01*
X176637061Y-141166036D01*
X176301035Y-141166036D01*
X176301035Y-142951973D01*
X176045966Y-142951973D01*
X176051050Y-142910116D01*
X176051050Y-141693911D01*
X175746418Y-141693911D01*
X175732465Y-141812508D01*
X175594392Y-141706119D01*
X175410392Y-141670656D01*
X175265246Y-141690293D01*
X175141416Y-141749204D01*
X175038903Y-141847390D01*
X174962357Y-141977744D01*
X174916430Y-142133160D01*
X174901121Y-142313640D01*
X174901121Y-142327593D01*
X174673227Y-142327593D01*
X174673227Y-141693911D01*
X174504633Y-141693911D01*
X174504633Y-142951973D01*
X174504633Y-141693911D01*
X174336039Y-141693911D01*
X174336039Y-142951973D01*
X174139539Y-142951973D01*
X174139539Y-142935695D01*
X173773282Y-142243877D01*
X173906268Y-142163504D01*
X174000594Y-142059586D01*
X174056841Y-141929507D01*
X174075590Y-141770650D01*
X174057503Y-141620143D01*
X174003243Y-141494181D01*
X173912809Y-141392766D01*
X173872128Y-141368349D01*
X174316273Y-141368349D01*
X174368014Y-141493923D01*
X174504633Y-141542757D01*
X174641253Y-141493923D01*
X174692994Y-141368349D01*
X174641834Y-141243938D01*
X174504633Y-141195104D01*
X174366851Y-141243938D01*
X174316273Y-141368349D01*
X173872128Y-141368349D01*
X173789044Y-141318481D01*
X173634790Y-141273911D01*
X173450046Y-141259054D01*
X172821015Y-141259054D01*
X172821015Y-142951973D01*
X172523359Y-142951973D01*
X172523359Y-140868380D01*
G37*
%TO.C,SW28*%
X182546430Y-109731664D02*
X181546430Y-109731664D01*
X181546430Y-95731664D02*
X182546430Y-95731664D01*
X182546430Y-108731664D02*
X182546430Y-109731664D01*
X182546430Y-95731664D02*
X182546430Y-96731664D01*
X168546430Y-95731664D02*
X169546430Y-95731664D01*
X168546430Y-96731664D02*
X168546430Y-95731664D01*
X168546430Y-109731664D02*
X168546430Y-108731664D01*
X169546430Y-109731664D02*
X168546430Y-109731664D01*
%TO.C,kibuzzard-643B780C*%
G36*
X120238003Y-142252016D02*
G01*
X120298464Y-142424680D01*
X120298464Y-142451423D01*
X119831051Y-142451423D01*
X119859683Y-142340383D01*
X119910697Y-142258411D01*
X120072896Y-142190973D01*
X120238003Y-142252016D01*
G37*
G36*
X117967211Y-141092203D02*
G01*
X122600649Y-141092203D01*
X122600649Y-143521125D01*
X117967211Y-143521125D01*
X117967211Y-143200214D01*
X118264867Y-143200214D01*
X119354336Y-143200214D01*
X119354336Y-142919999D01*
X118613683Y-142919999D01*
X118613683Y-142601413D01*
X119486886Y-142601413D01*
X119506200Y-142777243D01*
X119564142Y-142928009D01*
X119660712Y-143053711D01*
X119788030Y-143148021D01*
X119938215Y-143204607D01*
X120111266Y-143223469D01*
X120261257Y-143208498D01*
X120397295Y-143163588D01*
X120512986Y-143091936D01*
X120601934Y-142996738D01*
X120436828Y-142811866D01*
X120306312Y-142917383D01*
X120133358Y-142952555D01*
X120018685Y-142933951D01*
X119925812Y-142878141D01*
X119860264Y-142791518D01*
X119827563Y-142680478D01*
X120628676Y-142680478D01*
X120628676Y-142543277D01*
X120612205Y-142359180D01*
X120562789Y-142205314D01*
X120551687Y-142188648D01*
X120724019Y-142188648D01*
X120911217Y-142188648D01*
X120911217Y-143200214D01*
X121248406Y-143200214D01*
X121248406Y-142188648D01*
X121498391Y-142188648D01*
X121555364Y-142188648D01*
X121739074Y-142188648D01*
X121739074Y-142866514D01*
X121764218Y-143022681D01*
X121832673Y-143134230D01*
X121944439Y-143201159D01*
X122099517Y-143223469D01*
X122202708Y-143215911D01*
X122302993Y-143193238D01*
X122302993Y-142938602D01*
X122204162Y-142946741D01*
X122101842Y-142916510D01*
X122075100Y-142816517D01*
X122075100Y-142188648D01*
X122290203Y-142188648D01*
X122290203Y-141942151D01*
X122075100Y-141942151D01*
X122075100Y-141632868D01*
X121739074Y-141632868D01*
X121739074Y-141942151D01*
X121555364Y-141942151D01*
X121555364Y-142188648D01*
X121498391Y-142188648D01*
X121498391Y-141942151D01*
X121248406Y-141942151D01*
X121248406Y-141840995D01*
X121295787Y-141707573D01*
X121437929Y-141663099D01*
X121540249Y-141673563D01*
X121543737Y-141413114D01*
X121372817Y-141389859D01*
X121178497Y-141419073D01*
X121032722Y-141506713D01*
X120941593Y-141647257D01*
X120911217Y-141835181D01*
X120911217Y-141942151D01*
X120724019Y-141942151D01*
X120724019Y-142188648D01*
X120551687Y-142188648D01*
X120480430Y-142081678D01*
X120369390Y-141991244D01*
X120233933Y-141936984D01*
X120074059Y-141918897D01*
X119911424Y-141939099D01*
X119767682Y-141999706D01*
X119648649Y-142097665D01*
X119560137Y-142229924D01*
X119505198Y-142389362D01*
X119486886Y-142568857D01*
X119486886Y-142601413D01*
X118613683Y-142601413D01*
X118613683Y-141507294D01*
X118264867Y-141507294D01*
X118264867Y-143200214D01*
X117967211Y-143200214D01*
X117967211Y-141092203D01*
G37*
%TO.C,J4*%
X211783930Y-109606664D02*
X210783930Y-109606664D01*
X207623930Y-105646664D02*
X207623930Y-104431664D01*
X210783930Y-109606664D02*
X210783930Y-108006664D01*
X207683930Y-109606664D02*
X207683930Y-111866664D01*
X212543930Y-105646664D02*
X211623930Y-105646664D01*
X207343930Y-104046664D02*
X206423930Y-104046664D01*
X206423930Y-111866664D02*
X212543930Y-111866664D01*
X211783930Y-108006664D02*
X211783930Y-109606664D01*
X207183930Y-108006664D02*
X207183930Y-109606664D01*
X206423930Y-105646664D02*
X207343930Y-105646664D01*
X208183930Y-109606664D02*
X208183930Y-108006664D01*
X212543930Y-111866664D02*
X212543930Y-104046664D01*
X206423930Y-104046664D02*
X206423930Y-111866664D01*
X209983930Y-107506664D02*
X209983930Y-111866664D01*
X208183930Y-108006664D02*
X207183930Y-108006664D01*
X207183930Y-109606664D02*
X208183930Y-109606664D01*
X207623930Y-105646664D02*
X207343930Y-105646664D01*
X211623930Y-104046664D02*
X211623930Y-105646664D01*
X208983930Y-111866664D02*
X208983930Y-107506664D01*
X208183930Y-109606664D02*
X208183930Y-111866664D01*
X207343930Y-105646664D02*
X207343930Y-104046664D01*
X208983930Y-107506664D02*
X209983930Y-107506664D01*
X211623930Y-105646664D02*
X211343930Y-105646664D01*
X212543930Y-104046664D02*
X211623930Y-104046664D01*
X210783930Y-108006664D02*
X211783930Y-108006664D01*
%TO.C,SW3*%
X89283930Y-62256664D02*
X88283930Y-62256664D01*
X76283930Y-62256664D02*
X75283930Y-62256664D01*
X75283930Y-49256664D02*
X75283930Y-48256664D01*
X88283930Y-48256664D02*
X89283930Y-48256664D01*
X75283930Y-62256664D02*
X75283930Y-61256664D01*
X75283930Y-48256664D02*
X76283930Y-48256664D01*
X89283930Y-48256664D02*
X89283930Y-49256664D01*
X89283930Y-61256664D02*
X89283930Y-62256664D01*
%TO.C,SW23*%
X168546430Y-90731664D02*
X168546430Y-89731664D01*
X169546430Y-90731664D02*
X168546430Y-90731664D01*
X182546430Y-76731664D02*
X182546430Y-77731664D01*
X182546430Y-90731664D02*
X181546430Y-90731664D01*
X181546430Y-76731664D02*
X182546430Y-76731664D01*
X168546430Y-76731664D02*
X169546430Y-76731664D01*
X168546430Y-77731664D02*
X168546430Y-76731664D01*
X182546430Y-89731664D02*
X182546430Y-90731664D01*
%TO.C,SW20*%
X206658930Y-62231664D02*
X206658930Y-61231664D01*
X206658930Y-49231664D02*
X206658930Y-48231664D01*
X220658930Y-61231664D02*
X220658930Y-62231664D01*
X219658930Y-48231664D02*
X220658930Y-48231664D01*
X220658930Y-48231664D02*
X220658930Y-49231664D01*
X220658930Y-62231664D02*
X219658930Y-62231664D01*
X206658930Y-48231664D02*
X207658930Y-48231664D01*
X207658930Y-62231664D02*
X206658930Y-62231664D01*
%TO.C,SW30*%
X220658930Y-99231664D02*
X220658930Y-100231664D01*
X206658930Y-86231664D02*
X207658930Y-86231664D01*
X206658930Y-100231664D02*
X206658930Y-99231664D01*
X207658930Y-100231664D02*
X206658930Y-100231664D01*
X219658930Y-86231664D02*
X220658930Y-86231664D01*
X206658930Y-87231664D02*
X206658930Y-86231664D01*
X220658930Y-100231664D02*
X219658930Y-100231664D01*
X220658930Y-86231664D02*
X220658930Y-87231664D01*
%TO.C,SW24*%
X188658930Y-90731664D02*
X187658930Y-90731664D01*
X201658930Y-90731664D02*
X200658930Y-90731664D01*
X201658930Y-76731664D02*
X201658930Y-77731664D01*
X187658930Y-90731664D02*
X187658930Y-89731664D01*
X201658930Y-89731664D02*
X201658930Y-90731664D01*
X187658930Y-77731664D02*
X187658930Y-76731664D01*
X200658930Y-76731664D02*
X201658930Y-76731664D01*
X187658930Y-76731664D02*
X188658930Y-76731664D01*
%TO.C,SW27*%
X245658930Y-106881664D02*
X244658930Y-106881664D01*
X244658930Y-106881664D02*
X244658930Y-105881664D01*
X244658930Y-93881664D02*
X244658930Y-92881664D01*
X258658930Y-92881664D02*
X258658930Y-93881664D01*
X258658930Y-106881664D02*
X257658930Y-106881664D01*
X244658930Y-92881664D02*
X245658930Y-92881664D01*
X257658930Y-92881664D02*
X258658930Y-92881664D01*
X258658930Y-105881664D02*
X258658930Y-106881664D01*
%TO.C,SW7*%
X69283930Y-79606664D02*
X70283930Y-79606664D01*
X56283930Y-93606664D02*
X56283930Y-92606664D01*
X70283930Y-79606664D02*
X70283930Y-80606664D01*
X56283930Y-80606664D02*
X56283930Y-79606664D01*
X56283930Y-79606664D02*
X57283930Y-79606664D01*
X70283930Y-93606664D02*
X69283930Y-93606664D01*
X57283930Y-93606664D02*
X56283930Y-93606664D01*
X70283930Y-92606664D02*
X70283930Y-93606664D01*
%TO.C,SW34*%
X191522203Y-136915117D02*
X190526008Y-136827961D01*
X178571672Y-135782092D02*
X177575477Y-135694937D01*
X178795657Y-121748211D02*
X179791852Y-121835367D01*
X178708502Y-122744406D02*
X178795657Y-121748211D01*
X192742383Y-122968391D02*
X192655227Y-123964586D01*
X191609358Y-135918922D02*
X191522203Y-136915117D01*
X177575477Y-135694937D02*
X177662633Y-134698742D01*
X191746188Y-122881236D02*
X192742383Y-122968391D01*
%TO.C,kibuzzard-643B7631*%
G36*
X37872740Y-78200737D02*
G01*
X37958927Y-78238671D01*
X38009069Y-78305382D01*
X38025783Y-78404358D01*
X37996457Y-78519209D01*
X37908478Y-78589360D01*
X37761846Y-78614811D01*
X37503722Y-78614811D01*
X37503722Y-78188093D01*
X37747893Y-78188093D01*
X37872740Y-78200737D01*
G37*
G36*
X35845684Y-78613357D02*
G01*
X35928237Y-78685737D01*
X35979687Y-78802009D01*
X35996837Y-78957813D01*
X35979687Y-79135564D01*
X35928237Y-79257213D01*
X35846265Y-79327413D01*
X35737551Y-79350812D01*
X35626511Y-79327122D01*
X35544539Y-79256051D01*
X35493961Y-79140215D01*
X35477102Y-78982230D01*
X35493961Y-78807386D01*
X35544539Y-78685155D01*
X35625930Y-78613212D01*
X35735225Y-78589231D01*
X35845684Y-78613357D01*
G37*
G36*
X37957183Y-78889083D02*
G01*
X38037410Y-78967761D01*
X38064153Y-79097339D01*
X37994971Y-79259539D01*
X37912273Y-79303577D01*
X37802541Y-79318256D01*
X37503722Y-79318256D01*
X37503722Y-78861307D01*
X37823470Y-78861307D01*
X37957183Y-78889083D01*
G37*
G36*
X34598085Y-79242679D02*
G01*
X34505068Y-79331627D01*
X34367867Y-79364765D01*
X34246944Y-79324070D01*
X34202761Y-79220588D01*
X34203924Y-79200821D01*
X34241001Y-79103928D01*
X34330531Y-79045792D01*
X34472512Y-79026413D01*
X34598085Y-79026413D01*
X34598085Y-79242679D01*
G37*
G36*
X31371538Y-77543946D02*
G01*
X41396508Y-77543946D01*
X41396508Y-79919382D01*
X31371538Y-79919382D01*
X31371538Y-79598472D01*
X31669195Y-79598472D01*
X32074984Y-79598472D01*
X32400545Y-79005484D01*
X32726107Y-79598472D01*
X33131896Y-79598472D01*
X33302816Y-79598472D01*
X33471410Y-79598472D01*
X33640004Y-79598472D01*
X33640004Y-79245005D01*
X33866735Y-79245005D01*
X33897111Y-79393833D01*
X33988239Y-79514756D01*
X34125585Y-79594983D01*
X34294616Y-79621726D01*
X34471640Y-79587716D01*
X34612038Y-79485688D01*
X34645757Y-79598472D01*
X34985271Y-79598472D01*
X34985271Y-79578705D01*
X34948355Y-79465049D01*
X34935274Y-79307792D01*
X34935274Y-78972928D01*
X35141076Y-78972928D01*
X35159098Y-79158963D01*
X35213164Y-79317093D01*
X35303275Y-79447318D01*
X35423617Y-79544211D01*
X35568375Y-79602347D01*
X35737551Y-79621726D01*
X35906662Y-79602283D01*
X35916107Y-79598472D01*
X37154906Y-79598472D01*
X37813006Y-79598472D01*
X38674581Y-79598472D01*
X39764049Y-79598472D01*
X39964037Y-79598472D01*
X41098851Y-79598472D01*
X41098851Y-79318256D01*
X40312853Y-79318256D01*
X40312853Y-78864795D01*
X40982580Y-78864795D01*
X40982580Y-78591556D01*
X40312853Y-78591556D01*
X40312853Y-78188093D01*
X41096526Y-78188093D01*
X41096526Y-77905552D01*
X39964037Y-77905552D01*
X39964037Y-79598472D01*
X39764049Y-79598472D01*
X39764049Y-79318256D01*
X39023397Y-79318256D01*
X39023397Y-77905552D01*
X38674581Y-77905552D01*
X38674581Y-79598472D01*
X37813006Y-79598472D01*
X37990514Y-79583227D01*
X38138567Y-79540594D01*
X38257164Y-79470572D01*
X38343723Y-79373679D01*
X38395657Y-79250431D01*
X38412969Y-79100828D01*
X38394220Y-78968859D01*
X38337974Y-78858982D01*
X38249171Y-78776719D01*
X38132753Y-78727594D01*
X38234201Y-78670767D01*
X38310650Y-78588649D01*
X38358612Y-78486475D01*
X38374599Y-78369477D01*
X38356900Y-78229757D01*
X38303802Y-78114454D01*
X38215307Y-78023568D01*
X38092575Y-77958003D01*
X37936771Y-77918665D01*
X37747893Y-77905552D01*
X37154906Y-77905552D01*
X37154906Y-79598472D01*
X35916107Y-79598472D01*
X36051227Y-79543953D01*
X36171245Y-79446737D01*
X36261033Y-79317352D01*
X36314906Y-79162516D01*
X36332863Y-78982230D01*
X36330538Y-78896189D01*
X36302310Y-78730307D01*
X36242430Y-78589231D01*
X36150898Y-78472959D01*
X36033140Y-78386401D01*
X35894583Y-78334466D01*
X35735225Y-78317154D01*
X35567067Y-78337211D01*
X35420710Y-78397382D01*
X35301095Y-78494178D01*
X35213164Y-78624112D01*
X35159098Y-78780789D01*
X35141076Y-78957813D01*
X35141076Y-78972928D01*
X34935274Y-78972928D01*
X34935274Y-78762476D01*
X34901119Y-78574551D01*
X34798655Y-78434008D01*
X34696917Y-78369089D01*
X34573862Y-78330138D01*
X34429491Y-78317154D01*
X34283570Y-78330380D01*
X34152764Y-78370058D01*
X34043468Y-78432990D01*
X33962078Y-78515979D01*
X33911500Y-78613067D01*
X33894640Y-78718293D01*
X34230666Y-78718293D01*
X34278919Y-78606672D01*
X34412050Y-78565976D01*
X34553321Y-78618299D01*
X34598085Y-78757825D01*
X34598085Y-78829914D01*
X34443444Y-78829914D01*
X34271297Y-78842445D01*
X34128476Y-78878490D01*
X34014982Y-78938047D01*
X33903796Y-79068271D01*
X33866735Y-79245005D01*
X33640004Y-79245005D01*
X33640004Y-78340409D01*
X33471410Y-78340409D01*
X33471410Y-79598472D01*
X33471410Y-78340409D01*
X33302816Y-78340409D01*
X33302816Y-79598472D01*
X33131896Y-79598472D01*
X32626113Y-78745035D01*
X33054922Y-78014847D01*
X33283049Y-78014847D01*
X33334791Y-78140421D01*
X33471410Y-78189255D01*
X33608030Y-78140421D01*
X33659771Y-78014847D01*
X33608611Y-77890436D01*
X33471410Y-77841602D01*
X33333628Y-77890436D01*
X33283049Y-78014847D01*
X33054922Y-78014847D01*
X33119106Y-77905552D01*
X32717968Y-77905552D01*
X32400545Y-78489237D01*
X32083123Y-77905552D01*
X31681984Y-77905552D01*
X32174978Y-78745035D01*
X31669195Y-79598472D01*
X31371538Y-79598472D01*
X31371538Y-77543946D01*
G37*
%TO.C,U1*%
X28948930Y-69841664D02*
X29478930Y-69841664D01*
X34023930Y-69841664D02*
X34553930Y-69841664D01*
X39093930Y-87621664D02*
X39623930Y-87621664D01*
X26958930Y-87621664D02*
X25058930Y-87621664D01*
X25068930Y-69841664D02*
X26908930Y-69841664D01*
X41633930Y-87621664D02*
X42163930Y-87621664D01*
X31483930Y-69841664D02*
X32013930Y-69841664D01*
X36553930Y-69841664D02*
X37083930Y-69841664D01*
X34013930Y-87621664D02*
X34543930Y-87621664D01*
X36553930Y-87621664D02*
X37083930Y-87621664D01*
X46058930Y-87621664D02*
X44158930Y-87621664D01*
X44168930Y-69841664D02*
X46058930Y-69841664D01*
X28933930Y-87621664D02*
X29463930Y-87621664D01*
X31473930Y-87621664D02*
X32003930Y-87621664D01*
X46058930Y-69841664D02*
X46058930Y-87621664D01*
X39103930Y-69841664D02*
X39633930Y-69841664D01*
X25058930Y-87621664D02*
X25058930Y-69841664D01*
X41643930Y-69841664D02*
X42173930Y-69841664D01*
%TO.C,kibuzzard-643B7985*%
G36*
X36562514Y-82461204D02*
G01*
X37921346Y-82461204D01*
X37921346Y-83892124D01*
X36562514Y-83892124D01*
X36562514Y-83318516D01*
X36661733Y-83318516D01*
X37082637Y-83318516D01*
X37082637Y-83792905D01*
X37402385Y-83792905D01*
X37402385Y-83318516D01*
X37822127Y-83318516D01*
X37822127Y-83015046D01*
X37402385Y-83015046D01*
X37402385Y-82560423D01*
X37082637Y-82560423D01*
X37082637Y-83015046D01*
X36661733Y-83015046D01*
X36661733Y-83318516D01*
X36562514Y-83318516D01*
X36562514Y-82461204D01*
G37*
%TO.C,SW17*%
X141616227Y-127680937D02*
X142555919Y-128022957D01*
X142555919Y-128022957D02*
X142213899Y-128962649D01*
X129058203Y-124174367D02*
X129400223Y-123234675D01*
X125551633Y-136732391D02*
X124611941Y-136390371D01*
X138109657Y-140238961D02*
X137767637Y-141178653D01*
X124611941Y-136390371D02*
X124953961Y-135450679D01*
X137767637Y-141178653D02*
X136827945Y-140836633D01*
X129400223Y-123234675D02*
X130339915Y-123576695D01*
%TO.C,U2*%
X261894117Y-69816664D02*
X261364117Y-69816664D01*
X251739117Y-87596664D02*
X249849117Y-87596664D01*
X261884117Y-87596664D02*
X261354117Y-87596664D01*
X270839117Y-87596664D02*
X268999117Y-87596664D01*
X270849117Y-69816664D02*
X270849117Y-87596664D01*
X266974117Y-69816664D02*
X266444117Y-69816664D01*
X264424117Y-87596664D02*
X263894117Y-87596664D01*
X249849117Y-87596664D02*
X249849117Y-69816664D01*
X259354117Y-69816664D02*
X258824117Y-69816664D01*
X256804117Y-87596664D02*
X256274117Y-87596664D01*
X259354117Y-87596664D02*
X258824117Y-87596664D01*
X249849117Y-69816664D02*
X251749117Y-69816664D01*
X266959117Y-87596664D02*
X266429117Y-87596664D01*
X254274117Y-69816664D02*
X253744117Y-69816664D01*
X264434117Y-69816664D02*
X263904117Y-69816664D01*
X254264117Y-87596664D02*
X253734117Y-87596664D01*
X256814117Y-69816664D02*
X256284117Y-69816664D01*
X268949117Y-69816664D02*
X270849117Y-69816664D01*
%TO.C,SW1*%
X32283930Y-106906664D02*
X31283930Y-106906664D01*
X18283930Y-106906664D02*
X18283930Y-105906664D01*
X32283930Y-105906664D02*
X32283930Y-106906664D01*
X31283930Y-92906664D02*
X32283930Y-92906664D01*
X19283930Y-106906664D02*
X18283930Y-106906664D01*
X32283930Y-92906664D02*
X32283930Y-93906664D01*
X18283930Y-93906664D02*
X18283930Y-92906664D01*
X18283930Y-92906664D02*
X19283930Y-92906664D01*
%TO.C,SW19*%
X201658930Y-70731664D02*
X201658930Y-71731664D01*
X187658930Y-71731664D02*
X187658930Y-70731664D01*
X187658930Y-57731664D02*
X188658930Y-57731664D01*
X200658930Y-57731664D02*
X201658930Y-57731664D01*
X201658930Y-71731664D02*
X200658930Y-71731664D01*
X187658930Y-58731664D02*
X187658930Y-57731664D01*
X188658930Y-71731664D02*
X187658930Y-71731664D01*
X201658930Y-57731664D02*
X201658930Y-58731664D01*
%TO.C,kibuzzard-643B7985*%
G36*
X90604514Y-104791204D02*
G01*
X91963346Y-104791204D01*
X91963346Y-106222124D01*
X90604514Y-106222124D01*
X90604514Y-105648516D01*
X90703733Y-105648516D01*
X91124637Y-105648516D01*
X91124637Y-106122905D01*
X91444385Y-106122905D01*
X91444385Y-105648516D01*
X91864127Y-105648516D01*
X91864127Y-105345046D01*
X91444385Y-105345046D01*
X91444385Y-104890423D01*
X91124637Y-104890423D01*
X91124637Y-105345046D01*
X90703733Y-105345046D01*
X90703733Y-105648516D01*
X90604514Y-105648516D01*
X90604514Y-104791204D01*
G37*
%TO.C,On / Off*%
X229148930Y-55911664D02*
X228568930Y-55911664D01*
X227648930Y-55901664D02*
X226858930Y-55901664D01*
X233078930Y-55911664D02*
X233608930Y-55911664D01*
X232118930Y-55911664D02*
X230078930Y-55911664D01*
X226858930Y-52941664D02*
X233608930Y-52941664D01*
%TO.C,SW13*%
X88283930Y-86256664D02*
X89283930Y-86256664D01*
X89283930Y-99256664D02*
X89283930Y-100256664D01*
X89283930Y-86256664D02*
X89283930Y-87256664D01*
X89283930Y-100256664D02*
X88283930Y-100256664D01*
X75283930Y-100256664D02*
X75283930Y-99256664D01*
X75283930Y-86256664D02*
X76283930Y-86256664D01*
X75283930Y-87256664D02*
X75283930Y-86256664D01*
X76283930Y-100256664D02*
X75283930Y-100256664D01*
%TO.C,SW29*%
X187658930Y-109731664D02*
X187658930Y-108731664D01*
X188658930Y-109731664D02*
X187658930Y-109731664D01*
X200658930Y-95731664D02*
X201658930Y-95731664D01*
X201658930Y-109731664D02*
X200658930Y-109731664D01*
X187658930Y-95731664D02*
X188658930Y-95731664D01*
X201658930Y-95731664D02*
X201658930Y-96731664D01*
X201658930Y-108731664D02*
X201658930Y-109731664D01*
X187658930Y-96731664D02*
X187658930Y-95731664D01*
%TO.C,REF\u002A\u002A*%
G36*
X90501902Y-118843268D02*
G01*
X90550504Y-118942847D01*
X90496464Y-119040624D01*
X90437889Y-119220051D01*
X90453644Y-119413452D01*
X90471913Y-119605473D01*
X90422142Y-119722000D01*
X90353120Y-119780298D01*
X90255478Y-119879938D01*
X90231563Y-120021502D01*
X90247491Y-120160591D01*
X90266339Y-120343045D01*
X90230959Y-120433038D01*
X90120889Y-120478846D01*
X90111587Y-120481212D01*
X89959910Y-120568214D01*
X89893582Y-120671898D01*
X89800815Y-120787774D01*
X89642231Y-120813330D01*
X89509388Y-120762037D01*
X89417409Y-120625347D01*
X89365771Y-120391386D01*
X89362028Y-120103847D01*
X89375266Y-119986054D01*
X89434562Y-119756828D01*
X89540578Y-119627769D01*
X89595651Y-119597220D01*
X89722565Y-119554144D01*
X89767811Y-119604170D01*
X89773549Y-119679226D01*
X89789925Y-119744574D01*
X89837128Y-119683729D01*
X89900187Y-119542412D01*
X90034731Y-119267048D01*
X90184790Y-119039842D01*
X90330094Y-118884343D01*
X90450379Y-118824101D01*
X90501902Y-118843268D01*
G37*
G36*
X92295991Y-116541256D02*
G01*
X92528605Y-116601691D01*
X92767193Y-116677885D01*
X92968709Y-116757792D01*
X93060649Y-116806814D01*
X93212982Y-116954521D01*
X93359780Y-117179748D01*
X93492873Y-117455174D01*
X93604087Y-117753477D01*
X93685253Y-118047338D01*
X93728197Y-118309434D01*
X93724748Y-118512446D01*
X93666735Y-118629052D01*
X93610895Y-118646478D01*
X93526463Y-118593356D01*
X93403082Y-118460943D01*
X93364428Y-118411293D01*
X93165905Y-118119158D01*
X93058608Y-117887971D01*
X93026028Y-117682036D01*
X93026024Y-117679482D01*
X92986961Y-117499907D01*
X92892370Y-117365915D01*
X92776145Y-117313430D01*
X92705445Y-117339713D01*
X92624966Y-117347524D01*
X92508169Y-117250072D01*
X92369380Y-117076558D01*
X92221026Y-116875639D01*
X92100976Y-116713640D01*
X92051660Y-116647544D01*
X92010760Y-116546198D01*
X92020859Y-116515841D01*
X92112394Y-116508624D01*
X92295991Y-116541256D01*
G37*
G36*
X91134874Y-131870794D02*
G01*
X91141890Y-131871492D01*
X91681973Y-131925396D01*
X91467531Y-132066284D01*
X91294646Y-132147695D01*
X91050914Y-132201189D01*
X90702951Y-132233528D01*
X90619898Y-132237956D01*
X90337780Y-132244859D01*
X90120370Y-132237209D01*
X90000297Y-132216753D01*
X89986707Y-132204104D01*
X90045315Y-132135594D01*
X90194265Y-132034381D01*
X90294257Y-131978528D01*
X90473687Y-131895056D01*
X90638883Y-131853660D01*
X90841921Y-131847765D01*
X91134874Y-131870794D01*
G37*
G36*
X90911166Y-116138152D02*
G01*
X91097527Y-116344705D01*
X91221388Y-116656120D01*
X91240176Y-116746093D01*
X91258547Y-116909163D01*
X91217116Y-117004716D01*
X91084136Y-117081611D01*
X90998580Y-117117931D01*
X90818405Y-117187636D01*
X90728989Y-117196329D01*
X90688432Y-117140855D01*
X90674809Y-117093546D01*
X90595397Y-116987387D01*
X90471642Y-116986937D01*
X90348342Y-117083887D01*
X90302460Y-117162613D01*
X90191452Y-117299787D01*
X90064317Y-117308503D01*
X89962698Y-117191989D01*
X89943840Y-117134811D01*
X89925376Y-116810276D01*
X90016138Y-116498096D01*
X90196952Y-116240538D01*
X90416864Y-116091999D01*
X90678785Y-116049552D01*
X90911166Y-116138152D01*
G37*
G36*
X90356800Y-118488692D02*
G01*
X90518968Y-118576192D01*
X90649129Y-118667239D01*
X90848075Y-118857969D01*
X91040824Y-119107785D01*
X91204435Y-119377951D01*
X91315972Y-119629731D01*
X91352494Y-119824389D01*
X91349432Y-119849851D01*
X91317677Y-119888567D01*
X91265312Y-119784644D01*
X91235432Y-119692494D01*
X91105725Y-119413352D01*
X90893956Y-119110046D01*
X90641310Y-118834285D01*
X90401223Y-118645094D01*
X90280983Y-118549781D01*
X90256231Y-118480150D01*
X90263953Y-118473115D01*
X90356800Y-118488692D01*
G37*
G36*
X92022468Y-130246716D02*
G01*
X92511874Y-130274985D01*
X92736565Y-130244827D01*
X92940861Y-130212629D01*
X93072055Y-130207694D01*
X93098388Y-130219898D01*
X93054817Y-130297023D01*
X92938959Y-130456208D01*
X92773096Y-130669955D01*
X92579510Y-130910764D01*
X92380485Y-131151138D01*
X92198301Y-131363578D01*
X92055242Y-131520584D01*
X92002664Y-131572134D01*
X91779203Y-131692502D01*
X91452589Y-131761342D01*
X91057034Y-131772702D01*
X90910270Y-131762157D01*
X90639815Y-131735856D01*
X90918080Y-131360256D01*
X91118580Y-131074626D01*
X91327619Y-130754093D01*
X91433270Y-130580859D01*
X91670194Y-130177062D01*
X92022468Y-130246716D01*
G37*
G36*
X92305027Y-119196885D02*
G01*
X92462993Y-119311807D01*
X92659037Y-119472839D01*
X92865305Y-119655021D01*
X93053945Y-119833393D01*
X93197104Y-119982997D01*
X93266930Y-120078874D01*
X93267164Y-120097689D01*
X93169438Y-120158870D01*
X92987842Y-120248496D01*
X92871054Y-120300328D01*
X92535173Y-120443721D01*
X92359193Y-120250655D01*
X92202796Y-120069912D01*
X92035167Y-119862246D01*
X91882174Y-119661626D01*
X91769683Y-119502018D01*
X91723560Y-119417390D01*
X91723460Y-119415843D01*
X91780999Y-119358304D01*
X91916264Y-119275562D01*
X92073225Y-119197699D01*
X92195853Y-119154793D01*
X92212991Y-119153031D01*
X92305027Y-119196885D01*
G37*
G36*
X90207163Y-120705294D02*
G01*
X90065930Y-120846019D01*
X89999789Y-120879546D01*
X89992579Y-120811014D01*
X89999493Y-120771312D01*
X90079530Y-120658598D01*
X90201686Y-120586822D01*
X90380481Y-120520804D01*
X90207163Y-120705294D01*
G37*
G36*
X90629845Y-119248995D02*
G01*
X90624157Y-119346370D01*
X90598644Y-119437829D01*
X90565550Y-119395730D01*
X90543692Y-119341677D01*
X90515811Y-119213511D01*
X90527739Y-119166795D01*
X90594095Y-119157977D01*
X90629845Y-119248995D01*
G37*
G36*
X87441979Y-118610296D02*
G01*
X87394700Y-118713423D01*
X87308637Y-118897379D01*
X87248953Y-119023924D01*
X87143222Y-119302091D01*
X87055609Y-119626301D01*
X87026286Y-119783753D01*
X86992533Y-120003765D01*
X86972875Y-120089097D01*
X86962292Y-120048527D01*
X86956215Y-119906270D01*
X86988176Y-119537590D01*
X87091265Y-119158171D01*
X87245741Y-118832903D01*
X87310818Y-118740702D01*
X87407347Y-118628084D01*
X87445015Y-118600134D01*
X87441979Y-118610296D01*
G37*
G36*
X91463232Y-118296883D02*
G01*
X91516913Y-118358151D01*
X91642266Y-118496758D01*
X91812933Y-118683572D01*
X91825325Y-118697079D01*
X92170581Y-119073320D01*
X91902001Y-119185540D01*
X91728691Y-119256102D01*
X91624367Y-119295069D01*
X91613619Y-119297760D01*
X91567314Y-119242226D01*
X91467890Y-119098491D01*
X91369180Y-118947693D01*
X91246489Y-118743165D01*
X91164897Y-118581604D01*
X91144542Y-118516051D01*
X91193636Y-118437642D01*
X91302319Y-118350174D01*
X91412696Y-118293463D01*
X91463232Y-118296883D01*
G37*
G36*
X89959965Y-116211514D02*
G01*
X89964020Y-116314285D01*
X89954349Y-116348900D01*
X89913189Y-116525379D01*
X89872519Y-116760058D01*
X89864025Y-116820231D01*
X89827768Y-117009779D01*
X89780515Y-117074334D01*
X89733084Y-117054167D01*
X89599588Y-117012887D01*
X89468549Y-117058911D01*
X89407821Y-117167921D01*
X89407790Y-117170745D01*
X89347494Y-117252490D01*
X89263061Y-117271550D01*
X89163858Y-117243685D01*
X89123407Y-117134478D01*
X89118331Y-117014680D01*
X89176170Y-116676730D01*
X89336346Y-116411049D01*
X89578853Y-116240178D01*
X89853823Y-116186080D01*
X89959965Y-116211514D01*
G37*
G36*
X91361636Y-118031379D02*
G01*
X91430897Y-118126595D01*
X91365537Y-118218368D01*
X91317397Y-118241551D01*
X91234784Y-118247512D01*
X91245032Y-118171010D01*
X91283621Y-118052749D01*
X91289272Y-118021189D01*
X91336114Y-118017836D01*
X91361636Y-118031379D01*
G37*
G36*
X89950525Y-120901538D02*
G01*
X89733431Y-121000944D01*
X89508891Y-121074999D01*
X89288571Y-121102981D01*
X89127058Y-121079963D01*
X89094210Y-121058634D01*
X89041570Y-120964808D01*
X89098992Y-120933675D01*
X89205328Y-120969979D01*
X89336350Y-121018202D01*
X89392270Y-120972525D01*
X89475391Y-120919834D01*
X89645142Y-120895713D01*
X89685188Y-120895661D01*
X89950525Y-120901538D01*
G37*
G36*
X89180426Y-120044731D02*
G01*
X89189397Y-120288760D01*
X89189588Y-120328957D01*
X89178316Y-120597227D01*
X89147243Y-120766212D01*
X89102619Y-120822857D01*
X89050693Y-120754106D01*
X89025018Y-120672761D01*
X89023561Y-120537009D01*
X89056997Y-120484961D01*
X89095343Y-120390287D01*
X89086514Y-120249703D01*
X89080864Y-120065929D01*
X89117352Y-119949043D01*
X89156994Y-119934555D01*
X89180426Y-120044731D01*
G37*
G36*
X93712342Y-122243256D02*
G01*
X93634520Y-122101892D01*
X93505915Y-121872173D01*
X93321039Y-121576043D01*
X93111010Y-121262457D01*
X93010650Y-121120458D01*
X92832941Y-120869561D01*
X92695661Y-120666980D01*
X92615443Y-120537815D01*
X92602376Y-120504356D01*
X92676155Y-120468140D01*
X92842687Y-120388386D01*
X93035416Y-120296824D01*
X93442815Y-120103877D01*
X93630495Y-120299773D01*
X93759256Y-120470692D01*
X93789828Y-120646614D01*
X93778760Y-120747000D01*
X93787849Y-121015653D01*
X93853054Y-121143060D01*
X93943054Y-121242407D01*
X94007985Y-121228331D01*
X94072702Y-121150889D01*
X94168510Y-121010326D01*
X94207908Y-120933795D01*
X94272306Y-120927941D01*
X94402783Y-121010458D01*
X94472970Y-121070695D01*
X94641191Y-121238976D01*
X94824537Y-121442922D01*
X94999391Y-121653195D01*
X95142134Y-121840456D01*
X95229149Y-121975366D01*
X95242311Y-122026392D01*
X95163512Y-122068576D01*
X94989923Y-122146749D01*
X94787576Y-122232164D01*
X94589002Y-122319979D01*
X94476209Y-122382520D01*
X94473317Y-122406135D01*
X94601086Y-122377663D01*
X94798997Y-122305512D01*
X94897316Y-122263123D01*
X95094733Y-122178685D01*
X95236772Y-122127277D01*
X95271235Y-122119983D01*
X95318112Y-122184174D01*
X95374560Y-122348569D01*
X95407470Y-122482611D01*
X95430626Y-122719896D01*
X95427601Y-123053357D01*
X95402634Y-123442186D01*
X95359962Y-123845576D01*
X95303822Y-124222718D01*
X95238453Y-124532805D01*
X95174995Y-124721318D01*
X95037149Y-124877108D01*
X94781531Y-125003827D01*
X94398169Y-125105538D01*
X94111494Y-125154953D01*
X93713488Y-125214015D01*
X94039129Y-125220477D01*
X94304710Y-125198873D01*
X94608325Y-125136714D01*
X94744685Y-125095692D01*
X94929878Y-125033682D01*
X95048646Y-125012501D01*
X95106465Y-125051174D01*
X95108810Y-125168726D01*
X95061158Y-125384184D01*
X94968984Y-125716572D01*
X94946353Y-125796409D01*
X94725730Y-126533781D01*
X94492252Y-127238734D01*
X94252086Y-127897312D01*
X94011399Y-128495560D01*
X93776359Y-129019522D01*
X93553131Y-129455242D01*
X93347882Y-129788765D01*
X93166781Y-130006134D01*
X93051684Y-130084097D01*
X92906624Y-130114398D01*
X92678865Y-130136602D01*
X92411250Y-130149666D01*
X92146617Y-130152544D01*
X91927810Y-130144192D01*
X91797667Y-130123568D01*
X91782513Y-130115029D01*
X91801101Y-130041485D01*
X91875470Y-129859784D01*
X91996184Y-129590967D01*
X92153804Y-129256078D01*
X92331279Y-128891550D01*
X92917477Y-127705505D01*
X93387847Y-127701401D01*
X93672781Y-127689162D01*
X93930999Y-127661622D01*
X94075311Y-127632705D01*
X94129993Y-127604100D01*
X94046336Y-127591467D01*
X93822200Y-127594670D01*
X93623032Y-127603943D01*
X93289867Y-127614440D01*
X93062868Y-127605758D01*
X92958614Y-127578768D01*
X92953659Y-127568699D01*
X92975850Y-127467003D01*
X93033561Y-127273992D01*
X93101131Y-127070200D01*
X93391035Y-126157738D01*
X93617958Y-125288902D01*
X93778005Y-124483247D01*
X93867283Y-123760330D01*
X93882211Y-123147204D01*
X93874917Y-122844417D01*
X93885658Y-122658220D01*
X93918180Y-122561181D01*
X93966764Y-122528027D01*
X94024736Y-122502631D01*
X93949892Y-122490200D01*
X93910388Y-122464505D01*
X94142880Y-122464505D01*
X94214010Y-122476093D01*
X94307868Y-122462788D01*
X94308989Y-122438086D01*
X94212137Y-122420811D01*
X94170290Y-122432373D01*
X94142880Y-122464505D01*
X93910388Y-122464505D01*
X93843162Y-122420779D01*
X93712342Y-122243256D01*
G37*
G36*
X90566504Y-119914740D02*
G01*
X90527802Y-120118443D01*
X90520014Y-120148045D01*
X90453769Y-120286017D01*
X90386080Y-120292738D01*
X90349365Y-120169954D01*
X90348531Y-120138815D01*
X90391752Y-119965770D01*
X90457078Y-119876678D01*
X90543382Y-119836106D01*
X90566504Y-119914740D01*
G37*
%TO.C,SW5*%
X127283930Y-70756664D02*
X127283930Y-71756664D01*
X113283930Y-71756664D02*
X113283930Y-70756664D01*
X113283930Y-57756664D02*
X114283930Y-57756664D01*
X126283930Y-57756664D02*
X127283930Y-57756664D01*
X127283930Y-71756664D02*
X126283930Y-71756664D01*
X114283930Y-71756664D02*
X113283930Y-71756664D01*
X127283930Y-57756664D02*
X127283930Y-58756664D01*
X113283930Y-58756664D02*
X113283930Y-57756664D01*
%TO.C,kibuzzard-643B7985*%
G36*
X213304514Y-104791204D02*
G01*
X214663346Y-104791204D01*
X214663346Y-106222124D01*
X213304514Y-106222124D01*
X213304514Y-105648516D01*
X213403733Y-105648516D01*
X213824637Y-105648516D01*
X213824637Y-106122905D01*
X214144385Y-106122905D01*
X214144385Y-105648516D01*
X214564127Y-105648516D01*
X214564127Y-105345046D01*
X214144385Y-105345046D01*
X214144385Y-104890423D01*
X213824637Y-104890423D01*
X213824637Y-105345046D01*
X213403733Y-105345046D01*
X213403733Y-105648516D01*
X213304514Y-105648516D01*
X213304514Y-104791204D01*
G37*
D13*
%TO.C,RESET*%
X264283930Y-120006664D02*
X264283930Y-114006664D01*
X267783930Y-120006664D02*
X267783930Y-114006664D01*
D12*
%TO.C,SW22*%
X264658930Y-106881664D02*
X263658930Y-106881664D01*
X277658930Y-92881664D02*
X277658930Y-93881664D01*
X263658930Y-106881664D02*
X263658930Y-105881664D01*
X263658930Y-92881664D02*
X264658930Y-92881664D01*
X277658930Y-105881664D02*
X277658930Y-106881664D01*
X276658930Y-92881664D02*
X277658930Y-92881664D01*
X263658930Y-93881664D02*
X263658930Y-92881664D01*
X277658930Y-106881664D02*
X276658930Y-106881664D01*
%TO.C,J2*%
X84983930Y-109606664D02*
X84983930Y-111866664D01*
X89843930Y-105646664D02*
X88923930Y-105646664D01*
X83723930Y-111866664D02*
X89843930Y-111866664D01*
X88923930Y-105646664D02*
X88643930Y-105646664D01*
X84643930Y-104046664D02*
X83723930Y-104046664D01*
X88923930Y-104046664D02*
X88923930Y-105646664D01*
X89083930Y-108006664D02*
X89083930Y-109606664D01*
X86283930Y-107506664D02*
X87283930Y-107506664D01*
X84923930Y-105646664D02*
X84923930Y-104431664D01*
X89083930Y-109606664D02*
X88083930Y-109606664D01*
X88083930Y-108006664D02*
X89083930Y-108006664D01*
X84643930Y-105646664D02*
X84643930Y-104046664D01*
X84483930Y-108006664D02*
X84483930Y-109606664D01*
X87283930Y-107506664D02*
X87283930Y-111866664D01*
X85483930Y-109606664D02*
X85483930Y-108006664D01*
X84923930Y-105646664D02*
X84643930Y-105646664D01*
X88083930Y-109606664D02*
X88083930Y-108006664D01*
X86283930Y-111866664D02*
X86283930Y-107506664D01*
X89843930Y-104046664D02*
X88923930Y-104046664D01*
X84483930Y-109606664D02*
X85483930Y-109606664D01*
X83723930Y-105646664D02*
X84643930Y-105646664D01*
X85483930Y-108006664D02*
X84483930Y-108006664D01*
X85483930Y-109606664D02*
X85483930Y-111866664D01*
X83723930Y-104046664D02*
X83723930Y-111866664D01*
X89843930Y-111866664D02*
X89843930Y-104046664D01*
%TO.C,SW15*%
X126283930Y-95756664D02*
X127283930Y-95756664D01*
X113283930Y-109756664D02*
X113283930Y-108756664D01*
X114283930Y-109756664D02*
X113283930Y-109756664D01*
X113283930Y-96756664D02*
X113283930Y-95756664D01*
X113283930Y-95756664D02*
X114283930Y-95756664D01*
X127283930Y-95756664D02*
X127283930Y-96756664D01*
X127283930Y-109756664D02*
X126283930Y-109756664D01*
X127283930Y-108756664D02*
X127283930Y-109756664D01*
%TO.C,kibuzzard-643B7985*%
G36*
X261986701Y-73546204D02*
G01*
X263345533Y-73546204D01*
X263345533Y-74977124D01*
X261986701Y-74977124D01*
X261986701Y-74403516D01*
X262085920Y-74403516D01*
X262506824Y-74403516D01*
X262506824Y-74877905D01*
X262826572Y-74877905D01*
X262826572Y-74403516D01*
X263246314Y-74403516D01*
X263246314Y-74100046D01*
X262826572Y-74100046D01*
X262826572Y-73645423D01*
X262506824Y-73645423D01*
X262506824Y-74100046D01*
X262085920Y-74100046D01*
X262085920Y-74403516D01*
X261986701Y-74403516D01*
X261986701Y-73546204D01*
G37*
%TO.C,kibuzzard-643B7631*%
G36*
X259570591Y-78588357D02*
G01*
X259653144Y-78660737D01*
X259704594Y-78777009D01*
X259721744Y-78932813D01*
X259704594Y-79110564D01*
X259653144Y-79232213D01*
X259571172Y-79302413D01*
X259462458Y-79325812D01*
X259351418Y-79302122D01*
X259269446Y-79231051D01*
X259218868Y-79115215D01*
X259202009Y-78957230D01*
X259218868Y-78782386D01*
X259269446Y-78660155D01*
X259350837Y-78588212D01*
X259460132Y-78564231D01*
X259570591Y-78588357D01*
G37*
G36*
X261597647Y-78175737D02*
G01*
X261683834Y-78213671D01*
X261733976Y-78280382D01*
X261750690Y-78379358D01*
X261721364Y-78494209D01*
X261633385Y-78564360D01*
X261486753Y-78589811D01*
X261228629Y-78589811D01*
X261228629Y-78163093D01*
X261472800Y-78163093D01*
X261597647Y-78175737D01*
G37*
G36*
X258322992Y-79217679D02*
G01*
X258229975Y-79306627D01*
X258092774Y-79339765D01*
X257971851Y-79299070D01*
X257927668Y-79195588D01*
X257928831Y-79175821D01*
X257965908Y-79078928D01*
X258055438Y-79020792D01*
X258197419Y-79001413D01*
X258322992Y-79001413D01*
X258322992Y-79217679D01*
G37*
G36*
X255096445Y-77518946D02*
G01*
X265121415Y-77518946D01*
X265121415Y-79894382D01*
X255096445Y-79894382D01*
X255096445Y-79573472D01*
X255394102Y-79573472D01*
X255799891Y-79573472D01*
X256125452Y-78980484D01*
X256451014Y-79573472D01*
X256856803Y-79573472D01*
X257027723Y-79573472D01*
X257196317Y-79573472D01*
X257364911Y-79573472D01*
X257364911Y-79220005D01*
X257591642Y-79220005D01*
X257622018Y-79368833D01*
X257713146Y-79489756D01*
X257850492Y-79569983D01*
X258019523Y-79596726D01*
X258196547Y-79562716D01*
X258336945Y-79460688D01*
X258370664Y-79573472D01*
X258710178Y-79573472D01*
X258710178Y-79553705D01*
X258673262Y-79440049D01*
X258660181Y-79282792D01*
X258660181Y-78947928D01*
X258865983Y-78947928D01*
X258884005Y-79133963D01*
X258938071Y-79292093D01*
X259028182Y-79422318D01*
X259148524Y-79519211D01*
X259293282Y-79577347D01*
X259462458Y-79596726D01*
X259631569Y-79577283D01*
X259641014Y-79573472D01*
X260879813Y-79573472D01*
X261537913Y-79573472D01*
X262399488Y-79573472D01*
X263488956Y-79573472D01*
X263688944Y-79573472D01*
X264823758Y-79573472D01*
X264823758Y-79293256D01*
X264037760Y-79293256D01*
X264037760Y-78839795D01*
X264707487Y-78839795D01*
X264707487Y-78566556D01*
X264037760Y-78566556D01*
X264037760Y-78163093D01*
X264821433Y-78163093D01*
X264821433Y-77880552D01*
X263688944Y-77880552D01*
X263688944Y-79573472D01*
X263488956Y-79573472D01*
X263488956Y-79293256D01*
X262748304Y-79293256D01*
X262748304Y-77880552D01*
X262399488Y-77880552D01*
X262399488Y-79573472D01*
X261537913Y-79573472D01*
X261715421Y-79558227D01*
X261863474Y-79515594D01*
X261982071Y-79445572D01*
X262068630Y-79348679D01*
X262120564Y-79225431D01*
X262137876Y-79075828D01*
X262119127Y-78943859D01*
X262062881Y-78833982D01*
X261974078Y-78751719D01*
X261857660Y-78702594D01*
X261959108Y-78645767D01*
X262035557Y-78563649D01*
X262083519Y-78461475D01*
X262099506Y-78344477D01*
X262081807Y-78204757D01*
X262028709Y-78089454D01*
X261940214Y-77998568D01*
X261817482Y-77933003D01*
X261661678Y-77893665D01*
X261472800Y-77880552D01*
X260879813Y-77880552D01*
X260879813Y-79573472D01*
X259641014Y-79573472D01*
X259776134Y-79518953D01*
X259896152Y-79421737D01*
X259985940Y-79292352D01*
X260039813Y-79137516D01*
X260057770Y-78957230D01*
X260055445Y-78871189D01*
X260027217Y-78705307D01*
X259967337Y-78564231D01*
X259875805Y-78447959D01*
X259758047Y-78361401D01*
X259619490Y-78309466D01*
X259460132Y-78292154D01*
X259291974Y-78312211D01*
X259145617Y-78372382D01*
X259026002Y-78469178D01*
X258938071Y-78599112D01*
X258884005Y-78755789D01*
X258865983Y-78932813D01*
X258865983Y-78947928D01*
X258660181Y-78947928D01*
X258660181Y-78737476D01*
X258626026Y-78549551D01*
X258523562Y-78409008D01*
X258421824Y-78344089D01*
X258298769Y-78305138D01*
X258154398Y-78292154D01*
X258008477Y-78305380D01*
X257877671Y-78345058D01*
X257768375Y-78407990D01*
X257686985Y-78490979D01*
X257636407Y-78588067D01*
X257619547Y-78693293D01*
X257955573Y-78693293D01*
X258003826Y-78581672D01*
X258136957Y-78540976D01*
X258278228Y-78593299D01*
X258322992Y-78732825D01*
X258322992Y-78804914D01*
X258168351Y-78804914D01*
X257996204Y-78817445D01*
X257853383Y-78853490D01*
X257739889Y-78913047D01*
X257628703Y-79043271D01*
X257591642Y-79220005D01*
X257364911Y-79220005D01*
X257364911Y-78315409D01*
X257196317Y-78315409D01*
X257196317Y-79573472D01*
X257196317Y-78315409D01*
X257027723Y-78315409D01*
X257027723Y-79573472D01*
X256856803Y-79573472D01*
X256351020Y-78720035D01*
X256779829Y-77989847D01*
X257007956Y-77989847D01*
X257059698Y-78115421D01*
X257196317Y-78164255D01*
X257332937Y-78115421D01*
X257384678Y-77989847D01*
X257333518Y-77865436D01*
X257196317Y-77816602D01*
X257058535Y-77865436D01*
X257007956Y-77989847D01*
X256779829Y-77989847D01*
X256844013Y-77880552D01*
X256442875Y-77880552D01*
X256125452Y-78464237D01*
X255808030Y-77880552D01*
X255406891Y-77880552D01*
X255899885Y-78720035D01*
X255394102Y-79573472D01*
X255096445Y-79573472D01*
X255096445Y-77518946D01*
G37*
G36*
X261682090Y-78864083D02*
G01*
X261762317Y-78942761D01*
X261789060Y-79072339D01*
X261719878Y-79234539D01*
X261637180Y-79278577D01*
X261527448Y-79293256D01*
X261228629Y-79293256D01*
X261228629Y-78836307D01*
X261548377Y-78836307D01*
X261682090Y-78864083D01*
G37*
%TO.C,SW18*%
X182546430Y-71731664D02*
X181546430Y-71731664D01*
X168546430Y-57731664D02*
X169546430Y-57731664D01*
X168546430Y-58731664D02*
X168546430Y-57731664D01*
X181546430Y-57731664D02*
X182546430Y-57731664D01*
X169546430Y-71731664D02*
X168546430Y-71731664D01*
X168546430Y-71731664D02*
X168546430Y-70731664D01*
X182546430Y-57731664D02*
X182546430Y-58731664D01*
X182546430Y-70731664D02*
X182546430Y-71731664D01*
%TO.C,SW25*%
X220658930Y-80231664D02*
X220658930Y-81231664D01*
X207658930Y-81231664D02*
X206658930Y-81231664D01*
X220658930Y-67231664D02*
X220658930Y-68231664D01*
X206658930Y-81231664D02*
X206658930Y-80231664D01*
X206658930Y-67231664D02*
X207658930Y-67231664D01*
X206658930Y-68231664D02*
X206658930Y-67231664D01*
X219658930Y-67231664D02*
X220658930Y-67231664D01*
X220658930Y-81231664D02*
X219658930Y-81231664D01*
%TO.C,SW11*%
X50283930Y-111906664D02*
X51283930Y-111906664D01*
X51283930Y-124906664D02*
X51283930Y-125906664D01*
X37283930Y-125906664D02*
X37283930Y-124906664D01*
X51283930Y-111906664D02*
X51283930Y-112906664D01*
X38283930Y-125906664D02*
X37283930Y-125906664D01*
X51283930Y-125906664D02*
X50283930Y-125906664D01*
X37283930Y-112906664D02*
X37283930Y-111906664D01*
X37283930Y-111906664D02*
X38283930Y-111906664D01*
%TO.C,SW32*%
X244658930Y-111881664D02*
X245658930Y-111881664D01*
X244658930Y-125881664D02*
X244658930Y-124881664D01*
X257658930Y-111881664D02*
X258658930Y-111881664D01*
X244658930Y-112881664D02*
X244658930Y-111881664D01*
X258658930Y-124881664D02*
X258658930Y-125881664D01*
X245658930Y-125881664D02*
X244658930Y-125881664D01*
X258658930Y-111881664D02*
X258658930Y-112881664D01*
X258658930Y-125881664D02*
X257658930Y-125881664D01*
%TO.C,SW12*%
X70283930Y-112606664D02*
X69283930Y-112606664D01*
X56283930Y-99606664D02*
X56283930Y-98606664D01*
X57283930Y-112606664D02*
X56283930Y-112606664D01*
X56283930Y-98606664D02*
X57283930Y-98606664D01*
X70283930Y-98606664D02*
X70283930Y-99606664D01*
X56283930Y-112606664D02*
X56283930Y-111606664D01*
X70283930Y-111606664D02*
X70283930Y-112606664D01*
X69283930Y-98606664D02*
X70283930Y-98606664D01*
%TO.C,SW16*%
X116151008Y-121860367D02*
X117147203Y-121773211D01*
X103287633Y-123989586D02*
X103200477Y-122993391D01*
X103200477Y-122993391D02*
X104196672Y-122906236D01*
X105416852Y-136852961D02*
X104420657Y-136940117D01*
X104420657Y-136940117D02*
X104333502Y-135943922D01*
X117147203Y-121773211D02*
X117234358Y-122769406D01*
X118367383Y-135719937D02*
X117371188Y-135807092D01*
X118280227Y-134723742D02*
X118367383Y-135719937D01*
%TO.C,SW26*%
X226658930Y-93581664D02*
X225658930Y-93581664D01*
X225658930Y-93581664D02*
X225658930Y-92581664D01*
X239658930Y-79581664D02*
X239658930Y-80581664D01*
X239658930Y-92581664D02*
X239658930Y-93581664D01*
X225658930Y-79581664D02*
X226658930Y-79581664D01*
X238658930Y-79581664D02*
X239658930Y-79581664D01*
X225658930Y-80581664D02*
X225658930Y-79581664D01*
X239658930Y-93581664D02*
X238658930Y-93581664D01*
%TO.C,SW4*%
X107283930Y-57756664D02*
X108283930Y-57756664D01*
X108283930Y-70756664D02*
X108283930Y-71756664D01*
X108283930Y-71756664D02*
X107283930Y-71756664D01*
X108283930Y-57756664D02*
X108283930Y-58756664D01*
X95283930Y-71756664D02*
X94283930Y-71756664D01*
X94283930Y-58756664D02*
X94283930Y-57756664D01*
X94283930Y-57756664D02*
X95283930Y-57756664D01*
X94283930Y-71756664D02*
X94283930Y-70756664D01*
%TO.C,SW14*%
X94283930Y-109756664D02*
X94283930Y-108756664D01*
X107283930Y-95756664D02*
X108283930Y-95756664D01*
X108283930Y-95756664D02*
X108283930Y-96756664D01*
X94283930Y-95756664D02*
X95283930Y-95756664D01*
X108283930Y-109756664D02*
X107283930Y-109756664D01*
X95283930Y-109756664D02*
X94283930Y-109756664D01*
X94283930Y-96756664D02*
X94283930Y-95756664D01*
X108283930Y-108756664D02*
X108283930Y-109756664D01*
%TO.C,SW2*%
X70283930Y-73606664D02*
X70283930Y-74606664D01*
X69283930Y-60606664D02*
X70283930Y-60606664D01*
X57283930Y-74606664D02*
X56283930Y-74606664D01*
X56283930Y-74606664D02*
X56283930Y-73606664D01*
X70283930Y-60606664D02*
X70283930Y-61606664D01*
X70283930Y-74606664D02*
X69283930Y-74606664D01*
X56283930Y-61606664D02*
X56283930Y-60606664D01*
X56283930Y-60606664D02*
X57283930Y-60606664D01*
D13*
%TO.C,RESET*%
X28108930Y-114006664D02*
X28108930Y-120006664D01*
X31608930Y-114006664D02*
X31608930Y-120006664D01*
D12*
%TO.C,SW6*%
X38283930Y-106906664D02*
X37283930Y-106906664D01*
X37283930Y-106906664D02*
X37283930Y-105906664D01*
X51283930Y-92906664D02*
X51283930Y-93906664D01*
X37283930Y-92906664D02*
X38283930Y-92906664D01*
X51283930Y-106906664D02*
X50283930Y-106906664D01*
X37283930Y-93906664D02*
X37283930Y-92906664D01*
X51283930Y-105906664D02*
X51283930Y-106906664D01*
X50283930Y-92906664D02*
X51283930Y-92906664D01*
%TO.C,SW21*%
X239658930Y-73581664D02*
X239658930Y-74581664D01*
X226658930Y-74581664D02*
X225658930Y-74581664D01*
X225658930Y-60581664D02*
X226658930Y-60581664D01*
X239658930Y-74581664D02*
X238658930Y-74581664D01*
X225658930Y-74581664D02*
X225658930Y-73581664D01*
X225658930Y-61581664D02*
X225658930Y-60581664D01*
X239658930Y-60581664D02*
X239658930Y-61581664D01*
X238658930Y-60581664D02*
X239658930Y-60581664D01*
%TO.C,SW9*%
X94283930Y-90756664D02*
X94283930Y-89756664D01*
X108283930Y-76756664D02*
X108283930Y-77756664D01*
X108283930Y-89756664D02*
X108283930Y-90756664D01*
X107283930Y-76756664D02*
X108283930Y-76756664D01*
X94283930Y-77756664D02*
X94283930Y-76756664D01*
X95283930Y-90756664D02*
X94283930Y-90756664D01*
X108283930Y-90756664D02*
X107283930Y-90756664D01*
X94283930Y-76756664D02*
X95283930Y-76756664D01*
%TO.C,SW8*%
X75283930Y-67256664D02*
X76283930Y-67256664D01*
X76283930Y-81256664D02*
X75283930Y-81256664D01*
X75283930Y-81256664D02*
X75283930Y-80256664D01*
X75283930Y-68256664D02*
X75283930Y-67256664D01*
X89283930Y-81256664D02*
X88283930Y-81256664D01*
X88283930Y-67256664D02*
X89283930Y-67256664D01*
X89283930Y-80256664D02*
X89283930Y-81256664D01*
X89283930Y-67256664D02*
X89283930Y-68256664D01*
%TO.C,SW31*%
X239658930Y-98581664D02*
X239658930Y-99581664D01*
X226658930Y-112581664D02*
X225658930Y-112581664D01*
X225658930Y-99581664D02*
X225658930Y-98581664D01*
X239658930Y-112581664D02*
X238658930Y-112581664D01*
X238658930Y-98581664D02*
X239658930Y-98581664D01*
X239658930Y-111581664D02*
X239658930Y-112581664D01*
X225658930Y-98581664D02*
X226658930Y-98581664D01*
X225658930Y-112581664D02*
X225658930Y-111581664D01*
%TD*%
%LPC*%
D11*
X244633930Y-84417378D02*
X244562501Y-84488806D01*
X244348215Y-84560235D01*
X244205358Y-84560235D01*
X243991072Y-84488806D01*
X243848215Y-84345949D01*
X243776787Y-84203092D01*
X243705358Y-83917378D01*
X243705358Y-83703092D01*
X243776787Y-83417378D01*
X243848215Y-83274521D01*
X243991072Y-83131664D01*
X244205358Y-83060235D01*
X244348215Y-83060235D01*
X244562501Y-83131664D01*
X244633930Y-83203092D01*
X245276787Y-84417378D02*
X245348215Y-84488806D01*
X245276787Y-84560235D01*
X245205358Y-84488806D01*
X245276787Y-84417378D01*
X245276787Y-84560235D01*
X246419644Y-83060235D02*
X246419644Y-84131664D01*
X246348215Y-84345949D01*
X246205358Y-84488806D01*
X245991072Y-84560235D01*
X245848215Y-84560235D01*
X248133930Y-84703092D02*
X247991072Y-84631664D01*
X247848215Y-84488806D01*
X247633930Y-84274521D01*
X247491072Y-84203092D01*
X247348215Y-84203092D01*
X247419644Y-84560235D02*
X247276787Y-84488806D01*
X247133930Y-84345949D01*
X247062501Y-84060235D01*
X247062501Y-83560235D01*
X247133930Y-83274521D01*
X247276787Y-83131664D01*
X247419644Y-83060235D01*
X247705358Y-83060235D01*
X247848215Y-83131664D01*
X247991072Y-83274521D01*
X248062501Y-83560235D01*
X248062501Y-84060235D01*
X247991072Y-84345949D01*
X247848215Y-84488806D01*
X247705358Y-84560235D01*
X247419644Y-84560235D01*
X48908930Y-84642378D02*
X48837501Y-84713806D01*
X48623215Y-84785235D01*
X48480358Y-84785235D01*
X48266072Y-84713806D01*
X48123215Y-84570949D01*
X48051787Y-84428092D01*
X47980358Y-84142378D01*
X47980358Y-83928092D01*
X48051787Y-83642378D01*
X48123215Y-83499521D01*
X48266072Y-83356664D01*
X48480358Y-83285235D01*
X48623215Y-83285235D01*
X48837501Y-83356664D01*
X48908930Y-83428092D01*
X49551787Y-84642378D02*
X49623215Y-84713806D01*
X49551787Y-84785235D01*
X49480358Y-84713806D01*
X49551787Y-84642378D01*
X49551787Y-84785235D01*
X50694644Y-83285235D02*
X50694644Y-84356664D01*
X50623215Y-84570949D01*
X50480358Y-84713806D01*
X50266072Y-84785235D01*
X50123215Y-84785235D01*
X52408930Y-84928092D02*
X52266072Y-84856664D01*
X52123215Y-84713806D01*
X51908930Y-84499521D01*
X51766072Y-84428092D01*
X51623215Y-84428092D01*
X51694644Y-84785235D02*
X51551787Y-84713806D01*
X51408930Y-84570949D01*
X51337501Y-84285235D01*
X51337501Y-83785235D01*
X51408930Y-83499521D01*
X51551787Y-83356664D01*
X51694644Y-83285235D01*
X51980358Y-83285235D01*
X52123215Y-83356664D01*
X52266072Y-83499521D01*
X52337501Y-83785235D01*
X52337501Y-84285235D01*
X52266072Y-84570949D01*
X52123215Y-84713806D01*
X51980358Y-84785235D01*
X51694644Y-84785235D01*
%TO.C,REF\u002A\u002A*%
G36*
X91531135Y-126345043D02*
G01*
X91589160Y-126411238D01*
X91702205Y-126584549D01*
X91703746Y-126680860D01*
X91594168Y-126690575D01*
X91578146Y-126686686D01*
X91439432Y-126705109D01*
X91305797Y-126850505D01*
X91296959Y-126864251D01*
X91200584Y-127003356D01*
X91133853Y-127030035D01*
X91050611Y-126958105D01*
X91036223Y-126942289D01*
X90955373Y-126832928D01*
X90980139Y-126749071D01*
X91057992Y-126672674D01*
X91153588Y-126555610D01*
X91166961Y-126480360D01*
X91194441Y-126405717D01*
X91292605Y-126333152D01*
X91425851Y-126287704D01*
X91531135Y-126345043D01*
G37*
G36*
X89918138Y-117291356D02*
G01*
X89955977Y-117391731D01*
X89946233Y-117487959D01*
X89937571Y-117498497D01*
X89865048Y-117467679D01*
X89713427Y-117400768D01*
X89698296Y-117394026D01*
X89560499Y-117322591D01*
X89547716Y-117275743D01*
X89606267Y-117244882D01*
X89785561Y-117223646D01*
X89918138Y-117291356D01*
G37*
G36*
X87600035Y-125787085D02*
G01*
X87563223Y-125823897D01*
X87526412Y-125787085D01*
X87563223Y-125750274D01*
X87600035Y-125787085D01*
G37*
G36*
X92957748Y-131433407D02*
G01*
X93141785Y-131455999D01*
X93493101Y-131502386D01*
X93344249Y-131691621D01*
X93223110Y-131870695D01*
X93213693Y-131970452D01*
X93316927Y-132008562D01*
X93361049Y-132010537D01*
X93394378Y-132039773D01*
X93292211Y-132124296D01*
X93055293Y-132263535D01*
X92974528Y-132307130D01*
X92613661Y-132504268D01*
X92371349Y-132649996D01*
X92232839Y-132755444D01*
X92183380Y-132831742D01*
X92205441Y-132887360D01*
X92303296Y-132919296D01*
X92515524Y-132953470D01*
X92809402Y-132985486D01*
X93103368Y-133007997D01*
X93432609Y-133033027D01*
X93699832Y-133061693D01*
X93875700Y-133090281D01*
X93931629Y-133112862D01*
X93870184Y-133145376D01*
X93765977Y-133142727D01*
X93605427Y-133125177D01*
X93357540Y-133103130D01*
X93131664Y-133085523D01*
X92869947Y-133078253D01*
X92743267Y-133098165D01*
X92744163Y-133135362D01*
X92865171Y-133179943D01*
X93098830Y-133222009D01*
X93246776Y-133238217D01*
X93683302Y-133277800D01*
X93568190Y-133524103D01*
X93474986Y-133684514D01*
X93392005Y-133765789D01*
X93379455Y-133768344D01*
X93284287Y-133739072D01*
X93088037Y-133661993D01*
X92823600Y-133550384D01*
X92643223Y-133471180D01*
X92275808Y-133304765D01*
X92032401Y-133180750D01*
X91901798Y-133083245D01*
X91872789Y-132996358D01*
X91934169Y-132904197D01*
X92074730Y-132790871D01*
X92133466Y-132748357D01*
X92383056Y-132555714D01*
X92619367Y-132350362D01*
X92814683Y-132159041D01*
X92941294Y-132008488D01*
X92974528Y-131936878D01*
X92915890Y-131864244D01*
X92767571Y-131757119D01*
X92680035Y-131704906D01*
X92464757Y-131568313D01*
X92382842Y-131473970D01*
X92436338Y-131420774D01*
X92627290Y-131407621D01*
X92957748Y-131433407D01*
G37*
G36*
X94021542Y-133310320D02*
G01*
X94184689Y-133434833D01*
X94350691Y-133592988D01*
X94476733Y-133744390D01*
X94520614Y-133841462D01*
X94455152Y-133883373D01*
X94289769Y-133908087D01*
X94070976Y-133913905D01*
X93845281Y-133899131D01*
X93692354Y-133871697D01*
X93583143Y-133809297D01*
X93563513Y-133766147D01*
X93603952Y-133613526D01*
X93700617Y-133441825D01*
X93816533Y-133306016D01*
X93904070Y-133259839D01*
X94021542Y-133310320D01*
G37*
G36*
X87452788Y-126081578D02*
G01*
X87415977Y-126118390D01*
X87379165Y-126081578D01*
X87415977Y-126044766D01*
X87452788Y-126081578D01*
G37*
G36*
X90659730Y-115593696D02*
G01*
X90851947Y-115670444D01*
X91056819Y-115826128D01*
X91233249Y-116049315D01*
X91342111Y-116284159D01*
X91359035Y-116394252D01*
X91420136Y-116443537D01*
X91554074Y-116427606D01*
X91690474Y-116411009D01*
X91700252Y-116457714D01*
X91719048Y-116538208D01*
X91799755Y-116583863D01*
X91937578Y-116672357D01*
X92096388Y-116832675D01*
X92234790Y-117015175D01*
X92311392Y-117170213D01*
X92316137Y-117203155D01*
X92256660Y-117272606D01*
X92187296Y-117279757D01*
X91997758Y-117272704D01*
X91918204Y-117275129D01*
X91823461Y-117291613D01*
X91840325Y-117349381D01*
X91899799Y-117418245D01*
X92000726Y-117550607D01*
X91988956Y-117621644D01*
X91851199Y-117648957D01*
X91723495Y-117651723D01*
X91502468Y-117675525D01*
X91286036Y-117735917D01*
X91113578Y-117816381D01*
X91024477Y-117900395D01*
X91026439Y-117944125D01*
X91037043Y-118052646D01*
X91006868Y-118228305D01*
X90951043Y-118421173D01*
X90884696Y-118581318D01*
X90822955Y-118658811D01*
X90809741Y-118659332D01*
X90747704Y-118570114D01*
X90711089Y-118380830D01*
X90704619Y-118137200D01*
X90730871Y-117896128D01*
X90843631Y-117664959D01*
X91062486Y-117502253D01*
X91353173Y-117431958D01*
X91396536Y-117430853D01*
X91524057Y-117407881D01*
X91543093Y-117357230D01*
X91425635Y-117294792D01*
X91216550Y-117293799D01*
X90957976Y-117354151D01*
X90944847Y-117358658D01*
X90804547Y-117436386D01*
X90689915Y-117580514D01*
X90573494Y-117827174D01*
X90556242Y-117870047D01*
X90446601Y-118119458D01*
X90351352Y-118258685D01*
X90245566Y-118319440D01*
X90195646Y-118328764D01*
X90033780Y-118381511D01*
X89981395Y-118466406D01*
X90051425Y-118549532D01*
X90103388Y-118570727D01*
X90224426Y-118634459D01*
X90254688Y-118681760D01*
X90195624Y-118818060D01*
X90043994Y-118987234D01*
X89838139Y-119154741D01*
X89616402Y-119286040D01*
X89554660Y-119312390D01*
X89371981Y-119396963D01*
X89272576Y-119472644D01*
X89266606Y-119501737D01*
X89227141Y-119540992D01*
X89080960Y-119563687D01*
X89003093Y-119565926D01*
X88814314Y-119581252D01*
X88741164Y-119622763D01*
X88745412Y-119639549D01*
X88737660Y-119699785D01*
X88631238Y-119707670D01*
X88463746Y-119666648D01*
X88308353Y-119599529D01*
X88124280Y-119527407D01*
X87979649Y-119509587D01*
X87977049Y-119510075D01*
X87815095Y-119472655D01*
X87661600Y-119311134D01*
X87541595Y-119057983D01*
X87482176Y-118850431D01*
X87461929Y-118713308D01*
X87478892Y-118667890D01*
X87531104Y-118735457D01*
X87564766Y-118806524D01*
X87703359Y-119007191D01*
X87889532Y-119156234D01*
X88170205Y-119241933D01*
X88518784Y-119266815D01*
X88869192Y-119231138D01*
X89123355Y-119151401D01*
X89406873Y-118965023D01*
X89556720Y-118732879D01*
X89575284Y-118445560D01*
X89464958Y-118093655D01*
X89417323Y-117994101D01*
X89327539Y-117796173D01*
X89284495Y-117658296D01*
X89288676Y-117620418D01*
X89381329Y-117624078D01*
X89554764Y-117668439D01*
X89610677Y-117686770D01*
X89796335Y-117733939D01*
X89882275Y-117725143D01*
X89852367Y-117672284D01*
X89725226Y-117602230D01*
X89653773Y-117559811D01*
X89691306Y-117535843D01*
X89854303Y-117524018D01*
X89935363Y-117521774D01*
X90251754Y-117480593D01*
X90562642Y-117357710D01*
X90700996Y-117280913D01*
X90956063Y-117147470D01*
X91201589Y-117046447D01*
X91337525Y-117009181D01*
X91498124Y-116962465D01*
X91578843Y-116902291D01*
X91558897Y-116854365D01*
X91472806Y-116841868D01*
X91384520Y-116772977D01*
X91320782Y-116584676D01*
X91317296Y-116565781D01*
X91208088Y-116211806D01*
X91016416Y-115967793D01*
X90800587Y-115840589D01*
X90624413Y-115780319D01*
X90482674Y-115785407D01*
X90301115Y-115861254D01*
X90264881Y-115879566D01*
X90051747Y-115967091D01*
X89925791Y-115962460D01*
X89902891Y-115945260D01*
X89785583Y-115904286D01*
X89586051Y-115949459D01*
X89347997Y-116032445D01*
X89488255Y-115877461D01*
X89614778Y-115777084D01*
X89780149Y-115746887D01*
X89942920Y-115757915D01*
X90187229Y-115761527D01*
X90309243Y-115705754D01*
X90311224Y-115702609D01*
X90449743Y-115587009D01*
X90659730Y-115593696D01*
G37*
G36*
X87526412Y-125934332D02*
G01*
X87489600Y-125971143D01*
X87452788Y-125934332D01*
X87489600Y-125897520D01*
X87526412Y-125934332D01*
G37*
G36*
X95155805Y-118957630D02*
G01*
X95172533Y-118969328D01*
X95414788Y-119110045D01*
X95688041Y-119198060D01*
X96021173Y-119237128D01*
X96443064Y-119231006D01*
X96893161Y-119193061D01*
X97319839Y-119153673D01*
X97646985Y-119138530D01*
X97920340Y-119147851D01*
X98185646Y-119181859D01*
X98285857Y-119199784D01*
X98546484Y-119260670D01*
X98744758Y-119328903D01*
X98840630Y-119390468D01*
X98842662Y-119394646D01*
X98922302Y-119454493D01*
X98964126Y-119443196D01*
X98976614Y-119457492D01*
X98904017Y-119552466D01*
X98868453Y-119592465D01*
X98695625Y-119739236D01*
X98455081Y-119893849D01*
X98316279Y-119966545D01*
X98101351Y-120068124D01*
X97794704Y-120212567D01*
X97437966Y-120380285D01*
X97088061Y-120544516D01*
X96700806Y-120733850D01*
X96305008Y-120940436D01*
X95950814Y-121137411D01*
X95718519Y-121278124D01*
X95205010Y-121610311D01*
X94784243Y-121139880D01*
X94574427Y-120890421D01*
X94462357Y-120722018D01*
X94453398Y-120642962D01*
X94460451Y-120639565D01*
X94575675Y-120615322D01*
X94794421Y-120577789D01*
X95074390Y-120534126D01*
X95146412Y-120523469D01*
X95508310Y-120455823D01*
X95926668Y-120355793D01*
X96320234Y-120243116D01*
X96378783Y-120224138D01*
X96775793Y-120108085D01*
X97087508Y-120048992D01*
X97262261Y-120046694D01*
X97381923Y-120053740D01*
X97383633Y-120025719D01*
X97289865Y-119971861D01*
X97123095Y-119901396D01*
X96905795Y-119823554D01*
X96660439Y-119747564D01*
X96409502Y-119682655D01*
X96337625Y-119666959D01*
X96077681Y-119605165D01*
X95881789Y-119543867D01*
X95788020Y-119495217D01*
X95785399Y-119490699D01*
X95725944Y-119498690D01*
X95599893Y-119592117D01*
X95506858Y-119679122D01*
X95336406Y-119828847D01*
X95192092Y-119920525D01*
X95143957Y-119934042D01*
X95047908Y-119992757D01*
X95035977Y-120041886D01*
X94975838Y-120154788D01*
X94838785Y-120257765D01*
X94691107Y-120301806D01*
X94710073Y-120258587D01*
X94817190Y-120145340D01*
X94987315Y-119986095D01*
X95195307Y-119804880D01*
X95312064Y-119708335D01*
X95398080Y-119554928D01*
X95356178Y-119349739D01*
X95189506Y-119108091D01*
X95188477Y-119106942D01*
X95051732Y-118965193D01*
X94975625Y-118926574D01*
X94929882Y-118978385D01*
X94922856Y-118995511D01*
X94904584Y-119160906D01*
X94929382Y-119326815D01*
X94974105Y-119449417D01*
X95006452Y-119434820D01*
X95016344Y-119400274D01*
X95085978Y-119284845D01*
X95179494Y-119302273D01*
X95232413Y-119387577D01*
X95227176Y-119537783D01*
X95115706Y-119647104D01*
X94938718Y-119684016D01*
X94864019Y-119672819D01*
X94710824Y-119591206D01*
X94608909Y-119414930D01*
X94583194Y-119337228D01*
X94510025Y-119150525D01*
X94442779Y-119060373D01*
X94401689Y-119076938D01*
X94406985Y-119210386D01*
X94415620Y-119253027D01*
X94478278Y-119509350D01*
X94537203Y-119659475D01*
X94614047Y-119742247D01*
X94715403Y-119790875D01*
X94841177Y-119870353D01*
X94834194Y-119945643D01*
X94708051Y-119996370D01*
X94571487Y-120006538D01*
X94338005Y-119981917D01*
X94203856Y-119887981D01*
X94128570Y-119690350D01*
X94113607Y-119617542D01*
X94064895Y-119431329D01*
X94022174Y-119387181D01*
X93994820Y-119479953D01*
X93991390Y-119684580D01*
X94042451Y-119963310D01*
X94172137Y-120120149D01*
X94327165Y-120160724D01*
X94412595Y-120178760D01*
X94387823Y-120204988D01*
X94253956Y-120218349D01*
X94056966Y-120199225D01*
X94038113Y-120195839D01*
X93784383Y-120148239D01*
X93784383Y-119727546D01*
X93790475Y-119502897D01*
X93825793Y-119347731D01*
X93915899Y-119229682D01*
X94086355Y-119116383D01*
X94362723Y-118975470D01*
X94388217Y-118962991D01*
X94685274Y-118851645D01*
X94926711Y-118849742D01*
X95155805Y-118957630D01*
G37*
G36*
X87379165Y-126228824D02*
G01*
X87342354Y-126265636D01*
X87305542Y-126228824D01*
X87342354Y-126192013D01*
X87379165Y-126228824D01*
G37*
G36*
X94315526Y-120466935D02*
G01*
X94341782Y-120516150D01*
X94248800Y-120584514D01*
X94095904Y-120629548D01*
X94041865Y-120596330D01*
X94055093Y-120517468D01*
X94158919Y-120463615D01*
X94296704Y-120461551D01*
X94315526Y-120466935D01*
G37*
G36*
X92164766Y-127047438D02*
G01*
X92194851Y-127088363D01*
X92293569Y-127255329D01*
X92281185Y-127340685D01*
X92148660Y-127368956D01*
X92091049Y-127369984D01*
X91927552Y-127345433D01*
X91871472Y-127257724D01*
X91870180Y-127231752D01*
X91922230Y-127068851D01*
X91973981Y-127007373D01*
X92069095Y-126969313D01*
X92164766Y-127047438D01*
G37*
G36*
X87673658Y-125639839D02*
G01*
X87636846Y-125676651D01*
X87600035Y-125639839D01*
X87636846Y-125603027D01*
X87673658Y-125639839D01*
G37*
G36*
X90225928Y-117381771D02*
G01*
X90215822Y-117425540D01*
X90176846Y-117430853D01*
X90116246Y-117403916D01*
X90127764Y-117381771D01*
X90215138Y-117372960D01*
X90225928Y-117381771D01*
G37*
G36*
X87281001Y-126363800D02*
G01*
X87289812Y-126451174D01*
X87281001Y-126461965D01*
X87237232Y-126451858D01*
X87231919Y-126412882D01*
X87258856Y-126352282D01*
X87281001Y-126363800D01*
G37*
G36*
X92728270Y-123882388D02*
G01*
X92701924Y-124351884D01*
X92674361Y-124694217D01*
X92639118Y-124929377D01*
X92589733Y-125077353D01*
X92519740Y-125158135D01*
X92422679Y-125191714D01*
X92302871Y-125198100D01*
X92036143Y-125198100D01*
X92139116Y-124851605D01*
X92233310Y-124576273D01*
X92357453Y-124264445D01*
X92423532Y-124115373D01*
X92523190Y-123879917D01*
X92589400Y-123682543D01*
X92605692Y-123594485D01*
X92553119Y-123458486D01*
X92416124Y-123417994D01*
X92228778Y-123481099D01*
X92200916Y-123498369D01*
X92069106Y-123570030D01*
X92020155Y-123548022D01*
X92017426Y-123520309D01*
X92079309Y-123406136D01*
X92244961Y-123255702D01*
X92484386Y-123094299D01*
X92599796Y-123029286D01*
X92777238Y-122934792D01*
X92728270Y-123882388D01*
G37*
G36*
X87142375Y-122824979D02*
G01*
X87404660Y-122950426D01*
X87699823Y-123202932D01*
X87727900Y-123231446D01*
X87881200Y-123378870D01*
X87970577Y-123444305D01*
X87978764Y-123415482D01*
X87974181Y-123406432D01*
X87920080Y-123264977D01*
X87924408Y-123192664D01*
X87974746Y-123226857D01*
X88052290Y-123362135D01*
X88086234Y-123438092D01*
X88176768Y-123828180D01*
X88160880Y-124280663D01*
X88042554Y-124760513D01*
X87896808Y-125102035D01*
X87790729Y-125299991D01*
X87723136Y-125404968D01*
X87705892Y-125399199D01*
X87709803Y-125382158D01*
X87759165Y-124991587D01*
X87695957Y-124586315D01*
X87514814Y-124150115D01*
X87210371Y-123666757D01*
X87088417Y-123502581D01*
X86882915Y-123219783D01*
X86773928Y-123026200D01*
X86756498Y-122904347D01*
X86825668Y-122836739D01*
X86894133Y-122817232D01*
X87142375Y-122824979D01*
G37*
G36*
X89088781Y-118663004D02*
G01*
X89120872Y-118792877D01*
X89057950Y-118949449D01*
X89033205Y-118979682D01*
X88905515Y-119061890D01*
X88729128Y-119113598D01*
X88555233Y-119128448D01*
X88435020Y-119100082D01*
X88409890Y-119057108D01*
X88465708Y-118961139D01*
X88600866Y-118830779D01*
X88766920Y-118704800D01*
X88915425Y-118621972D01*
X88970023Y-118608824D01*
X89088781Y-118663004D01*
G37*
G36*
X91810926Y-127034545D02*
G01*
X91718968Y-127218481D01*
X91642556Y-127283597D01*
X91541978Y-127247558D01*
X91460918Y-127190238D01*
X91372010Y-127062182D01*
X91407724Y-126932546D01*
X91549040Y-126832126D01*
X91704849Y-126795269D01*
X91929596Y-126772729D01*
X91810926Y-127034545D01*
G37*
G36*
X94072905Y-120675448D02*
G01*
X94110400Y-120800862D01*
X94053702Y-120954582D01*
X93955352Y-121138351D01*
X93903202Y-120930570D01*
X93888930Y-120751664D01*
X93933987Y-120640633D01*
X94017719Y-120628529D01*
X94072905Y-120675448D01*
G37*
G36*
X87622047Y-118599898D02*
G01*
X87653015Y-118454225D01*
X87663931Y-118441856D01*
X87730037Y-118409384D01*
X87781780Y-118478974D01*
X87830424Y-118670012D01*
X87846482Y-118756071D01*
X87862609Y-118796491D01*
X87869990Y-118708599D01*
X87868498Y-118572013D01*
X87851694Y-118347503D01*
X87812096Y-118242567D01*
X87747281Y-118228368D01*
X87696715Y-118213418D01*
X87740676Y-118137283D01*
X87853452Y-118023763D01*
X88009327Y-117896662D01*
X88182587Y-117779783D01*
X88299455Y-117717251D01*
X88593056Y-117607401D01*
X88811750Y-117597367D01*
X88992359Y-117691056D01*
X89100804Y-117802287D01*
X89292678Y-118094447D01*
X89395391Y-118391417D01*
X89398618Y-118654689D01*
X89358605Y-118763620D01*
X89286145Y-118884018D01*
X89254150Y-118879793D01*
X89235349Y-118779823D01*
X89162357Y-118572239D01*
X89030686Y-118496396D01*
X88846103Y-118551640D01*
X88614371Y-118737317D01*
X88495859Y-118863692D01*
X88284789Y-119056994D01*
X88097877Y-119114411D01*
X87913016Y-119039848D01*
X87840539Y-118979431D01*
X87728175Y-118838301D01*
X88074786Y-118838301D01*
X88085975Y-118871217D01*
X88115447Y-118801634D01*
X88155574Y-118649991D01*
X88198728Y-118436727D01*
X88213161Y-118351143D01*
X88232373Y-118189344D01*
X88216954Y-118165140D01*
X88197212Y-118203897D01*
X88148278Y-118367724D01*
X88101818Y-118600196D01*
X88089508Y-118682448D01*
X88074786Y-118838301D01*
X87728175Y-118838301D01*
X87689337Y-118789521D01*
X87622047Y-118599898D01*
G37*
G36*
X94179899Y-133079096D02*
G01*
X94314624Y-133173925D01*
X94469908Y-133315702D01*
X94608651Y-133471549D01*
X94676787Y-133572737D01*
X94716276Y-133681832D01*
X94667240Y-133689305D01*
X94541787Y-133601025D01*
X94352026Y-133422863D01*
X94337876Y-133408437D01*
X94190206Y-133240353D01*
X94107744Y-133112377D01*
X94102833Y-133064094D01*
X94179899Y-133079096D01*
G37*
G36*
X90755202Y-119164679D02*
G01*
X90779429Y-119270534D01*
X90782428Y-119481232D01*
X90767745Y-119756472D01*
X90738930Y-120055952D01*
X90699529Y-120339368D01*
X90653091Y-120566417D01*
X90623766Y-120657766D01*
X90485657Y-120831241D01*
X90241143Y-120996250D01*
X89929582Y-121139610D01*
X89590332Y-121248133D01*
X89262751Y-121308635D01*
X88986197Y-121307928D01*
X88833223Y-121257647D01*
X88729023Y-121113257D01*
X88721821Y-120889890D01*
X88775677Y-120707085D01*
X88815914Y-120633538D01*
X88831979Y-120685867D01*
X88832824Y-120802538D01*
X88865551Y-121038293D01*
X88986636Y-121169817D01*
X89216622Y-121216282D01*
X89276970Y-121217059D01*
X89699374Y-121146524D01*
X90062147Y-120951335D01*
X90353495Y-120646098D01*
X90561628Y-120245418D01*
X90674753Y-119763899D01*
X90692209Y-119464215D01*
X90703008Y-119264182D01*
X90731320Y-119163820D01*
X90755202Y-119164679D01*
G37*
G36*
X88970370Y-116404208D02*
G01*
X88954071Y-116492158D01*
X88920041Y-116676522D01*
X88908162Y-116911999D01*
X88908901Y-116946506D01*
X88900897Y-117212505D01*
X88850271Y-117344096D01*
X88750464Y-117349633D01*
X88645935Y-117281452D01*
X88532135Y-117166043D01*
X88498689Y-117085132D01*
X88454471Y-117030682D01*
X88354672Y-117002400D01*
X88236099Y-116973550D01*
X88205627Y-116916572D01*
X88268987Y-116807345D01*
X88431912Y-116621747D01*
X88449684Y-116602593D01*
X88639441Y-116431579D01*
X88805796Y-116337937D01*
X88924266Y-116327027D01*
X88970370Y-116404208D01*
G37*
G36*
X93791502Y-131540776D02*
G01*
X93782668Y-131651330D01*
X93712680Y-131774852D01*
X93598548Y-131861648D01*
X93595532Y-131862821D01*
X93422616Y-131922557D01*
X93359117Y-131920610D01*
X93379646Y-131854524D01*
X93386308Y-131842593D01*
X93500989Y-131678713D01*
X93628291Y-131546436D01*
X93722170Y-131492882D01*
X93791502Y-131540776D01*
G37*
G36*
X89094265Y-117410957D02*
G01*
X89109310Y-117430853D01*
X89105945Y-117498804D01*
X89081189Y-117504477D01*
X88977109Y-117450750D01*
X88962064Y-117430853D01*
X88965429Y-117362902D01*
X88990185Y-117357230D01*
X89094265Y-117410957D01*
G37*
G36*
X92513063Y-116289467D02*
G01*
X92873708Y-116403329D01*
X93209989Y-116622764D01*
X93288002Y-116688842D01*
X93429644Y-116846284D01*
X93570478Y-117055011D01*
X93689951Y-117275728D01*
X93767508Y-117469143D01*
X93782594Y-117595963D01*
X93772321Y-117614702D01*
X93729245Y-117575622D01*
X93663592Y-117437111D01*
X93644730Y-117387319D01*
X93431147Y-116992227D01*
X93106813Y-116687025D01*
X92668131Y-116469343D01*
X92111504Y-116336807D01*
X92036835Y-116326540D01*
X91612499Y-116272189D01*
X92075008Y-116262536D01*
X92513063Y-116289467D01*
G37*
G36*
X88815829Y-134681394D02*
G01*
X89062542Y-134740488D01*
X89175384Y-134824982D01*
X89167406Y-134950503D01*
X89116822Y-135041810D01*
X89000183Y-135165292D01*
X88816608Y-135309634D01*
X88615336Y-135441333D01*
X88445608Y-135526884D01*
X88381460Y-135542158D01*
X88354006Y-135476480D01*
X88337971Y-135311078D01*
X88336267Y-135224925D01*
X88366425Y-134921370D01*
X88464342Y-134741096D01*
X88641187Y-134671446D01*
X88815829Y-134681394D01*
G37*
G36*
X91052623Y-118756146D02*
G01*
X91154865Y-118871107D01*
X91284863Y-119057794D01*
X91423550Y-119259874D01*
X91630851Y-119543311D01*
X91882254Y-119875406D01*
X92153245Y-120223457D01*
X92249896Y-120345137D01*
X92704378Y-120927024D01*
X93064838Y-121422599D01*
X93340093Y-121850931D01*
X93538960Y-122231089D01*
X93670258Y-122582142D01*
X93742803Y-122923161D01*
X93765413Y-123273213D01*
X93751860Y-123593326D01*
X93725236Y-123898615D01*
X93698034Y-124164639D01*
X93675293Y-124343078D01*
X93671276Y-124366370D01*
X93312697Y-125910592D01*
X92842988Y-127368653D01*
X92256799Y-128756826D01*
X92164024Y-128948776D01*
X91822283Y-129621785D01*
X91490859Y-130230514D01*
X91177085Y-130763881D01*
X90888294Y-131210806D01*
X90631821Y-131560206D01*
X90414998Y-131800999D01*
X90245158Y-131922104D01*
X90188124Y-131934622D01*
X90045648Y-131992600D01*
X89861994Y-132143471D01*
X89669656Y-132352635D01*
X89501130Y-132585493D01*
X89403339Y-132770231D01*
X89335152Y-132956922D01*
X89328894Y-133095819D01*
X89388370Y-133259984D01*
X89433720Y-133353748D01*
X89582189Y-133653830D01*
X89400967Y-134106814D01*
X89308121Y-134349700D01*
X89242766Y-134541308D01*
X89219745Y-134635822D01*
X89160789Y-134673847D01*
X88978872Y-134646912D01*
X88925181Y-134633222D01*
X88630617Y-134554598D01*
X88901992Y-134276686D01*
X89073916Y-134087695D01*
X89136710Y-133989860D01*
X89097404Y-133983850D01*
X88963027Y-134070332D01*
X88740612Y-134249974D01*
X88728689Y-134260221D01*
X88497894Y-134479229D01*
X88356737Y-134676087D01*
X88268618Y-134904442D01*
X88255276Y-134954156D01*
X88160798Y-135204793D01*
X88043877Y-135325250D01*
X87913412Y-135308182D01*
X87869986Y-135272206D01*
X87824856Y-135140282D01*
X87836345Y-134933795D01*
X87900489Y-134712388D01*
X87908396Y-134694455D01*
X88002700Y-134557431D01*
X88131737Y-134537625D01*
X88164116Y-134544654D01*
X88284780Y-134555128D01*
X88294552Y-134488535D01*
X88292757Y-134483714D01*
X88334132Y-134386173D01*
X88511614Y-134232937D01*
X88810080Y-134033445D01*
X89057327Y-133874605D01*
X89248221Y-133742953D01*
X89354402Y-133658468D01*
X89366991Y-133641055D01*
X89318910Y-133570413D01*
X89192024Y-133425841D01*
X89012372Y-133236801D01*
X88986148Y-133210140D01*
X88605305Y-132824507D01*
X88930931Y-132839709D01*
X89160690Y-132825499D01*
X89255679Y-132762738D01*
X89215610Y-132662836D01*
X89040200Y-132537200D01*
X88939785Y-132485931D01*
X88623013Y-132335842D01*
X88976596Y-132165855D01*
X89245976Y-132027344D01*
X89511275Y-131875861D01*
X89743937Y-131729748D01*
X89915408Y-131607344D01*
X89997133Y-131526992D01*
X89997653Y-131510018D01*
X89919782Y-131524217D01*
X89746353Y-131595284D01*
X89510807Y-131709088D01*
X89440940Y-131745288D01*
X88921771Y-132018103D01*
X88684236Y-131870564D01*
X88296621Y-131564020D01*
X87913629Y-131140148D01*
X87554752Y-130628115D01*
X87239482Y-130057088D01*
X86987311Y-129456232D01*
X86908136Y-129212923D01*
X86827670Y-128794825D01*
X86804113Y-128312356D01*
X86833251Y-127808750D01*
X86910875Y-127327243D01*
X87032771Y-126911070D01*
X87157050Y-126657779D01*
X87218316Y-126568217D01*
X87214474Y-126608208D01*
X87194372Y-126670564D01*
X87074722Y-127121466D01*
X87005548Y-127575067D01*
X86993702Y-127977170D01*
X87009668Y-128131622D01*
X87179267Y-128796938D01*
X87451695Y-129387799D01*
X87815711Y-129889854D01*
X88260070Y-130288754D01*
X88773530Y-130570147D01*
X88975403Y-130640603D01*
X89282721Y-130732411D01*
X89471732Y-130791479D01*
X89564712Y-130828854D01*
X89583942Y-130855579D01*
X89551697Y-130882701D01*
X89512174Y-130906730D01*
X89449678Y-130963035D01*
X89500072Y-130972846D01*
X89637660Y-130939421D01*
X89836746Y-130866015D01*
X89838191Y-130865412D01*
X90053562Y-130747458D01*
X90296230Y-130575064D01*
X90405725Y-130482975D01*
X90603670Y-130264307D01*
X90839853Y-129940690D01*
X91095542Y-129542950D01*
X91352003Y-129101916D01*
X91590503Y-128648417D01*
X91792307Y-128213280D01*
X91809070Y-128173586D01*
X91952746Y-127855953D01*
X92071079Y-127658743D01*
X92178049Y-127560484D01*
X92218621Y-127544625D01*
X92362824Y-127456230D01*
X92510980Y-127291832D01*
X92538641Y-127250079D01*
X92604565Y-127130225D01*
X92648861Y-127002893D01*
X92674178Y-126839642D01*
X92683166Y-126612035D01*
X92678472Y-126291635D01*
X92664625Y-125897520D01*
X92673667Y-125709693D01*
X92706449Y-125426734D01*
X92756844Y-125097695D01*
X92782484Y-124953820D01*
X92881222Y-124106583D01*
X92887281Y-123537693D01*
X92864093Y-122807585D01*
X93066557Y-122723910D01*
X93214294Y-122639233D01*
X93265400Y-122565399D01*
X93213477Y-122532277D01*
X93103368Y-122552031D01*
X92708930Y-122718977D01*
X92268945Y-122980725D01*
X91821454Y-123310854D01*
X91404494Y-123682943D01*
X91258901Y-123833151D01*
X91066990Y-124046263D01*
X90921225Y-124219218D01*
X90845214Y-124323580D01*
X90839455Y-124338425D01*
X90889030Y-124405426D01*
X91026091Y-124557145D01*
X91233139Y-124775055D01*
X91492674Y-125040628D01*
X91686122Y-125234911D01*
X92532788Y-126079176D01*
X92527614Y-126522116D01*
X92513491Y-126787303D01*
X92482420Y-127009957D01*
X92452859Y-127112303D01*
X92408705Y-127192951D01*
X92406805Y-127145214D01*
X92422836Y-127056242D01*
X92425453Y-126891784D01*
X92326871Y-126793012D01*
X92280460Y-126770041D01*
X92151974Y-126674965D01*
X92088315Y-126510937D01*
X92071995Y-126384363D01*
X92045463Y-126081578D01*
X91984776Y-126324123D01*
X91924089Y-126566669D01*
X91792667Y-126350562D01*
X91681078Y-126189042D01*
X91588066Y-126089468D01*
X91583176Y-126086206D01*
X91463437Y-126083198D01*
X91298736Y-126147596D01*
X91155045Y-126249984D01*
X91119545Y-126292931D01*
X91041674Y-126334360D01*
X91017025Y-126320500D01*
X91005727Y-126231303D01*
X91102097Y-126129818D01*
X91269532Y-126033206D01*
X91471428Y-125958626D01*
X91671182Y-125923237D01*
X91825484Y-125941494D01*
X91925536Y-125940809D01*
X91943803Y-125900621D01*
X91880937Y-125835001D01*
X91711957Y-125729158D01*
X91466293Y-125600401D01*
X91299600Y-125521739D01*
X90816415Y-125301712D01*
X90450992Y-125132652D01*
X90186877Y-125004971D01*
X90007611Y-124909081D01*
X89896740Y-124835396D01*
X89837806Y-124774328D01*
X89814354Y-124716289D01*
X89809942Y-124653863D01*
X89860247Y-124496384D01*
X89999463Y-124272874D01*
X90158441Y-124072352D01*
X90811169Y-123290783D01*
X91373650Y-122561775D01*
X91730037Y-122061570D01*
X91975507Y-121706642D01*
X92156770Y-121461746D01*
X92294515Y-121316605D01*
X92409432Y-121260942D01*
X92522209Y-121284482D01*
X92653536Y-121376947D01*
X92816988Y-121521668D01*
X93002634Y-121678192D01*
X93137597Y-121772176D01*
X93194960Y-121785128D01*
X93195397Y-121781656D01*
X93143278Y-121665945D01*
X93011991Y-121499029D01*
X92839147Y-121319398D01*
X92662353Y-121165541D01*
X92519218Y-121075947D01*
X92499563Y-121069523D01*
X92354617Y-120965092D01*
X92192974Y-120725874D01*
X92133063Y-120610344D01*
X92002183Y-120370021D01*
X91813709Y-120057907D01*
X91596796Y-119721188D01*
X91452113Y-119508247D01*
X91264362Y-119228522D01*
X91116593Y-118988792D01*
X91024920Y-118816553D01*
X91003461Y-118742603D01*
X91052623Y-118756146D01*
G37*
G36*
X88822542Y-132549400D02*
G01*
X88899899Y-132588653D01*
X89182933Y-132737969D01*
X88904536Y-132741223D01*
X88675818Y-132711910D01*
X88582542Y-132630867D01*
X88563166Y-132508623D01*
X88640685Y-132481797D01*
X88822542Y-132549400D01*
G37*
G36*
X88900711Y-120253076D02*
G01*
X88909522Y-120340449D01*
X88900711Y-120351240D01*
X88856942Y-120341134D01*
X88851629Y-120302158D01*
X88878567Y-120241558D01*
X88900711Y-120253076D01*
G37*
%TD*%
D14*
%TO.C,On / Off*%
X67283930Y-54566664D03*
X64283930Y-54516664D03*
D15*
X68033930Y-56366664D03*
X65033930Y-56366664D03*
X63533930Y-56366664D03*
D16*
X61683930Y-54466664D03*
X69633930Y-54466664D03*
%TD*%
D17*
%TO.C,SW33*%
X162246430Y-132181664D03*
D18*
X164401157Y-138101728D03*
X167304877Y-134384415D03*
%TD*%
D17*
%TO.C,SW10*%
X120283930Y-83756664D03*
D18*
X120283930Y-90056664D03*
X124283930Y-87556664D03*
%TD*%
D17*
%TO.C,SW28*%
X175546430Y-102731664D03*
D18*
X175546430Y-109031664D03*
X179546430Y-106531664D03*
%TD*%
D19*
%TO.C,J4*%
X208483930Y-105506664D03*
D20*
X210483930Y-105506664D03*
%TD*%
D17*
%TO.C,SW3*%
X82283930Y-55256664D03*
D18*
X82283930Y-61556664D03*
X86283930Y-59056664D03*
%TD*%
D17*
%TO.C,SW23*%
X175546430Y-83731664D03*
D18*
X175546430Y-90031664D03*
X179546430Y-87531664D03*
%TD*%
D17*
%TO.C,SW20*%
X213658930Y-55231664D03*
D18*
X213658930Y-61531664D03*
X217658930Y-59031664D03*
%TD*%
D17*
%TO.C,SW30*%
X213658930Y-93231664D03*
D18*
X213658930Y-99531664D03*
X217658930Y-97031664D03*
%TD*%
D17*
%TO.C,SW24*%
X194658930Y-83731664D03*
D18*
X194658930Y-90031664D03*
X198658930Y-87531664D03*
%TD*%
D17*
%TO.C,SW27*%
X251658930Y-99881664D03*
D18*
X251658930Y-106181664D03*
X255658930Y-103681664D03*
%TD*%
D17*
%TO.C,SW7*%
X63283930Y-86606664D03*
D18*
X63283930Y-92906664D03*
X67283930Y-90406664D03*
%TD*%
D17*
%TO.C,SW34*%
X185158930Y-129331664D03*
D18*
X184609849Y-135607691D03*
X188812517Y-133465827D03*
%TD*%
D21*
%TO.C,REF\u002A\u002A*%
X132433930Y-55481664D03*
D22*
X132433930Y-55481664D03*
%TD*%
D23*
%TO.C,REF\u002A\u002A*%
X160858930Y-103787914D03*
X160858930Y-105569164D03*
X160858930Y-103194164D03*
X160858930Y-106756664D03*
X160858930Y-104975414D03*
X160858930Y-104381664D03*
X160858930Y-107350414D03*
X160858930Y-106162914D03*
X160858930Y-107944164D03*
%TD*%
D24*
%TO.C,U1*%
X27938930Y-86826664D03*
X30478930Y-86826664D03*
X33018930Y-86826664D03*
X35558930Y-86826664D03*
X38098930Y-86826664D03*
X40638930Y-86826664D03*
X43178930Y-86826664D03*
X43178930Y-70636664D03*
X40638930Y-70636664D03*
X38098930Y-70636664D03*
X35558930Y-70636664D03*
X33018930Y-70636664D03*
X30478930Y-70636664D03*
X27938930Y-70636664D03*
D25*
X29526930Y-80001664D03*
X35241930Y-83176664D03*
%TD*%
D22*
%TO.C,REF\u002A\u002A*%
X56408930Y-55481664D03*
D21*
X56408930Y-55481664D03*
%TD*%
D17*
%TO.C,SW17*%
X133583930Y-132206664D03*
D18*
X131429203Y-138126728D03*
X136043024Y-137145577D03*
%TD*%
D24*
%TO.C,U2*%
X267969117Y-70611664D03*
X265429117Y-70611664D03*
X262889117Y-70611664D03*
X260349117Y-70611664D03*
X257809117Y-70611664D03*
X255269117Y-70611664D03*
X252729117Y-70611664D03*
X252729117Y-86801664D03*
X255269117Y-86801664D03*
X257809117Y-86801664D03*
X260349117Y-86801664D03*
X262889117Y-86801664D03*
X265429117Y-86801664D03*
X267969117Y-86801664D03*
D25*
X266381117Y-77436664D03*
X260666117Y-74261664D03*
%TD*%
D17*
%TO.C,SW1*%
X25283930Y-99906664D03*
D18*
X25283930Y-106206664D03*
X29283930Y-103706664D03*
%TD*%
D17*
%TO.C,SW19*%
X194658930Y-64731664D03*
D18*
X194658930Y-71031664D03*
X198658930Y-68531664D03*
%TD*%
D23*
%TO.C,REF\u002A\u002A*%
X160858930Y-77944164D03*
X160858930Y-73787914D03*
X160858930Y-76162914D03*
X160858930Y-77350414D03*
X160858930Y-74975414D03*
X160858930Y-73194164D03*
X160858930Y-76756664D03*
X160858930Y-75569164D03*
X160858930Y-74381664D03*
%TD*%
D14*
%TO.C,On / Off*%
X228858930Y-54491664D03*
X231858930Y-54541664D03*
D15*
X232608930Y-56341664D03*
X229608930Y-56341664D03*
X228108930Y-56341664D03*
D16*
X234208930Y-54441664D03*
X226258930Y-54441664D03*
%TD*%
D17*
%TO.C,SW13*%
X82283930Y-93256664D03*
D18*
X82283930Y-99556664D03*
X86283930Y-97056664D03*
%TD*%
D17*
%TO.C,SW29*%
X194658930Y-102731664D03*
D18*
X194658930Y-109031664D03*
X198658930Y-106531664D03*
%TD*%
D17*
%TO.C,SW5*%
X120283930Y-64756664D03*
D18*
X120283930Y-71056664D03*
X124283930Y-68556664D03*
%TD*%
D26*
%TO.C,RESET*%
X266033930Y-120256664D03*
X266033930Y-113756664D03*
%TD*%
D17*
%TO.C,SW22*%
X270658930Y-99881664D03*
D18*
X270658930Y-106181664D03*
X274658930Y-103681664D03*
%TD*%
D22*
%TO.C,REF\u002A\u002A*%
X110783930Y-141533493D03*
D21*
X110783930Y-141533493D03*
%TD*%
D19*
%TO.C,J2*%
X85783930Y-105506664D03*
D20*
X87783930Y-105506664D03*
%TD*%
D22*
%TO.C,REF\u002A\u002A*%
X27558930Y-125781664D03*
D21*
X27558930Y-125781664D03*
%TD*%
D17*
%TO.C,SW15*%
X120283930Y-102756664D03*
D18*
X120283930Y-109056664D03*
X124283930Y-106556664D03*
%TD*%
D23*
%TO.C,REF\u002A\u002A*%
X135158930Y-104975414D03*
X135158930Y-105569164D03*
X135158930Y-107944164D03*
X135158930Y-104381664D03*
X135158930Y-107350414D03*
X135158930Y-106756664D03*
X135158930Y-103787914D03*
X135158930Y-106162914D03*
X135158930Y-103194164D03*
%TD*%
D22*
%TO.C,REF\u002A\u002A*%
X132433930Y-117881664D03*
D21*
X132433930Y-117881664D03*
%TD*%
D17*
%TO.C,SW18*%
X175546430Y-64731664D03*
D18*
X175546430Y-71031664D03*
X179546430Y-68531664D03*
%TD*%
D17*
%TO.C,SW25*%
X213658930Y-74231664D03*
D18*
X213658930Y-80531664D03*
X217658930Y-78031664D03*
%TD*%
D17*
%TO.C,SW11*%
X44283930Y-118906664D03*
D18*
X44283930Y-125206664D03*
X48283930Y-122706664D03*
%TD*%
D17*
%TO.C,SW32*%
X251658930Y-118881664D03*
D18*
X251658930Y-125181664D03*
X255658930Y-122681664D03*
%TD*%
D17*
%TO.C,SW12*%
X63283930Y-105606664D03*
D18*
X63283930Y-111906664D03*
X67283930Y-109406664D03*
%TD*%
D17*
%TO.C,SW16*%
X110783930Y-129356664D03*
D18*
X111333011Y-135632691D03*
X115099901Y-132793581D03*
%TD*%
D17*
%TO.C,SW26*%
X232658930Y-86581664D03*
D18*
X232658930Y-92881664D03*
X236658930Y-90381664D03*
%TD*%
D17*
%TO.C,SW4*%
X101283930Y-64756664D03*
D18*
X101283930Y-71056664D03*
X105283930Y-68556664D03*
%TD*%
D17*
%TO.C,SW14*%
X101283930Y-102756664D03*
D18*
X101283930Y-109056664D03*
X105283930Y-106556664D03*
%TD*%
D17*
%TO.C,SW2*%
X63283930Y-67606664D03*
D18*
X63283930Y-73906664D03*
X67283930Y-71406664D03*
%TD*%
D23*
%TO.C,REF\u002A\u002A*%
X135158930Y-77944164D03*
X135158930Y-76162914D03*
X135158930Y-75569164D03*
X135158930Y-76756664D03*
X135158930Y-73787914D03*
X135158930Y-77350414D03*
X135158930Y-74381664D03*
X135158930Y-74975414D03*
X135158930Y-73194164D03*
%TD*%
D26*
%TO.C,RESET*%
X29858930Y-113756664D03*
X29858930Y-120256664D03*
%TD*%
D17*
%TO.C,SW6*%
X44283930Y-99906664D03*
D18*
X44283930Y-106206664D03*
X48283930Y-103706664D03*
%TD*%
D21*
%TO.C,REF\u002A\u002A*%
X185158930Y-141508493D03*
D22*
X185158930Y-141508493D03*
%TD*%
D17*
%TO.C,SW21*%
X232658930Y-67581664D03*
D18*
X232658930Y-73881664D03*
X236658930Y-71381664D03*
%TD*%
D17*
%TO.C,SW9*%
X101283930Y-83756664D03*
D18*
X101283930Y-90056664D03*
X105283930Y-87556664D03*
%TD*%
D17*
%TO.C,SW8*%
X82283930Y-74256664D03*
D18*
X82283930Y-80556664D03*
X86283930Y-78056664D03*
%TD*%
D17*
%TO.C,SW31*%
X232658930Y-105581664D03*
D18*
X232658930Y-111881664D03*
X236658930Y-109381664D03*
%TD*%
D22*
%TO.C,REF\u002A\u002A*%
X268333930Y-125762347D03*
D21*
X268333930Y-125762347D03*
%TD*%
D22*
%TO.C,REF\u002A\u002A*%
X163458930Y-117862347D03*
D21*
X163458930Y-117862347D03*
%TD*%
%TO.C,REF\u002A\u002A*%
X163458930Y-55462347D03*
D22*
X163458930Y-55462347D03*
%TD*%
D21*
%TO.C,REF\u002A\u002A*%
X239483930Y-55462347D03*
D22*
X239483930Y-55462347D03*
%TD*%
M02*
