%TF.GenerationSoftware,KiCad,Pcbnew,(6.0.11)*%
%TF.CreationDate,2023-05-08T18:46:23+08:00*%
%TF.ProjectId,DOOOPE,444f4f4f-5045-42e6-9b69-6361645f7063,Rev 1*%
%TF.SameCoordinates,Original*%
%TF.FileFunction,Soldermask,Top*%
%TF.FilePolarity,Negative*%
%FSLAX46Y46*%
G04 Gerber Fmt 4.6, Leading zero omitted, Abs format (unit mm)*
G04 Created by KiCad (PCBNEW (6.0.11)) date 2023-05-08 18:46:23*
%MOMM*%
%LPD*%
G01*
G04 APERTURE LIST*
G04 Aperture macros list*
%AMRoundRect*
0 Rectangle with rounded corners*
0 $1 Rounding radius*
0 $2 $3 $4 $5 $6 $7 $8 $9 X,Y pos of 4 corners*
0 Add a 4 corners polygon primitive as box body*
4,1,4,$2,$3,$4,$5,$6,$7,$8,$9,$2,$3,0*
0 Add four circle primitives for the rounded corners*
1,1,$1+$1,$2,$3*
1,1,$1+$1,$4,$5*
1,1,$1+$1,$6,$7*
1,1,$1+$1,$8,$9*
0 Add four rect primitives between the rounded corners*
20,1,$1+$1,$2,$3,$4,$5,0*
20,1,$1+$1,$4,$5,$6,$7,0*
20,1,$1+$1,$6,$7,$8,$9,0*
20,1,$1+$1,$8,$9,$2,$3,0*%
G04 Aperture macros list end*
%ADD10C,0.300000*%
%ADD11C,0.900000*%
%ADD12R,0.700000X1.000000*%
%ADD13R,1.000000X2.800000*%
%ADD14C,4.200000*%
%ADD15C,2.200000*%
%ADD16RoundRect,0.250000X-0.350000X-0.625000X0.350000X-0.625000X0.350000X0.625000X-0.350000X0.625000X0*%
%ADD17O,1.200000X1.750000*%
%ADD18C,3.800000*%
%ADD19C,2.600000*%
%ADD20C,0.300000*%
%ADD21O,1.800000X2.750000*%
%ADD22C,1.500000*%
%ADD23C,2.025000*%
G04 APERTURE END LIST*
D10*
X244633930Y-84417378D02*
X244562501Y-84488806D01*
X244348215Y-84560235D01*
X244205358Y-84560235D01*
X243991072Y-84488806D01*
X243848215Y-84345949D01*
X243776787Y-84203092D01*
X243705358Y-83917378D01*
X243705358Y-83703092D01*
X243776787Y-83417378D01*
X243848215Y-83274521D01*
X243991072Y-83131664D01*
X244205358Y-83060235D01*
X244348215Y-83060235D01*
X244562501Y-83131664D01*
X244633930Y-83203092D01*
X245276787Y-84417378D02*
X245348215Y-84488806D01*
X245276787Y-84560235D01*
X245205358Y-84488806D01*
X245276787Y-84417378D01*
X245276787Y-84560235D01*
X246419644Y-83060235D02*
X246419644Y-84131664D01*
X246348215Y-84345949D01*
X246205358Y-84488806D01*
X245991072Y-84560235D01*
X245848215Y-84560235D01*
X248133930Y-84703092D02*
X247991072Y-84631664D01*
X247848215Y-84488806D01*
X247633930Y-84274521D01*
X247491072Y-84203092D01*
X247348215Y-84203092D01*
X247419644Y-84560235D02*
X247276787Y-84488806D01*
X247133930Y-84345949D01*
X247062501Y-84060235D01*
X247062501Y-83560235D01*
X247133930Y-83274521D01*
X247276787Y-83131664D01*
X247419644Y-83060235D01*
X247705358Y-83060235D01*
X247848215Y-83131664D01*
X247991072Y-83274521D01*
X248062501Y-83560235D01*
X248062501Y-84060235D01*
X247991072Y-84345949D01*
X247848215Y-84488806D01*
X247705358Y-84560235D01*
X247419644Y-84560235D01*
X48908930Y-84642378D02*
X48837501Y-84713806D01*
X48623215Y-84785235D01*
X48480358Y-84785235D01*
X48266072Y-84713806D01*
X48123215Y-84570949D01*
X48051787Y-84428092D01*
X47980358Y-84142378D01*
X47980358Y-83928092D01*
X48051787Y-83642378D01*
X48123215Y-83499521D01*
X48266072Y-83356664D01*
X48480358Y-83285235D01*
X48623215Y-83285235D01*
X48837501Y-83356664D01*
X48908930Y-83428092D01*
X49551787Y-84642378D02*
X49623215Y-84713806D01*
X49551787Y-84785235D01*
X49480358Y-84713806D01*
X49551787Y-84642378D01*
X49551787Y-84785235D01*
X50694644Y-83285235D02*
X50694644Y-84356664D01*
X50623215Y-84570949D01*
X50480358Y-84713806D01*
X50266072Y-84785235D01*
X50123215Y-84785235D01*
X52408930Y-84928092D02*
X52266072Y-84856664D01*
X52123215Y-84713806D01*
X51908930Y-84499521D01*
X51766072Y-84428092D01*
X51623215Y-84428092D01*
X51694644Y-84785235D02*
X51551787Y-84713806D01*
X51408930Y-84570949D01*
X51337501Y-84285235D01*
X51337501Y-83785235D01*
X51408930Y-83499521D01*
X51551787Y-83356664D01*
X51694644Y-83285235D01*
X51980358Y-83285235D01*
X52123215Y-83356664D01*
X52266072Y-83499521D01*
X52337501Y-83785235D01*
X52337501Y-84285235D01*
X52266072Y-84570949D01*
X52123215Y-84713806D01*
X51980358Y-84785235D01*
X51694644Y-84785235D01*
%TO.C,REF\u002A\u002A*%
G36*
X91531135Y-126345043D02*
G01*
X91589160Y-126411238D01*
X91702205Y-126584549D01*
X91703746Y-126680860D01*
X91594168Y-126690575D01*
X91578146Y-126686686D01*
X91439432Y-126705109D01*
X91305797Y-126850505D01*
X91296959Y-126864251D01*
X91200584Y-127003356D01*
X91133853Y-127030035D01*
X91050611Y-126958105D01*
X91036223Y-126942289D01*
X90955373Y-126832928D01*
X90980139Y-126749071D01*
X91057992Y-126672674D01*
X91153588Y-126555610D01*
X91166961Y-126480360D01*
X91194441Y-126405717D01*
X91292605Y-126333152D01*
X91425851Y-126287704D01*
X91531135Y-126345043D01*
G37*
G36*
X89918138Y-117291356D02*
G01*
X89955977Y-117391731D01*
X89946233Y-117487959D01*
X89937571Y-117498497D01*
X89865048Y-117467679D01*
X89713427Y-117400768D01*
X89698296Y-117394026D01*
X89560499Y-117322591D01*
X89547716Y-117275743D01*
X89606267Y-117244882D01*
X89785561Y-117223646D01*
X89918138Y-117291356D01*
G37*
G36*
X87600035Y-125787085D02*
G01*
X87563223Y-125823897D01*
X87526412Y-125787085D01*
X87563223Y-125750274D01*
X87600035Y-125787085D01*
G37*
G36*
X92957748Y-131433407D02*
G01*
X93141785Y-131455999D01*
X93493101Y-131502386D01*
X93344249Y-131691621D01*
X93223110Y-131870695D01*
X93213693Y-131970452D01*
X93316927Y-132008562D01*
X93361049Y-132010537D01*
X93394378Y-132039773D01*
X93292211Y-132124296D01*
X93055293Y-132263535D01*
X92974528Y-132307130D01*
X92613661Y-132504268D01*
X92371349Y-132649996D01*
X92232839Y-132755444D01*
X92183380Y-132831742D01*
X92205441Y-132887360D01*
X92303296Y-132919296D01*
X92515524Y-132953470D01*
X92809402Y-132985486D01*
X93103368Y-133007997D01*
X93432609Y-133033027D01*
X93699832Y-133061693D01*
X93875700Y-133090281D01*
X93931629Y-133112862D01*
X93870184Y-133145376D01*
X93765977Y-133142727D01*
X93605427Y-133125177D01*
X93357540Y-133103130D01*
X93131664Y-133085523D01*
X92869947Y-133078253D01*
X92743267Y-133098165D01*
X92744163Y-133135362D01*
X92865171Y-133179943D01*
X93098830Y-133222009D01*
X93246776Y-133238217D01*
X93683302Y-133277800D01*
X93568190Y-133524103D01*
X93474986Y-133684514D01*
X93392005Y-133765789D01*
X93379455Y-133768344D01*
X93284287Y-133739072D01*
X93088037Y-133661993D01*
X92823600Y-133550384D01*
X92643223Y-133471180D01*
X92275808Y-133304765D01*
X92032401Y-133180750D01*
X91901798Y-133083245D01*
X91872789Y-132996358D01*
X91934169Y-132904197D01*
X92074730Y-132790871D01*
X92133466Y-132748357D01*
X92383056Y-132555714D01*
X92619367Y-132350362D01*
X92814683Y-132159041D01*
X92941294Y-132008488D01*
X92974528Y-131936878D01*
X92915890Y-131864244D01*
X92767571Y-131757119D01*
X92680035Y-131704906D01*
X92464757Y-131568313D01*
X92382842Y-131473970D01*
X92436338Y-131420774D01*
X92627290Y-131407621D01*
X92957748Y-131433407D01*
G37*
G36*
X94021542Y-133310320D02*
G01*
X94184689Y-133434833D01*
X94350691Y-133592988D01*
X94476733Y-133744390D01*
X94520614Y-133841462D01*
X94455152Y-133883373D01*
X94289769Y-133908087D01*
X94070976Y-133913905D01*
X93845281Y-133899131D01*
X93692354Y-133871697D01*
X93583143Y-133809297D01*
X93563513Y-133766147D01*
X93603952Y-133613526D01*
X93700617Y-133441825D01*
X93816533Y-133306016D01*
X93904070Y-133259839D01*
X94021542Y-133310320D01*
G37*
G36*
X87452788Y-126081578D02*
G01*
X87415977Y-126118390D01*
X87379165Y-126081578D01*
X87415977Y-126044766D01*
X87452788Y-126081578D01*
G37*
G36*
X90659730Y-115593696D02*
G01*
X90851947Y-115670444D01*
X91056819Y-115826128D01*
X91233249Y-116049315D01*
X91342111Y-116284159D01*
X91359035Y-116394252D01*
X91420136Y-116443537D01*
X91554074Y-116427606D01*
X91690474Y-116411009D01*
X91700252Y-116457714D01*
X91719048Y-116538208D01*
X91799755Y-116583863D01*
X91937578Y-116672357D01*
X92096388Y-116832675D01*
X92234790Y-117015175D01*
X92311392Y-117170213D01*
X92316137Y-117203155D01*
X92256660Y-117272606D01*
X92187296Y-117279757D01*
X91997758Y-117272704D01*
X91918204Y-117275129D01*
X91823461Y-117291613D01*
X91840325Y-117349381D01*
X91899799Y-117418245D01*
X92000726Y-117550607D01*
X91988956Y-117621644D01*
X91851199Y-117648957D01*
X91723495Y-117651723D01*
X91502468Y-117675525D01*
X91286036Y-117735917D01*
X91113578Y-117816381D01*
X91024477Y-117900395D01*
X91026439Y-117944125D01*
X91037043Y-118052646D01*
X91006868Y-118228305D01*
X90951043Y-118421173D01*
X90884696Y-118581318D01*
X90822955Y-118658811D01*
X90809741Y-118659332D01*
X90747704Y-118570114D01*
X90711089Y-118380830D01*
X90704619Y-118137200D01*
X90730871Y-117896128D01*
X90843631Y-117664959D01*
X91062486Y-117502253D01*
X91353173Y-117431958D01*
X91396536Y-117430853D01*
X91524057Y-117407881D01*
X91543093Y-117357230D01*
X91425635Y-117294792D01*
X91216550Y-117293799D01*
X90957976Y-117354151D01*
X90944847Y-117358658D01*
X90804547Y-117436386D01*
X90689915Y-117580514D01*
X90573494Y-117827174D01*
X90556242Y-117870047D01*
X90446601Y-118119458D01*
X90351352Y-118258685D01*
X90245566Y-118319440D01*
X90195646Y-118328764D01*
X90033780Y-118381511D01*
X89981395Y-118466406D01*
X90051425Y-118549532D01*
X90103388Y-118570727D01*
X90224426Y-118634459D01*
X90254688Y-118681760D01*
X90195624Y-118818060D01*
X90043994Y-118987234D01*
X89838139Y-119154741D01*
X89616402Y-119286040D01*
X89554660Y-119312390D01*
X89371981Y-119396963D01*
X89272576Y-119472644D01*
X89266606Y-119501737D01*
X89227141Y-119540992D01*
X89080960Y-119563687D01*
X89003093Y-119565926D01*
X88814314Y-119581252D01*
X88741164Y-119622763D01*
X88745412Y-119639549D01*
X88737660Y-119699785D01*
X88631238Y-119707670D01*
X88463746Y-119666648D01*
X88308353Y-119599529D01*
X88124280Y-119527407D01*
X87979649Y-119509587D01*
X87977049Y-119510075D01*
X87815095Y-119472655D01*
X87661600Y-119311134D01*
X87541595Y-119057983D01*
X87482176Y-118850431D01*
X87461929Y-118713308D01*
X87478892Y-118667890D01*
X87531104Y-118735457D01*
X87564766Y-118806524D01*
X87703359Y-119007191D01*
X87889532Y-119156234D01*
X88170205Y-119241933D01*
X88518784Y-119266815D01*
X88869192Y-119231138D01*
X89123355Y-119151401D01*
X89406873Y-118965023D01*
X89556720Y-118732879D01*
X89575284Y-118445560D01*
X89464958Y-118093655D01*
X89417323Y-117994101D01*
X89327539Y-117796173D01*
X89284495Y-117658296D01*
X89288676Y-117620418D01*
X89381329Y-117624078D01*
X89554764Y-117668439D01*
X89610677Y-117686770D01*
X89796335Y-117733939D01*
X89882275Y-117725143D01*
X89852367Y-117672284D01*
X89725226Y-117602230D01*
X89653773Y-117559811D01*
X89691306Y-117535843D01*
X89854303Y-117524018D01*
X89935363Y-117521774D01*
X90251754Y-117480593D01*
X90562642Y-117357710D01*
X90700996Y-117280913D01*
X90956063Y-117147470D01*
X91201589Y-117046447D01*
X91337525Y-117009181D01*
X91498124Y-116962465D01*
X91578843Y-116902291D01*
X91558897Y-116854365D01*
X91472806Y-116841868D01*
X91384520Y-116772977D01*
X91320782Y-116584676D01*
X91317296Y-116565781D01*
X91208088Y-116211806D01*
X91016416Y-115967793D01*
X90800587Y-115840589D01*
X90624413Y-115780319D01*
X90482674Y-115785407D01*
X90301115Y-115861254D01*
X90264881Y-115879566D01*
X90051747Y-115967091D01*
X89925791Y-115962460D01*
X89902891Y-115945260D01*
X89785583Y-115904286D01*
X89586051Y-115949459D01*
X89347997Y-116032445D01*
X89488255Y-115877461D01*
X89614778Y-115777084D01*
X89780149Y-115746887D01*
X89942920Y-115757915D01*
X90187229Y-115761527D01*
X90309243Y-115705754D01*
X90311224Y-115702609D01*
X90449743Y-115587009D01*
X90659730Y-115593696D01*
G37*
G36*
X87526412Y-125934332D02*
G01*
X87489600Y-125971143D01*
X87452788Y-125934332D01*
X87489600Y-125897520D01*
X87526412Y-125934332D01*
G37*
G36*
X95155805Y-118957630D02*
G01*
X95172533Y-118969328D01*
X95414788Y-119110045D01*
X95688041Y-119198060D01*
X96021173Y-119237128D01*
X96443064Y-119231006D01*
X96893161Y-119193061D01*
X97319839Y-119153673D01*
X97646985Y-119138530D01*
X97920340Y-119147851D01*
X98185646Y-119181859D01*
X98285857Y-119199784D01*
X98546484Y-119260670D01*
X98744758Y-119328903D01*
X98840630Y-119390468D01*
X98842662Y-119394646D01*
X98922302Y-119454493D01*
X98964126Y-119443196D01*
X98976614Y-119457492D01*
X98904017Y-119552466D01*
X98868453Y-119592465D01*
X98695625Y-119739236D01*
X98455081Y-119893849D01*
X98316279Y-119966545D01*
X98101351Y-120068124D01*
X97794704Y-120212567D01*
X97437966Y-120380285D01*
X97088061Y-120544516D01*
X96700806Y-120733850D01*
X96305008Y-120940436D01*
X95950814Y-121137411D01*
X95718519Y-121278124D01*
X95205010Y-121610311D01*
X94784243Y-121139880D01*
X94574427Y-120890421D01*
X94462357Y-120722018D01*
X94453398Y-120642962D01*
X94460451Y-120639565D01*
X94575675Y-120615322D01*
X94794421Y-120577789D01*
X95074390Y-120534126D01*
X95146412Y-120523469D01*
X95508310Y-120455823D01*
X95926668Y-120355793D01*
X96320234Y-120243116D01*
X96378783Y-120224138D01*
X96775793Y-120108085D01*
X97087508Y-120048992D01*
X97262261Y-120046694D01*
X97381923Y-120053740D01*
X97383633Y-120025719D01*
X97289865Y-119971861D01*
X97123095Y-119901396D01*
X96905795Y-119823554D01*
X96660439Y-119747564D01*
X96409502Y-119682655D01*
X96337625Y-119666959D01*
X96077681Y-119605165D01*
X95881789Y-119543867D01*
X95788020Y-119495217D01*
X95785399Y-119490699D01*
X95725944Y-119498690D01*
X95599893Y-119592117D01*
X95506858Y-119679122D01*
X95336406Y-119828847D01*
X95192092Y-119920525D01*
X95143957Y-119934042D01*
X95047908Y-119992757D01*
X95035977Y-120041886D01*
X94975838Y-120154788D01*
X94838785Y-120257765D01*
X94691107Y-120301806D01*
X94710073Y-120258587D01*
X94817190Y-120145340D01*
X94987315Y-119986095D01*
X95195307Y-119804880D01*
X95312064Y-119708335D01*
X95398080Y-119554928D01*
X95356178Y-119349739D01*
X95189506Y-119108091D01*
X95188477Y-119106942D01*
X95051732Y-118965193D01*
X94975625Y-118926574D01*
X94929882Y-118978385D01*
X94922856Y-118995511D01*
X94904584Y-119160906D01*
X94929382Y-119326815D01*
X94974105Y-119449417D01*
X95006452Y-119434820D01*
X95016344Y-119400274D01*
X95085978Y-119284845D01*
X95179494Y-119302273D01*
X95232413Y-119387577D01*
X95227176Y-119537783D01*
X95115706Y-119647104D01*
X94938718Y-119684016D01*
X94864019Y-119672819D01*
X94710824Y-119591206D01*
X94608909Y-119414930D01*
X94583194Y-119337228D01*
X94510025Y-119150525D01*
X94442779Y-119060373D01*
X94401689Y-119076938D01*
X94406985Y-119210386D01*
X94415620Y-119253027D01*
X94478278Y-119509350D01*
X94537203Y-119659475D01*
X94614047Y-119742247D01*
X94715403Y-119790875D01*
X94841177Y-119870353D01*
X94834194Y-119945643D01*
X94708051Y-119996370D01*
X94571487Y-120006538D01*
X94338005Y-119981917D01*
X94203856Y-119887981D01*
X94128570Y-119690350D01*
X94113607Y-119617542D01*
X94064895Y-119431329D01*
X94022174Y-119387181D01*
X93994820Y-119479953D01*
X93991390Y-119684580D01*
X94042451Y-119963310D01*
X94172137Y-120120149D01*
X94327165Y-120160724D01*
X94412595Y-120178760D01*
X94387823Y-120204988D01*
X94253956Y-120218349D01*
X94056966Y-120199225D01*
X94038113Y-120195839D01*
X93784383Y-120148239D01*
X93784383Y-119727546D01*
X93790475Y-119502897D01*
X93825793Y-119347731D01*
X93915899Y-119229682D01*
X94086355Y-119116383D01*
X94362723Y-118975470D01*
X94388217Y-118962991D01*
X94685274Y-118851645D01*
X94926711Y-118849742D01*
X95155805Y-118957630D01*
G37*
G36*
X87379165Y-126228824D02*
G01*
X87342354Y-126265636D01*
X87305542Y-126228824D01*
X87342354Y-126192013D01*
X87379165Y-126228824D01*
G37*
G36*
X94315526Y-120466935D02*
G01*
X94341782Y-120516150D01*
X94248800Y-120584514D01*
X94095904Y-120629548D01*
X94041865Y-120596330D01*
X94055093Y-120517468D01*
X94158919Y-120463615D01*
X94296704Y-120461551D01*
X94315526Y-120466935D01*
G37*
G36*
X92164766Y-127047438D02*
G01*
X92194851Y-127088363D01*
X92293569Y-127255329D01*
X92281185Y-127340685D01*
X92148660Y-127368956D01*
X92091049Y-127369984D01*
X91927552Y-127345433D01*
X91871472Y-127257724D01*
X91870180Y-127231752D01*
X91922230Y-127068851D01*
X91973981Y-127007373D01*
X92069095Y-126969313D01*
X92164766Y-127047438D01*
G37*
G36*
X87673658Y-125639839D02*
G01*
X87636846Y-125676651D01*
X87600035Y-125639839D01*
X87636846Y-125603027D01*
X87673658Y-125639839D01*
G37*
G36*
X90225928Y-117381771D02*
G01*
X90215822Y-117425540D01*
X90176846Y-117430853D01*
X90116246Y-117403916D01*
X90127764Y-117381771D01*
X90215138Y-117372960D01*
X90225928Y-117381771D01*
G37*
G36*
X87281001Y-126363800D02*
G01*
X87289812Y-126451174D01*
X87281001Y-126461965D01*
X87237232Y-126451858D01*
X87231919Y-126412882D01*
X87258856Y-126352282D01*
X87281001Y-126363800D01*
G37*
G36*
X92728270Y-123882388D02*
G01*
X92701924Y-124351884D01*
X92674361Y-124694217D01*
X92639118Y-124929377D01*
X92589733Y-125077353D01*
X92519740Y-125158135D01*
X92422679Y-125191714D01*
X92302871Y-125198100D01*
X92036143Y-125198100D01*
X92139116Y-124851605D01*
X92233310Y-124576273D01*
X92357453Y-124264445D01*
X92423532Y-124115373D01*
X92523190Y-123879917D01*
X92589400Y-123682543D01*
X92605692Y-123594485D01*
X92553119Y-123458486D01*
X92416124Y-123417994D01*
X92228778Y-123481099D01*
X92200916Y-123498369D01*
X92069106Y-123570030D01*
X92020155Y-123548022D01*
X92017426Y-123520309D01*
X92079309Y-123406136D01*
X92244961Y-123255702D01*
X92484386Y-123094299D01*
X92599796Y-123029286D01*
X92777238Y-122934792D01*
X92728270Y-123882388D01*
G37*
G36*
X87142375Y-122824979D02*
G01*
X87404660Y-122950426D01*
X87699823Y-123202932D01*
X87727900Y-123231446D01*
X87881200Y-123378870D01*
X87970577Y-123444305D01*
X87978764Y-123415482D01*
X87974181Y-123406432D01*
X87920080Y-123264977D01*
X87924408Y-123192664D01*
X87974746Y-123226857D01*
X88052290Y-123362135D01*
X88086234Y-123438092D01*
X88176768Y-123828180D01*
X88160880Y-124280663D01*
X88042554Y-124760513D01*
X87896808Y-125102035D01*
X87790729Y-125299991D01*
X87723136Y-125404968D01*
X87705892Y-125399199D01*
X87709803Y-125382158D01*
X87759165Y-124991587D01*
X87695957Y-124586315D01*
X87514814Y-124150115D01*
X87210371Y-123666757D01*
X87088417Y-123502581D01*
X86882915Y-123219783D01*
X86773928Y-123026200D01*
X86756498Y-122904347D01*
X86825668Y-122836739D01*
X86894133Y-122817232D01*
X87142375Y-122824979D01*
G37*
G36*
X89088781Y-118663004D02*
G01*
X89120872Y-118792877D01*
X89057950Y-118949449D01*
X89033205Y-118979682D01*
X88905515Y-119061890D01*
X88729128Y-119113598D01*
X88555233Y-119128448D01*
X88435020Y-119100082D01*
X88409890Y-119057108D01*
X88465708Y-118961139D01*
X88600866Y-118830779D01*
X88766920Y-118704800D01*
X88915425Y-118621972D01*
X88970023Y-118608824D01*
X89088781Y-118663004D01*
G37*
G36*
X91810926Y-127034545D02*
G01*
X91718968Y-127218481D01*
X91642556Y-127283597D01*
X91541978Y-127247558D01*
X91460918Y-127190238D01*
X91372010Y-127062182D01*
X91407724Y-126932546D01*
X91549040Y-126832126D01*
X91704849Y-126795269D01*
X91929596Y-126772729D01*
X91810926Y-127034545D01*
G37*
G36*
X94072905Y-120675448D02*
G01*
X94110400Y-120800862D01*
X94053702Y-120954582D01*
X93955352Y-121138351D01*
X93903202Y-120930570D01*
X93888930Y-120751664D01*
X93933987Y-120640633D01*
X94017719Y-120628529D01*
X94072905Y-120675448D01*
G37*
G36*
X87622047Y-118599898D02*
G01*
X87653015Y-118454225D01*
X87663931Y-118441856D01*
X87730037Y-118409384D01*
X87781780Y-118478974D01*
X87830424Y-118670012D01*
X87846482Y-118756071D01*
X87862609Y-118796491D01*
X87869990Y-118708599D01*
X87868498Y-118572013D01*
X87851694Y-118347503D01*
X87812096Y-118242567D01*
X87747281Y-118228368D01*
X87696715Y-118213418D01*
X87740676Y-118137283D01*
X87853452Y-118023763D01*
X88009327Y-117896662D01*
X88182587Y-117779783D01*
X88299455Y-117717251D01*
X88593056Y-117607401D01*
X88811750Y-117597367D01*
X88992359Y-117691056D01*
X89100804Y-117802287D01*
X89292678Y-118094447D01*
X89395391Y-118391417D01*
X89398618Y-118654689D01*
X89358605Y-118763620D01*
X89286145Y-118884018D01*
X89254150Y-118879793D01*
X89235349Y-118779823D01*
X89162357Y-118572239D01*
X89030686Y-118496396D01*
X88846103Y-118551640D01*
X88614371Y-118737317D01*
X88495859Y-118863692D01*
X88284789Y-119056994D01*
X88097877Y-119114411D01*
X87913016Y-119039848D01*
X87840539Y-118979431D01*
X87728175Y-118838301D01*
X88074786Y-118838301D01*
X88085975Y-118871217D01*
X88115447Y-118801634D01*
X88155574Y-118649991D01*
X88198728Y-118436727D01*
X88213161Y-118351143D01*
X88232373Y-118189344D01*
X88216954Y-118165140D01*
X88197212Y-118203897D01*
X88148278Y-118367724D01*
X88101818Y-118600196D01*
X88089508Y-118682448D01*
X88074786Y-118838301D01*
X87728175Y-118838301D01*
X87689337Y-118789521D01*
X87622047Y-118599898D01*
G37*
G36*
X94179899Y-133079096D02*
G01*
X94314624Y-133173925D01*
X94469908Y-133315702D01*
X94608651Y-133471549D01*
X94676787Y-133572737D01*
X94716276Y-133681832D01*
X94667240Y-133689305D01*
X94541787Y-133601025D01*
X94352026Y-133422863D01*
X94337876Y-133408437D01*
X94190206Y-133240353D01*
X94107744Y-133112377D01*
X94102833Y-133064094D01*
X94179899Y-133079096D01*
G37*
G36*
X90755202Y-119164679D02*
G01*
X90779429Y-119270534D01*
X90782428Y-119481232D01*
X90767745Y-119756472D01*
X90738930Y-120055952D01*
X90699529Y-120339368D01*
X90653091Y-120566417D01*
X90623766Y-120657766D01*
X90485657Y-120831241D01*
X90241143Y-120996250D01*
X89929582Y-121139610D01*
X89590332Y-121248133D01*
X89262751Y-121308635D01*
X88986197Y-121307928D01*
X88833223Y-121257647D01*
X88729023Y-121113257D01*
X88721821Y-120889890D01*
X88775677Y-120707085D01*
X88815914Y-120633538D01*
X88831979Y-120685867D01*
X88832824Y-120802538D01*
X88865551Y-121038293D01*
X88986636Y-121169817D01*
X89216622Y-121216282D01*
X89276970Y-121217059D01*
X89699374Y-121146524D01*
X90062147Y-120951335D01*
X90353495Y-120646098D01*
X90561628Y-120245418D01*
X90674753Y-119763899D01*
X90692209Y-119464215D01*
X90703008Y-119264182D01*
X90731320Y-119163820D01*
X90755202Y-119164679D01*
G37*
G36*
X88970370Y-116404208D02*
G01*
X88954071Y-116492158D01*
X88920041Y-116676522D01*
X88908162Y-116911999D01*
X88908901Y-116946506D01*
X88900897Y-117212505D01*
X88850271Y-117344096D01*
X88750464Y-117349633D01*
X88645935Y-117281452D01*
X88532135Y-117166043D01*
X88498689Y-117085132D01*
X88454471Y-117030682D01*
X88354672Y-117002400D01*
X88236099Y-116973550D01*
X88205627Y-116916572D01*
X88268987Y-116807345D01*
X88431912Y-116621747D01*
X88449684Y-116602593D01*
X88639441Y-116431579D01*
X88805796Y-116337937D01*
X88924266Y-116327027D01*
X88970370Y-116404208D01*
G37*
G36*
X93791502Y-131540776D02*
G01*
X93782668Y-131651330D01*
X93712680Y-131774852D01*
X93598548Y-131861648D01*
X93595532Y-131862821D01*
X93422616Y-131922557D01*
X93359117Y-131920610D01*
X93379646Y-131854524D01*
X93386308Y-131842593D01*
X93500989Y-131678713D01*
X93628291Y-131546436D01*
X93722170Y-131492882D01*
X93791502Y-131540776D01*
G37*
G36*
X89094265Y-117410957D02*
G01*
X89109310Y-117430853D01*
X89105945Y-117498804D01*
X89081189Y-117504477D01*
X88977109Y-117450750D01*
X88962064Y-117430853D01*
X88965429Y-117362902D01*
X88990185Y-117357230D01*
X89094265Y-117410957D01*
G37*
G36*
X92513063Y-116289467D02*
G01*
X92873708Y-116403329D01*
X93209989Y-116622764D01*
X93288002Y-116688842D01*
X93429644Y-116846284D01*
X93570478Y-117055011D01*
X93689951Y-117275728D01*
X93767508Y-117469143D01*
X93782594Y-117595963D01*
X93772321Y-117614702D01*
X93729245Y-117575622D01*
X93663592Y-117437111D01*
X93644730Y-117387319D01*
X93431147Y-116992227D01*
X93106813Y-116687025D01*
X92668131Y-116469343D01*
X92111504Y-116336807D01*
X92036835Y-116326540D01*
X91612499Y-116272189D01*
X92075008Y-116262536D01*
X92513063Y-116289467D01*
G37*
G36*
X88815829Y-134681394D02*
G01*
X89062542Y-134740488D01*
X89175384Y-134824982D01*
X89167406Y-134950503D01*
X89116822Y-135041810D01*
X89000183Y-135165292D01*
X88816608Y-135309634D01*
X88615336Y-135441333D01*
X88445608Y-135526884D01*
X88381460Y-135542158D01*
X88354006Y-135476480D01*
X88337971Y-135311078D01*
X88336267Y-135224925D01*
X88366425Y-134921370D01*
X88464342Y-134741096D01*
X88641187Y-134671446D01*
X88815829Y-134681394D01*
G37*
G36*
X91052623Y-118756146D02*
G01*
X91154865Y-118871107D01*
X91284863Y-119057794D01*
X91423550Y-119259874D01*
X91630851Y-119543311D01*
X91882254Y-119875406D01*
X92153245Y-120223457D01*
X92249896Y-120345137D01*
X92704378Y-120927024D01*
X93064838Y-121422599D01*
X93340093Y-121850931D01*
X93538960Y-122231089D01*
X93670258Y-122582142D01*
X93742803Y-122923161D01*
X93765413Y-123273213D01*
X93751860Y-123593326D01*
X93725236Y-123898615D01*
X93698034Y-124164639D01*
X93675293Y-124343078D01*
X93671276Y-124366370D01*
X93312697Y-125910592D01*
X92842988Y-127368653D01*
X92256799Y-128756826D01*
X92164024Y-128948776D01*
X91822283Y-129621785D01*
X91490859Y-130230514D01*
X91177085Y-130763881D01*
X90888294Y-131210806D01*
X90631821Y-131560206D01*
X90414998Y-131800999D01*
X90245158Y-131922104D01*
X90188124Y-131934622D01*
X90045648Y-131992600D01*
X89861994Y-132143471D01*
X89669656Y-132352635D01*
X89501130Y-132585493D01*
X89403339Y-132770231D01*
X89335152Y-132956922D01*
X89328894Y-133095819D01*
X89388370Y-133259984D01*
X89433720Y-133353748D01*
X89582189Y-133653830D01*
X89400967Y-134106814D01*
X89308121Y-134349700D01*
X89242766Y-134541308D01*
X89219745Y-134635822D01*
X89160789Y-134673847D01*
X88978872Y-134646912D01*
X88925181Y-134633222D01*
X88630617Y-134554598D01*
X88901992Y-134276686D01*
X89073916Y-134087695D01*
X89136710Y-133989860D01*
X89097404Y-133983850D01*
X88963027Y-134070332D01*
X88740612Y-134249974D01*
X88728689Y-134260221D01*
X88497894Y-134479229D01*
X88356737Y-134676087D01*
X88268618Y-134904442D01*
X88255276Y-134954156D01*
X88160798Y-135204793D01*
X88043877Y-135325250D01*
X87913412Y-135308182D01*
X87869986Y-135272206D01*
X87824856Y-135140282D01*
X87836345Y-134933795D01*
X87900489Y-134712388D01*
X87908396Y-134694455D01*
X88002700Y-134557431D01*
X88131737Y-134537625D01*
X88164116Y-134544654D01*
X88284780Y-134555128D01*
X88294552Y-134488535D01*
X88292757Y-134483714D01*
X88334132Y-134386173D01*
X88511614Y-134232937D01*
X88810080Y-134033445D01*
X89057327Y-133874605D01*
X89248221Y-133742953D01*
X89354402Y-133658468D01*
X89366991Y-133641055D01*
X89318910Y-133570413D01*
X89192024Y-133425841D01*
X89012372Y-133236801D01*
X88986148Y-133210140D01*
X88605305Y-132824507D01*
X88930931Y-132839709D01*
X89160690Y-132825499D01*
X89255679Y-132762738D01*
X89215610Y-132662836D01*
X89040200Y-132537200D01*
X88939785Y-132485931D01*
X88623013Y-132335842D01*
X88976596Y-132165855D01*
X89245976Y-132027344D01*
X89511275Y-131875861D01*
X89743937Y-131729748D01*
X89915408Y-131607344D01*
X89997133Y-131526992D01*
X89997653Y-131510018D01*
X89919782Y-131524217D01*
X89746353Y-131595284D01*
X89510807Y-131709088D01*
X89440940Y-131745288D01*
X88921771Y-132018103D01*
X88684236Y-131870564D01*
X88296621Y-131564020D01*
X87913629Y-131140148D01*
X87554752Y-130628115D01*
X87239482Y-130057088D01*
X86987311Y-129456232D01*
X86908136Y-129212923D01*
X86827670Y-128794825D01*
X86804113Y-128312356D01*
X86833251Y-127808750D01*
X86910875Y-127327243D01*
X87032771Y-126911070D01*
X87157050Y-126657779D01*
X87218316Y-126568217D01*
X87214474Y-126608208D01*
X87194372Y-126670564D01*
X87074722Y-127121466D01*
X87005548Y-127575067D01*
X86993702Y-127977170D01*
X87009668Y-128131622D01*
X87179267Y-128796938D01*
X87451695Y-129387799D01*
X87815711Y-129889854D01*
X88260070Y-130288754D01*
X88773530Y-130570147D01*
X88975403Y-130640603D01*
X89282721Y-130732411D01*
X89471732Y-130791479D01*
X89564712Y-130828854D01*
X89583942Y-130855579D01*
X89551697Y-130882701D01*
X89512174Y-130906730D01*
X89449678Y-130963035D01*
X89500072Y-130972846D01*
X89637660Y-130939421D01*
X89836746Y-130866015D01*
X89838191Y-130865412D01*
X90053562Y-130747458D01*
X90296230Y-130575064D01*
X90405725Y-130482975D01*
X90603670Y-130264307D01*
X90839853Y-129940690D01*
X91095542Y-129542950D01*
X91352003Y-129101916D01*
X91590503Y-128648417D01*
X91792307Y-128213280D01*
X91809070Y-128173586D01*
X91952746Y-127855953D01*
X92071079Y-127658743D01*
X92178049Y-127560484D01*
X92218621Y-127544625D01*
X92362824Y-127456230D01*
X92510980Y-127291832D01*
X92538641Y-127250079D01*
X92604565Y-127130225D01*
X92648861Y-127002893D01*
X92674178Y-126839642D01*
X92683166Y-126612035D01*
X92678472Y-126291635D01*
X92664625Y-125897520D01*
X92673667Y-125709693D01*
X92706449Y-125426734D01*
X92756844Y-125097695D01*
X92782484Y-124953820D01*
X92881222Y-124106583D01*
X92887281Y-123537693D01*
X92864093Y-122807585D01*
X93066557Y-122723910D01*
X93214294Y-122639233D01*
X93265400Y-122565399D01*
X93213477Y-122532277D01*
X93103368Y-122552031D01*
X92708930Y-122718977D01*
X92268945Y-122980725D01*
X91821454Y-123310854D01*
X91404494Y-123682943D01*
X91258901Y-123833151D01*
X91066990Y-124046263D01*
X90921225Y-124219218D01*
X90845214Y-124323580D01*
X90839455Y-124338425D01*
X90889030Y-124405426D01*
X91026091Y-124557145D01*
X91233139Y-124775055D01*
X91492674Y-125040628D01*
X91686122Y-125234911D01*
X92532788Y-126079176D01*
X92527614Y-126522116D01*
X92513491Y-126787303D01*
X92482420Y-127009957D01*
X92452859Y-127112303D01*
X92408705Y-127192951D01*
X92406805Y-127145214D01*
X92422836Y-127056242D01*
X92425453Y-126891784D01*
X92326871Y-126793012D01*
X92280460Y-126770041D01*
X92151974Y-126674965D01*
X92088315Y-126510937D01*
X92071995Y-126384363D01*
X92045463Y-126081578D01*
X91984776Y-126324123D01*
X91924089Y-126566669D01*
X91792667Y-126350562D01*
X91681078Y-126189042D01*
X91588066Y-126089468D01*
X91583176Y-126086206D01*
X91463437Y-126083198D01*
X91298736Y-126147596D01*
X91155045Y-126249984D01*
X91119545Y-126292931D01*
X91041674Y-126334360D01*
X91017025Y-126320500D01*
X91005727Y-126231303D01*
X91102097Y-126129818D01*
X91269532Y-126033206D01*
X91471428Y-125958626D01*
X91671182Y-125923237D01*
X91825484Y-125941494D01*
X91925536Y-125940809D01*
X91943803Y-125900621D01*
X91880937Y-125835001D01*
X91711957Y-125729158D01*
X91466293Y-125600401D01*
X91299600Y-125521739D01*
X90816415Y-125301712D01*
X90450992Y-125132652D01*
X90186877Y-125004971D01*
X90007611Y-124909081D01*
X89896740Y-124835396D01*
X89837806Y-124774328D01*
X89814354Y-124716289D01*
X89809942Y-124653863D01*
X89860247Y-124496384D01*
X89999463Y-124272874D01*
X90158441Y-124072352D01*
X90811169Y-123290783D01*
X91373650Y-122561775D01*
X91730037Y-122061570D01*
X91975507Y-121706642D01*
X92156770Y-121461746D01*
X92294515Y-121316605D01*
X92409432Y-121260942D01*
X92522209Y-121284482D01*
X92653536Y-121376947D01*
X92816988Y-121521668D01*
X93002634Y-121678192D01*
X93137597Y-121772176D01*
X93194960Y-121785128D01*
X93195397Y-121781656D01*
X93143278Y-121665945D01*
X93011991Y-121499029D01*
X92839147Y-121319398D01*
X92662353Y-121165541D01*
X92519218Y-121075947D01*
X92499563Y-121069523D01*
X92354617Y-120965092D01*
X92192974Y-120725874D01*
X92133063Y-120610344D01*
X92002183Y-120370021D01*
X91813709Y-120057907D01*
X91596796Y-119721188D01*
X91452113Y-119508247D01*
X91264362Y-119228522D01*
X91116593Y-118988792D01*
X91024920Y-118816553D01*
X91003461Y-118742603D01*
X91052623Y-118756146D01*
G37*
G36*
X88822542Y-132549400D02*
G01*
X88899899Y-132588653D01*
X89182933Y-132737969D01*
X88904536Y-132741223D01*
X88675818Y-132711910D01*
X88582542Y-132630867D01*
X88563166Y-132508623D01*
X88640685Y-132481797D01*
X88822542Y-132549400D01*
G37*
G36*
X88900711Y-120253076D02*
G01*
X88909522Y-120340449D01*
X88900711Y-120351240D01*
X88856942Y-120341134D01*
X88851629Y-120302158D01*
X88878567Y-120241558D01*
X88900711Y-120253076D01*
G37*
%TD*%
D11*
%TO.C,On / Off*%
X67283930Y-54566664D03*
X64283930Y-54516664D03*
D12*
X68033930Y-56366664D03*
X65033930Y-56366664D03*
X63533930Y-56366664D03*
D13*
X61683930Y-54466664D03*
X69633930Y-54466664D03*
%TD*%
D14*
%TO.C,SW33*%
X162246430Y-132181664D03*
D15*
X164401157Y-138101728D03*
X167304877Y-134384415D03*
%TD*%
D14*
%TO.C,SW10*%
X120283930Y-83756664D03*
D15*
X120283930Y-90056664D03*
X124283930Y-87556664D03*
%TD*%
D14*
%TO.C,SW28*%
X175546430Y-102731664D03*
D15*
X175546430Y-109031664D03*
X179546430Y-106531664D03*
%TD*%
D16*
%TO.C,J4*%
X208483930Y-105506664D03*
D17*
X210483930Y-105506664D03*
%TD*%
D14*
%TO.C,SW3*%
X82283930Y-55256664D03*
D15*
X82283930Y-61556664D03*
X86283930Y-59056664D03*
%TD*%
D14*
%TO.C,SW23*%
X175546430Y-83731664D03*
D15*
X175546430Y-90031664D03*
X179546430Y-87531664D03*
%TD*%
D14*
%TO.C,SW20*%
X213658930Y-55231664D03*
D15*
X213658930Y-61531664D03*
X217658930Y-59031664D03*
%TD*%
D14*
%TO.C,SW30*%
X213658930Y-93231664D03*
D15*
X213658930Y-99531664D03*
X217658930Y-97031664D03*
%TD*%
D14*
%TO.C,SW24*%
X194658930Y-83731664D03*
D15*
X194658930Y-90031664D03*
X198658930Y-87531664D03*
%TD*%
D14*
%TO.C,SW27*%
X251658930Y-99881664D03*
D15*
X251658930Y-106181664D03*
X255658930Y-103681664D03*
%TD*%
D14*
%TO.C,SW7*%
X63283930Y-86606664D03*
D15*
X63283930Y-92906664D03*
X67283930Y-90406664D03*
%TD*%
D14*
%TO.C,SW34*%
X185158930Y-129331664D03*
D15*
X184609849Y-135607691D03*
X188812517Y-133465827D03*
%TD*%
D18*
%TO.C,REF\u002A\u002A*%
X132433930Y-55481664D03*
D19*
X132433930Y-55481664D03*
%TD*%
D20*
%TO.C,REF\u002A\u002A*%
X160858930Y-103787914D03*
X160858930Y-105569164D03*
X160858930Y-103194164D03*
X160858930Y-106756664D03*
X160858930Y-104975414D03*
X160858930Y-104381664D03*
X160858930Y-107350414D03*
X160858930Y-106162914D03*
X160858930Y-107944164D03*
%TD*%
D21*
%TO.C,U1*%
X27938930Y-86826664D03*
X30478930Y-86826664D03*
X33018930Y-86826664D03*
X35558930Y-86826664D03*
X38098930Y-86826664D03*
X40638930Y-86826664D03*
X43178930Y-86826664D03*
X43178930Y-70636664D03*
X40638930Y-70636664D03*
X38098930Y-70636664D03*
X35558930Y-70636664D03*
X33018930Y-70636664D03*
X30478930Y-70636664D03*
X27938930Y-70636664D03*
D22*
X29526930Y-80001664D03*
X35241930Y-83176664D03*
%TD*%
D19*
%TO.C,REF\u002A\u002A*%
X56408930Y-55481664D03*
D18*
X56408930Y-55481664D03*
%TD*%
D14*
%TO.C,SW17*%
X133583930Y-132206664D03*
D15*
X131429203Y-138126728D03*
X136043024Y-137145577D03*
%TD*%
D21*
%TO.C,U2*%
X267969117Y-70611664D03*
X265429117Y-70611664D03*
X262889117Y-70611664D03*
X260349117Y-70611664D03*
X257809117Y-70611664D03*
X255269117Y-70611664D03*
X252729117Y-70611664D03*
X252729117Y-86801664D03*
X255269117Y-86801664D03*
X257809117Y-86801664D03*
X260349117Y-86801664D03*
X262889117Y-86801664D03*
X265429117Y-86801664D03*
X267969117Y-86801664D03*
D22*
X266381117Y-77436664D03*
X260666117Y-74261664D03*
%TD*%
D14*
%TO.C,SW1*%
X25283930Y-99906664D03*
D15*
X25283930Y-106206664D03*
X29283930Y-103706664D03*
%TD*%
D14*
%TO.C,SW19*%
X194658930Y-64731664D03*
D15*
X194658930Y-71031664D03*
X198658930Y-68531664D03*
%TD*%
D20*
%TO.C,REF\u002A\u002A*%
X160858930Y-77944164D03*
X160858930Y-73787914D03*
X160858930Y-76162914D03*
X160858930Y-77350414D03*
X160858930Y-74975414D03*
X160858930Y-73194164D03*
X160858930Y-76756664D03*
X160858930Y-75569164D03*
X160858930Y-74381664D03*
%TD*%
D11*
%TO.C,On / Off*%
X228858930Y-54491664D03*
X231858930Y-54541664D03*
D12*
X232608930Y-56341664D03*
X229608930Y-56341664D03*
X228108930Y-56341664D03*
D13*
X234208930Y-54441664D03*
X226258930Y-54441664D03*
%TD*%
D14*
%TO.C,SW13*%
X82283930Y-93256664D03*
D15*
X82283930Y-99556664D03*
X86283930Y-97056664D03*
%TD*%
D14*
%TO.C,SW29*%
X194658930Y-102731664D03*
D15*
X194658930Y-109031664D03*
X198658930Y-106531664D03*
%TD*%
D14*
%TO.C,SW5*%
X120283930Y-64756664D03*
D15*
X120283930Y-71056664D03*
X124283930Y-68556664D03*
%TD*%
D23*
%TO.C,RESET*%
X266033930Y-120256664D03*
X266033930Y-113756664D03*
%TD*%
D14*
%TO.C,SW22*%
X270658930Y-99881664D03*
D15*
X270658930Y-106181664D03*
X274658930Y-103681664D03*
%TD*%
D19*
%TO.C,REF\u002A\u002A*%
X110783930Y-141533493D03*
D18*
X110783930Y-141533493D03*
%TD*%
D16*
%TO.C,J2*%
X85783930Y-105506664D03*
D17*
X87783930Y-105506664D03*
%TD*%
D19*
%TO.C,REF\u002A\u002A*%
X27558930Y-125781664D03*
D18*
X27558930Y-125781664D03*
%TD*%
D14*
%TO.C,SW15*%
X120283930Y-102756664D03*
D15*
X120283930Y-109056664D03*
X124283930Y-106556664D03*
%TD*%
D20*
%TO.C,REF\u002A\u002A*%
X135158930Y-104975414D03*
X135158930Y-105569164D03*
X135158930Y-107944164D03*
X135158930Y-104381664D03*
X135158930Y-107350414D03*
X135158930Y-106756664D03*
X135158930Y-103787914D03*
X135158930Y-106162914D03*
X135158930Y-103194164D03*
%TD*%
D19*
%TO.C,REF\u002A\u002A*%
X132433930Y-117881664D03*
D18*
X132433930Y-117881664D03*
%TD*%
D14*
%TO.C,SW18*%
X175546430Y-64731664D03*
D15*
X175546430Y-71031664D03*
X179546430Y-68531664D03*
%TD*%
D14*
%TO.C,SW25*%
X213658930Y-74231664D03*
D15*
X213658930Y-80531664D03*
X217658930Y-78031664D03*
%TD*%
D14*
%TO.C,SW11*%
X44283930Y-118906664D03*
D15*
X44283930Y-125206664D03*
X48283930Y-122706664D03*
%TD*%
D14*
%TO.C,SW32*%
X251658930Y-118881664D03*
D15*
X251658930Y-125181664D03*
X255658930Y-122681664D03*
%TD*%
D14*
%TO.C,SW12*%
X63283930Y-105606664D03*
D15*
X63283930Y-111906664D03*
X67283930Y-109406664D03*
%TD*%
D14*
%TO.C,SW16*%
X110783930Y-129356664D03*
D15*
X111333011Y-135632691D03*
X115099901Y-132793581D03*
%TD*%
D14*
%TO.C,SW26*%
X232658930Y-86581664D03*
D15*
X232658930Y-92881664D03*
X236658930Y-90381664D03*
%TD*%
D14*
%TO.C,SW4*%
X101283930Y-64756664D03*
D15*
X101283930Y-71056664D03*
X105283930Y-68556664D03*
%TD*%
D14*
%TO.C,SW14*%
X101283930Y-102756664D03*
D15*
X101283930Y-109056664D03*
X105283930Y-106556664D03*
%TD*%
D14*
%TO.C,SW2*%
X63283930Y-67606664D03*
D15*
X63283930Y-73906664D03*
X67283930Y-71406664D03*
%TD*%
D20*
%TO.C,REF\u002A\u002A*%
X135158930Y-77944164D03*
X135158930Y-76162914D03*
X135158930Y-75569164D03*
X135158930Y-76756664D03*
X135158930Y-73787914D03*
X135158930Y-77350414D03*
X135158930Y-74381664D03*
X135158930Y-74975414D03*
X135158930Y-73194164D03*
%TD*%
D23*
%TO.C,RESET*%
X29858930Y-113756664D03*
X29858930Y-120256664D03*
%TD*%
D14*
%TO.C,SW6*%
X44283930Y-99906664D03*
D15*
X44283930Y-106206664D03*
X48283930Y-103706664D03*
%TD*%
D18*
%TO.C,REF\u002A\u002A*%
X185158930Y-141508493D03*
D19*
X185158930Y-141508493D03*
%TD*%
D14*
%TO.C,SW21*%
X232658930Y-67581664D03*
D15*
X232658930Y-73881664D03*
X236658930Y-71381664D03*
%TD*%
D14*
%TO.C,SW9*%
X101283930Y-83756664D03*
D15*
X101283930Y-90056664D03*
X105283930Y-87556664D03*
%TD*%
D14*
%TO.C,SW8*%
X82283930Y-74256664D03*
D15*
X82283930Y-80556664D03*
X86283930Y-78056664D03*
%TD*%
D14*
%TO.C,SW31*%
X232658930Y-105581664D03*
D15*
X232658930Y-111881664D03*
X236658930Y-109381664D03*
%TD*%
D19*
%TO.C,REF\u002A\u002A*%
X268333930Y-125762347D03*
D18*
X268333930Y-125762347D03*
%TD*%
D19*
%TO.C,REF\u002A\u002A*%
X163458930Y-117862347D03*
D18*
X163458930Y-117862347D03*
%TD*%
%TO.C,REF\u002A\u002A*%
X163458930Y-55462347D03*
D19*
X163458930Y-55462347D03*
%TD*%
D18*
%TO.C,REF\u002A\u002A*%
X239483930Y-55462347D03*
D19*
X239483930Y-55462347D03*
%TD*%
M02*
