%TF.GenerationSoftware,KiCad,Pcbnew,(6.0.11)*%
%TF.CreationDate,2023-05-08T18:46:23+08:00*%
%TF.ProjectId,DOOOPE,444f4f4f-5045-42e6-9b69-6361645f7063,Rev 1*%
%TF.SameCoordinates,Original*%
%TF.FileFunction,Paste,Bot*%
%TF.FilePolarity,Positive*%
%FSLAX46Y46*%
G04 Gerber Fmt 4.6, Leading zero omitted, Abs format (unit mm)*
G04 Created by KiCad (PCBNEW (6.0.11)) date 2023-05-08 18:46:23*
%MOMM*%
%LPD*%
G01*
G04 APERTURE LIST*
%ADD10R,1.300000X0.950000*%
G04 APERTURE END LIST*
D10*
%TO.C,D14*%
X108733930Y-109281664D03*
X105183930Y-109281664D03*
%TD*%
%TO.C,D13*%
X89733930Y-99781664D03*
X86183930Y-99781664D03*
%TD*%
%TO.C,D19*%
X202108930Y-71256664D03*
X198558930Y-71256664D03*
%TD*%
%TO.C,D27*%
X259108930Y-100681664D03*
X255558930Y-100681664D03*
%TD*%
%TO.C,D33*%
X172754877Y-132384415D03*
X169204877Y-132384415D03*
%TD*%
%TO.C,D18*%
X182996430Y-71256664D03*
X179446430Y-71256664D03*
%TD*%
%TO.C,D30*%
X221108930Y-99756664D03*
X217558930Y-99756664D03*
%TD*%
%TO.C,D2*%
X70733930Y-74406664D03*
X67183930Y-74406664D03*
%TD*%
%TO.C,D11*%
X51733930Y-119706664D03*
X48183930Y-119706664D03*
%TD*%
%TO.C,D12*%
X70733930Y-112131664D03*
X67183930Y-112131664D03*
%TD*%
%TO.C,D15*%
X127733930Y-109281664D03*
X124183930Y-109281664D03*
%TD*%
%TO.C,D32*%
X259108930Y-119681664D03*
X255558930Y-119681664D03*
%TD*%
%TO.C,D23*%
X182996430Y-90256664D03*
X179446430Y-90256664D03*
%TD*%
%TO.C,D7*%
X70733930Y-93131664D03*
X67183930Y-93131664D03*
%TD*%
%TO.C,D31*%
X240108930Y-106381664D03*
X236558930Y-106381664D03*
%TD*%
%TO.C,D24*%
X202108930Y-90256664D03*
X198558930Y-90256664D03*
%TD*%
%TO.C,D17*%
X133358930Y-127106664D03*
X136908930Y-127106664D03*
%TD*%
%TO.C,D22*%
X278108930Y-100681664D03*
X274558930Y-100681664D03*
%TD*%
%TO.C,D25*%
X221108930Y-80756664D03*
X217558930Y-80756664D03*
%TD*%
%TO.C,D29*%
X202108930Y-109256664D03*
X198558930Y-109256664D03*
%TD*%
%TO.C,D6*%
X51733930Y-100706664D03*
X48183930Y-100706664D03*
%TD*%
%TO.C,D5*%
X127733930Y-71556664D03*
X124183930Y-71556664D03*
%TD*%
%TO.C,D21*%
X240108930Y-74381664D03*
X236558930Y-74381664D03*
%TD*%
%TO.C,D10*%
X127733930Y-90281664D03*
X124183930Y-90281664D03*
%TD*%
%TO.C,D1*%
X32733930Y-100706664D03*
X29183930Y-100706664D03*
%TD*%
%TO.C,D9*%
X108733930Y-90281664D03*
X105183930Y-90281664D03*
%TD*%
%TO.C,D28*%
X182996430Y-109256664D03*
X179446430Y-109256664D03*
%TD*%
%TO.C,D20*%
X221108930Y-61756664D03*
X217558930Y-61756664D03*
%TD*%
%TO.C,D16*%
X112733930Y-125581664D03*
X116283930Y-125581664D03*
%TD*%
%TO.C,D3*%
X89733930Y-62056664D03*
X86183930Y-62056664D03*
%TD*%
%TO.C,D8*%
X89733930Y-80781664D03*
X86183930Y-80781664D03*
%TD*%
%TO.C,D34*%
X194262517Y-131465827D03*
X190712517Y-131465827D03*
%TD*%
%TO.C,D26*%
X240108930Y-87381664D03*
X236558930Y-87381664D03*
%TD*%
%TO.C,D4*%
X108733930Y-71556664D03*
X105183930Y-71556664D03*
%TD*%
M02*
